<svg width="400" height="400" viewBox="0 0 400 400" fill="none" xmlns="http://www.w3.org/2000/svg">
<path fill-rule="evenodd" clip-rule="evenodd" d="M200 0L400 200L200 400L0 200L200 0ZM18.6676 200L44.5669 225.899L70.4662 200L44.5669 174.101L18.6676 200ZM64.5669 245.899L53.9007 235.233L89.1338 200L53.9007 164.767L64.5669 154.101L110.466 200L64.5669 245.899ZM84.5669 265.899L73.9007 255.233L129.134 200L73.9007 144.767L84.5669 134.101L150.466 200L84.5669 265.899ZM104.567 285.899L93.9007 275.233L169.134 200L93.9007 124.767L104.567 114.101L190.466 200L104.567 285.899ZM200 381.332L113.901 295.233L122.3 286.834L200 364.534L277.6 286.934L285.999 295.333L200 381.332ZM268.266 277.6L200 345.866L131.634 277.5L142.3 266.834L200 324.534L257.6 266.934L268.266 277.6ZM248.266 257.6L200 305.866L151.634 257.5L162.3 246.834L200 284.534L237.6 246.934L248.266 257.6ZM228.266 237.6L199.9 209.234L171.634 237.5L200 265.866L228.266 237.6ZM355.333 225.999L381.332 200L355.333 174.001L329.334 200L355.333 225.999ZM345.999 235.333L310.666 200L345.999 164.667L335.333 154.001L289.334 200L335.333 245.999L345.999 235.333ZM325.999 255.333L270.666 200L325.999 144.667L315.333 134.001L249.334 200L315.333 265.999L325.999 255.333ZM295.333 285.999L305.999 275.333L230.666 200L305.999 124.667L295.333 114.001L209.334 200L295.333 285.999ZM285.999 104.667L200 18.6676L113.901 104.767L122.3 113.166L200 35.4662L277.6 113.066L285.999 104.667ZM200 54.1338L131.634 122.5L142.3 133.166L200 75.4662L257.6 133.066L268.266 122.4L200 54.1338ZM200 94.1338L151.634 142.5L162.3 153.166L200 115.466L237.6 153.066L248.266 142.4L200 94.1338ZM199.9 190.766L171.634 162.5L200 134.134L228.266 162.4L199.9 190.766Z" fill="#FFFDFD"/>
</svg>
