<svg width="7437" height="5288" viewBox="0 0 7437 5288" fill="none" xmlns="http://www.w3.org/2000/svg">
<g clip-path="url(#clip0_13_5)">
<path d="M631.998 278.211C648.145 294.192 648.145 294.192 648.145 318.163C670.403 325.066 670.403 325.066 696.585 326.154C710.205 315.707 723.66 305.045 736.952 294.192C759.153 288.698 759.153 288.698 785.392 294.192C837.06 325.78 883.957 366.034 909.015 421.54C917.275 457.957 920.449 488.766 904.978 523.419C902.813 529.517 900.649 535.615 898.418 541.897C909.263 558.65 909.263 558.65 922.639 573.859C922.639 584.406 922.639 594.954 922.639 605.821C930.798 606.645 938.957 607.469 947.363 608.318C990.397 615.755 1023.28 629.613 1059.89 653.764C1068.38 654.258 1076.87 654.753 1085.62 655.262C1127.75 664.148 1152.49 686.375 1180.99 717.688C1204.78 754.644 1202.15 795.225 1197.13 837.545C1179.27 874.205 1160.42 890.734 1124.47 909.46C1119.14 914.733 1113.82 920.007 1108.33 925.44C1114.65 927.748 1120.98 930.055 1127.5 932.432C1148.69 941.421 1148.69 941.421 1164.84 957.402C1164.65 974.694 1164.65 974.694 1161.81 994.358C1160.92 1000.89 1160.02 1007.42 1159.1 1014.15C1158.33 1019.15 1157.56 1024.16 1156.77 1029.32C1162.59 1029.81 1168.42 1030.31 1174.43 1030.82C1204.07 1039.29 1217.13 1054.86 1237.5 1077.26C1240.16 1079.9 1242.83 1082.53 1245.57 1085.25C1247.62 1079.85 1249.67 1074.46 1251.79 1068.89C1255.95 1058.2 1255.95 1058.2 1260.21 1047.3C1262.92 1040.25 1265.64 1033.2 1268.44 1025.95C1277.61 1005.9 1288.08 990.381 1302.09 973.383C1316.82 976.597 1316.82 976.597 1331.86 979.876C1349.54 982.691 1349.54 982.691 1366.67 981.374C1389.38 963.561 1389.38 963.561 1407.04 941.421C1442.91 919.216 1479.08 921.455 1520.07 925.44C1556.58 937.033 1579.07 955.151 1600.55 986.961C1614.8 1018.44 1618.08 1051.32 1622.12 1085.34C1625.39 1113.8 1625.39 1113.8 1633.09 1141.18C1653.2 1151.54 1653.2 1151.54 1673.46 1157.16C1685.31 1212.23 1679.76 1245.43 1649.24 1293C1656.73 1292.67 1664.23 1292.34 1671.95 1292C1697.68 1293 1697.68 1293 1721.9 1308.98C1721.9 1314.26 1721.9 1319.53 1721.9 1324.96C1761.86 1324.96 1801.83 1324.96 1843 1324.96C1843 1330.24 1843 1335.51 1843 1340.95C1810.76 1343.1 1778.52 1345.23 1746.27 1347.33C1730.18 1348.39 1714.1 1349.47 1698.01 1350.54C1662.93 1352.86 1627.83 1354.9 1592.73 1356.93C1586.77 1357.28 1580.81 1357.64 1574.67 1358.01C1418.06 1367.08 1261.36 1365.97 1104.55 1365.73C1065.67 1365.68 1026.8 1365.67 987.925 1365.66C914.62 1365.64 841.315 1365.57 768.01 1365.49C684.423 1365.4 600.836 1365.36 517.249 1365.32C345.592 1365.24 173.934 1365.1 2.2769 1364.92C2.2769 1359.64 2.2769 1354.37 2.2769 1348.94C12.8921 1348.63 12.8921 1348.63 23.7217 1348.31C125.695 1343.8 224.859 1326.89 325.211 1308.98C298.786 1295.91 269.454 1299.05 240.378 1298.47C233.591 1298.3 226.804 1298.13 219.812 1297.96C198.096 1297.44 176.379 1296.97 154.661 1296.5C139.955 1296.15 125.248 1295.81 110.542 1295.45C74.4543 1294.6 38.366 1293.79 2.2769 1293C-0.387302 1287.73 -3.05151 1282.46 -5.79644 1277.02C-80.3942 1277.02 -154.992 1277.02 -231.85 1277.02C-231.85 1284.93 -231.85 1292.84 -231.85 1300.99C-245.171 1300.99 -258.492 1300.99 -272.217 1300.99C-272.217 1306.27 -272.217 1311.54 -272.217 1316.97C-282.874 1316.97 -293.531 1316.97 -304.51 1316.97C-307.174 1306.43 -309.839 1295.88 -312.584 1285.01C-352.547 1282.38 -392.51 1279.74 -433.684 1277.02C-433.684 1271.75 -433.684 1266.47 -433.684 1261.04C-438.846 1258.73 -444.008 1256.43 -449.326 1254.05C-465.977 1245.06 -465.977 1245.06 -474.051 1229.08C-478.912 1192.35 -482.673 1156.28 -463.801 1123.24C-447.122 1103.92 -432.532 1088.68 -409.464 1077.26C-411.961 1072.32 -414.459 1067.37 -417.033 1062.28C-436.159 1024.42 -439.876 989.227 -429.143 947.914C-401.298 913.166 -369.437 892.316 -324.694 886.487C-292.627 884.473 -263.346 887.509 -231.85 893.479C-231.85 888.205 -231.85 882.931 -231.85 877.498C-187.813 873.05 -164.351 879.603 -130.492 905.901C-114.935 921.299 -108.119 936.456 -102.677 957.402C-97.3482 957.402 -92.0198 957.402 -86.5299 957.402C-86.5299 949.492 -86.5299 941.581 -86.5299 933.431C-78.5373 928.157 -70.5447 922.884 -62.3099 917.45C-55.879 902.422 -55.879 902.422 -51.7136 884.989C-27.1188 806.942 20.0279 756.919 90.7369 716.689C123.006 703.01 153.761 703.409 187.964 709.697C235.569 732.689 276.172 764.691 317.137 797.593C314.473 792.319 311.809 787.045 309.064 781.612C304.981 739.181 304.981 739.181 309.064 717.688C327.734 704.204 327.734 704.204 349.431 693.716C364.027 673.212 364.027 673.212 373.651 653.764C369.655 648.655 365.658 643.546 361.541 638.282C345.373 605.611 342.216 577.668 349.431 541.897C368.605 518.425 368.605 518.425 389.798 501.945C395.126 496.671 400.454 491.397 405.944 485.964C405.611 477.229 405.278 468.494 404.935 459.495C406.192 422.804 411.549 415.235 438.238 390.078C458.62 375.601 479.3 361.648 500.112 347.784C521.387 332.397 535.616 315.041 551.265 294.192C577.515 276.005 600.435 275.494 631.998 278.211Z" fill="#596B85"/>
<path d="M631.998 278.211C648.145 294.192 648.145 294.192 648.145 318.163C670.404 325.066 670.404 325.066 696.585 326.154C710.205 315.707 723.66 305.045 736.952 294.192C763.695 292.194 763.695 292.194 785.392 294.192C788.056 302.102 790.72 310.013 793.465 318.163C785.472 318.163 777.48 318.163 769.245 318.163C768.943 323.077 768.641 327.99 768.33 333.052C767.534 342.739 767.534 342.739 766.722 352.622C766.254 359.019 765.785 365.415 765.303 372.005C760.444 393.259 753.308 400.008 736.952 414.049C721.682 438.707 720.805 447.395 720.805 477.973C726.446 478.457 732.086 478.941 737.898 479.44C745.245 480.11 752.592 480.779 760.162 481.469C767.468 482.118 774.774 482.767 782.301 483.435C801.538 485.964 801.538 485.964 817.685 493.954C817.685 501.865 817.685 509.775 817.685 517.926C764.199 549.887 764.199 549.887 736.952 549.887C734.287 555.161 731.623 560.435 728.878 565.868C719.72 570.318 710.562 574.768 701.126 579.352C676.198 593.031 672.777 596.929 660.255 624.299C656.044 655.032 658.047 679.416 664.291 709.697C669.62 709.697 674.948 709.697 680.438 709.697C696.585 709.697 712.732 709.697 728.878 709.697C728.878 720.245 728.878 730.792 728.878 741.659C733.707 743.472 738.536 745.285 743.511 747.153C766.191 760.621 774.355 774.021 785.392 797.593C782.728 805.503 780.063 813.414 777.318 821.564C771.99 816.29 766.662 811.017 761.172 805.583C732.241 804.25 732.241 804.25 704.658 805.583C696.666 821.404 696.666 821.404 688.512 837.545C696.504 840.182 704.497 842.819 712.732 845.536C696.585 853.526 696.585 853.526 665.805 851.528C636.329 850.948 633.514 852.196 609.796 873.003C603.802 879.76 597.807 886.517 591.631 893.478C572.962 899.971 572.962 899.971 559.338 901.469C564.833 908.556 570.328 915.642 575.989 922.943C591.631 949.412 591.631 949.412 589.613 972.385C586.616 980.79 586.616 980.79 583.558 989.364C578.594 988.211 573.63 987.057 568.515 985.868C558.727 983.644 558.727 983.644 548.742 981.374C539.048 979.149 539.048 979.149 529.158 976.879C510.034 972.625 510.034 972.625 486.678 973.383C481.349 960.199 476.021 947.015 470.531 933.431C457.543 933.678 457.543 933.678 444.293 933.93C414.018 933.431 414.018 933.431 399.606 929.529C334.084 914.547 247.796 917.002 187.964 949.412C167.54 966.965 160.289 978.831 155.671 1005.35C162.831 1004.36 169.991 1003.37 177.368 1002.35C206.536 1005.62 209.459 1007.45 227.322 1028.32C244.477 1053.29 244.477 1053.29 244.477 1069.27C238.327 1068.62 232.176 1067.97 225.839 1067.3C175.911 1064.28 145.292 1065.79 105.212 1097.24C94.9189 1106.34 84.7476 1115.59 74.9371 1125.2C44.0313 1110.78 44.0313 1110.78 31.5428 1096.74C-2.27868 1067.12 -62.8291 1076.32 -105.704 1076.76C-112.417 1076.8 -119.129 1076.83 -126.045 1076.87C-142.476 1076.96 -158.906 1077.11 -175.337 1077.26C-180.504 1066.26 -180.504 1066.26 -185.775 1055.04C-225.819 980.305 -301.575 954.128 -377.17 925.44C-371.21 909.865 -371.21 909.865 -361.024 893.478C-319.514 879.672 -274.03 885.484 -231.85 893.478C-231.85 888.205 -231.85 882.931 -231.85 877.497C-187.813 873.05 -164.351 879.603 -130.492 905.901C-114.935 921.299 -108.119 936.456 -102.677 957.402C-97.3482 957.402 -92.0198 957.402 -86.5299 957.402C-86.5299 949.492 -86.5299 941.581 -86.5299 933.431C-78.5373 928.157 -70.5447 922.883 -62.3098 917.45C-55.879 902.422 -55.879 902.422 -51.7136 884.989C-27.1187 806.942 20.028 756.919 90.7369 716.689C123.006 703.01 153.762 703.409 187.964 709.697C235.569 732.689 276.172 764.691 317.138 797.593C314.473 792.319 311.809 787.045 309.064 781.612C304.981 739.181 304.981 739.181 309.064 717.688C327.734 704.204 327.734 704.204 349.431 693.716C364.027 673.212 364.027 673.212 373.651 653.764C369.655 648.655 365.658 643.546 361.541 638.282C345.373 605.611 342.216 577.668 349.431 541.897C368.605 518.425 368.605 518.425 389.798 501.945C395.126 496.671 400.454 491.397 405.944 485.964C405.611 477.229 405.278 468.494 404.935 459.495C406.192 422.804 411.549 415.235 438.238 390.078C458.62 375.601 479.3 361.648 500.112 347.784C521.387 332.397 535.616 315.041 551.265 294.192C577.516 276.005 600.435 275.494 631.998 278.211Z" fill="#FAF5EC"/>
<path d="M1302.09 973.384C1334.11 977.806 1361.16 984.963 1390.89 997.355C1396.22 998.179 1401.55 999.003 1407.04 999.852C1433.09 1008.72 1446.37 1024.51 1463.55 1045.3C1466.08 1067.77 1466.08 1067.77 1463.55 1085.25C1427.59 1089.21 1427.59 1089.21 1390.89 1093.24C1388.23 1101.15 1385.56 1109.06 1382.82 1117.21C1378.82 1129.08 1378.82 1129.08 1374.75 1141.18C1370.58 1138.55 1366.42 1135.91 1362.13 1133.19C1306.26 1110.51 1238.18 1131.65 1180.99 1141.18C1178.32 1149.09 1175.66 1157 1172.91 1165.16C1167.58 1165.16 1162.26 1165.16 1156.77 1165.16C1155.6 1171.42 1154.43 1177.68 1153.23 1184.13C1148.69 1205.11 1148.69 1205.11 1140.62 1221.09C1168.59 1217.13 1168.59 1217.13 1197.13 1213.1C1199.8 1226.28 1202.46 1239.47 1205.21 1253.05C1186.56 1258.32 1167.91 1263.6 1148.69 1269.03C1144.2 1264.09 1139.7 1259.14 1135.07 1254.05C1095.97 1218.49 1045.97 1214.26 995.298 1205.11C995.298 1199.83 995.298 1194.56 995.298 1189.13C1003.29 1189.13 1011.28 1189.13 1019.52 1189.13C1019.52 1183.85 1019.52 1178.58 1019.52 1173.15C995.541 1170.51 971.563 1167.87 946.858 1165.16C943.532 1131.58 942.351 1115.04 963.51 1087.75C1014.47 1048.04 1048.66 1032.06 1112.87 1033.81C1118.75 1033.75 1124.64 1033.7 1130.7 1033.64C1169.16 1034.09 1196.25 1040.29 1229.43 1061.28C1234.75 1069.19 1240.08 1077.1 1245.57 1085.25C1248.65 1077.15 1248.65 1077.15 1251.78 1068.89C1254.56 1061.77 1257.34 1054.64 1260.21 1047.3C1262.92 1040.25 1265.64 1033.2 1268.44 1025.95C1277.61 1005.9 1288.08 990.381 1302.09 973.384Z" fill="#F2E5DB"/>
<path d="M-231.85 877.497C-187.813 873.05 -164.351 879.602 -130.492 905.901C-114.935 921.298 -108.119 936.456 -102.677 957.402C-97.3482 957.402 -92.0198 957.402 -86.5299 957.402C-86.5299 949.491 -86.5299 941.581 -86.5299 933.431C-78.5373 930.794 -70.5447 928.157 -62.3099 925.44C-56.9815 962.356 -51.6531 999.272 -46.1632 1037.31C-32.8422 1039.94 -19.5211 1042.58 -5.79644 1045.3C10.0116 1051.74 25.658 1058.58 41.1299 1065.77C52.9471 1071.23 52.9471 1071.23 65.003 1076.79C70.9455 1079.58 76.8879 1082.37 83.0104 1085.25C83.0104 1077.34 83.0104 1069.43 83.0104 1061.28C106.988 1050.73 130.966 1040.18 155.67 1029.32C155.67 1034.59 155.67 1039.86 155.67 1045.3C164.329 1045.13 172.988 1044.97 181.909 1044.8C205.305 1045.18 222.567 1046.35 244.477 1053.29C244.477 1058.56 244.477 1063.84 244.477 1069.27C238.327 1068.62 232.176 1067.97 225.839 1067.3C175.911 1064.28 145.292 1065.79 105.212 1097.24C94.9188 1106.34 84.7475 1115.59 74.937 1125.2C44.0312 1110.78 44.0312 1110.78 31.5428 1096.74C-2.27872 1067.12 -62.8291 1076.32 -105.704 1076.76C-112.417 1076.8 -119.129 1076.83 -126.045 1076.87C-142.476 1076.96 -158.906 1077.11 -175.337 1077.26C-178.781 1069.93 -182.226 1062.59 -185.775 1055.04C-225.819 980.305 -301.575 954.128 -377.17 925.44C-371.21 909.865 -371.21 909.865 -361.024 893.478C-319.514 879.672 -274.03 885.484 -231.85 893.478C-231.85 888.204 -231.85 882.931 -231.85 877.497Z" fill="#F8EEE1"/>
<path d="M341.357 1316.97C319.057 1339.05 299.319 1337.58 268.697 1340.95C435.661 1341.32 602.625 1341.6 769.59 1341.77C847.128 1341.86 924.667 1341.97 1002.2 1342.15C1069.85 1342.31 1137.5 1342.41 1205.14 1342.45C1240.9 1342.47 1276.66 1342.52 1312.42 1342.64C1346.2 1342.75 1379.99 1342.78 1413.77 1342.75C1426.05 1342.76 1438.33 1342.79 1450.61 1342.85C1528.86 1343.23 1605 1338.17 1682.67 1328.55C1718.09 1324.47 1751.88 1323.33 1787.5 1323.97C1795.75 1324.07 1795.75 1324.07 1804.18 1324.18C1817.12 1324.37 1830.06 1324.65 1843 1324.96C1843 1330.24 1843 1335.51 1843 1340.95C1810.76 1343.1 1778.52 1345.23 1746.27 1347.33C1730.18 1348.39 1714.1 1349.47 1698.01 1350.54C1662.93 1352.86 1627.83 1354.9 1592.73 1356.93C1583.79 1357.46 1583.79 1357.46 1574.67 1358.01C1418.06 1367.08 1261.36 1365.97 1104.55 1365.73C1065.67 1365.68 1026.8 1365.67 987.925 1365.66C914.62 1365.64 841.314 1365.57 768.009 1365.49C684.423 1365.4 600.836 1365.36 517.249 1365.32C345.592 1365.24 173.934 1365.1 2.27686 1364.92C2.27686 1359.64 2.27686 1354.37 2.27686 1348.94C12.892 1348.63 12.892 1348.63 23.7217 1348.31C104.294 1344.75 182.092 1333.63 261.428 1319.25C269.468 1317.82 277.507 1316.39 285.79 1314.91C293.001 1313.58 300.212 1312.25 307.641 1310.88C325.211 1308.98 325.211 1308.98 341.357 1316.97Z" fill="#3D4355"/>
<path d="M309.064 717.688C321.174 727.676 321.174 727.676 333.284 741.659C333.284 752.207 333.284 762.754 333.284 773.621C338.061 772.581 342.838 771.541 347.76 770.469C367.775 767.011 385.621 764.689 405.944 765.631C430.669 785.108 430.669 785.108 446.311 805.583C443.647 813.494 440.983 821.404 438.238 829.555C454.223 829.555 470.208 829.555 486.678 829.555C486.678 834.828 486.678 840.102 486.678 845.536C473.357 845.536 460.036 845.536 446.311 845.536C440.983 856.083 435.654 866.631 430.164 877.498C434.845 876.159 439.526 874.821 444.348 873.442C472.584 867.307 500.485 870.829 529.063 873.003C535.078 873.42 541.094 873.837 547.291 874.267C562.075 875.299 576.854 876.392 591.631 877.498C587.635 889.364 587.635 889.364 583.558 901.469C575.565 901.469 567.573 901.469 559.338 901.469C567.58 912.099 567.58 912.099 575.989 922.944C591.631 949.412 591.631 949.412 589.613 972.385C587.615 977.988 585.617 983.591 583.558 989.365C578.594 988.211 573.63 987.057 568.515 985.869C558.727 983.644 558.727 983.644 548.742 981.374C539.048 979.149 539.048 979.149 529.158 976.879C510.034 972.625 510.034 972.625 486.678 973.384C481.35 960.199 476.021 947.015 470.531 933.431C461.873 933.596 453.214 933.761 444.293 933.93C414.018 933.431 414.018 933.431 399.606 929.529C334.084 914.547 247.796 917.002 187.964 949.412C168.697 966.283 158.122 982.108 147.597 1005.35C140.055 981.292 139.165 974.45 147.597 949.412C152.926 949.412 158.254 949.412 163.744 949.412C163.744 944.138 163.744 938.865 163.744 933.431C186.013 913.84 208.749 903.835 236.404 893.479C239.068 890.842 241.733 888.205 244.478 885.488C257.675 884.793 270.903 884.633 284.119 884.708C296.1 884.746 296.1 884.746 308.323 884.786C316.727 884.853 325.131 884.92 333.789 884.989C346.441 885.043 346.441 885.043 359.349 885.098C380.264 885.193 401.177 885.324 422.091 885.488C417.366 876.486 412.642 867.483 407.774 858.208C405.116 853.144 402.458 848.08 399.72 842.863C382.878 820.273 359.985 818.468 333.284 813.574C317.138 805.583 317.138 805.583 309.064 781.612C308.032 760.246 308.71 739.095 309.064 717.688Z" fill="#F9E5DA"/>
<path d="M785.392 294.192C788.056 302.102 790.72 310.013 793.465 318.163C785.472 318.163 777.48 318.163 769.245 318.163C768.943 323.076 768.641 327.99 768.33 333.052C767.8 339.51 767.269 345.968 766.722 352.622C766.254 359.019 765.785 365.415 765.303 372.005C760.444 393.259 753.308 400.008 736.952 414.049C721.682 438.707 720.805 447.395 720.805 477.973C726.445 478.457 732.086 478.941 737.898 479.44C745.245 480.109 752.592 480.779 760.162 481.469C767.468 482.118 774.774 482.767 782.301 483.435C801.538 485.963 801.538 485.963 817.685 493.954C817.685 501.865 817.685 509.775 817.685 517.925C764.199 549.887 764.199 549.887 736.952 549.887C734.287 555.161 731.623 560.435 728.878 565.868C719.72 570.318 710.562 574.768 701.126 579.352C676.198 593.031 672.777 596.929 660.255 624.299C656.044 655.032 658.047 679.415 664.291 709.697C669.62 709.697 674.948 709.697 680.438 709.697C696.585 709.697 712.732 709.697 728.878 709.697C728.878 720.245 728.878 730.792 728.878 741.659C734.207 744.296 739.535 746.933 745.025 749.65C718.383 749.65 691.741 749.65 664.291 749.65C664.291 754.923 664.291 760.197 664.291 765.631C644.613 762.634 644.613 762.634 623.925 757.64C611.055 732.164 615.03 704.671 615.347 676.736C615.383 670.711 615.42 664.685 615.457 658.477C615.552 643.588 615.697 628.7 615.851 613.811C605.195 613.811 594.538 613.811 583.558 613.811C586.843 594.957 590.809 582.973 602.228 567.367C608.971 562.67 608.971 562.67 615.851 557.878C620.753 559.474 625.655 561.071 630.705 562.716C648.792 567.865 648.792 567.865 665.427 556.442C671.047 551.972 676.666 547.501 682.456 542.896C688.16 538.467 693.863 534.037 699.738 529.474C704.026 525.663 708.314 521.852 712.732 517.925C712.732 515.289 712.732 512.652 712.732 509.935C707.57 508.781 702.408 507.628 697.089 506.439C680.438 501.944 680.438 501.944 672.365 493.954C667.591 460.096 670.662 448.38 691.034 420.042C712.732 398.068 712.732 398.068 736.952 382.087C736.952 374.177 736.952 366.266 736.952 358.116C715.638 358.116 694.324 358.116 672.365 358.116C669.701 347.568 667.036 337.021 664.291 326.154C670.286 325.33 676.28 324.506 682.456 323.657C704.938 319.729 704.938 319.729 720.3 305.678C742.581 290.308 758.859 292.401 785.392 294.192Z" fill="#CBC6D2"/>
<path d="M1210.76 1046.8C1232.3 1063.5 1236.87 1076.04 1245.57 1101.23C1257.56 1105.19 1257.56 1105.19 1269.79 1109.22C1269.79 1111.86 1269.79 1114.5 1269.79 1117.21C1245.22 1117.87 1228.85 1117.02 1205.21 1109.22C1197.71 1111.69 1190.22 1114.17 1182.5 1116.71C1156.06 1125.43 1135.96 1126.51 1108.33 1125.2C1105.66 1133.11 1103 1141.02 1100.25 1149.17C1086.93 1149.17 1073.61 1149.17 1059.89 1149.17C1057.22 1157.08 1054.56 1165 1051.81 1173.15C1033.16 1170.51 1014.51 1167.87 995.299 1165.16C992.508 1126.48 998.021 1101.94 1019.52 1069.27C1037.18 1062.28 1037.18 1062.28 1051.81 1061.28C1051.81 1056.01 1051.81 1050.73 1051.81 1045.3C1101.97 1028.75 1160.79 1030.87 1210.76 1046.8Z" fill="#F4E9DB"/>
<path d="M-231.85 877.497C-229.186 882.771 -226.522 888.045 -223.777 893.478C-218.448 894.797 -213.12 896.115 -207.63 897.474C-202.302 898.792 -196.973 900.111 -191.483 901.469C-188.819 906.743 -186.155 912.016 -183.41 917.45C-212.716 912.176 -242.023 906.902 -272.217 901.469C-268.507 939.755 -268.507 939.755 -250.646 954.125C-245.109 957.679 -239.573 961.232 -233.868 964.893C-211.381 980.262 -193.704 994.51 -176.85 1015.83C-160.927 1039.11 -160.927 1039.11 -134.97 1045.3C-123.773 1046.1 -112.546 1046.53 -101.321 1046.7C-94.7693 1046.89 -88.2181 1047.08 -81.4683 1047.28C-67.8465 1047.62 -54.2222 1047.87 -40.597 1048.03C8.54841 1049.68 40.3934 1060.88 83.0104 1085.25C83.0104 1077.34 83.0104 1069.43 83.0104 1061.28C106.988 1050.73 130.966 1040.18 155.67 1029.32C155.67 1034.59 155.67 1039.86 155.67 1045.3C164.329 1045.13 172.988 1044.97 181.909 1044.8C205.305 1045.18 222.567 1046.35 244.477 1053.29C244.477 1058.56 244.477 1063.84 244.477 1069.27C238.327 1068.62 232.176 1067.97 225.839 1067.3C175.911 1064.28 145.292 1065.79 105.212 1097.24C94.9188 1106.34 84.7475 1115.59 74.937 1125.2C44.0312 1110.78 44.0312 1110.78 31.5428 1096.74C-2.27872 1067.12 -62.8291 1076.32 -105.704 1076.76C-112.417 1076.8 -119.129 1076.83 -126.045 1076.87C-142.476 1076.96 -158.906 1077.11 -175.337 1077.26C-178.781 1069.93 -182.226 1062.59 -185.775 1055.04C-225.819 980.305 -301.575 954.128 -377.17 925.44C-371.21 909.865 -371.21 909.865 -361.024 893.478C-319.514 879.672 -274.03 885.484 -231.85 893.478C-231.85 888.205 -231.85 882.931 -231.85 877.497Z" fill="#DFBBAE"/>
<path d="M1063.42 1039.3C1067.58 1041.28 1071.74 1043.26 1076.03 1045.3C1068.04 1045.3 1060.05 1045.3 1051.81 1045.3C1051.81 1050.57 1051.81 1055.84 1051.81 1061.28C1041.16 1063.92 1030.5 1066.55 1019.52 1069.27C1011.53 1100.91 1003.53 1132.55 995.299 1165.15C1013.95 1167.79 1032.6 1170.43 1051.81 1173.15C1054.48 1162.6 1057.14 1152.05 1059.89 1141.18C1066.38 1141.35 1072.87 1141.51 1079.56 1141.68C1099.72 1143.55 1099.72 1143.55 1108.33 1133.19C1121.78 1132.87 1135.24 1132.85 1148.69 1133.19C1147.53 1138.8 1146.36 1144.4 1145.16 1150.17C1140.5 1173.75 1136.45 1197.38 1132.55 1221.09C1164.52 1217.13 1164.52 1217.13 1197.13 1213.1C1199.8 1226.28 1202.46 1239.47 1205.21 1253.05C1186.56 1258.32 1167.91 1263.6 1148.69 1269.03C1144.2 1264.09 1139.7 1259.14 1135.07 1254.05C1095.97 1218.49 1045.97 1214.26 995.299 1205.11C995.299 1199.83 995.299 1194.56 995.299 1189.13C1003.29 1189.13 1011.28 1189.13 1019.52 1189.13C1019.52 1183.85 1019.52 1178.58 1019.52 1173.15C995.541 1170.51 971.563 1167.87 946.859 1165.15C943.532 1131.58 942.351 1115.03 963.51 1087.75C1030.03 1035.92 1030.03 1035.92 1063.42 1039.3Z" fill="#F9E9DA"/>
<path d="M341.357 1316.97C325.211 1332.96 325.211 1332.96 196.037 1348.94C795.483 1352.89 795.483 1352.89 1407.04 1356.93C1407.04 1359.56 1407.04 1362.2 1407.04 1364.92C943.468 1364.92 479.896 1364.92 2.27686 1364.92C2.27686 1359.64 2.27686 1354.37 2.27686 1348.94C12.892 1348.63 12.892 1348.63 23.7217 1348.31C104.294 1344.75 182.093 1333.63 261.428 1319.25C269.468 1317.82 277.507 1316.39 285.79 1314.91C293.001 1313.58 300.212 1312.25 307.641 1310.88C325.211 1308.98 325.211 1308.98 341.357 1316.97Z" fill="#272B3E"/>
<path d="M728.878 517.926C727.869 531.41 727.869 531.41 720.805 549.888C708.337 559.4 695.867 568.91 683.371 578.385C664.769 597.746 665.786 620.142 664.291 645.774C661.627 648.411 658.963 651.048 656.218 653.764C658.538 672.458 661.218 691.111 664.291 709.698C669.62 709.698 674.948 709.698 680.438 709.698C696.585 709.698 712.732 709.698 728.878 709.698C728.878 720.245 728.878 730.793 728.878 741.66C734.207 744.297 739.535 746.933 745.025 749.65C718.383 749.65 691.741 749.65 664.291 749.65C664.291 754.924 664.291 760.198 664.291 765.631C644.613 762.635 644.613 762.635 623.925 757.641C611.055 732.165 615.03 704.672 615.347 676.737C615.383 670.711 615.42 664.686 615.457 658.477C615.552 643.589 615.697 628.7 615.851 613.812C605.195 613.812 594.538 613.812 583.558 613.812C586.843 594.957 590.809 582.974 602.228 567.367C606.723 564.236 611.219 561.105 615.851 557.878C620.774 559.485 625.696 561.092 630.768 562.748C648.784 567.914 648.784 567.914 664.859 556.162C670.333 551.619 675.807 547.077 681.447 542.397C711.297 517.926 711.297 517.926 728.878 517.926Z" fill="#DBD4D8"/>
<path d="M-209.442 1268.12C-199.675 1268.17 -189.909 1268.21 -179.847 1268.25C-169.309 1268.28 -158.772 1268.3 -147.916 1268.33C-136.705 1268.4 -125.493 1268.46 -114.282 1268.53C-103.039 1268.57 -91.7967 1268.61 -80.5539 1268.64C-52.9433 1268.74 -25.3335 1268.87 2.27676 1269.03C2.27676 1274.31 2.27676 1279.58 2.27676 1285.01C103.517 1287.65 204.756 1290.29 309.064 1293C309.064 1295.64 309.064 1298.28 309.064 1300.99C255.78 1300.99 202.496 1300.99 147.597 1300.99C147.597 1306.27 147.597 1311.54 147.597 1316.97C115.189 1327.67 84.5098 1326.56 50.7168 1324.96C42.7242 1319.69 34.7316 1314.42 26.4968 1308.98C2.53166 1305.32 2.53166 1305.32 -23.457 1303.99C-32.2302 1303.39 -41.0033 1302.8 -50.0423 1302.18C-56.7549 1301.79 -63.4674 1301.4 -70.3834 1300.99C-70.3834 1295.72 -70.3834 1290.45 -70.3834 1285.01C-94.3612 1285.01 -118.339 1285.01 -143.043 1285.01C-143.043 1290.29 -143.043 1295.56 -143.043 1300.99C-170.673 1310.11 -192.184 1309.77 -221.254 1309.48C-235.538 1309.38 -235.538 1309.38 -250.11 1309.26C-257.405 1309.17 -264.701 1309.08 -272.217 1308.98C-272.217 1306.35 -272.217 1303.71 -272.217 1300.99C-258.896 1300.99 -245.575 1300.99 -231.85 1300.99C-234.515 1293.08 -237.179 1285.17 -239.924 1277.02C-231.85 1269.03 -231.85 1269.03 -209.442 1268.12Z" fill="#38414E"/>
<path d="M123.377 1005.35C143.056 1013.34 143.056 1013.34 155.671 1021.33C155.671 1016.05 155.671 1010.78 155.671 1005.35C177.872 1002.85 177.872 1002.85 204.111 1005.35C223.285 1025.32 223.285 1025.32 236.404 1045.3C233.74 1050.57 231.076 1055.85 228.331 1061.28C219.589 1059.3 219.589 1059.3 210.67 1057.28C189.06 1053.48 169.48 1052.67 147.597 1053.29C147.597 1048.01 147.597 1042.74 147.597 1037.31C139.938 1041.26 132.278 1045.22 124.386 1049.29C99.1572 1061.28 99.1572 1061.28 83.0105 1061.28C83.0105 1069.19 83.0105 1077.1 83.0105 1085.25C48.1827 1081.42 33.2327 1071.3 10.3503 1045.3C49.3723 1013.77 71.0637 998.507 123.377 1005.35Z" fill="#E5DCD3"/>
<path d="M591.631 877.497C594.295 877.497 596.96 877.497 599.705 877.497C599.705 895.955 599.705 914.413 599.705 933.431C611.194 932.936 611.194 932.936 622.915 932.432C648.145 933.431 648.145 933.431 664.291 949.412C654.55 954.603 654.55 954.603 644.613 959.899C621.677 971.823 621.677 971.823 615.851 997.355C565.231 997.355 514.612 997.355 462.458 997.355C438.238 941.421 438.238 941.421 438.238 925.44C458.219 929.396 458.219 929.396 478.604 933.431C481.269 946.615 483.933 959.799 486.678 973.383C493.671 971.735 500.665 970.087 507.87 968.389C538.059 965.069 555.7 970.214 583.558 981.374C579.464 951.658 574.547 927.562 559.338 901.469C567.33 898.832 575.323 896.195 583.558 893.478C586.222 888.205 588.886 882.931 591.631 877.497Z" fill="#9C9198"/>
<path d="M1063.42 1039.3C1067.58 1041.28 1071.74 1043.26 1076.03 1045.3C1068.04 1045.3 1060.05 1045.3 1051.81 1045.3C1051.81 1050.57 1051.81 1055.84 1051.81 1061.28C1041.16 1063.92 1030.5 1066.55 1019.52 1069.27C1011.53 1100.91 1003.53 1132.55 995.299 1165.15C1008.62 1165.15 1021.94 1165.15 1035.67 1165.15C1037.16 1170.1 1038.66 1175.04 1040.21 1180.14C1057.58 1205.55 1079.06 1206.66 1108.33 1213.1C1108.33 1218.37 1108.33 1223.65 1108.33 1229.08C1092.51 1226.61 1076.7 1224.11 1060.89 1221.59C1047.69 1219.5 1047.69 1219.5 1034.21 1217.37C1011.45 1213.1 1011.45 1213.1 995.299 1205.11C995.299 1199.83 995.299 1194.56 995.299 1189.13C1003.29 1189.13 1011.28 1189.13 1019.52 1189.13C1019.52 1183.85 1019.52 1178.58 1019.52 1173.15C995.541 1170.51 971.563 1167.87 946.859 1165.15C943.532 1131.58 942.351 1115.03 963.51 1087.75C1030.03 1035.92 1030.03 1035.92 1063.42 1039.3Z" fill="#E1C2B3"/>
<path d="M438.238 909.459C443.566 914.733 448.895 920.007 454.385 925.44C417.935 934.459 417.935 934.459 400.11 929.779C334.646 914.331 247.817 916.99 187.964 949.412C168.697 966.283 158.122 982.108 147.597 1005.35C140.055 981.291 139.165 974.45 147.597 949.412C152.926 949.412 158.254 949.412 163.744 949.412C163.744 944.138 163.744 938.864 163.744 933.431C227.559 870.271 359.769 884.397 438.238 909.459Z" fill="#EABAAB"/>
<path d="M615.851 741.659C621.179 746.933 626.508 752.207 631.998 757.64C648.699 762.774 648.699 762.774 664.291 765.631C664.291 760.357 664.291 755.083 664.291 749.65C694.385 746.877 723.104 745.427 753.098 749.65C775.3 772.123 775.3 772.123 785.391 797.593C782.727 805.503 780.063 813.414 777.318 821.564C771.99 816.291 766.661 811.017 761.171 805.583C732.241 804.251 732.241 804.251 704.658 805.583C699.329 816.131 694.001 826.678 688.511 837.545C696.504 840.182 704.496 842.819 712.731 845.536C689.627 856.969 672.899 850.329 648.144 845.536C653.473 842.899 658.801 840.262 664.291 837.545C664.291 826.998 664.291 816.45 664.291 805.583C669.62 805.583 674.948 805.583 680.438 805.583C680.438 800.31 680.438 795.036 680.438 789.602C685.766 789.602 691.095 789.602 696.585 789.602C696.585 781.692 696.585 773.781 696.585 765.631C688.592 769.586 688.592 769.586 680.438 773.621C658.863 774.693 637.467 773.966 615.851 773.621C615.851 763.074 615.851 752.526 615.851 741.659Z" fill="#F9F1EF"/>
<path d="M309.064 717.688C321.174 727.676 321.174 727.676 333.284 741.659C333.284 752.207 333.284 762.754 333.284 773.621C338.342 772.859 343.4 772.097 348.611 771.312C355.209 770.426 361.807 769.54 368.605 768.627C378.44 767.237 378.44 767.237 388.473 765.818C394.238 765.756 400.004 765.694 405.944 765.631C422.091 781.612 422.091 781.612 423.668 800.652C423.387 811.498 423.387 811.498 423.1 822.563C422.954 829.835 422.809 837.107 422.658 844.599C422.377 852.973 422.377 852.973 422.091 861.517C416.762 855.089 411.434 848.662 405.944 842.04C374.621 815.559 357.503 815.605 317.137 813.574C306.423 781.761 308.506 750.845 309.064 717.688Z" fill="#EACDBC"/>
<path d="M664.291 605.821C664.636 619.134 664.619 632.459 664.291 645.773C661.627 648.41 658.963 651.047 656.218 653.763C658.537 672.457 661.218 691.11 664.291 709.697C669.62 709.697 674.948 709.697 680.438 709.697C696.585 709.697 712.731 709.697 728.878 709.697C728.878 720.244 728.878 730.792 728.878 741.659C734.206 744.296 739.535 746.933 745.025 749.649C693.073 753.605 693.073 753.605 640.071 757.64C628.147 734.037 630.308 712.481 629.979 686.225C629.771 676.265 629.563 666.304 629.349 656.042C631.998 629.792 631.998 629.792 643.729 614.279C656.218 605.821 656.218 605.821 664.291 605.821Z" fill="#8FAED1"/>
<path d="M349.431 541.897C352.095 552.445 354.759 562.992 357.504 573.859C364.664 573.035 371.824 572.211 379.201 571.362C414.073 574.618 424.161 588.02 446.311 613.812C432.99 616.448 419.669 619.085 405.944 621.802C403.28 634.986 400.616 648.171 397.871 661.755C378.623 654.134 367.72 649.13 356.495 631.541C348.543 611.583 347.787 597.21 348.422 575.857C348.567 569.471 348.713 563.084 348.863 556.505C349.051 551.684 349.238 546.864 349.431 541.897Z" fill="#E9D2C5"/>
<path d="M1247.59 1108.22C1258.39 1110.66 1258.39 1110.66 1269.41 1113.15C1274.87 1114.49 1280.32 1115.83 1285.94 1117.21C1262.03 1130.56 1242.58 1135.8 1215.3 1138.19C1208.85 1138.78 1202.39 1139.38 1195.74 1140C1190.87 1140.39 1186 1140.78 1180.99 1141.18C1178.32 1149.09 1175.66 1157 1172.91 1165.15C1167.58 1165.15 1162.26 1165.15 1156.77 1165.15C1155.77 1171.42 1154.77 1177.68 1153.74 1184.13C1148.69 1205.11 1148.69 1205.11 1132.55 1221.09C1130.96 1187.38 1134.14 1163.8 1148.69 1133.19C1132.71 1133.19 1116.72 1133.19 1100.25 1133.19C1102.92 1127.92 1105.58 1122.65 1108.33 1117.21C1124.09 1117.73 1139.86 1118.25 1155.63 1118.77C1173.34 1118.32 1173.34 1118.32 1188.55 1108.72C1210.99 1098.63 1223.9 1102.67 1247.59 1108.22Z" fill="#D3C2BA"/>
<path d="M785.391 294.192C788.056 302.102 790.72 310.013 793.465 318.163C785.472 318.163 777.479 318.163 769.245 318.163C766.58 331.348 763.916 344.532 761.171 358.116C731.865 358.116 702.559 358.116 672.364 358.116C669.7 347.568 667.036 337.021 664.291 326.154C670.286 325.33 676.28 324.506 682.456 323.657C704.938 319.729 704.938 319.729 720.3 305.678C742.581 290.308 758.859 292.401 785.391 294.192Z" fill="#D5D9DB"/>
<path d="M582.265 935.959C591.631 949.412 591.631 949.412 589.108 970.886C587.277 976.984 585.445 983.082 583.558 989.364C578.594 988.211 573.629 987.057 568.515 985.868C561.99 984.385 555.464 982.902 548.741 981.374C542.279 979.89 535.816 978.407 529.157 976.879C510.034 972.624 510.034 972.624 486.678 973.383C482.136 957.902 482.136 957.902 478.604 941.421C491.854 928.308 507.845 929.63 526.035 927.438C533.174 926.49 540.314 925.543 547.669 924.566C567.411 925.44 567.411 925.44 582.265 935.959Z" fill="#F8CAB5"/>
<path d="M147.597 1029.32C150.261 1034.59 152.926 1039.86 155.671 1045.3C164.329 1045.13 172.988 1044.97 181.909 1044.8C205.305 1045.18 222.567 1046.35 244.477 1053.29C244.477 1058.56 244.477 1063.84 244.477 1069.27C238.046 1068.9 231.614 1068.53 224.988 1068.15C172.044 1066.36 139.458 1065.78 99.1571 1101.23C93.8287 1098.59 88.5003 1095.96 83.0104 1093.24C83.0104 1098.51 83.0104 1103.79 83.0104 1109.22C72.3536 1106.59 61.6968 1103.95 50.717 1101.23C53.3812 1093.32 56.0454 1085.41 58.7904 1077.26C66.783 1079.9 74.7756 1082.53 83.0104 1085.25C83.0104 1077.34 83.0104 1069.43 83.0104 1061.28C104.324 1050.73 125.638 1040.18 147.597 1029.32Z" fill="#E2C6BD"/>
<path d="M898.418 477.973C901.083 477.973 903.747 477.973 906.492 477.973C906.492 501.944 906.492 525.916 906.492 549.887C909.156 555.161 911.82 560.435 914.565 565.868C914.89 584.51 914.914 603.16 914.565 621.802C901.244 624.439 887.923 627.075 874.198 629.792C874.198 619.245 874.198 608.697 874.198 597.83C879.527 597.83 884.855 597.83 890.345 597.83C890.345 587.283 890.345 576.735 890.345 565.868C879.688 565.868 869.031 565.868 858.052 565.868C860.716 552.684 863.38 539.5 866.125 525.916C874.118 523.279 882.11 520.642 890.345 517.925C893.009 504.741 895.673 491.557 898.418 477.973Z" fill="#577DA9"/>
<path d="M131.45 1021.33C131.45 1029.24 131.45 1037.15 131.45 1045.3C115.465 1050.57 99.4799 1055.84 83.0103 1061.28C83.0103 1069.19 83.0103 1077.1 83.0103 1085.25C63.8361 1083.25 63.8361 1083.25 42.6435 1077.26C32.0473 1060.78 32.0473 1060.78 26.4968 1045.3C57.0418 1013.75 90.4479 1018.98 131.45 1021.33Z" fill="#FBF1E7"/>
<path d="M-92.5851 1067.77C-82.2197 1067.66 -71.8543 1067.54 -61.1747 1067.43C-29.2927 1069.31 -3.39491 1074.17 26.4968 1085.25C34.4894 1097.12 34.4894 1097.12 42.6435 1109.22C15.1116 1102.93 -11.358 1094.27 -38.09 1085.25C-40.7542 1087.89 -43.4184 1090.52 -46.1634 1093.24C-67.9335 1093.83 -89.4923 1093.98 -111.255 1093.74C-117.379 1093.7 -123.504 1093.67 -129.814 1093.63C-144.989 1093.54 -160.163 1093.39 -175.337 1093.24C-175.337 1087.97 -175.337 1082.69 -175.337 1077.26C-146.551 1067.76 -122.933 1067.92 -92.5851 1067.77Z" fill="#757A8A"/>
<path d="M18.4236 1293C114.335 1293 210.246 1293 309.064 1293C309.064 1295.64 309.064 1298.28 309.064 1300.99C255.78 1300.99 202.496 1300.99 147.597 1300.99C147.597 1306.27 147.597 1311.54 147.597 1316.97C115.189 1327.67 84.5099 1326.56 50.717 1324.97C26.4969 1308.98 26.4969 1308.98 18.4236 1293Z" fill="#20262F"/>
<path d="M1390.89 997.355C1415.86 999.12 1425.69 1007.37 1445.39 1023.32C1463.55 1045.3 1463.55 1045.3 1466.08 1067.77C1464.83 1076.42 1464.83 1076.42 1463.55 1085.25C1442.24 1085.25 1420.93 1085.25 1398.97 1085.25C1398.97 1066.61 1398.97 1047.96 1398.97 1029.32C1393.64 1021.41 1388.31 1013.5 1382.82 1005.35C1385.48 1002.71 1388.15 1000.07 1390.89 997.355Z" fill="#E6D5C7"/>
<path d="M1003.37 1061.28C1003.37 1084.57 1000.07 1103.96 995.299 1126.7C993.8 1133.9 992.301 1141.1 990.757 1148.52C989.592 1154.01 988.426 1159.5 987.225 1165.16C973.904 1165.16 960.583 1165.16 946.859 1165.16C944.336 1139.69 944.336 1139.69 946.859 1109.22C964.4 1088.21 978.722 1073.48 1003.37 1061.28Z" fill="#CFA99D"/>
<path d="M438.238 925.44C458.219 929.396 458.219 929.396 478.604 933.431C481.269 949.252 483.933 965.073 486.678 981.374C507.991 981.374 529.305 981.374 551.265 981.374C553.929 986.648 556.593 991.921 559.338 997.355C527.367 997.355 495.397 997.355 462.458 997.355C438.238 943.419 438.238 943.419 438.238 925.44Z" fill="#828798"/>
<path d="M1180.99 733.669C1201.69 754.157 1199.77 763.136 1200.16 791.6C1199.49 833.32 1193.31 854.823 1164.84 885.488C1159.51 885.488 1154.18 885.488 1148.69 885.488C1148.69 877.578 1148.69 869.667 1148.69 861.517C1156.68 861.517 1164.68 861.517 1172.91 861.517C1172.91 853.606 1172.91 845.696 1172.91 837.545C1164.92 837.545 1156.93 837.545 1148.69 837.545C1154.02 826.998 1159.35 816.45 1164.84 805.583C1170.17 805.583 1175.5 805.583 1180.99 805.583C1180.99 781.852 1180.99 758.12 1180.99 733.669Z" fill="#415471"/>
<path d="M196.037 933.431C204.03 936.068 212.022 938.705 220.257 941.421C214.929 957.243 209.6 973.064 204.11 989.364C209.439 994.638 214.767 999.912 220.257 1005.35C193.72 1011.73 182.23 1014.11 155.67 1005.35C159.54 970.875 169.765 956.078 196.037 933.431Z" fill="#7386AC"/>
<path d="M761.171 485.963C799.52 484.965 799.52 484.965 817.685 493.954C817.685 501.864 817.685 509.775 817.685 517.925C764.199 549.887 764.199 549.887 736.951 549.887C734.287 555.161 731.623 560.435 728.878 565.868C709.199 579.352 709.199 579.352 688.511 589.84C683.183 587.203 677.854 584.566 672.365 581.849C681.073 574.15 689.829 566.503 698.603 558.877C705.909 552.48 705.909 552.48 713.362 545.954C741.727 523.929 756.638 517.925 793.465 517.925C793.465 512.652 793.465 507.378 793.465 501.944C782.808 496.671 772.151 491.397 761.171 485.963Z" fill="#78A3CF"/>
<path d="M1205.21 1221.09C1205.21 1231.64 1205.21 1242.18 1205.21 1253.05C1186.56 1258.32 1167.91 1263.6 1148.69 1269.03C1135.37 1253.21 1122.05 1237.39 1108.33 1221.09C1143.17 1215 1170.85 1211.81 1205.21 1221.09Z" fill="#DBBFB0"/>
<path d="M898.418 1069.27C918.097 1072.27 918.097 1072.27 938.785 1077.26C955.627 1110.6 953.16 1127.74 946.859 1165.16C970.836 1167.79 994.814 1170.43 1019.52 1173.15C1019.52 1178.42 1019.52 1183.69 1019.52 1189.13C1011.53 1189.13 1003.53 1189.13 995.299 1189.13C992.634 1194.4 989.97 1199.67 987.225 1205.11C984.561 1197.2 981.897 1189.29 979.152 1181.14C965.831 1178.5 952.51 1175.86 938.785 1173.15C936.121 1149.41 933.457 1125.68 930.712 1101.23C920.055 1098.59 909.398 1095.96 898.418 1093.24C898.418 1085.33 898.418 1077.42 898.418 1069.27Z" fill="#908280"/>
<path d="M761.172 765.631C773.786 780.113 773.786 780.113 785.392 797.593C782.727 805.503 780.063 813.414 777.318 821.564C771.99 816.29 766.661 811.017 761.172 805.583C732.241 804.25 732.241 804.25 704.658 805.583C699.33 816.13 694.001 826.678 688.511 837.545C696.504 840.182 704.497 842.819 712.731 845.535C689.627 856.969 672.899 850.329 648.145 845.535C653.473 842.899 658.801 840.262 664.291 837.545C664.291 826.998 664.291 816.45 664.291 805.583C669.62 805.583 674.948 805.583 680.438 805.583C680.438 800.309 680.438 795.036 680.438 789.602C707.08 789.602 733.722 789.602 761.172 789.602C761.172 781.691 761.172 773.781 761.172 765.631Z" fill="#D7D8DD"/>
<path d="M728.878 517.926C726.866 544.805 719.526 551.01 698.603 569.365C694.294 572.681 689.986 575.998 685.547 579.415C666.12 594.779 649.313 612.152 631.998 629.793C647.112 587.41 675.432 517.926 728.878 517.926Z" fill="#D5C9CE"/>
<path d="M462.458 869.507C484.707 869.647 505.956 870.615 528.054 872.504C534.142 872.957 540.23 873.41 546.503 873.877C561.551 875.008 576.592 876.243 591.631 877.498C588.967 885.408 586.303 893.319 583.558 901.469C567.916 907.962 567.916 907.962 551.265 909.46C545.936 904.186 540.608 898.912 535.118 893.479C513.623 889.78 513.623 889.78 489.705 888.485C477.56 887.589 477.56 887.589 465.17 886.674C458.946 886.283 452.723 885.892 446.311 885.488C451.639 880.215 456.968 874.941 462.458 869.507Z" fill="#D7C9C6"/>
<path d="M745.025 358.116C750.353 358.116 755.682 358.116 761.171 358.116C758.144 381.588 758.144 381.588 753.098 406.059C745.106 410.014 745.106 410.014 736.951 414.049C722.743 437.211 717.208 459.378 712.731 485.964C707.403 485.964 702.075 485.964 696.585 485.964C695.576 440.018 695.576 440.018 704.658 422.04C709.986 422.04 715.315 422.04 720.805 422.04C729.486 400.847 737.715 379.821 745.025 358.116Z" fill="#6EA9D8"/>
<path d="M680.438 709.697C696.423 709.697 712.408 709.697 728.878 709.697C728.878 720.245 728.878 730.792 728.878 741.659C734.206 744.296 739.535 746.933 745.025 749.65C718.383 749.65 691.741 749.65 664.291 749.65C669.62 736.466 674.948 723.281 680.438 709.697Z" fill="#D1CFD6"/>
<path d="M228.331 909.459C218.171 939.626 207.139 942.274 179.891 957.402C164.13 973.001 156.896 985.625 147.597 1005.35C140.055 981.291 139.165 974.45 147.597 949.412C152.926 949.412 158.254 949.412 163.744 949.412C163.744 944.138 163.744 938.864 163.744 933.431C187.599 911.507 194.219 909.459 228.331 909.459Z" fill="#EEC7B9"/>
<path d="M438.238 390.078C438.238 397.988 438.238 405.899 438.238 414.049C438.404 421.795 438.571 429.541 438.742 437.521C438.316 458.216 436.262 474.34 430.164 493.954C422.172 491.317 414.179 488.68 405.944 485.964C403.257 452.045 402.401 435.181 422.091 406.558C427.419 401.119 432.748 395.681 438.238 390.078Z" fill="#DBDBD5"/>
<path d="M1302.09 973.384C1312.74 976.02 1323.4 978.657 1334.38 981.374C1326.39 981.374 1318.39 981.374 1310.16 981.374C1310.16 999.832 1310.16 1018.29 1310.16 1037.31C1294.17 1042.58 1278.19 1047.85 1261.72 1053.29C1271.05 1022.03 1280.73 998.358 1302.09 973.384Z" fill="#BEB5AE"/>
<path d="M422.091 789.602C430.084 792.239 438.076 794.876 446.311 797.593C443.647 808.14 440.983 818.688 438.238 829.555C454.223 829.555 470.208 829.555 486.678 829.555C486.678 834.829 486.678 840.102 486.678 845.536C473.357 845.536 460.036 845.536 446.311 845.536C444.563 854.93 444.563 854.93 442.779 864.513C438.238 885.488 438.238 885.488 430.164 901.469C415.695 860.193 413.046 833.466 422.091 789.602Z" fill="#EBDFD4"/>
<path d="M1019.52 1173.15C1031.29 1178.3 1043.07 1183.46 1054.84 1188.63C1064.67 1192.94 1064.67 1192.94 1074.71 1197.34C1086.02 1202.37 1097.23 1207.61 1108.33 1213.1C1108.33 1218.37 1108.33 1223.65 1108.33 1229.08C1092.51 1226.61 1076.7 1224.11 1060.89 1221.59C1052.09 1220.2 1043.29 1218.81 1034.21 1217.37C1011.45 1213.1 1011.45 1213.1 995.298 1205.11C995.298 1199.83 995.298 1194.56 995.298 1189.13C1003.29 1189.13 1011.28 1189.13 1019.52 1189.13C1019.52 1183.85 1019.52 1178.58 1019.52 1173.15Z" fill="#D5AD9D"/>
<path d="M866.125 1101.23C855.292 1133.4 838.492 1140.25 809.611 1157.17C804.283 1157.17 798.955 1157.17 793.465 1157.17C795.988 1138.19 795.988 1138.19 801.538 1117.21C827.598 1100.02 836.124 1099.63 866.125 1101.23Z" fill="#7E7F8C"/>
<path d="M163.744 1021.33C182.393 1021.33 201.043 1021.33 220.257 1021.33C225.586 1034.51 230.914 1047.7 236.404 1061.28C225.664 1059.3 225.664 1059.3 214.707 1057.28C191.71 1053.85 170.767 1052.61 147.597 1053.29C152.926 1042.74 158.254 1032.19 163.744 1021.33Z" fill="#F7E9E7"/>
<path d="M1205.21 1213.1C1213.2 1213.1 1221.19 1213.1 1229.43 1213.1C1229.43 1221.01 1229.43 1228.92 1229.43 1237.07C1234.75 1239.71 1240.08 1242.34 1245.57 1245.06C1245.57 1255.61 1245.57 1266.15 1245.57 1277.02C1229.59 1279.66 1213.6 1282.3 1197.13 1285.01C1197.13 1279.74 1197.13 1274.46 1197.13 1269.03C1202.46 1269.03 1207.79 1269.03 1213.28 1269.03C1210.61 1250.57 1207.95 1232.12 1205.21 1213.1Z" fill="#5A5F79"/>
<path d="M1390.89 1093.24C1385.51 1109.22 1380.13 1125.2 1374.75 1141.18C1370.42 1138.71 1366.09 1136.24 1361.63 1133.69C1339.24 1123.78 1318.23 1120.48 1294.01 1117.21C1302.09 1101.23 1302.09 1101.23 1318.2 1095.89C1324.71 1094.52 1331.21 1093.15 1337.91 1091.74C1344.39 1090.31 1350.88 1088.88 1357.56 1087.4C1374.75 1085.25 1374.75 1085.25 1390.89 1093.24Z" fill="#E2BFB2"/>
<path d="M349.431 717.688C357.424 717.688 365.416 717.688 373.651 717.688C373.651 730.872 373.651 744.056 373.651 757.64C378.979 760.277 384.308 762.914 389.798 765.631C371.148 768.268 352.499 770.905 333.284 773.621C332.275 754.644 332.275 754.644 333.284 733.669C338.613 728.395 343.941 723.121 349.431 717.688Z" fill="#F3DECF"/>
<path d="M-151.117 1069.27C-132.108 1068.83 -113.11 1068.52 -94.0987 1068.27C-78.2227 1067.99 -78.2227 1067.99 -62.0261 1067.71C-29.6375 1069.29 -3.81444 1073.94 26.4969 1085.25C34.4895 1097.12 34.4895 1097.12 42.6436 1109.22C23.9915 1104.96 6.6331 1099.86 -11.3469 1093.24C-40.676 1084.48 -67.0813 1081.97 -97.6308 1080.26C-107.684 1079.66 -117.737 1079.06 -128.095 1078.45C-139.491 1077.86 -139.491 1077.86 -151.117 1077.26C-151.117 1074.62 -151.117 1071.99 -151.117 1069.27Z" fill="#9C8689"/>
<path d="M1481.21 924.941C1488.49 925.013 1495.76 925.085 1503.26 925.16C1508.8 925.252 1514.35 925.345 1520.07 925.44C1520.07 928.077 1520.07 930.714 1520.07 933.431C1515.38 933.544 1510.7 933.658 1505.88 933.774C1470.55 935.909 1446.91 938.26 1420.16 962.396C1413.17 968.659 1406.17 974.922 1398.97 981.374C1390.97 978.737 1382.98 976.1 1374.75 973.383C1410.36 936.233 1429.68 924.279 1481.21 924.941Z" fill="#435062"/>
<path d="M341.357 781.611C354.679 784.248 368 786.885 381.724 789.602C381.724 794.876 381.724 800.149 381.724 805.583C387.053 805.583 392.381 805.583 397.871 805.583C395.207 813.493 392.543 821.404 389.798 829.554C335.302 814.572 335.302 814.572 317.137 805.583C325.13 802.946 333.123 800.309 341.357 797.592C341.357 792.319 341.357 787.045 341.357 781.611Z" fill="#C99F93"/>
<path d="M1633.09 1285.01C1664.98 1289.42 1692.43 1296.11 1721.9 1308.98C1716.57 1314.26 1711.24 1319.53 1705.75 1324.96C1688.28 1324.78 1688.28 1324.78 1668.41 1321.97C1661.82 1321.08 1655.22 1320.2 1648.42 1319.28C1643.36 1318.52 1638.3 1317.76 1633.09 1316.97C1633.09 1306.43 1633.09 1295.88 1633.09 1285.01Z" fill="#2D3648"/>
<path d="M733.419 797.093C742.577 797.258 751.736 797.423 761.171 797.593C745.186 805.503 745.186 805.503 728.878 813.574C728.878 824.121 728.878 834.669 728.878 845.536C715.557 842.899 702.236 840.262 688.511 837.545C697.598 797.715 697.598 797.715 733.419 797.093Z" fill="#7F90B1"/>
<path d="M236.404 1029.32C239.068 1034.59 241.732 1039.86 244.477 1045.3C249.806 1045.3 255.134 1045.3 260.624 1045.3C265.952 1058.48 271.281 1071.67 276.771 1085.25C258.121 1087.89 239.472 1090.52 220.257 1093.24C220.257 1085.33 220.257 1077.42 220.257 1069.27C228.25 1069.27 236.243 1069.27 244.477 1069.27C239.149 1058.72 233.821 1048.17 228.331 1037.31C230.995 1034.67 233.659 1032.03 236.404 1029.32Z" fill="#7D8397"/>
<path d="M1447.41 1037.31C1452.73 1039.94 1458.06 1042.58 1463.55 1045.3C1463.55 1058.48 1463.55 1071.67 1463.55 1085.25C1442.24 1085.25 1420.93 1085.25 1398.97 1085.25C1398.97 1072.07 1398.97 1058.88 1398.97 1045.3C1404.29 1045.3 1409.62 1045.3 1415.11 1045.3C1417.78 1050.57 1420.44 1055.84 1423.19 1061.28C1428.51 1061.28 1433.84 1061.28 1439.33 1061.28C1442 1053.37 1444.66 1045.46 1447.41 1037.31Z" fill="#E5C9B8"/>
<path d="M664.291 949.412C654.55 954.603 654.55 954.603 644.613 959.899C621.676 971.823 621.676 971.823 615.851 997.355C607.859 994.718 599.866 992.081 591.631 989.364C594.295 976.18 596.96 962.996 599.705 949.412C646.126 940.423 646.126 940.423 664.291 949.412Z" fill="#7C8497"/>
<path d="M535.118 901.469C545.774 906.743 556.431 912.017 567.411 917.45C567.411 922.724 567.411 927.998 567.411 933.431C538.105 936.068 508.798 938.705 478.604 941.422C475.94 933.511 473.276 925.601 470.531 917.45C494.509 920.087 518.486 922.724 543.191 925.441C540.527 917.53 537.862 909.62 535.118 901.469Z" fill="#F0DCCD"/>
<path d="M615.851 741.659C621.179 746.933 626.508 752.207 631.998 757.64C648.699 762.774 648.699 762.774 664.291 765.631C664.291 760.357 664.291 755.083 664.291 749.65C688.269 749.65 712.247 749.65 736.951 749.65C736.951 752.287 736.951 754.924 736.951 757.64C694.616 771.607 660.471 775.171 615.851 773.621C615.851 763.074 615.851 752.526 615.851 741.659Z" fill="#EAE8E8"/>
<path d="M712.731 310.173C718.06 310.173 723.388 310.173 728.878 310.173C723.327 329.65 723.327 329.65 712.731 350.125C691.539 356.618 691.539 356.618 672.364 358.116C669.7 347.568 667.036 337.021 664.291 326.154C674.032 324.424 674.032 324.424 683.97 322.658C704.02 320.23 704.02 320.23 712.731 310.173Z" fill="#D3D4D3"/>
<path d="M567.411 925.44C580.026 934.929 580.026 934.929 591.631 949.412C589.108 970.886 589.108 970.886 583.558 989.364C567.573 984.091 551.587 978.817 535.118 973.383C545.774 970.747 556.431 968.11 567.411 965.393C567.411 952.209 567.411 939.024 567.411 925.44Z" fill="#DBB3A9"/>
<path d="M309.064 717.688C331.648 734.209 333.501 742.813 338.835 771.124C339.667 779.859 340.5 788.593 341.357 797.593C333.365 797.593 325.372 797.593 317.137 797.593C304.161 771.907 308.6 746.165 309.064 717.688Z" fill="#DECBC3"/>
<path d="M212.184 1061.28C201.419 1066.61 190.655 1071.93 179.89 1077.26C174.562 1080.39 169.234 1083.52 163.744 1086.75C144.137 1094.63 134.886 1092.17 115.304 1085.25C145.666 1055.2 171.597 1059.27 212.184 1061.28Z" fill="#837E8B"/>
<path d="M196.037 933.431C204.03 936.068 212.022 938.705 220.257 941.421C212.265 944.058 204.272 946.695 196.037 949.412C196.037 959.959 196.037 970.507 196.037 981.374C185.38 981.374 174.724 981.374 163.744 981.374C161.08 989.284 158.415 997.195 155.67 1005.35C159.54 970.875 169.765 956.078 196.037 933.431Z" fill="#988FA4"/>
<path d="M818.189 320.161C841.905 334.145 841.905 334.145 858.052 358.116C819.703 352.123 819.703 352.123 801.538 334.145C790.902 328.571 780.151 323.201 769.245 318.164C793.465 310.173 793.465 310.173 818.189 320.161Z" fill="#668DB5"/>
<path d="M1172.91 1213.1C1183.57 1215.73 1194.23 1218.37 1205.21 1221.09C1202.54 1231.64 1199.88 1242.18 1197.13 1253.05C1173.15 1249.09 1173.15 1249.09 1148.69 1245.06C1148.69 1239.79 1148.69 1234.51 1148.69 1229.08C1156.68 1229.08 1164.68 1229.08 1172.91 1229.08C1172.91 1223.8 1172.91 1218.53 1172.91 1213.1Z" fill="#F8EBDB"/>
<path d="M1247.09 1108.72C1254.36 1110.28 1261.64 1111.83 1269.13 1113.44C1274.68 1114.68 1280.22 1115.93 1285.94 1117.21C1285.94 1119.85 1285.94 1122.49 1285.94 1125.2C1248.64 1125.2 1211.34 1125.2 1172.91 1125.2C1189.32 1092.72 1216.7 1102.08 1247.09 1108.72Z" fill="#E4CCC0"/>
<path d="M357.504 917.45C397.467 925.361 397.467 925.361 438.238 933.431C427.581 941.342 416.924 949.252 405.944 957.403C405.944 949.492 405.944 941.581 405.944 933.431C385.982 936.183 385.982 936.183 365.577 941.422C362.913 946.695 360.249 951.969 357.504 957.403C357.504 944.218 357.504 931.034 357.504 917.45Z" fill="#7D849E"/>
<path d="M1148.69 805.583C1154.02 808.22 1159.35 810.857 1164.84 813.574C1156.85 825.44 1156.85 825.44 1148.69 837.545C1156.68 837.545 1164.68 837.545 1172.91 837.545C1172.91 845.456 1172.91 853.366 1172.91 861.517C1159.59 861.517 1146.27 861.517 1132.55 861.517C1132.55 836.702 1136.9 826.737 1148.69 805.583Z" fill="#466386"/>
<path d="M761.171 765.631C773.786 780.113 773.786 780.113 785.392 797.593C782.727 805.503 780.063 813.414 777.318 821.564C771.99 816.29 766.661 811.017 761.171 805.583C739.467 803.426 718.452 804.885 696.585 805.583C696.585 800.309 696.585 795.036 696.585 789.602C717.898 789.602 739.212 789.602 761.171 789.602C761.171 781.691 761.171 773.781 761.171 765.631Z" fill="#D8DEED"/>
<path d="M349.431 541.897C352.095 541.897 354.759 541.897 357.504 541.897C358.482 547.295 359.461 552.692 360.469 558.253C361.822 565.381 363.174 572.508 364.568 579.852C365.88 586.897 367.191 593.943 368.542 601.202C373.392 620.759 379.948 636.233 389.798 653.764C365.578 645.774 365.578 645.774 356.053 631.665C348.669 611.757 347.794 596.982 348.422 575.857C348.567 569.471 348.713 563.085 348.863 556.505C349.05 551.684 349.238 546.864 349.431 541.897Z" fill="#897F77"/>
<path d="M18.4236 1077.26C39.9525 1087.91 61.4814 1098.57 83.0104 1109.22C83.0104 1103.95 83.0104 1098.67 83.0104 1093.24C88.3388 1093.24 93.6672 1093.24 99.1571 1093.24C96.4929 1101.15 93.8287 1109.06 91.0837 1117.21C74.4324 1122.71 74.4324 1122.71 58.7903 1125.2C45.4693 1109.38 32.1483 1093.56 18.4236 1077.26Z" fill="#D6ABA6"/>
<path d="M898.418 1069.27C918.4 1073.22 918.4 1073.22 938.785 1077.26C938.785 1095.72 938.785 1114.18 938.785 1133.19C936.121 1122.65 933.457 1112.1 930.712 1101.23C920.055 1098.59 909.398 1095.96 898.418 1093.24C898.418 1085.33 898.418 1077.42 898.418 1069.27Z" fill="#7F7F8C"/>
<path d="M478.604 941.421C494.589 941.421 510.575 941.421 527.044 941.421C529.709 949.332 532.373 957.242 535.118 965.393C519.132 968.03 503.147 970.666 486.678 973.383C484.013 962.836 481.349 952.288 478.604 941.421Z" fill="#E0BEAC"/>
<path d="M761.676 293.692C773.415 293.94 773.415 293.94 785.391 294.192C788.056 302.102 790.72 310.013 793.465 318.163C785.472 318.163 777.48 318.163 769.245 318.163C766.581 323.437 763.916 328.711 761.171 334.144C761.171 326.234 761.171 318.323 761.171 310.173C750.515 307.536 739.858 304.899 728.878 302.182C736.951 294.192 736.951 294.192 761.676 293.692Z" fill="#B3BBBF"/>
<path d="M987.225 1213.1C1016.53 1213.1 1045.84 1213.1 1076.03 1213.1C1068.04 1215.73 1060.05 1218.37 1051.81 1221.09C1051.81 1226.36 1051.81 1231.64 1051.81 1237.07C1024.57 1232.7 1010.78 1228.64 987.225 1213.1Z" fill="#656373"/>
<path d="M83.0104 1061.28C88.3388 1061.28 93.6672 1061.28 99.1571 1061.28C99.1571 1071.83 99.1571 1082.37 99.1571 1093.24C93.8287 1093.24 88.5003 1093.24 83.0104 1093.24C83.0104 1098.51 83.0104 1103.79 83.0104 1109.22C72.3536 1106.59 61.6968 1103.95 50.717 1101.23C53.3812 1093.32 56.0454 1085.41 58.7904 1077.26C66.783 1079.9 74.7756 1082.53 83.0104 1085.25C83.0104 1077.34 83.0104 1069.43 83.0104 1061.28Z" fill="#EDCCBB"/>
<path d="M793.465 501.945C793.465 507.218 793.465 512.492 793.465 517.926C772.151 523.199 750.838 528.473 728.878 533.907C728.878 525.996 728.878 518.085 728.878 509.935C752.519 502.136 768.891 501.287 793.465 501.945Z" fill="#CFC2C5"/>
<path d="M1126.49 1107.22C1137.48 1108.21 1137.48 1108.21 1148.69 1109.22C1148.69 1111.86 1148.69 1114.5 1148.69 1117.21C1135.37 1119.85 1122.05 1122.49 1108.33 1125.2C1105.66 1133.11 1103 1141.02 1100.25 1149.17C1089.6 1146.54 1078.94 1143.9 1067.96 1141.18C1087.42 1117.48 1094.98 1109.62 1126.49 1107.22Z" fill="#EADFD1"/>
<path d="M745.025 358.116C750.353 358.116 755.681 358.116 761.171 358.116C759.153 381.089 759.153 381.089 753.098 406.059C736.447 417.046 736.447 417.046 720.805 422.04C723.302 415.942 725.8 409.844 728.373 403.562C734.359 388.577 739.876 373.403 745.025 358.116Z" fill="#82ABD3"/>
<path d="M1156.77 1165.16C1159.43 1165.16 1162.09 1165.16 1164.84 1165.16C1164.84 1178.34 1164.84 1191.52 1164.84 1205.11C1175.5 1207.74 1186.15 1210.38 1197.13 1213.1C1178.48 1215.74 1159.83 1218.37 1140.62 1221.09C1145.95 1202.63 1151.28 1184.17 1156.77 1165.16Z" fill="#787684"/>
<path d="M1189.06 1061.28C1205.37 1066.09 1221.52 1071.45 1237.5 1077.26C1240.16 1082.53 1242.83 1087.81 1245.57 1093.24C1232.25 1093.24 1218.93 1093.24 1205.21 1093.24C1199.88 1082.69 1194.55 1072.15 1189.06 1061.28Z" fill="#F4F0E7"/>
<path d="M680.438 709.697C696.423 709.697 712.408 709.697 728.878 709.697C728.878 720.245 728.878 730.792 728.878 741.659C718.221 741.659 707.564 741.659 696.585 741.659C696.585 736.386 696.585 731.112 696.585 725.678C691.256 720.405 685.928 715.131 680.438 709.697Z" fill="#929EBC"/>
<path d="M615.851 557.878C621.18 557.878 626.508 557.878 631.998 557.878C631.998 571.062 631.998 584.247 631.998 597.83C621.341 597.83 610.684 597.83 599.704 597.83C606.769 566.867 606.769 566.867 615.851 557.878Z" fill="#CDD0DB"/>
</g>
<defs>
<clipPath id="clip0_13_5">
<rect width="7437" height="5288" fill="white"/>
</clipPath>
</defs>
</svg>
