<svg width="7437" height="5288" viewBox="0 0 7437 5288" fill="none" xmlns="http://www.w3.org/2000/svg">
<g clip-path="url(#clip0_18_908)">
<path d="M963.161 2.14246C1036.07 17.0956 1094.61 34.3782 1148.15 63.35C1157.14 101.605 1157.14 101.605 1148.15 134.759C1168.5 144.858 1168.5 144.858 1189.26 155.161C1191.83 187.04 1191.83 187.04 1189.26 216.369C1202.82 216.369 1216.39 216.369 1230.37 216.369C1230.37 223.102 1230.37 229.835 1230.37 236.771C1251.56 237.613 1272.76 238.455 1294.6 239.322C1385.13 248.019 1425.32 260.667 1497.57 287.778C1545.66 268.146 1545.66 268.146 1546.39 233.584C1564.35 180.983 1601.34 159.758 1686.81 128.224C1800.31 91.19 1875.95 76.2818 2011.42 83.7526C2018.9 92.4513 2018.9 92.4513 2026.52 101.326C2033.41 109.203 2040.3 117.08 2047.39 125.195C2054.81 133.703 2062.23 142.211 2069.87 150.977C2094 177.778 2094 177.778 2139.89 207.443C2206.39 261.935 2184.93 338.93 2175.86 399.992C2169.07 406.724 2162.29 413.457 2155.3 420.394C2141.74 420.394 2128.17 420.394 2114.19 420.394C2122.96 441.458 2132.01 462.493 2141.17 483.514C2146.18 495.231 2151.19 506.948 2156.35 519.02C2175.32 552.078 2200.89 575.164 2237.52 604.017C2251.65 637.809 2251.65 637.809 2258.07 665.224C2271.64 665.224 2285.21 665.224 2299.18 665.224C2305.61 692.64 2305.61 692.64 2299.18 726.432C2240.65 762.951 2185.38 786.166 2093.64 797.841C2048.68 796.566 2048.68 796.566 2011.42 787.64C1985.73 766.6 1985.73 766.6 1970.32 746.835C1936.4 746.835 1902.49 746.835 1867.54 746.835C1874.33 756.934 1881.11 767.033 1888.1 777.438C1899.38 825.626 1897.68 860.082 1852.13 903.679C1772.88 949.567 1722.65 964.364 1600.34 971.262C1598.3 978.81 1596.26 986.359 1594.16 994.135C1578.09 1025.59 1557.38 1040.26 1514.27 1064.35C1502.53 1071.11 1490.79 1077.87 1478.7 1084.83C1378.8 1129.3 1281.91 1139.87 1150.72 1138.95C1129.02 1138.9 1129.02 1138.9 1106.88 1138.85C990.139 1137.29 915.427 1125.49 819.281 1093.68C819.281 1086.94 819.281 1080.21 819.281 1073.27C798.933 1070.43 798.933 1070.43 778.173 1067.54C702.983 1049.66 650.999 1025.48 590.456 997.363C551.665 979.326 551.665 979.326 490.414 971.262C455.413 982.543 455.413 982.543 422.329 999.316C312.721 1048.15 227.252 1066.52 80.3745 1066.14C38.2224 1063.07 38.2224 1063.07 -23.4402 1042.67C-16.6573 1025.84 -9.87439 1009.01 -2.88597 991.665C-65.8724 996.992 -65.8724 996.992 -112.08 1017.81C-146.765 1032.47 -146.765 1032.47 -219.99 1036.3C-254.964 1034.4 -254.964 1034.4 -290.645 1032.47C-331.753 1001.87 -331.753 1001.87 -331.753 971.262C-260.533 966.213 -260.533 966.213 -187.874 961.061C-194.657 954.328 -201.439 947.595 -208.428 940.659C-300.915 944.962 -361.967 965.064 -437.254 990.071C-518.862 1015.15 -608.496 1022.4 -701.728 1012.07C-775.406 987.983 -846.779 959.898 -886.716 920.256C-890.377 890.353 -892.424 860.916 -893.139 830.995C-893.735 822.842 -894.331 814.689 -894.946 806.289C-896.149 750.44 -877.748 720.164 -804.499 675.426C-790.509 665.642 -790.509 665.642 -776.237 655.661C-742.837 644.822 -742.837 644.822 -677.32 648.01C-658.243 650.324 -639.166 652.639 -619.512 655.023C-623.963 642.399 -623.963 642.399 -628.504 629.52C-614.168 572.598 -534.253 541.3 -455.078 502.004C-468.22 499.479 -481.362 496.955 -494.902 494.353C-537.295 481.602 -537.295 481.602 -553.754 463.232C-559.425 432.163 -537.892 420.461 -501.325 395.529C-464.396 369.953 -431.771 346.362 -402.408 318.382C-372.861 297.979 -372.861 297.979 -321.476 290.328C-296.04 289.066 -296.04 289.066 -270.09 287.778C-249.742 284.411 -229.393 281.045 -208.428 277.577C-166.056 276.873 -123.642 276.713 -81.2488 276.939C-47.7451 277.077 -47.7451 277.077 -13.5645 277.218C3.52517 277.336 20.6148 277.455 38.2224 277.577C32.2874 267.898 26.3524 258.22 20.2375 248.248C2.21056 191.661 78.9172 148.538 140.993 104.155C188.473 107.521 235.954 110.888 284.873 114.356C290.172 108.202 295.471 102.048 300.931 95.7072C344.057 57.5637 409.997 38.8396 490.414 22.545C545.261 20.0119 595.907 20.4794 650.753 22.7442C762.733 22.2507 834.777 -8.2026 963.161 2.14246Z" fill="#8DB4E6"/>
<path d="M864.245 0.866836C882.765 1.05094 901.286 1.23504 920.367 1.42472C934.489 1.66142 948.612 1.89812 963.162 2.14199C937.634 37.2269 910.596 65.9211 860.391 93.9534C846.825 93.9534 833.259 93.9534 819.282 93.9534C819.282 107.419 819.282 120.885 819.282 134.758C805.717 134.758 792.151 134.758 778.174 134.758C778.174 188.621 778.174 242.484 778.174 297.979C751.042 301.345 723.911 304.711 695.957 308.18C706.132 318.069 716.306 327.958 726.789 338.146C765.812 382.519 763.496 423.763 757.62 471.4C699.811 469.487 699.811 469.487 634.295 461.199C626.24 453.204 618.185 445.208 609.887 436.971C555.967 398.214 493.291 393.261 404.345 381.501C388.937 379.299 373.53 377.096 357.656 374.827C319.791 369.44 281.789 364.29 243.765 359.186C252.668 366.958 252.668 366.958 261.75 374.887C309.85 419.15 336.384 450.379 325.982 502.004C353.113 502.004 380.245 502.004 408.199 502.004C408.199 515.47 408.199 528.935 408.199 542.809C394.076 546.018 379.954 549.226 365.404 552.532C346.884 556.898 328.363 561.264 309.282 565.762C290.92 570.022 272.559 574.283 253.641 578.673C199.881 594.639 173.112 608.141 140.994 634.62C140.994 641.353 140.994 648.086 140.994 655.023C161.343 658.389 181.691 661.756 202.657 665.224C207.744 658.702 212.831 652.179 218.072 645.459C243.765 624.419 243.765 624.419 287.443 616.768C300.161 615.926 312.879 615.085 325.982 614.218C332.765 624.317 339.548 634.416 346.536 644.822C360.102 641.455 373.668 638.089 387.644 634.62C516.066 629.899 516.066 629.899 581.625 649.922C592.223 654.972 602.821 660.021 613.741 665.224C593.186 695.828 593.186 695.828 556.253 705.312C541.309 708.915 526.366 712.518 510.97 716.23C481.345 729.994 452.256 744.044 423.614 758.311C358.284 787.46 335.163 797.105 246.334 804.216C198.514 801.852 153.639 796.931 106.791 791.544C-16.8766 777.849 -86.5771 774.236 -196.946 807.603C-207.517 811.114 -218.089 814.626 -228.981 818.243C-249.33 823.293 -249.33 823.293 -270.09 828.444C-256.524 804.879 -242.958 781.314 -228.981 757.035C-243.819 761.875 -258.656 766.714 -273.943 771.7C-329.589 787.043 -372.078 793.413 -434.523 797.84C-434.523 804.573 -434.523 811.306 -434.523 818.243C-459.111 818.033 -483.699 817.822 -509.032 817.605C-582.103 817.541 -650.456 821.315 -722.282 828.444C-708.716 811.612 -695.15 794.78 -681.173 777.438C-742.219 777.438 -803.265 777.438 -866.161 777.438C-875.442 745.962 -874.957 723.961 -843.037 695.908C-811.93 675.885 -783.849 659.859 -742.836 644.822C-673.465 645.459 -673.465 645.459 -619.511 655.023C-623.962 642.399 -623.962 642.399 -628.503 629.52C-614.167 572.597 -534.252 541.299 -455.077 502.004C-468.219 499.479 -481.361 496.954 -494.901 494.353C-537.294 481.601 -537.294 481.601 -553.753 463.231C-559.424 432.163 -537.891 420.461 -501.324 395.528C-464.395 369.953 -431.77 346.362 -402.407 318.381C-372.86 297.979 -372.86 297.979 -321.475 290.328C-296.039 289.065 -296.039 289.065 -270.09 287.777C-249.741 284.411 -229.392 281.045 -208.427 277.576C-166.056 276.872 -123.641 276.712 -81.248 276.939C-47.7442 277.077 -47.7442 277.077 -13.5637 277.217C3.526 277.336 20.6157 277.454 38.2232 277.576C32.2882 267.898 26.3532 258.219 20.2383 248.247C2.2114 191.661 78.9181 148.537 140.994 104.155C188.474 107.521 235.955 110.887 284.873 114.356C290.173 108.202 295.472 102.047 300.931 95.7067C344.058 57.5632 409.998 38.8391 490.415 22.5445C545.262 20.0114 595.908 20.4789 650.754 22.7438C729.52 22.3966 777.395 -0.252763 864.245 0.866836Z" fill="#F9F8F5"/>
<path d="M243.765 553.011C264.113 556.377 284.462 559.744 305.427 563.212C276.176 571.733 276.176 571.733 246.334 580.427C180.277 604.687 162.46 616.67 140.994 655.023C161.343 658.39 181.691 661.756 202.656 665.225C207.744 658.702 212.831 652.18 218.072 645.46C243.765 624.42 243.765 624.42 287.442 616.769C300.16 615.927 312.878 615.085 325.982 614.218C332.764 624.318 339.547 634.417 346.536 644.822C360.101 641.456 373.667 638.089 387.644 634.621C516.065 629.9 516.065 629.9 581.624 649.923C592.222 654.972 602.821 660.022 613.74 665.225C593.186 695.828 593.186 695.828 556.253 705.312C541.309 708.916 526.366 712.519 510.969 716.231C481.345 729.994 452.256 744.045 423.614 758.311C358.284 787.461 335.163 797.106 246.334 804.217C198.514 801.853 153.639 796.932 106.79 791.545C-16.8769 777.849 -86.5774 774.237 -196.946 807.604C-207.518 811.115 -218.089 814.626 -228.981 818.244C-242.547 821.61 -256.113 824.976 -270.09 828.445C-252.824 778.933 -247.172 763.46 -162.18 733.446C-113.729 721.548 -69.2333 713.853 -17.0164 706.03C39.715 698.536 39.715 698.536 63.9157 677.339C69.0028 669.975 74.09 662.611 79.3313 655.023C112.213 608.396 152.32 575.703 243.765 553.011Z" fill="#E2E5EC"/>
<path d="M1929.21 93.9537C1922.42 104.053 1915.64 114.152 1908.65 124.557C1894.98 127.372 1881.31 130.186 1867.22 133.085C1847.03 138.963 1847.03 138.963 1826.44 144.96C1811.97 171.972 1811.97 171.972 1811.02 202.342C1809.85 212.573 1808.69 222.804 1807.49 233.344C1806.96 241.208 1806.43 249.072 1805.88 257.174C1819.45 257.174 1833.01 257.174 1846.99 257.174C1846.99 263.907 1846.99 270.64 1846.99 277.576C1860.56 277.576 1874.12 277.576 1888.1 277.576C1888.1 304.508 1888.1 331.439 1888.1 359.186C1874.53 359.186 1860.97 359.186 1846.99 359.186C1846.99 365.919 1846.99 372.652 1846.99 379.589C1833.42 379.589 1819.86 379.589 1805.88 379.589C1805.88 386.322 1805.88 393.055 1805.88 399.992C1792.32 399.992 1778.75 399.992 1764.77 399.992C1764.77 406.724 1764.77 413.457 1764.77 420.394C1751.21 420.394 1737.64 420.394 1723.67 420.394C1723.67 427.127 1723.67 433.86 1723.67 440.797C1710.1 440.797 1696.53 440.797 1682.56 440.797C1655.99 398.771 1636.05 362.57 1641.45 318.381C1614.32 318.381 1587.19 318.381 1559.23 318.381C1566.01 304.916 1572.8 291.45 1579.79 277.576C1593.35 277.576 1606.92 277.576 1620.89 277.576C1620.89 270.844 1620.89 264.111 1620.89 257.174C1600.55 253.807 1580.2 250.441 1559.23 246.973C1558.04 218.059 1558.4 201.941 1579.79 175.564C1687.65 122.344 1776.96 92.3111 1929.21 93.9537Z" fill="#CCD6E9"/>
<path d="M1785.33 675.426C1792.11 685.525 1798.89 695.624 1805.88 706.03C1826.23 706.03 1846.58 706.03 1867.55 706.03C1867.55 712.762 1867.55 719.495 1867.55 726.432C1921.81 726.432 1976.07 726.432 2031.98 726.432C2037.91 732.744 2043.85 739.056 2049.96 745.559C2071.8 768.597 2071.8 768.597 2114.2 787.64C2076.94 794.653 2076.94 794.653 2031.98 797.841C1996.01 784.452 1996.01 784.452 1970.32 767.237C1970.32 760.504 1970.32 753.771 1970.32 746.835C1936.4 746.835 1902.49 746.835 1867.55 746.835C1874.33 756.934 1881.11 767.033 1888.1 777.438C1899.38 825.626 1897.68 860.082 1852.13 903.679C1772.88 949.567 1722.65 964.364 1600.34 971.262C1598.65 978.837 1596.95 986.411 1595.2 994.215C1576.92 1027.49 1549.26 1040.73 1497.57 1063.07C1501.39 1053.18 1505.2 1043.3 1509.13 1033.11C1513.58 1017.64 1513.58 1017.64 1518.12 1001.87C1511.34 998.5 1504.56 995.133 1497.57 991.665C1492.76 971.1 1489.07 950.467 1486.01 929.82C1484.29 918.55 1482.56 907.281 1480.79 895.669C1478.92 882.592 1478.92 882.592 1477.02 869.25C1510.93 872.616 1544.85 875.983 1579.79 879.451C1581.06 885.763 1582.33 892.075 1583.64 898.578C1596.76 922.841 1596.76 922.841 1650.44 933.008C1700.54 941.614 1700.54 941.614 1744.22 940.659C1737.44 923.826 1730.66 906.994 1723.67 889.652C1750.8 882.919 1777.93 876.187 1805.88 869.25C1800.63 809.425 1792.37 770.73 1703.11 726.432C1716.68 716.333 1730.24 706.234 1744.22 695.828C1757.79 699.195 1771.35 702.561 1785.33 706.03C1785.33 695.93 1785.33 685.831 1785.33 675.426Z" fill="#698DCB"/>
<path d="M1538.68 216.369C1545.46 226.468 1552.24 236.568 1559.23 246.973C1599.93 246.973 1640.63 246.973 1682.56 246.973C1662.21 250.339 1641.86 253.706 1620.9 257.174C1620.9 263.907 1620.9 270.64 1620.9 277.577C1600.55 282.626 1600.55 282.626 1579.79 287.778C1573 297.877 1566.22 307.976 1559.23 318.382C1586.36 318.382 1613.5 318.382 1641.45 318.382C1674.16 360.996 1686.93 395.214 1682.56 440.797C1696.12 440.797 1709.69 440.797 1723.67 440.797C1723.67 434.064 1723.67 427.331 1723.67 420.394C1737.23 420.394 1750.8 420.394 1764.78 420.394C1764.78 413.662 1764.78 406.929 1764.78 399.992C1778.34 399.992 1791.91 399.992 1805.88 399.992C1792.32 420.19 1778.75 440.389 1764.78 461.199C1724.08 464.566 1683.38 467.932 1641.45 471.401C1641.45 484.866 1641.45 498.332 1641.45 512.206C1582.36 505.83 1582.36 505.83 1518.12 491.803C1491.15 461.837 1491.15 461.837 1477.02 430.596C1470.23 420.496 1463.45 410.397 1456.46 399.992C1470.03 399.992 1483.59 399.992 1497.57 399.992C1497.09 392.128 1496.62 384.264 1496.13 376.162C1495.75 365.932 1495.38 355.701 1495 345.16C1494.52 334.982 1494.05 324.804 1493.56 314.317C1497.57 287.778 1497.57 287.778 1538.68 267.375C1542.11 241.02 1542.11 241.02 1538.68 216.369Z" fill="#96C2ED"/>
<path d="M1785.33 124.558C1771.76 171.688 1758.2 218.818 1744.22 267.376C1757.79 267.376 1771.35 267.376 1785.33 267.376C1780.19 286.503 1780.19 286.503 1764.77 308.181C1722.38 320.932 1722.38 320.932 1682.56 328.583C1682.56 338.683 1682.56 348.782 1682.56 359.187C1668.99 359.187 1655.43 359.187 1641.45 359.187C1641.45 345.721 1641.45 332.256 1641.45 318.382C1614.32 318.382 1587.19 318.382 1559.23 318.382C1566.02 304.916 1572.8 291.451 1579.79 277.577C1593.35 277.577 1606.92 277.577 1620.9 277.577C1620.9 270.844 1620.9 264.111 1620.9 257.175C1600.55 253.808 1580.2 250.442 1559.23 246.973C1571.7 181.384 1571.7 181.384 1605.48 157.075C1661.57 138.185 1716.81 124.558 1785.33 124.558Z" fill="#F8F8F8"/>
<path d="M778.174 134.758C791.739 134.758 805.305 134.758 819.282 134.758C820.944 164.73 822.168 194.679 823.136 224.657C823.653 233.158 824.169 241.66 824.702 250.419C825 262.698 825 262.698 825.304 275.225C825.788 286.524 825.788 286.524 826.282 298.051C817.447 323.709 797.194 332.606 757.62 348.985C777.968 352.351 798.317 355.718 819.282 359.186C819.282 365.919 819.282 372.652 819.282 379.589C832.848 379.589 846.414 379.589 860.39 379.589C873.237 403.817 873.237 403.817 880.945 430.595C867.379 437.328 853.813 444.061 839.836 450.997C830.42 471.118 830.42 471.118 826.99 493.078C824.446 506.122 821.903 519.167 819.282 532.608C805.716 532.608 792.151 532.608 778.174 532.608C771.391 539.34 764.608 546.073 757.62 553.01C747.445 537.861 747.445 537.861 737.065 522.406C716.717 519.04 696.368 515.673 675.403 512.205C668.62 495.373 661.837 478.541 654.849 461.199C681.98 461.199 709.112 461.199 737.065 461.199C741.051 404.819 731.885 361.674 695.957 308.18C716.306 304.813 736.654 301.447 757.62 297.978C764.402 244.116 771.185 190.253 778.174 134.758Z" fill="#B8CDEA"/>
<path d="M1888.1 318.382C1888.1 331.848 1888.1 345.313 1888.1 359.187C1874.53 359.187 1860.97 359.187 1846.99 359.187C1846.99 365.92 1846.99 372.653 1846.99 379.59C1833.43 379.59 1819.86 379.59 1805.88 379.59C1805.88 386.322 1805.88 393.055 1805.88 399.992C1792.32 399.992 1778.75 399.992 1764.77 399.992C1764.77 406.725 1764.77 413.458 1764.77 420.395C1751.21 420.395 1737.64 420.395 1723.67 420.395C1723.67 427.127 1723.67 433.86 1723.67 440.797C1710.1 440.797 1696.53 440.797 1682.56 440.797C1668.99 413.866 1655.43 386.934 1641.45 359.187C1655.01 359.187 1668.58 359.187 1682.56 359.187C1689.34 349.088 1696.12 338.989 1703.11 328.583C1703.11 335.316 1703.11 342.049 1703.11 348.986C1714.56 343.936 1726 338.887 1737.8 333.684C1793.17 315.857 1823.43 315.707 1888.1 318.382Z" fill="#E8E6E7"/>
<path d="M1785.33 675.426C1792.11 685.525 1798.89 695.624 1805.88 706.03C1826.23 706.03 1846.58 706.03 1867.55 706.03C1867.55 712.762 1867.55 719.495 1867.55 726.432C1921.81 726.432 1976.07 726.432 2031.98 726.432C2037.91 732.744 2043.85 739.056 2049.96 745.559C2071.8 768.597 2071.8 768.597 2114.2 787.64C2075.66 794.015 2075.66 794.015 2031.98 797.841C2018.41 791.108 2004.85 784.375 1990.87 777.438C1990.87 763.973 1990.87 750.507 1990.87 736.633C1943.39 736.633 1895.91 736.633 1846.99 736.633C1840.21 750.099 1833.43 763.565 1826.44 777.438C1761.46 763.464 1744.37 757.147 1703.11 726.432C1716.68 716.333 1730.24 706.234 1744.22 695.828C1757.79 699.195 1771.35 702.561 1785.33 706.03C1785.33 695.93 1785.33 685.831 1785.33 675.426Z" fill="#749BDA"/>
<path d="M552.077 644.822C572.426 651.555 592.775 658.287 613.74 665.224C593.186 695.828 593.186 695.828 556.253 705.312C541.309 708.915 526.365 712.518 510.969 716.231C481.345 729.994 452.256 744.044 423.614 758.311C359.43 787.577 320.774 803.41 232.203 802.941C208.887 801.258 185.571 799.575 161.548 797.841C238.987 753.584 296.516 742.119 408.198 726.432C431.496 705.859 431.496 705.859 449.307 685.627C503.261 677.976 503.261 677.976 552.077 675.426C552.077 665.326 552.077 655.227 552.077 644.822Z" fill="#B7CBE8"/>
<path d="M860.39 32.7461C887.522 36.1125 914.653 39.4789 942.607 42.9474C916.285 60.366 888.803 77.3637 860.39 93.9537C846.825 93.9537 833.259 93.9537 819.282 93.9537C819.282 107.419 819.282 120.885 819.282 134.759C805.716 134.759 792.15 134.759 778.174 134.759C778.174 188.621 778.174 242.484 778.174 297.979C751.042 301.345 723.91 304.712 695.957 308.18C689.174 314.913 682.391 321.646 675.403 328.583C675.403 318.483 675.403 308.384 675.403 297.979C688.968 294.613 702.534 291.246 716.511 287.778C727.021 254.626 733.706 221.764 739.594 188.355C750.072 137.854 774.833 98.9526 819.282 53.1486C832.848 53.1486 846.413 53.1486 860.39 53.1486C860.39 46.4158 860.39 39.683 860.39 32.7461Z" fill="#E4E4E5"/>
<path d="M819.282 379.589C832.848 379.589 846.414 379.589 860.39 379.589C873.237 403.817 873.237 403.817 880.945 430.596C867.379 437.329 853.813 444.061 839.836 450.998C830.42 471.119 830.42 471.119 826.99 493.078C824.446 506.123 821.903 519.168 819.282 532.608C805.716 532.608 792.151 532.608 778.174 532.608C771.391 539.341 764.608 546.074 757.62 553.011C750.837 542.912 744.054 532.812 737.065 522.407C716.717 519.041 696.368 515.674 675.403 512.206C668.62 495.374 661.837 478.542 654.849 461.199C681.98 461.199 709.112 461.199 737.065 461.199C737.065 467.932 737.065 474.665 737.065 481.602C750.631 481.602 764.197 481.602 778.174 481.602C778.174 468.136 778.174 454.671 778.174 440.797C791.739 440.797 805.305 440.797 819.282 440.797C819.282 420.598 819.282 400.4 819.282 379.589Z" fill="#A7C2E7"/>
<path d="M408.198 553.011C381.066 556.377 353.935 559.743 325.981 563.212C332.764 580.044 339.547 596.876 346.535 614.218C330.426 616.953 314.316 619.689 297.719 622.507C237.985 633.072 237.985 633.072 202.656 665.224C175.524 661.858 148.393 658.492 120.439 655.023C148.32 609.736 185.557 589.575 264.318 563.212C357.9 540.529 357.9 540.529 408.198 553.011Z" fill="#A7BAD8"/>
<path d="M1477.02 869.25C1527.89 874.3 1527.89 874.3 1579.79 879.451C1586.57 889.551 1593.35 899.65 1600.34 910.055C1579.99 913.421 1559.64 916.788 1538.68 920.256C1538.68 926.989 1538.68 933.722 1538.68 940.659C1552.24 940.659 1565.81 940.659 1579.79 940.659C1578 957.246 1575.78 973.822 1573.36 990.39C1572.17 999.621 1570.98 1008.85 1569.75 1018.36C1559.23 1042.67 1559.23 1042.67 1497.57 1063.07C1501.39 1053.19 1505.2 1043.3 1509.13 1033.11C1512.1 1022.8 1515.07 1012.49 1518.12 1001.87C1511.34 998.5 1504.56 995.134 1497.57 991.665C1492.76 971.1 1489.07 950.468 1486.01 929.82C1484.29 918.55 1482.56 907.281 1480.79 895.67C1478.92 882.592 1478.92 882.592 1477.02 869.25Z" fill="#6D8DCD"/>
<path d="M264.319 614.217C306.712 618.68 306.712 618.68 346.536 624.419C346.536 631.151 346.536 637.884 346.536 644.821C400.799 644.821 455.062 644.821 510.969 644.821C504.186 654.92 497.403 665.02 490.415 675.425C452.261 675.109 452.261 675.109 413.337 674.787C353.094 674.734 301.681 676.782 243.765 685.626C230.199 685.626 216.633 685.626 202.656 685.626C195.873 692.359 189.091 699.092 182.102 706.029C182.102 695.929 182.102 685.83 182.102 675.425C195.668 675.425 209.234 675.425 223.211 675.425C226.178 667.219 229.146 659.014 232.203 650.559C243.765 624.419 243.765 624.419 264.319 614.217Z" fill="#E4E8F2"/>
<path d="M1538.68 216.369C1545.46 226.468 1552.24 236.568 1559.23 246.973C1599.93 246.973 1640.63 246.973 1682.56 246.973C1662.21 250.339 1641.86 253.706 1620.89 257.174C1620.89 263.907 1620.89 270.64 1620.89 277.577C1600.55 282.626 1600.55 282.626 1579.79 287.778C1573 297.877 1566.22 307.976 1559.23 318.382C1586.36 318.382 1613.5 318.382 1641.45 318.382C1641.45 331.847 1641.45 345.313 1641.45 359.187C1600.75 359.187 1560.05 359.187 1518.12 359.187C1505.28 324.758 1505.28 324.758 1497.57 287.778C1511.14 281.045 1524.7 274.312 1538.68 267.375C1542.11 241.02 1542.11 241.02 1538.68 216.369Z" fill="#E4E5E3"/>
<path d="M531.524 910.055C538.307 923.52 545.09 936.986 552.078 950.86C626.69 950.86 701.301 950.86 778.174 950.86C778.174 957.593 778.174 964.325 778.174 971.262C758.249 974.208 738.325 977.154 717.796 980.188C652.657 988.014 652.657 988.014 634.295 1012.07C586.815 995.235 539.334 978.403 490.415 961.061C503.981 944.229 517.547 927.397 531.524 910.055Z" fill="#54668A"/>
<path d="M-64.5479 359.188C-17.0677 359.188 30.4125 359.188 79.3314 359.188C79.3314 372.653 79.3314 386.119 79.3314 399.993C-56.8401 430.596 -56.8401 430.596 -126.21 430.596C-87.6713 382.14 -87.6713 382.14 -64.5479 359.188Z" fill="#D0C6CD"/>
<path d="M1600.34 379.589C1627.47 379.589 1654.6 379.589 1682.56 379.589C1682.56 399.788 1682.56 419.986 1682.56 440.797C1696.12 440.797 1709.69 440.797 1723.67 440.797C1723.67 434.064 1723.67 427.331 1723.67 420.394C1737.23 420.394 1750.8 420.394 1764.77 420.394C1764.77 413.662 1764.77 406.929 1764.77 399.992C1778.34 399.992 1791.91 399.992 1805.88 399.992C1792.32 420.19 1778.75 440.389 1764.77 461.199C1724.08 461.199 1683.38 461.199 1641.45 461.199C1641.45 451.1 1641.45 441.001 1641.45 430.596C1627.88 430.596 1614.32 430.596 1600.34 430.596C1600.34 413.764 1600.34 396.932 1600.34 379.589Z" fill="#A3C6F0"/>
<path d="M-2.88576 991.665C24.2458 998.398 51.3773 1005.13 79.331 1012.07C79.331 1022.17 79.331 1032.27 79.331 1042.67C106.463 1046.04 133.594 1049.4 161.548 1052.87C161.548 1046.14 161.548 1039.41 161.548 1032.47C209.028 1032.47 256.508 1032.47 305.427 1032.47C266.242 1052.76 235.22 1062.33 178.73 1065.82C49.9922 1066.97 49.9922 1066.97 -23.4399 1042.67C-16.6571 1025.84 -9.87418 1009.01 -2.88576 991.665Z" fill="#7085B4"/>
<path d="M264.319 399.992C329.297 442.991 332.904 451.617 325.982 502.004C353.114 502.004 380.245 502.004 408.199 502.004C408.199 515.47 408.199 528.936 408.199 542.809C381.067 546.176 353.936 549.542 325.982 553.011C339.548 539.545 353.114 526.079 367.09 512.206C333.176 508.839 299.262 505.473 264.319 502.004C264.319 468.34 264.319 434.676 264.319 399.992Z" fill="#DED7DE"/>
<path d="M38.223 185.765C93.4225 213.161 101.129 240.609 120.44 277.576C50.0965 289.214 -4.6681 288.779 -78.6789 288.415C-115.044 288.277 -115.044 288.277 -152.144 288.136C-170.718 288.018 -189.291 287.9 -208.427 287.778C-208.427 284.411 -208.427 281.045 -208.427 277.576C-127.033 277.576 -45.6381 277.576 38.223 277.576C34.4076 266.215 30.5922 254.853 26.6613 243.147C17.6688 206.168 17.6688 206.168 38.223 185.765Z" fill="#B6B4B4"/>
<path d="M654.849 1012.07C684.836 1016.94 714.808 1021.83 744.773 1026.73C761.465 1029.45 778.158 1032.18 795.356 1034.98C839.836 1042.67 839.836 1042.67 880.945 1052.87C895.886 1073.06 909.683 1093.47 922.053 1114.08C871.181 1103.98 871.181 1103.98 819.282 1093.68C819.282 1086.94 819.282 1080.21 819.282 1073.27C803.597 1070.75 787.911 1068.22 771.751 1065.62C711.652 1051.75 689.79 1039.45 654.849 1012.07Z" fill="#6C8DC7"/>
<path d="M387.644 634.621C435.124 634.621 482.604 634.621 531.523 634.621C538.306 648.087 545.089 661.552 552.078 675.426C518.163 678.793 484.249 682.159 449.307 685.627C447.611 691.939 445.915 698.251 444.168 704.755C428.752 726.432 428.752 726.432 386.359 739.184C373.218 741.709 360.076 744.234 346.536 746.835C360.101 733.369 373.667 719.904 387.644 706.03C401.21 706.03 414.776 706.03 428.752 706.03C421.97 695.931 415.187 685.831 408.198 675.426C435.33 675.426 462.461 675.426 490.415 675.426C490.415 668.693 490.415 661.96 490.415 655.024C456.501 651.657 422.586 648.291 387.644 644.822C387.644 641.456 387.644 638.09 387.644 634.621Z" fill="#D4DEEE"/>
<path d="M1456.46 399.992C1496.29 407.005 1496.29 407.005 1538.68 420.394C1548.96 445.897 1548.96 445.897 1559.23 471.401C1599.68 485.276 1599.68 485.276 1641.45 491.803C1641.45 498.536 1641.45 505.269 1641.45 512.206C1582.36 505.83 1582.36 505.83 1518.12 491.803C1491.15 461.837 1491.15 461.837 1477.02 430.595C1470.23 420.496 1463.45 410.397 1456.46 399.992Z" fill="#C4DAF2"/>
<path d="M1538.68 920.256C1617.22 925.67 1663.27 935.528 1723.67 961.061C1682.97 964.428 1642.27 967.794 1600.34 971.263C1593.56 988.095 1586.78 1004.93 1579.79 1022.27C1557.25 988.709 1563.35 974.19 1579.79 940.659C1566.22 940.659 1552.66 940.659 1538.68 940.659C1538.68 933.926 1538.68 927.193 1538.68 920.256Z" fill="#5D77AC"/>
<path d="M332.405 743.647C350.634 744.699 368.863 745.751 387.644 746.835C367.09 772.338 367.09 772.338 325.981 797.841C268.558 802.619 220.288 800.231 161.548 797.841C247.559 747.62 247.559 747.62 332.405 743.647Z" fill="#C0D3EE"/>
<path d="M428.753 389.79C562.829 396.068 562.829 396.068 612.456 415.931C619.662 420.77 626.869 425.609 634.294 430.595C627.512 440.694 620.729 450.794 613.74 461.199C579.826 457.832 545.911 454.466 510.969 450.998C510.969 437.532 510.969 424.066 510.969 410.193C483.838 403.46 456.706 396.727 428.753 389.79Z" fill="#9FB9DD"/>
<path d="M552.078 889.652C565.644 899.752 579.209 909.851 593.186 920.256C586.403 926.989 579.62 933.722 572.632 940.659C586.622 938.975 600.611 937.292 615.025 935.558C683.963 929.734 749.478 929.778 819.282 930.457C812.499 940.557 805.716 950.656 798.728 961.061C717.333 957.695 635.939 954.328 552.078 950.86C545.295 934.028 538.512 917.196 531.524 899.854C538.306 896.487 545.089 893.121 552.078 889.652Z" fill="#7392C8"/>
<path d="M1477.02 869.25C1527.89 874.3 1527.89 874.3 1579.79 879.451C1586.57 889.551 1593.35 899.65 1600.34 910.055C1573.21 913.421 1546.08 916.788 1518.12 920.256C1518.12 943.821 1518.12 967.386 1518.12 991.665C1511.34 991.665 1504.56 991.665 1497.57 991.665C1490.79 951.268 1484 910.871 1477.02 869.25Z" fill="#7197D5"/>
<path d="M1189.26 226.57C1218.86 229.188 1248.39 231.986 1277.9 234.859C1294.35 236.397 1310.8 237.936 1327.76 239.521C1379.06 247.745 1401.46 257.383 1435.91 277.577C1429.12 284.309 1422.34 291.042 1415.35 297.979C1405.18 293.14 1395 288.301 1384.52 283.315C1312.69 261.033 1252.78 260.651 1168.7 257.174C1175.49 247.075 1182.27 236.976 1189.26 226.57Z" fill="#D2DBE8"/>
<path d="M963.161 12.3438C1044.56 32.5423 1044.56 32.5423 1127.59 53.1488C1120.81 59.8816 1114.03 66.6145 1107.04 73.5513C1064.65 79.9271 1064.65 79.9271 1024.82 83.7526C1024.82 73.6533 1024.82 63.5541 1024.82 53.1488C997.692 49.7824 970.561 46.416 942.607 42.9475C949.39 32.8483 956.173 22.749 963.161 12.3438Z" fill="#9BC1E7"/>
<path d="M325.981 644.822C387.027 644.822 448.073 644.822 510.968 644.822C504.186 654.921 497.403 665.02 490.414 675.426C436.151 672.059 381.888 668.693 325.981 665.224C325.981 658.491 325.981 651.759 325.981 644.822ZM284.872 665.224C305.221 670.274 305.221 670.274 325.981 675.426C305.632 680.475 305.632 680.475 284.872 685.627C284.872 678.894 284.872 672.161 284.872 665.224Z" fill="#F3F1F1"/>
<path d="M284.873 512.206C312.005 512.206 339.136 512.206 367.09 512.206C356.813 531.333 356.813 531.333 325.981 553.011C271.476 563.059 218.987 567.896 161.548 573.414C161.548 563.314 161.548 553.215 161.548 542.81C202.245 542.81 242.943 542.81 284.873 542.81C284.873 532.711 284.873 522.611 284.873 512.206Z" fill="#F4EDE7"/>
<path d="M223.21 267.375C223.21 277.474 223.21 287.574 223.21 297.979C175.679 309.455 175.679 309.455 120.44 318.381C100.091 311.649 79.7422 304.916 58.777 297.979C58.777 291.246 58.777 284.513 58.777 277.576C118.965 267.619 160.646 266.536 223.21 267.375Z" fill="#DCD6D6"/>
<path d="M757.619 379.589C777.968 379.589 798.316 379.589 819.282 379.589C819.282 399.788 819.282 419.986 819.282 440.797C805.716 440.797 792.15 440.797 778.173 440.797C778.173 454.263 778.173 467.728 778.173 481.602C764.608 478.236 751.042 474.869 737.065 471.401C743.848 441.103 750.631 410.805 757.619 379.589Z" fill="#CBCFDD"/>
<path d="M-64.5479 359.188C-17.0677 359.188 30.4125 359.188 79.3314 359.188C79.3314 362.554 79.3314 365.92 79.3314 369.389C38.6341 369.389 -2.06316 369.389 -43.9937 369.389C-50.7766 382.854 -57.5595 396.32 -64.5479 410.194C-44.1992 413.56 -23.8506 416.927 -2.88532 420.395C-43.5826 423.761 -84.2799 427.128 -126.21 430.596C-87.6713 382.14 -87.6713 382.14 -64.5479 359.188Z" fill="#E3DCE0"/>
<path d="M243.765 359.188C291.246 365.92 338.726 372.653 387.645 379.59C374.079 386.323 360.513 393.056 346.536 399.993C332.2 413.432 318.385 427.017 305.428 440.798C243.765 382.14 243.765 382.14 243.765 359.188Z" fill="#A4BBD4"/>
<path d="M1888.1 318.381C1915.23 325.114 1942.36 331.847 1970.32 338.784C1970.32 352.25 1970.32 365.715 1970.32 379.589C1949.97 376.223 1929.62 372.856 1908.65 369.388C1888.3 372.754 1867.96 376.12 1846.99 379.589C1846.99 372.856 1846.99 366.123 1846.99 359.186C1860.56 359.186 1874.12 359.186 1888.1 359.186C1888.1 345.721 1888.1 332.255 1888.1 318.381ZM1805.88 379.589C1826.23 384.639 1826.23 384.639 1846.99 389.79C1826.64 394.84 1826.64 394.84 1805.88 399.991C1805.88 393.259 1805.88 386.526 1805.88 379.589Z" fill="#9CCAF5"/>
<path d="M1600.34 379.589C1627.47 379.589 1654.6 379.589 1682.56 379.589C1689.34 403.154 1696.12 426.719 1703.11 450.998C1689.55 450.998 1675.98 450.998 1662 450.998C1655.22 444.265 1648.44 437.533 1641.45 430.596C1627.88 430.596 1614.32 430.596 1600.34 430.596C1600.34 413.764 1600.34 396.932 1600.34 379.589Z" fill="#9FC8FD"/>
<path d="M1456.46 287.778C1470.03 291.144 1483.59 294.511 1497.57 297.979C1509.77 324.998 1512.82 351.964 1518.12 379.589C1504.56 379.589 1490.99 379.589 1477.02 379.589C1435.91 348.985 1435.91 348.985 1443.62 316.469C1447.86 307.001 1452.09 297.533 1456.46 287.778Z" fill="#83AAD5"/>
<path d="M572.631 950.859C640.46 950.859 708.289 950.859 778.173 950.859C771.39 957.592 764.607 964.325 757.619 971.262C625.485 984.378 625.485 984.378 572.631 971.262C572.631 964.529 572.631 957.796 572.631 950.859Z" fill="#6278AE"/>
<path d="M367.09 624.419C448.485 624.419 529.879 624.419 613.74 624.419C620.523 631.152 627.306 637.885 634.295 644.822C620.729 651.555 607.163 658.288 593.186 665.224C572.838 658.492 552.489 651.759 531.524 644.822C489.404 640.217 489.404 640.217 445.453 638.446C406.663 636.553 406.663 636.553 367.09 634.621C367.09 631.254 367.09 627.888 367.09 624.419Z" fill="#A3B3D1"/>
<path d="M1888.1 93.9536C1888.1 100.686 1888.1 107.419 1888.1 114.356C1819.92 128.859 1755.69 138.738 1682.56 144.96C1782.01 93.9536 1782.01 93.9536 1888.1 93.9536Z" fill="#DDDFE4"/>
<path d="M1846.99 83.7529C1901.25 83.7529 1955.52 83.7529 2011.42 83.7529C2011.42 100.585 2011.42 117.417 2011.42 134.759C1997.86 134.759 1984.29 134.759 1970.32 134.759C1965.23 128.237 1960.14 121.714 1954.9 114.994C1933 92.0423 1933 92.0423 1885.53 86.3032C1866.45 85.0408 1866.45 85.0408 1846.99 83.7529Z" fill="#9EBEDB"/>
<path d="M1785.33 655.023C1792.11 661.756 1798.89 668.489 1805.88 675.426C1799.1 685.525 1792.32 695.624 1785.33 706.03C1771.76 706.03 1758.2 706.03 1744.22 706.03C1710.82 720.907 1710.82 720.907 1682.56 736.634C1687.7 707.305 1687.7 707.305 1703.11 675.426C1745.5 661.399 1745.5 661.399 1785.33 655.023Z" fill="#7DA9E4"/>
<path d="M654.849 1012.07C715.895 1022.17 776.941 1032.27 839.836 1042.67C799.139 1052.77 799.139 1052.77 757.62 1063.07C723.705 1046.24 689.791 1029.41 654.849 1012.07Z" fill="#6680A0"/>
<path d="M1785.33 318.381C1819.24 318.381 1853.16 318.381 1888.1 318.381C1888.1 331.847 1888.1 345.313 1888.1 359.186C1854.19 362.553 1820.27 365.919 1785.33 369.388C1798.89 355.922 1812.46 342.456 1826.44 328.583C1812.87 325.216 1799.31 321.85 1785.33 318.381Z" fill="#E2E4E8"/>
<path d="M1538.68 216.369C1545.46 226.468 1552.24 236.568 1559.23 246.973C1599.93 246.973 1640.63 246.973 1682.56 246.973C1662.21 250.339 1641.86 253.706 1620.9 257.174C1620.9 263.907 1620.9 270.64 1620.9 277.577C1593.76 274.21 1566.63 270.844 1538.68 267.375C1538.68 250.543 1538.68 233.711 1538.68 216.369Z" fill="#AFB0B4"/>
</g>
<defs>
<clipPath id="clip0_18_908">
<rect width="7437" height="5288" fill="white"/>
</clipPath>
</defs>
</svg>
