<svg width="7437" height="5288" viewBox="0 0 7437 5288" fill="none" xmlns="http://www.w3.org/2000/svg">
<g clip-path="url(#clip0_18_908)">
<path d="M6917.16 252.142C6990.07 267.096 7048.61 284.378 7102.15 313.35C7111.14 351.605 7111.14 351.605 7102.15 384.759C7122.5 394.858 7122.5 394.858 7143.26 405.161C7145.83 437.04 7145.83 437.04 7143.26 466.369C7156.82 466.369 7170.39 466.369 7184.37 466.369C7184.37 473.102 7184.37 479.835 7184.37 486.771C7205.56 487.613 7226.76 488.455 7248.6 489.322C7339.13 498.019 7379.32 510.667 7451.57 537.778C7499.66 518.146 7499.66 518.146 7500.39 483.584C7518.35 430.983 7555.34 409.758 7640.81 378.224C7754.31 341.19 7829.95 326.282 7965.42 333.753C7972.9 342.451 7972.9 342.451 7980.52 351.326C7987.41 359.203 7994.3 367.08 8001.39 375.195C8008.81 383.703 8016.23 392.211 8023.87 400.977C8048 427.778 8048 427.778 8093.89 457.443C8160.39 511.935 8138.93 588.93 8129.86 649.992C8123.07 656.724 8116.29 663.457 8109.3 670.394C8095.74 670.394 8082.17 670.394 8068.19 670.394C8076.96 691.458 8086.01 712.493 8095.17 733.514C8100.18 745.231 8105.19 756.948 8110.35 769.02C8129.32 802.078 8154.89 825.164 8191.52 854.017C8205.65 887.809 8205.65 887.809 8212.07 915.224C8225.64 915.224 8239.21 915.224 8253.18 915.224C8259.61 942.64 8259.61 942.64 8253.18 976.432C8194.65 1012.95 8139.38 1036.17 8047.64 1047.84C8002.68 1046.57 8002.68 1046.57 7965.42 1037.64C7939.73 1016.6 7939.73 1016.6 7924.32 996.835C7890.4 996.835 7856.49 996.835 7821.54 996.835C7828.33 1006.93 7835.11 1017.03 7842.1 1027.44C7853.38 1075.63 7851.68 1110.08 7806.13 1153.68C7726.88 1199.57 7676.65 1214.36 7554.34 1221.26C7552.3 1228.81 7550.26 1236.36 7548.16 1244.14C7532.09 1275.59 7511.38 1290.26 7468.27 1314.35C7456.53 1321.11 7444.79 1327.87 7432.7 1334.83C7332.8 1379.3 7235.91 1389.87 7104.72 1388.95C7083.02 1388.9 7083.02 1388.9 7060.88 1388.85C6944.14 1387.29 6869.43 1375.49 6773.28 1343.68C6773.28 1336.94 6773.28 1330.21 6773.28 1323.27C6752.93 1320.43 6752.93 1320.43 6732.17 1317.54C6656.98 1299.66 6605 1275.48 6544.46 1247.36C6505.66 1229.33 6505.66 1229.33 6444.41 1221.26C6409.41 1232.54 6409.41 1232.54 6376.33 1249.32C6266.72 1298.15 6181.25 1316.52 6034.37 1316.14C5992.22 1313.07 5992.22 1313.07 5930.56 1292.67C5937.34 1275.84 5944.13 1259.01 5951.11 1241.66C5888.13 1246.99 5888.13 1246.99 5841.92 1267.81C5807.23 1282.47 5807.23 1282.47 5734.01 1286.3C5699.04 1284.4 5699.04 1284.4 5663.36 1282.47C5622.25 1251.87 5622.25 1251.87 5622.25 1221.26C5693.47 1216.21 5693.47 1216.21 5766.13 1211.06C5759.34 1204.33 5752.56 1197.6 5745.57 1190.66C5653.08 1194.96 5592.03 1215.06 5516.75 1240.07C5435.14 1265.15 5345.5 1272.4 5252.27 1262.07C5178.59 1237.98 5107.22 1209.9 5067.28 1170.26C5063.62 1140.35 5061.58 1110.92 5060.86 1080.99C5060.26 1072.84 5059.67 1064.69 5059.05 1056.29C5057.85 1000.44 5076.25 970.164 5149.5 925.426C5163.49 915.642 5163.49 915.642 5177.76 905.661C5211.16 894.822 5211.16 894.822 5276.68 898.01C5295.76 900.324 5314.83 902.639 5334.49 905.023C5330.04 892.399 5330.04 892.399 5325.5 879.52C5339.83 822.598 5419.75 791.3 5498.92 752.004C5485.78 749.479 5472.64 746.955 5459.1 744.353C5416.71 731.602 5416.71 731.602 5400.25 713.232C5394.58 682.163 5416.11 670.461 5452.68 645.529C5489.6 619.953 5522.23 596.362 5551.59 568.382C5581.14 547.979 5581.14 547.979 5632.52 540.328C5657.96 539.066 5657.96 539.066 5683.91 537.778C5704.26 534.411 5724.61 531.045 5745.57 527.577C5787.94 526.873 5830.36 526.713 5872.75 526.939C5906.25 527.077 5906.25 527.077 5940.44 527.218C5957.53 527.336 5974.61 527.455 5992.22 527.577C5986.29 517.898 5980.35 508.22 5974.24 498.248C5956.21 441.661 6032.92 398.538 6094.99 354.155C6142.47 357.521 6189.95 360.888 6238.87 364.356C6244.17 358.202 6249.47 352.048 6254.93 345.707C6298.06 307.564 6364 288.84 6444.41 272.545C6499.26 270.012 6549.91 270.479 6604.75 272.744C6716.73 272.251 6788.78 241.797 6917.16 252.142Z" fill="#8DB4E6"/>
<path d="M6818.24 250.867C6836.77 251.051 6855.29 251.235 6874.37 251.425C6888.49 251.661 6902.61 251.898 6917.16 252.142C6891.63 287.227 6864.6 315.921 6814.39 343.953C6800.82 343.953 6787.26 343.953 6773.28 343.953C6773.28 357.419 6773.28 370.885 6773.28 384.758C6759.72 384.758 6746.15 384.758 6732.17 384.758C6732.17 438.621 6732.17 492.484 6732.17 547.979C6705.04 551.345 6677.91 554.711 6649.96 558.18C6660.13 568.069 6670.31 577.958 6680.79 588.146C6719.81 632.519 6717.5 673.763 6711.62 721.4C6653.81 719.487 6653.81 719.487 6588.29 711.199C6580.24 703.204 6572.19 695.208 6563.89 686.971C6509.97 648.214 6447.29 643.261 6358.34 631.501C6342.94 629.299 6327.53 627.096 6311.66 624.827C6273.79 619.44 6235.79 614.29 6197.77 609.186C6206.67 616.958 6206.67 616.958 6215.75 624.887C6263.85 669.15 6290.38 700.379 6279.98 752.004C6307.11 752.004 6334.24 752.004 6362.2 752.004C6362.2 765.47 6362.2 778.935 6362.2 792.809C6348.08 796.018 6333.95 799.226 6319.4 802.532C6300.88 806.898 6282.36 811.264 6263.28 815.762C6244.92 820.022 6226.56 824.283 6207.64 828.673C6153.88 844.639 6127.11 858.141 6094.99 884.62C6094.99 891.353 6094.99 898.086 6094.99 905.023C6115.34 908.389 6135.69 911.756 6156.66 915.224C6161.74 908.702 6166.83 902.179 6172.07 895.459C6197.77 874.419 6197.77 874.419 6241.44 866.768C6254.16 865.926 6266.88 865.085 6279.98 864.218C6286.76 874.317 6293.55 884.416 6300.54 894.822C6314.1 891.455 6327.67 888.089 6341.64 884.62C6470.07 879.899 6470.07 879.899 6535.62 899.922C6546.22 904.972 6556.82 910.021 6567.74 915.224C6547.19 945.828 6547.19 945.828 6510.25 955.312C6495.31 958.915 6480.37 962.518 6464.97 966.23C6435.35 979.994 6406.26 994.044 6377.61 1008.31C6312.28 1037.46 6289.16 1047.11 6200.33 1054.22C6152.51 1051.85 6107.64 1046.93 6060.79 1041.54C5937.12 1027.85 5867.42 1024.24 5757.05 1057.6C5746.48 1061.11 5735.91 1064.63 5725.02 1068.24C5704.67 1073.29 5704.67 1073.29 5683.91 1078.44C5697.48 1054.88 5711.04 1031.31 5725.02 1007.04C5710.18 1011.87 5695.34 1016.71 5680.06 1021.7C5624.41 1037.04 5581.92 1043.41 5519.48 1047.84C5519.48 1054.57 5519.48 1061.31 5519.48 1068.24C5494.89 1068.03 5470.3 1067.82 5444.97 1067.61C5371.9 1067.54 5303.54 1071.31 5231.72 1078.44C5245.28 1061.61 5258.85 1044.78 5272.83 1027.44C5211.78 1027.44 5150.73 1027.44 5087.84 1027.44C5078.56 995.962 5079.04 973.961 5110.96 945.908C5142.07 925.885 5170.15 909.859 5211.16 894.822C5280.53 895.459 5280.53 895.459 5334.49 905.023C5330.04 892.399 5330.04 892.399 5325.5 879.52C5339.83 822.597 5419.75 791.299 5498.92 752.004C5485.78 749.479 5472.64 746.954 5459.1 744.353C5416.71 731.601 5416.71 731.601 5400.25 713.231C5394.58 682.163 5416.11 670.461 5452.68 645.528C5489.6 619.953 5522.23 596.362 5551.59 568.381C5581.14 547.979 5581.14 547.979 5632.53 540.328C5657.96 539.065 5657.96 539.065 5683.91 537.777C5704.26 534.411 5724.61 531.045 5745.57 527.576C5787.94 526.872 5830.36 526.712 5872.75 526.939C5906.26 527.077 5906.26 527.077 5940.44 527.217C5957.53 527.336 5974.62 527.454 5992.22 527.576C5986.29 517.898 5980.35 508.219 5974.24 498.247C5956.21 441.661 6032.92 398.537 6094.99 354.155C6142.47 357.521 6189.95 360.887 6238.87 364.356C6244.17 358.202 6249.47 352.047 6254.93 345.707C6298.06 307.563 6364 288.839 6444.42 272.545C6499.26 270.011 6549.91 270.479 6604.75 272.744C6683.52 272.397 6731.39 249.747 6818.24 250.867Z" fill="#F9F8F5"/>
<path d="M6197.76 803.011C6218.11 806.377 6238.46 809.744 6259.43 813.212C6230.18 821.733 6230.18 821.733 6200.33 830.427C6134.28 854.687 6116.46 866.67 6094.99 905.023C6115.34 908.39 6135.69 911.756 6156.66 915.225C6161.74 908.702 6166.83 902.18 6172.07 895.46C6197.76 874.42 6197.76 874.42 6241.44 866.769C6254.16 865.927 6266.88 865.085 6279.98 864.218C6286.76 874.318 6293.55 884.417 6300.54 894.822C6314.1 891.456 6327.67 888.089 6341.64 884.621C6470.07 879.9 6470.07 879.9 6535.62 899.923C6546.22 904.972 6556.82 910.022 6567.74 915.225C6547.19 945.828 6547.19 945.828 6510.25 955.312C6495.31 958.916 6480.37 962.519 6464.97 966.231C6435.34 979.994 6406.26 994.045 6377.61 1008.31C6312.28 1037.46 6289.16 1047.11 6200.33 1054.22C6152.51 1051.85 6107.64 1046.93 6060.79 1041.54C5937.12 1027.85 5867.42 1024.24 5757.05 1057.6C5746.48 1061.12 5735.91 1064.63 5725.02 1068.24C5711.45 1071.61 5697.89 1074.98 5683.91 1078.44C5701.18 1028.93 5706.83 1013.46 5791.82 983.446C5840.27 971.548 5884.77 963.853 5936.98 956.03C5993.71 948.536 5993.71 948.536 6017.92 927.339C6023 919.975 6028.09 912.611 6033.33 905.023C6066.21 858.396 6106.32 825.703 6197.76 803.011Z" fill="#E2E5EC"/>
<path d="M7739.33 925.426C7746.11 935.525 7752.9 945.624 7759.88 956.03C7780.23 956.03 7800.58 956.03 7821.55 956.03C7821.55 962.762 7821.55 969.495 7821.55 976.432C7875.81 976.432 7930.07 976.432 7985.98 976.432C7991.91 982.744 7997.85 989.056 8003.96 995.559C8025.8 1018.6 8025.8 1018.6 8068.2 1037.64C8030.94 1044.65 8030.94 1044.65 7985.98 1047.84C7950.01 1034.45 7950.01 1034.45 7924.32 1017.24C7924.32 1010.5 7924.32 1003.77 7924.32 996.835C7890.4 996.835 7856.49 996.835 7821.55 996.835C7828.33 1006.93 7835.11 1017.03 7842.1 1027.44C7853.38 1075.63 7851.68 1110.08 7806.13 1153.68C7726.88 1199.57 7676.65 1214.36 7554.34 1221.26C7552.65 1228.84 7550.95 1236.41 7549.2 1244.22C7530.92 1277.49 7503.26 1290.73 7451.57 1313.07C7455.39 1303.18 7459.2 1293.3 7463.13 1283.11C7467.58 1267.64 7467.58 1267.64 7472.12 1251.87C7465.34 1248.5 7458.56 1245.13 7451.57 1241.66C7446.76 1221.1 7443.07 1200.47 7440.01 1179.82C7438.29 1168.55 7436.56 1157.28 7434.79 1145.67C7432.92 1132.59 7432.92 1132.59 7431.02 1119.25C7464.93 1122.62 7498.85 1125.98 7533.79 1129.45C7535.06 1135.76 7536.33 1142.08 7537.64 1148.58C7550.76 1172.84 7550.76 1172.84 7604.44 1183.01C7654.54 1191.61 7654.54 1191.61 7698.22 1190.66C7691.44 1173.83 7684.66 1156.99 7677.67 1139.65C7704.8 1132.92 7731.93 1126.19 7759.88 1119.25C7754.63 1059.42 7746.37 1020.73 7657.11 976.432C7670.68 966.333 7684.24 956.234 7698.22 945.828C7711.79 949.195 7725.35 952.561 7739.33 956.03C7739.33 945.93 7739.33 935.831 7739.33 925.426Z" fill="#698DCB"/>
<path d="M7492.68 466.369C7499.46 476.468 7506.24 486.568 7513.23 496.973C7553.93 496.973 7594.63 496.973 7636.56 496.973C7616.21 500.339 7595.86 503.706 7574.9 507.174C7574.9 513.907 7574.9 520.64 7574.9 527.577C7554.55 532.626 7554.55 532.626 7533.79 537.778C7527 547.877 7520.22 557.976 7513.23 568.382C7540.36 568.382 7567.5 568.382 7595.45 568.382C7628.16 610.996 7640.93 645.214 7636.56 690.797C7650.12 690.797 7663.69 690.797 7677.67 690.797C7677.67 684.064 7677.67 677.331 7677.67 670.394C7691.23 670.394 7704.8 670.394 7718.78 670.394C7718.78 663.662 7718.78 656.929 7718.78 649.992C7732.34 649.992 7745.91 649.992 7759.88 649.992C7746.32 670.19 7732.75 690.389 7718.78 711.199C7678.08 714.566 7637.38 717.932 7595.45 721.401C7595.45 734.866 7595.45 748.332 7595.45 762.206C7536.36 755.83 7536.36 755.83 7472.12 741.803C7445.15 711.837 7445.15 711.837 7431.02 680.596C7424.23 670.496 7417.45 660.397 7410.46 649.992C7424.03 649.992 7437.59 649.992 7451.57 649.992C7451.09 642.128 7450.62 634.264 7450.13 626.162C7449.75 615.932 7449.38 605.701 7449 595.16C7448.52 584.982 7448.05 574.804 7447.56 564.317C7451.57 537.778 7451.57 537.778 7492.68 517.375C7496.11 491.02 7496.11 491.02 7492.68 466.369Z" fill="#96C2ED"/>
<path d="M6732.17 384.758C6745.74 384.758 6759.31 384.758 6773.28 384.758C6774.94 414.73 6776.17 444.679 6777.14 474.657C6777.65 483.158 6778.17 491.66 6778.7 500.419C6779 512.698 6779 512.698 6779.3 525.225C6779.79 536.524 6779.79 536.524 6780.28 548.051C6771.45 573.709 6751.19 582.606 6711.62 598.985C6731.97 602.351 6752.32 605.718 6773.28 609.186C6773.28 615.919 6773.28 622.652 6773.28 629.589C6786.85 629.589 6800.41 629.589 6814.39 629.589C6827.24 653.817 6827.24 653.817 6834.94 680.595C6821.38 687.328 6807.81 694.061 6793.84 700.997C6784.42 721.118 6784.42 721.118 6780.99 743.078C6778.45 756.122 6775.9 769.167 6773.28 782.608C6759.72 782.608 6746.15 782.608 6732.17 782.608C6725.39 789.34 6718.61 796.073 6711.62 803.01C6701.45 787.861 6701.45 787.861 6691.07 772.406C6670.72 769.04 6650.37 765.673 6629.4 762.205C6622.62 745.373 6615.84 728.541 6608.85 711.199C6635.98 711.199 6663.11 711.199 6691.07 711.199C6695.05 654.819 6685.88 611.674 6649.96 558.18C6670.31 554.813 6690.65 551.447 6711.62 547.978C6718.4 494.116 6725.19 440.253 6732.17 384.758Z" fill="#B8CDEA"/>
<path d="M5067.28 986.633C5074.07 1000.1 5080.85 1013.56 5087.84 1027.44C5148.88 1027.44 5209.93 1027.44 5272.83 1027.44C5259.26 1044.27 5245.69 1061.1 5231.72 1078.44C5245.28 1081.81 5258.85 1085.18 5272.83 1088.65C5245.69 1125.68 5218.56 1162.71 5190.61 1200.86C5163.48 1200.86 5136.35 1200.86 5108.39 1200.86C5065.9 1169.23 5062.25 1162.82 5063.27 1127.1C5063.4 1118.91 5063.53 1110.73 5063.67 1102.29C5064.02 1093.79 5064.36 1085.29 5064.71 1076.53C5064.9 1067.91 5065.09 1059.29 5065.28 1050.41C5065.76 1029.15 5066.5 1007.89 5067.28 986.633Z" fill="#92A8C3"/>
<path d="M6506.08 894.822C6526.43 901.555 6546.77 908.287 6567.74 915.224C6547.19 945.828 6547.19 945.828 6510.25 955.312C6495.31 958.915 6480.37 962.518 6464.97 966.231C6435.34 979.994 6406.26 994.044 6377.61 1008.31C6313.43 1037.58 6274.77 1053.41 6186.2 1052.94C6162.89 1051.26 6139.57 1049.57 6115.55 1047.84C6192.99 1003.58 6250.52 992.119 6362.2 976.432C6385.5 955.859 6385.5 955.859 6403.31 935.627C6457.26 927.976 6457.26 927.976 6506.08 925.426C6506.08 915.326 6506.08 905.227 6506.08 894.822Z" fill="#B7CBE8"/>
<path d="M6814.39 282.746C6841.52 286.113 6868.65 289.479 6896.61 292.947C6870.28 310.366 6842.8 327.364 6814.39 343.954C6800.82 343.954 6787.26 343.954 6773.28 343.954C6773.28 357.419 6773.28 370.885 6773.28 384.759C6759.72 384.759 6746.15 384.759 6732.17 384.759C6732.17 438.621 6732.17 492.484 6732.17 547.979C6705.04 551.345 6677.91 554.712 6649.96 558.18C6643.17 564.913 6636.39 571.646 6629.4 578.583C6629.4 568.483 6629.4 558.384 6629.4 547.979C6642.97 544.613 6656.53 541.246 6670.51 537.778C6681.02 504.626 6687.71 471.764 6693.59 438.355C6704.07 387.854 6728.83 348.953 6773.28 303.149C6786.85 303.149 6800.41 303.149 6814.39 303.149C6814.39 296.416 6814.39 289.683 6814.39 282.746Z" fill="#E4E4E5"/>
<path d="M6773.28 629.589C6786.85 629.589 6800.41 629.589 6814.39 629.589C6827.24 653.817 6827.24 653.817 6834.94 680.596C6821.38 687.329 6807.81 694.061 6793.84 700.998C6784.42 721.119 6784.42 721.119 6780.99 743.078C6778.45 756.123 6775.9 769.168 6773.28 782.608C6759.72 782.608 6746.15 782.608 6732.17 782.608C6725.39 789.341 6718.61 796.074 6711.62 803.011C6704.84 792.912 6698.05 782.812 6691.07 772.407C6670.72 769.041 6650.37 765.674 6629.4 762.206C6622.62 745.374 6615.84 728.542 6608.85 711.199C6635.98 711.199 6663.11 711.199 6691.07 711.199C6691.07 717.932 6691.07 724.665 6691.07 731.602C6704.63 731.602 6718.2 731.602 6732.17 731.602C6732.17 718.136 6732.17 704.671 6732.17 690.797C6745.74 690.797 6759.31 690.797 6773.28 690.797C6773.28 670.598 6773.28 650.4 6773.28 629.589Z" fill="#A7C2E7"/>
<path d="M6362.2 803.011C6335.07 806.377 6307.93 809.743 6279.98 813.212C6286.76 830.044 6293.55 846.876 6300.53 864.218C6284.43 866.953 6268.32 869.689 6251.72 872.507C6191.99 883.072 6191.99 883.072 6156.66 915.224C6129.52 911.858 6102.39 908.492 6074.44 905.023C6102.32 859.736 6139.56 839.575 6218.32 813.212C6311.9 790.529 6311.9 790.529 6362.2 803.011Z" fill="#A7BAD8"/>
<path d="M7431.02 1119.25C7481.89 1124.3 7481.89 1124.3 7533.79 1129.45C7540.57 1139.55 7547.35 1149.65 7554.34 1160.06C7533.99 1163.42 7513.64 1166.79 7492.68 1170.26C7492.68 1176.99 7492.68 1183.72 7492.68 1190.66C7506.24 1190.66 7519.81 1190.66 7533.79 1190.66C7532 1207.25 7529.78 1223.82 7527.36 1240.39C7526.17 1249.62 7524.98 1258.85 7523.75 1268.36C7513.23 1292.67 7513.23 1292.67 7451.57 1313.07C7455.39 1303.19 7459.2 1293.3 7463.13 1283.11C7466.1 1272.8 7469.07 1262.49 7472.12 1251.87C7465.34 1248.5 7458.56 1245.13 7451.57 1241.67C7446.76 1221.1 7443.07 1200.47 7440.01 1179.82C7438.29 1168.55 7436.56 1157.28 7434.79 1145.67C7432.92 1132.59 7432.92 1132.59 7431.02 1119.25Z" fill="#6D8DCD"/>
<path d="M6218.32 864.217C6260.71 868.68 6260.71 868.68 6300.54 874.419C6300.54 881.151 6300.54 887.884 6300.54 894.821C6354.8 894.821 6409.06 894.821 6464.97 894.821C6458.19 904.92 6451.4 915.02 6444.41 925.425C6406.26 925.109 6406.26 925.109 6367.34 924.787C6307.09 924.734 6255.68 926.782 6197.76 935.626C6184.2 935.626 6170.63 935.626 6156.66 935.626C6149.87 942.359 6143.09 949.092 6136.1 956.029C6136.1 945.929 6136.1 935.83 6136.1 925.425C6149.67 925.425 6163.23 925.425 6177.21 925.425C6180.18 917.219 6183.15 909.014 6186.2 900.559C6197.76 874.419 6197.76 874.419 6218.32 864.217Z" fill="#E4E8F2"/>
<path d="M5704.46 762.205C5704.46 765.572 5704.46 768.938 5704.46 772.406C5692.3 774.142 5680.14 775.878 5667.61 777.666C5516.32 800.694 5430.37 831.372 5334.49 894.822C5334.49 856.023 5339.35 833.885 5386.52 802.412C5490.59 751.479 5564.41 743.058 5704.46 762.205Z" fill="#CECCCB"/>
<path d="M5766.13 1170.26C5786.47 1173.62 5806.82 1176.99 5827.79 1180.46C5821.01 1193.92 5814.22 1207.39 5807.23 1221.26C5794.09 1222.31 5780.95 1223.37 5767.41 1224.45C5753.42 1226.76 5739.43 1229.08 5725.02 1231.46C5718.24 1241.56 5711.45 1251.66 5704.46 1262.07C5751.94 1255.33 5799.42 1248.6 5848.34 1241.67C5848.34 1251.76 5848.34 1261.86 5848.34 1272.27C5785.8 1287.79 5732.13 1284.91 5663.36 1282.47C5622.25 1251.87 5622.25 1251.87 5622.25 1221.26C5693.47 1216.21 5693.47 1216.21 5766.13 1211.06C5759.34 1200.96 5752.56 1190.86 5745.57 1180.46C5752.36 1177.09 5759.14 1173.72 5766.13 1170.26Z" fill="#738BB4"/>
<path d="M5663.36 1180.46C5580.72 1226.44 5498.82 1258.78 5370.94 1263.9C5331.37 1263.97 5291.79 1263.1 5252.27 1262.07C5245.49 1255.34 5238.71 1248.6 5231.72 1241.67C5306.33 1241.67 5380.94 1241.67 5457.81 1241.67C5457.81 1231.57 5457.81 1221.47 5457.81 1211.06C5593.99 1168.98 5593.99 1168.98 5663.36 1180.46Z" fill="#7A8FAC"/>
<path d="M5951.11 966.231C5910.55 1026.63 5789.56 1048.77 5683.91 1078.44C5705.92 1015.32 5705.92 1015.32 5756.89 993.209C5826.49 972.721 5869.5 966.231 5951.11 966.231Z" fill="#DED9E1"/>
<path d="M5437.26 649.992C5444.04 656.725 5450.83 663.457 5457.81 670.394C5499.43 677.047 5499.43 677.047 5540.03 680.595C5546.81 700.794 5553.6 720.992 5560.59 741.803C5513.05 748.816 5513.05 748.816 5457.81 752.004C5419.28 740.528 5419.28 740.528 5396.15 721.401C5401.52 694.114 5412.6 674.465 5437.26 649.992Z" fill="#CFCFCD"/>
<path d="M6485.52 1160.05C6492.31 1173.52 6499.09 1186.99 6506.08 1200.86C6580.69 1200.86 6655.3 1200.86 6732.17 1200.86C6732.17 1207.59 6732.17 1214.33 6732.17 1221.26C6712.25 1224.21 6692.32 1227.15 6671.8 1230.19C6606.66 1238.01 6606.66 1238.01 6588.29 1262.07C6540.81 1245.24 6493.33 1228.4 6444.42 1211.06C6457.98 1194.23 6471.55 1177.4 6485.52 1160.05Z" fill="#54668A"/>
<path d="M5889.45 609.188C5936.93 609.188 5984.41 609.188 6033.33 609.188C6033.33 622.653 6033.33 636.119 6033.33 649.993C5897.16 680.596 5897.16 680.596 5827.79 680.596C5866.33 632.14 5866.33 632.14 5889.45 609.188Z" fill="#D0C6CD"/>
<path d="M5951.11 1241.67C5978.25 1248.4 6005.38 1255.13 6033.33 1262.07C6033.33 1272.17 6033.33 1282.27 6033.33 1292.67C6060.46 1296.04 6087.59 1299.4 6115.55 1302.87C6115.55 1296.14 6115.55 1289.41 6115.55 1282.47C6163.03 1282.47 6210.51 1282.47 6259.43 1282.47C6220.24 1302.76 6189.22 1312.33 6132.73 1315.82C6003.99 1316.97 6003.99 1316.97 5930.56 1292.67C5937.34 1275.84 5944.13 1259.01 5951.11 1241.67Z" fill="#7085B4"/>
<path d="M6218.32 649.992C6283.3 692.991 6286.9 701.617 6279.98 752.004C6307.11 752.004 6334.24 752.004 6362.2 752.004C6362.2 765.47 6362.2 778.936 6362.2 792.809C6335.07 796.176 6307.94 799.542 6279.98 803.011C6293.55 789.545 6307.11 776.079 6321.09 762.206C6287.18 758.839 6253.26 755.473 6218.32 752.004C6218.32 718.34 6218.32 684.676 6218.32 649.992Z" fill="#DED7DE"/>
<path d="M5992.22 435.765C6047.42 463.161 6055.13 490.609 6074.44 527.576C6004.1 539.214 5949.33 538.779 5875.32 538.415C5838.96 538.277 5838.96 538.277 5801.86 538.136C5783.28 538.018 5764.71 537.9 5745.57 537.778C5745.57 534.411 5745.57 531.045 5745.57 527.576C5826.97 527.576 5908.36 527.576 5992.22 527.576C5988.41 516.215 5984.59 504.853 5980.66 493.147C5971.67 456.168 5971.67 456.168 5992.22 435.765Z" fill="#B6B4B4"/>
<path d="M6608.85 1262.07C6638.84 1266.94 6668.81 1271.83 6698.77 1276.73C6715.47 1279.45 6732.16 1282.18 6749.36 1284.98C6793.84 1292.67 6793.84 1292.67 6834.94 1302.87C6849.89 1323.06 6863.68 1343.47 6876.05 1364.08C6825.18 1353.98 6825.18 1353.98 6773.28 1343.68C6773.28 1336.94 6773.28 1330.21 6773.28 1323.27C6757.6 1320.75 6741.91 1318.22 6725.75 1315.62C6665.65 1301.75 6643.79 1289.45 6608.85 1262.07Z" fill="#6C8DC7"/>
<path d="M5272.83 1027.44C5301.95 1028.89 5331.07 1030.39 5360.18 1031.9C5384.5 1033.14 5384.5 1033.14 5409.32 1034.41C5454.19 1037.4 5496.4 1041.93 5540.03 1047.84C5533.25 1054.57 5526.46 1061.31 5519.48 1068.24C5494.89 1068.03 5470.3 1067.82 5444.97 1067.61C5371.9 1067.54 5303.54 1071.31 5231.72 1078.44C5245.28 1061.61 5258.85 1044.78 5272.83 1027.44Z" fill="#E3E6E9"/>
<path d="M6341.64 884.621C6389.12 884.621 6436.6 884.621 6485.52 884.621C6492.31 898.087 6499.09 911.552 6506.08 925.426C6472.16 928.793 6438.25 932.159 6403.31 935.627C6401.61 941.939 6399.92 948.251 6398.17 954.755C6382.75 976.432 6382.75 976.432 6340.36 989.184C6327.22 991.709 6314.08 994.234 6300.54 996.835C6314.1 983.369 6327.67 969.904 6341.64 956.03C6355.21 956.03 6368.78 956.03 6382.75 956.03C6375.97 945.931 6369.19 935.831 6362.2 925.426C6389.33 925.426 6416.46 925.426 6444.41 925.426C6444.41 918.693 6444.41 911.96 6444.41 905.024C6410.5 901.657 6376.59 898.291 6341.64 894.822C6341.64 891.456 6341.64 888.09 6341.64 884.621Z" fill="#D4DEEE"/>
<path d="M7410.46 649.992C7450.29 657.005 7450.29 657.005 7492.68 670.394C7502.96 695.897 7502.96 695.897 7513.23 721.401C7553.68 735.276 7553.68 735.276 7595.45 741.803C7595.45 748.536 7595.45 755.269 7595.45 762.206C7536.36 755.83 7536.36 755.83 7472.12 741.803C7445.15 711.837 7445.15 711.837 7431.02 680.595C7424.23 670.496 7417.45 660.397 7410.46 649.992Z" fill="#C4DAF2"/>
<path d="M5067.28 1139.65C5114.76 1146.39 5162.24 1153.12 5211.16 1160.05C5197.6 1176.89 5184.03 1193.72 5170.06 1211.06C5130.23 1204.05 5130.23 1204.05 5087.84 1190.66C5072.42 1163.88 5072.42 1163.88 5067.28 1139.65Z" fill="#4E5D77"/>
<path d="M6286.4 993.647C6304.63 994.699 6322.86 995.751 6341.64 996.835C6321.09 1022.34 6321.09 1022.34 6279.98 1047.84C6222.56 1052.62 6174.29 1050.23 6115.55 1047.84C6201.56 997.62 6201.56 997.62 6286.4 993.647Z" fill="#C0D3EE"/>
<path d="M6382.75 639.79C6516.83 646.068 6516.83 646.068 6566.46 665.931C6573.66 670.77 6580.87 675.609 6588.29 680.595C6581.51 690.694 6574.73 700.794 6567.74 711.199C6533.83 707.832 6499.91 704.466 6464.97 700.998C6464.97 687.532 6464.97 674.066 6464.97 660.193C6437.84 653.46 6410.71 646.727 6382.75 639.79Z" fill="#9FB9DD"/>
<path d="M5663.36 925.426C5717.31 929.251 5717.31 929.251 5766.13 935.627C5671.06 985.358 5671.06 985.358 5601.69 996.835C5617.11 948.379 5617.11 948.379 5663.36 925.426Z" fill="#D4CCD0"/>
<path d="M6506.08 1139.65C6519.64 1149.75 6533.21 1159.85 6547.19 1170.26C6540.4 1176.99 6533.62 1183.72 6526.63 1190.66C6540.62 1188.98 6554.61 1187.29 6569.02 1185.56C6637.96 1179.73 6703.48 1179.78 6773.28 1180.46C6766.5 1190.56 6759.72 1200.66 6752.73 1211.06C6671.33 1207.69 6589.94 1204.33 6506.08 1200.86C6499.29 1184.03 6492.51 1167.2 6485.52 1149.85C6492.31 1146.49 6499.09 1143.12 6506.08 1139.65Z" fill="#7392C8"/>
<path d="M7431.02 1119.25C7481.89 1124.3 7481.89 1124.3 7533.79 1129.45C7540.57 1139.55 7547.35 1149.65 7554.34 1160.06C7527.21 1163.42 7500.08 1166.79 7472.12 1170.26C7472.12 1193.82 7472.12 1217.39 7472.12 1241.67C7465.34 1241.67 7458.56 1241.67 7451.57 1241.67C7444.79 1201.27 7438.01 1160.87 7431.02 1119.25Z" fill="#7197D5"/>
<path d="M5663.36 1007.04C5683.7 1007.04 5704.05 1007.04 5725.02 1007.04C5725.02 1020.5 5725.02 1033.97 5725.02 1047.84C5704.67 1047.84 5684.32 1047.84 5663.36 1047.84C5649.79 1054.57 5636.22 1061.31 5622.25 1068.24C5568.29 1069.52 5568.29 1069.52 5519.48 1068.24C5519.48 1061.51 5519.48 1054.78 5519.48 1047.84C5543.64 1043.42 5543.64 1043.42 5568.29 1038.91C5624.24 1028.98 5624.24 1028.98 5663.36 1007.04Z" fill="#A5B6CF"/>
<path d="M7143.26 476.57C7172.86 479.188 7202.39 481.986 7231.9 484.859C7248.35 486.397 7264.8 487.936 7281.76 489.521C7333.06 497.745 7355.46 507.383 7389.91 527.577C7383.12 534.309 7376.34 541.042 7369.35 547.979C7359.18 543.14 7349 538.301 7338.52 533.315C7266.69 511.033 7206.78 510.651 7122.7 507.174C7129.49 497.075 7136.27 486.976 7143.26 476.57Z" fill="#D2DBE8"/>
<path d="M6917.16 262.344C6998.56 282.542 6998.56 282.542 7081.6 303.149C7074.81 309.882 7068.03 316.614 7061.04 323.551C7018.65 329.927 7018.65 329.927 6978.82 333.753C6978.82 323.653 6978.82 313.554 6978.82 303.149C6951.69 299.782 6924.56 296.416 6896.61 292.948C6903.39 282.848 6910.17 272.749 6917.16 262.344Z" fill="#9BC1E7"/>
<path d="M6279.98 894.822C6341.03 894.822 6402.07 894.822 6464.97 894.822C6458.19 904.921 6451.4 915.02 6444.41 925.426C6390.15 922.059 6335.89 918.693 6279.98 915.224C6279.98 908.491 6279.98 901.759 6279.98 894.822ZM6238.87 915.224C6259.22 920.274 6259.22 920.274 6279.98 925.426C6259.63 930.475 6259.63 930.475 6238.87 935.627C6238.87 928.894 6238.87 922.161 6238.87 915.224Z" fill="#F3F1F1"/>
<path d="M6238.87 762.206C6266 762.206 6293.14 762.206 6321.09 762.206C6310.81 781.333 6310.81 781.333 6279.98 803.011C6225.48 813.059 6172.99 817.896 6115.55 823.414C6115.55 813.314 6115.55 803.215 6115.55 792.81C6156.25 792.81 6196.94 792.81 6238.87 792.81C6238.87 782.711 6238.87 772.611 6238.87 762.206Z" fill="#F4EDE7"/>
<path d="M6177.21 517.375C6177.21 527.474 6177.21 537.574 6177.21 547.979C6129.68 559.455 6129.68 559.455 6074.44 568.381C6054.09 561.649 6033.74 554.916 6012.78 547.979C6012.78 541.246 6012.78 534.513 6012.78 527.576C6072.96 517.619 6114.65 516.536 6177.21 517.375Z" fill="#DCD6D6"/>
<path d="M6711.62 629.589C6731.97 629.589 6752.32 629.589 6773.28 629.589C6773.28 649.788 6773.28 669.986 6773.28 690.797C6759.72 690.797 6746.15 690.797 6732.17 690.797C6732.17 704.263 6732.17 717.728 6732.17 731.602C6718.61 728.236 6705.04 724.869 6691.06 721.401C6697.85 691.103 6704.63 660.805 6711.62 629.589Z" fill="#CBCFDD"/>
<path d="M5889.45 609.188C5936.93 609.188 5984.41 609.188 6033.33 609.188C6033.33 612.554 6033.33 615.92 6033.33 619.389C5992.63 619.389 5951.94 619.389 5910.01 619.389C5903.22 632.854 5896.44 646.32 5889.45 660.194C5909.8 663.56 5930.15 666.927 5951.11 670.395C5910.42 673.761 5869.72 677.128 5827.79 680.596C5866.33 632.14 5866.33 632.14 5889.45 609.188Z" fill="#E3DCE0"/>
<path d="M6197.77 609.188C6245.25 615.92 6292.73 622.653 6341.64 629.59C6328.08 636.323 6314.51 643.056 6300.54 649.993C6286.2 663.432 6272.39 677.017 6259.43 690.798C6197.77 632.14 6197.77 632.14 6197.77 609.188Z" fill="#A4BBD4"/>
<path d="M5396.15 803.011C5416.5 809.744 5436.85 816.476 5457.81 823.413C5441.2 835.343 5424.48 847.238 5407.71 859.118C5398.41 865.745 5389.11 872.373 5379.53 879.201C5371.45 884.356 5363.37 889.511 5355.04 894.822C5348.26 894.822 5341.48 894.822 5334.49 894.822C5349.9 825.964 5349.9 825.964 5396.15 803.011Z" fill="#BAB9B9"/>
<path d="M7410.46 537.778C7424.03 541.144 7437.59 544.511 7451.57 547.979C7463.77 574.998 7466.82 601.964 7472.12 629.589C7458.56 629.589 7444.99 629.589 7431.02 629.589C7389.91 598.985 7389.91 598.985 7397.62 566.469C7401.85 557.001 7406.09 547.533 7410.46 537.778Z" fill="#83AAD5"/>
<path d="M6526.63 1200.86C6594.46 1200.86 6662.29 1200.86 6732.17 1200.86C6725.39 1207.59 6718.61 1214.33 6711.62 1221.26C6579.48 1234.38 6579.48 1234.38 6526.63 1221.26C6526.63 1214.53 6526.63 1207.8 6526.63 1200.86Z" fill="#6278AE"/>
<path d="M5272.83 1007.04C5272.83 1013.77 5272.83 1020.5 5272.83 1027.44C5211.78 1027.44 5150.73 1027.44 5087.84 1027.44C5129.24 986.338 5196.28 997.794 5272.83 1007.04Z" fill="#DBDCE3"/>
<path d="M6321.09 874.419C6402.48 874.419 6483.88 874.419 6567.74 874.419C6574.52 881.152 6581.31 887.885 6588.29 894.822C6574.73 901.555 6561.16 908.288 6547.19 915.224C6526.84 908.492 6506.49 901.759 6485.52 894.822C6443.4 890.217 6443.4 890.217 6399.45 888.446C6360.66 886.553 6360.66 886.553 6321.09 884.621C6321.09 881.254 6321.09 877.888 6321.09 874.419Z" fill="#A3B3D1"/>
<path d="M5601.69 537.778C5628.82 537.778 5655.96 537.778 5683.91 537.778C5683.91 544.511 5683.91 551.244 5683.91 558.18C5593.79 588.784 5593.79 588.784 5540.03 588.784C5578.57 549.254 5578.57 549.254 5601.69 537.778Z" fill="#AEAEAE"/>
<path d="M6608.85 1262.07C6669.89 1272.17 6730.94 1282.27 6793.84 1292.67C6753.14 1302.77 6753.14 1302.77 6711.62 1313.07C6677.71 1296.24 6643.79 1279.41 6608.85 1262.07Z" fill="#6680A0"/>
<path d="M5745.57 1047.84C5759.14 1051.21 5772.7 1054.57 5786.68 1058.04C5738.11 1083.81 5711.36 1097.71 5642.8 1109.05C5649.58 1092.22 5656.37 1075.38 5663.36 1058.04C5683.7 1058.04 5704.05 1058.04 5725.02 1058.04C5731.8 1054.68 5738.58 1051.31 5745.57 1047.84Z" fill="#ACBBD5"/>
</g>
<defs>
<clipPath id="clip0_18_908">
<rect width="7437" height="5288" fill="white"/>
</clipPath>
</defs>
</svg>
