<svg width="7437" height="5288" viewBox="0 0 7437 5288" fill="none" xmlns="http://www.w3.org/2000/svg">
<g clip-path="url(#clip0_18_908)">
<path d="M2117.44 645.112C2167.87 652.871 2208.37 661.838 2245.41 676.871C2251.63 696.72 2251.63 696.72 2245.41 713.923C2259.48 719.163 2259.48 719.163 2273.84 724.51C2275.62 741.051 2275.62 741.051 2273.84 756.269C2283.23 756.269 2292.61 756.269 2302.28 756.269C2302.28 759.762 2302.28 763.256 2302.28 766.855C2316.95 767.292 2331.61 767.728 2346.72 768.178C2409.35 772.691 2437.15 779.254 2487.13 793.321C2520.4 783.134 2520.4 783.134 2520.9 765.201C2533.33 737.908 2558.92 726.894 2618.04 710.532C2696.56 691.316 2748.88 683.581 2842.6 687.457C2847.77 691.971 2847.77 691.971 2853.04 696.576C2857.81 700.663 2862.58 704.75 2867.49 708.961C2872.62 713.375 2877.75 717.79 2883.04 722.339C2899.72 736.245 2899.72 736.245 2931.47 751.637C2977.48 779.912 2962.63 819.863 2956.35 851.546C2951.66 855.04 2946.97 858.533 2942.13 862.133C2932.75 862.133 2923.37 862.133 2913.7 862.133C2919.76 873.062 2926.02 883.977 2932.36 894.884C2935.82 900.964 2939.29 907.043 2942.86 913.307C2955.98 930.46 2973.67 942.439 2999.01 957.41C3008.79 974.944 3008.79 974.944 3013.23 989.169C3022.61 989.169 3032 989.169 3041.67 989.169C3046.11 1003.39 3046.11 1003.39 3041.67 1020.93C3001.18 1039.88 2962.94 1051.92 2899.48 1057.98C2868.37 1057.32 2868.37 1057.32 2842.6 1052.69C2824.83 1041.77 2824.83 1041.77 2814.16 1031.51C2790.7 1031.51 2767.24 1031.51 2743.07 1031.51C2747.76 1036.75 2752.45 1042 2757.29 1047.39C2765.09 1072.4 2763.91 1090.28 2732.41 1112.9C2677.58 1136.71 2642.84 1144.39 2558.22 1147.96C2556.81 1151.88 2555.4 1155.8 2553.95 1159.83C2542.83 1176.16 2528.51 1183.77 2498.68 1196.27C2490.56 1199.77 2482.44 1203.28 2474.08 1206.89C2404.96 1229.97 2337.94 1235.45 2247.18 1234.97C2232.17 1234.95 2232.17 1234.95 2216.86 1234.92C2136.1 1234.11 2084.41 1227.99 2017.9 1211.48C2017.9 1207.99 2017.9 1204.5 2017.9 1200.9C2003.83 1199.42 2003.83 1199.42 1989.47 1197.92C1937.45 1188.64 1901.49 1176.1 1859.61 1161.51C1832.77 1152.15 1832.77 1152.15 1790.4 1147.96C1766.19 1153.82 1766.19 1153.82 1743.3 1162.52C1667.48 1187.86 1608.35 1197.39 1506.74 1197.2C1477.58 1195.6 1477.58 1195.6 1434.93 1185.02C1439.62 1176.28 1444.31 1167.55 1449.15 1158.55C1405.57 1161.32 1405.57 1161.32 1373.61 1172.12C1349.61 1179.72 1349.61 1179.72 1298.96 1181.71C1274.76 1180.73 1274.76 1180.73 1250.08 1179.72C1221.64 1163.84 1221.64 1163.84 1221.64 1147.96C1270.91 1145.34 1270.91 1145.34 1321.17 1142.67C1316.48 1139.18 1311.79 1135.68 1306.96 1132.09C1242.98 1134.32 1200.74 1144.75 1148.66 1157.72C1092.2 1170.74 1030.2 1174.5 965.701 1169.14C914.732 1156.64 865.358 1142.07 837.731 1121.5C835.198 1105.98 833.782 1090.71 833.287 1075.18C832.875 1070.95 832.463 1066.72 832.038 1062.36C831.205 1033.39 843.935 1017.68 894.607 994.462C904.284 989.386 904.284 989.386 914.158 984.207C937.263 978.583 937.263 978.583 982.586 980.237C995.783 981.438 1008.98 982.639 1022.58 983.876C1019.5 977.326 1019.5 977.326 1016.36 970.643C1026.27 941.107 1081.56 924.868 1136.33 904.478C1127.24 903.168 1118.15 901.858 1108.78 900.508C1079.45 893.892 1079.45 893.892 1068.07 884.36C1064.14 868.239 1079.04 862.167 1104.34 849.23C1129.88 835.96 1152.45 823.719 1172.76 809.201C1193.2 798.614 1193.2 798.614 1228.75 794.644C1246.35 793.989 1246.35 793.989 1264.3 793.321C1278.38 791.574 1292.45 789.828 1306.96 788.028C1336.27 787.663 1365.61 787.58 1394.94 787.697C1418.11 787.769 1418.11 787.769 1441.76 787.842C1453.58 787.903 1465.4 787.965 1477.58 788.028C1473.48 783.006 1469.37 777.984 1465.14 772.81C1452.67 743.448 1505.74 721.073 1548.68 698.044C1581.52 699.79 1614.37 701.537 1648.21 703.337C1651.88 700.143 1655.54 696.95 1659.32 693.66C1689.15 673.868 1734.77 664.153 1790.4 655.698C1828.34 654.384 1863.38 654.626 1901.32 655.801C1978.78 655.545 2028.62 639.744 2117.44 645.112Z" fill="#8DB4E6"/>
<path d="M2049.01 644.45C2061.82 644.545 2074.63 644.641 2087.83 644.739C2097.6 644.862 2107.37 644.985 2117.44 645.111C2099.78 663.316 2081.07 678.205 2046.34 692.75C2036.96 692.75 2027.57 692.75 2017.9 692.75C2017.9 699.737 2017.9 706.724 2017.9 713.923C2008.52 713.923 1999.14 713.923 1989.47 713.923C1989.47 741.871 1989.47 769.819 1989.47 798.614C1970.7 800.361 1951.93 802.107 1932.59 803.907C1939.63 809.038 1946.67 814.169 1953.92 819.456C1980.91 842.48 1979.31 863.88 1975.25 888.598C1935.26 887.606 1935.26 887.606 1889.93 883.305C1884.36 879.156 1878.79 875.008 1873.05 870.734C1835.75 850.623 1792.39 848.053 1730.86 841.952C1720.2 840.809 1709.54 839.666 1698.56 838.488C1672.37 835.694 1646.08 833.021 1619.77 830.373C1625.93 834.405 1625.93 834.405 1632.22 838.519C1665.49 861.487 1683.84 877.691 1676.65 904.478C1695.42 904.478 1714.19 904.478 1733.53 904.478C1733.53 911.465 1733.53 918.452 1733.53 925.65C1723.76 927.315 1713.99 928.98 1703.92 930.695C1691.11 932.961 1678.3 935.226 1665.1 937.56C1652.39 939.771 1639.69 941.982 1626.61 944.259C1589.42 952.544 1570.9 959.55 1548.68 973.289C1548.68 976.783 1548.68 980.276 1548.68 983.876C1562.76 985.622 1576.83 987.369 1591.34 989.169C1594.85 985.784 1598.37 982.4 1602 978.913C1619.77 967.996 1619.77 967.996 1649.99 964.026C1658.79 963.589 1667.58 963.153 1676.65 962.703C1681.34 967.943 1686.03 973.183 1690.87 978.582C1700.25 976.836 1709.64 975.089 1719.31 973.289C1808.15 970.839 1808.15 970.839 1853.5 981.229C1860.83 983.849 1868.16 986.469 1875.71 989.169C1861.5 1005.05 1861.5 1005.05 1835.95 1009.97C1825.61 1011.84 1815.27 1013.71 1804.62 1015.63C1784.13 1022.78 1764 1030.07 1744.19 1037.47C1699 1052.59 1683 1057.6 1621.55 1061.29C1588.47 1060.06 1557.43 1057.51 1525.02 1054.71C1439.47 1047.61 1391.25 1045.73 1314.9 1063.05C1307.59 1064.87 1300.27 1066.69 1292.74 1068.57C1278.66 1071.19 1278.66 1071.19 1264.3 1073.86C1273.68 1061.63 1283.07 1049.41 1292.74 1036.81C1282.47 1039.32 1272.21 1041.83 1261.63 1044.42C1223.14 1052.38 1193.75 1055.68 1150.55 1057.98C1150.55 1061.47 1150.55 1064.97 1150.55 1068.57C1133.54 1068.46 1116.53 1068.35 1099 1068.24C1048.46 1068.2 1001.17 1070.16 951.483 1073.86C960.867 1065.13 970.252 1056.39 979.921 1047.39C937.69 1047.39 895.46 1047.39 851.95 1047.39C845.53 1031.06 845.865 1019.65 867.947 1005.09C889.466 994.7 908.892 986.385 937.264 978.582C985.253 978.913 985.253 978.913 1022.58 983.876C1019.5 977.325 1019.5 977.325 1016.36 970.643C1026.27 941.107 1081.56 924.867 1136.33 904.478C1127.24 903.168 1118.15 901.857 1108.78 900.508C1079.45 893.891 1079.45 893.891 1068.07 884.359C1064.14 868.239 1079.04 862.167 1104.34 849.23C1129.88 835.96 1152.45 823.719 1172.77 809.2C1193.21 798.614 1193.21 798.614 1228.75 794.644C1246.35 793.989 1246.35 793.989 1264.3 793.321C1278.38 791.574 1292.45 789.827 1306.96 788.027C1336.27 787.662 1365.61 787.579 1394.94 787.697C1418.11 787.768 1418.11 787.768 1441.76 787.841C1453.58 787.903 1465.4 787.964 1477.58 788.027C1473.48 783.005 1469.37 777.984 1465.14 772.809C1452.67 743.448 1505.74 721.072 1548.68 698.043C1581.52 699.79 1614.37 701.537 1648.21 703.336C1651.88 700.143 1655.54 696.95 1659.32 693.66C1689.15 673.868 1734.77 664.152 1790.4 655.698C1828.34 654.383 1863.38 654.626 1901.32 655.801C1955.81 655.621 1988.93 643.869 2049.01 644.45Z" fill="#F9F8F5"/>
<path d="M1619.77 930.944C1633.85 932.691 1647.93 934.438 1662.43 936.238C1642.19 940.659 1642.19 940.659 1621.55 945.17C1575.85 957.758 1563.53 963.976 1548.68 983.876C1562.76 985.623 1576.83 987.37 1591.34 989.169C1594.85 985.785 1598.37 982.401 1602 978.914C1619.77 967.997 1619.77 967.997 1649.99 964.027C1658.79 963.59 1667.58 963.153 1676.65 962.703C1681.34 967.944 1686.03 973.184 1690.87 978.583C1700.25 976.836 1709.64 975.09 1719.31 973.29C1808.14 970.84 1808.14 970.84 1853.5 981.23C1860.83 983.85 1868.16 986.47 1875.71 989.169C1861.5 1005.05 1861.5 1005.05 1835.95 1009.97C1825.61 1011.84 1815.27 1013.71 1804.62 1015.64C1784.13 1022.78 1764 1030.07 1744.19 1037.47C1699 1052.6 1683 1057.6 1621.55 1061.29C1588.47 1060.06 1557.43 1057.51 1525.02 1054.71C1439.47 1047.61 1391.25 1045.73 1314.9 1063.05C1307.59 1064.87 1300.27 1066.69 1292.74 1068.57C1283.35 1070.31 1273.97 1072.06 1264.3 1073.86C1276.24 1048.17 1280.15 1040.14 1338.95 1024.57C1372.47 1018.39 1403.25 1014.4 1439.37 1010.34C1478.62 1006.45 1478.62 1006.45 1495.36 995.455C1498.88 991.634 1502.4 987.813 1506.02 983.876C1528.77 959.682 1556.51 942.719 1619.77 930.944Z" fill="#E2E5EC"/>
<path d="M2785.73 692.751C2781.03 697.991 2776.34 703.231 2771.51 708.63C2762.05 710.09 2752.59 711.55 2742.85 713.055C2728.88 716.105 2728.88 716.105 2714.63 719.216C2704.63 733.232 2704.63 733.232 2703.97 748.991C2703.16 754.299 2702.35 759.608 2701.52 765.077C2701.16 769.157 2700.79 773.238 2700.41 777.442C2709.8 777.442 2719.18 777.442 2728.85 777.442C2728.85 780.935 2728.85 784.429 2728.85 788.028C2738.24 788.028 2747.62 788.028 2757.29 788.028C2757.29 802.002 2757.29 815.976 2757.29 830.374C2747.9 830.374 2738.52 830.374 2728.85 830.374C2728.85 833.867 2728.85 837.361 2728.85 840.96C2719.47 840.96 2710.08 840.96 2700.41 840.96C2700.41 844.453 2700.41 847.947 2700.41 851.546C2691.03 851.546 2681.64 851.546 2671.97 851.546C2671.97 855.04 2671.97 858.533 2671.97 862.133C2662.59 862.133 2653.21 862.133 2643.54 862.133C2643.54 865.626 2643.54 869.12 2643.54 872.719C2634.15 872.719 2624.77 872.719 2615.1 872.719C2596.72 850.913 2582.93 832.129 2586.66 809.201C2567.89 809.201 2549.12 809.201 2529.79 809.201C2534.48 802.214 2539.17 795.227 2544 788.028C2553.39 788.028 2562.77 788.028 2572.44 788.028C2572.44 784.534 2572.44 781.041 2572.44 777.442C2558.37 775.695 2544.29 773.948 2529.79 772.148C2528.96 757.146 2529.21 748.782 2544 735.096C2618.62 707.481 2680.41 691.898 2785.73 692.751Z" fill="#CCD6E9"/>
<path d="M2686.19 994.462C2690.89 999.703 2695.58 1004.94 2700.41 1010.34C2714.49 1010.34 2728.57 1010.34 2743.07 1010.34C2743.07 1013.84 2743.07 1017.33 2743.07 1020.93C2780.61 1020.93 2818.15 1020.93 2856.82 1020.93C2860.93 1024.2 2865.03 1027.48 2869.26 1030.85C2884.37 1042.81 2884.37 1042.81 2913.7 1052.69C2887.93 1056.33 2887.93 1056.33 2856.82 1057.98C2831.94 1051.03 2831.94 1051.03 2814.17 1042.1C2814.17 1038.61 2814.17 1035.11 2814.17 1031.51C2790.7 1031.51 2767.24 1031.51 2743.07 1031.51C2747.76 1036.76 2752.45 1042 2757.29 1047.39C2765.09 1072.4 2763.91 1090.28 2732.41 1112.9C2677.58 1136.71 2642.84 1144.39 2558.22 1147.96C2557.05 1151.9 2555.88 1155.83 2554.67 1159.87C2542.02 1177.14 2522.89 1184.01 2487.13 1195.6C2489.77 1190.47 2492.41 1185.34 2495.13 1180.05C2498.21 1172.03 2498.21 1172.03 2501.35 1163.84C2496.66 1162.1 2491.96 1160.35 2487.13 1158.55C2483.8 1147.88 2481.25 1137.17 2479.13 1126.46C2477.94 1120.61 2476.75 1114.77 2475.52 1108.74C2474.23 1101.96 2474.23 1101.96 2472.91 1095.03C2496.37 1096.78 2519.83 1098.53 2544.01 1100.33C2544.88 1103.6 2545.76 1106.88 2546.67 1110.25C2555.75 1122.84 2555.75 1122.84 2592.88 1128.12C2627.54 1132.58 2627.54 1132.58 2657.76 1132.09C2653.06 1123.35 2648.37 1114.62 2643.54 1105.62C2662.31 1102.13 2681.08 1098.63 2700.41 1095.03C2696.78 1063.99 2691.06 1043.91 2629.32 1020.93C2638.7 1015.69 2648.09 1010.45 2657.76 1005.05C2667.14 1006.8 2676.53 1008.54 2686.19 1010.34C2686.19 1005.1 2686.19 999.861 2686.19 994.462Z" fill="#698DCB"/>
<path d="M2515.57 756.269C2520.26 761.509 2524.95 766.749 2529.79 772.148C2557.94 772.148 2586.09 772.148 2615.1 772.148C2601.02 773.895 2586.95 775.642 2572.44 777.441C2572.44 780.935 2572.44 784.428 2572.44 788.028C2558.37 790.648 2558.37 790.648 2544.01 793.321C2539.31 798.561 2534.62 803.801 2529.79 809.2C2548.56 809.2 2567.32 809.2 2586.66 809.2C2609.29 831.312 2618.13 849.067 2615.1 872.719C2624.48 872.719 2633.87 872.719 2643.54 872.719C2643.54 869.225 2643.54 865.732 2643.54 862.132C2652.92 862.132 2662.31 862.132 2671.98 862.132C2671.98 858.639 2671.98 855.145 2671.98 851.546C2681.36 851.546 2690.74 851.546 2700.41 851.546C2691.03 862.027 2681.64 872.507 2671.98 883.305C2643.82 885.052 2615.67 886.799 2586.66 888.598C2586.66 895.585 2586.66 902.572 2586.66 909.771C2545.78 906.463 2545.78 906.463 2501.35 899.185C2482.69 883.636 2482.69 883.636 2472.91 867.426C2468.22 862.185 2463.53 856.945 2458.69 851.546C2468.08 851.546 2477.46 851.546 2487.13 851.546C2486.8 847.466 2486.47 843.385 2486.13 839.181C2485.87 833.873 2485.62 828.564 2485.35 823.095C2485.02 817.814 2484.69 812.533 2484.35 807.091C2487.13 793.321 2487.13 793.321 2515.57 782.735C2517.94 769.059 2517.94 769.059 2515.57 756.269Z" fill="#96C2ED"/>
<path d="M2686.19 708.63C2676.81 733.085 2667.43 757.539 2657.76 782.735C2667.14 782.735 2676.53 782.735 2686.19 782.735C2682.64 792.66 2682.64 792.66 2671.98 803.908C2642.65 810.524 2642.65 810.524 2615.1 814.494C2615.1 819.734 2615.1 824.975 2615.1 830.374C2605.72 830.374 2596.33 830.374 2586.66 830.374C2586.66 823.387 2586.66 816.4 2586.66 809.201C2567.89 809.201 2549.12 809.201 2529.79 809.201C2534.48 802.214 2539.17 795.227 2544 788.028C2553.39 788.028 2562.77 788.028 2572.44 788.028C2572.44 784.535 2572.44 781.041 2572.44 777.442C2558.37 775.695 2544.29 773.948 2529.79 772.149C2538.41 738.116 2538.41 738.116 2561.78 725.502C2600.58 715.701 2638.8 708.63 2686.19 708.63Z" fill="#F8F8F8"/>
<path d="M1989.47 713.923C1998.85 713.923 2008.23 713.923 2017.9 713.923C2019.05 729.475 2019.9 745.014 2020.57 760.569C2020.93 764.98 2021.28 769.392 2021.65 773.936C2021.86 780.308 2021.86 780.308 2022.07 786.808C2022.4 792.67 2022.4 792.67 2022.75 798.651C2016.63 811.965 2002.62 816.581 1975.25 825.08C1989.32 826.827 2003.4 828.573 2017.9 830.373C2017.9 833.867 2017.9 837.36 2017.9 840.959C2027.29 840.959 2036.67 840.959 2046.34 840.959C2055.23 853.531 2055.23 853.531 2060.56 867.425C2051.18 870.919 2041.79 874.412 2032.12 878.012C2025.61 888.452 2025.61 888.452 2023.24 899.846C2021.48 906.615 2019.72 913.384 2017.9 920.357C2008.52 920.357 1999.13 920.357 1989.47 920.357C1984.77 923.851 1980.08 927.344 1975.25 930.944C1968.21 923.083 1968.21 923.083 1961.03 915.064C1946.95 913.317 1932.87 911.571 1918.37 909.771C1913.68 901.037 1908.99 892.303 1904.15 883.305C1922.92 883.305 1941.69 883.305 1961.03 883.305C1963.79 854.051 1957.44 831.664 1932.59 803.907C1946.67 802.16 1960.74 800.414 1975.25 798.614C1979.94 770.666 1984.63 742.718 1989.47 713.923Z" fill="#B8CDEA"/>
<path d="M837.731 1026.22C842.423 1033.21 847.115 1040.2 851.95 1047.39C894.18 1047.39 936.41 1047.39 979.92 1047.39C970.536 1056.13 961.151 1064.86 951.482 1073.86C960.867 1075.61 970.251 1077.35 979.92 1079.15C961.151 1098.37 942.382 1117.58 923.044 1137.38C904.275 1137.38 885.506 1137.38 866.169 1137.38C836.775 1120.97 834.248 1117.64 834.954 1099.11C835.045 1094.86 835.137 1090.61 835.231 1086.24C835.47 1081.82 835.708 1077.41 835.953 1072.87C836.082 1068.4 836.21 1063.92 836.342 1059.31C836.677 1048.28 837.187 1037.25 837.731 1026.22Z" fill="#92A8C3"/>
<path d="M2757.29 809.201C2757.29 816.188 2757.29 823.175 2757.29 830.374C2747.9 830.374 2738.52 830.374 2728.85 830.374C2728.85 833.867 2728.85 837.361 2728.85 840.96C2719.47 840.96 2710.08 840.96 2700.41 840.96C2700.41 844.454 2700.41 847.947 2700.41 851.547C2691.03 851.547 2681.64 851.547 2671.98 851.547C2671.98 855.04 2671.98 858.534 2671.98 862.133C2662.59 862.133 2653.21 862.133 2643.54 862.133C2643.54 865.626 2643.54 869.12 2643.54 872.719C2634.15 872.719 2624.77 872.719 2615.1 872.719C2605.71 858.745 2596.33 844.771 2586.66 830.374C2596.05 830.374 2605.43 830.374 2615.1 830.374C2619.79 825.134 2624.48 819.893 2629.32 814.494C2629.32 817.988 2629.32 821.481 2629.32 825.081C2637.24 822.46 2645.15 819.84 2653.31 817.141C2691.62 807.891 2712.55 807.813 2757.29 809.201Z" fill="#E8E6E7"/>
<path d="M2686.19 994.462C2690.89 999.703 2695.58 1004.94 2700.41 1010.34C2714.49 1010.34 2728.57 1010.34 2743.07 1010.34C2743.07 1013.84 2743.07 1017.33 2743.07 1020.93C2780.61 1020.93 2818.15 1020.93 2856.82 1020.93C2860.93 1024.2 2865.03 1027.48 2869.26 1030.85C2884.37 1042.81 2884.37 1042.81 2913.7 1052.69C2887.04 1056 2887.04 1056 2856.82 1057.98C2847.44 1054.49 2838.05 1050.99 2828.38 1047.39C2828.38 1040.41 2828.38 1033.42 2828.38 1026.22C2795.54 1026.22 2762.69 1026.22 2728.85 1026.22C2724.16 1033.21 2719.47 1040.2 2714.63 1047.39C2669.68 1040.14 2657.86 1036.87 2629.32 1020.93C2638.7 1015.69 2648.09 1010.45 2657.76 1005.05C2667.14 1006.8 2676.53 1008.54 2686.19 1010.34C2686.19 1005.1 2686.19 999.861 2686.19 994.462Z" fill="#749BDA"/>
<path d="M1833.06 978.583C1847.13 982.076 1861.21 985.57 1875.71 989.169C1861.5 1005.05 1861.5 1005.05 1835.95 1009.97C1825.61 1011.84 1815.27 1013.71 1804.62 1015.63C1784.13 1022.78 1764 1030.07 1744.19 1037.47C1699.79 1052.66 1673.05 1060.87 1611.77 1060.63C1595.65 1059.75 1579.52 1058.88 1562.9 1057.98C1616.47 1035.02 1656.27 1029.07 1733.52 1020.93C1749.64 1010.25 1749.64 1010.25 1761.96 999.755C1799.29 995.785 1799.29 995.785 1833.06 994.462C1833.06 989.222 1833.06 983.982 1833.06 978.583Z" fill="#B7CBE8"/>
<path d="M2046.34 660.991C2065.11 662.738 2083.88 664.485 2103.22 666.284C2085.01 675.323 2066 684.142 2046.34 692.75C2036.96 692.75 2027.57 692.75 2017.9 692.75C2017.9 699.737 2017.9 706.724 2017.9 713.923C2008.52 713.923 1999.13 713.923 1989.47 713.923C1989.47 741.871 1989.47 769.819 1989.47 798.614C1970.7 800.361 1951.93 802.108 1932.59 803.907C1927.9 807.401 1923.21 810.894 1918.37 814.494C1918.37 809.254 1918.37 804.013 1918.37 798.614C1927.76 796.867 1937.14 795.121 1946.81 793.321C1954.08 776.119 1958.7 759.068 1962.78 741.733C1970.03 715.529 1987.15 695.344 2017.9 671.578C2027.29 671.578 2036.67 671.578 2046.34 671.578C2046.34 668.084 2046.34 664.591 2046.34 660.991Z" fill="#E4E4E5"/>
<path d="M2017.9 840.96C2027.29 840.96 2036.67 840.96 2046.34 840.96C2055.23 853.531 2055.23 853.531 2060.56 867.426C2051.18 870.919 2041.79 874.413 2032.12 878.012C2025.61 888.452 2025.61 888.452 2023.24 899.847C2021.48 906.615 2019.72 913.384 2017.9 920.358C2008.52 920.358 1999.13 920.358 1989.47 920.358C1984.77 923.851 1980.08 927.345 1975.25 930.944C1970.55 925.704 1965.86 920.464 1961.03 915.065C1946.95 913.318 1932.87 911.571 1918.37 909.771C1913.68 901.038 1908.99 892.304 1904.15 883.306C1922.92 883.306 1941.69 883.306 1961.03 883.306C1961.03 886.799 1961.03 890.293 1961.03 893.892C1970.41 893.892 1979.8 893.892 1989.47 893.892C1989.47 886.905 1989.47 879.918 1989.47 872.719C1998.85 872.719 2008.23 872.719 2017.9 872.719C2017.9 862.239 2017.9 851.758 2017.9 840.96Z" fill="#A7C2E7"/>
<path d="M1733.52 930.944C1714.76 932.691 1695.99 934.438 1676.65 936.237C1681.34 944.971 1686.03 953.705 1690.87 962.703C1679.72 964.123 1668.58 965.542 1657.1 967.004C1615.78 972.486 1615.78 972.486 1591.33 989.169C1572.57 987.423 1553.8 985.676 1534.46 983.876C1553.75 960.378 1579.51 949.917 1633.99 936.237C1698.73 924.468 1698.73 924.468 1733.52 930.944Z" fill="#A7BAD8"/>
<path d="M2472.91 1095.03C2508.1 1097.65 2508.1 1097.65 2544.01 1100.33C2548.7 1105.57 2553.39 1110.81 2558.22 1116.21C2544.15 1117.95 2530.07 1119.7 2515.57 1121.5C2515.57 1124.99 2515.57 1128.49 2515.57 1132.09C2524.95 1132.09 2534.34 1132.09 2544.01 1132.09C2542.77 1140.69 2541.23 1149.29 2539.56 1157.89C2538.74 1162.68 2537.91 1167.47 2537.06 1172.4C2529.79 1185.02 2529.79 1185.02 2487.13 1195.6C2489.77 1190.47 2492.41 1185.34 2495.13 1180.06C2497.18 1174.71 2499.23 1169.36 2501.35 1163.84C2496.66 1162.1 2491.96 1160.35 2487.13 1158.55C2483.8 1147.88 2481.25 1137.18 2479.13 1126.46C2477.94 1120.61 2476.75 1114.77 2475.52 1108.74C2474.23 1101.96 2474.23 1101.96 2472.91 1095.03Z" fill="#6D8DCD"/>
<path d="M1633.99 962.703C1663.32 965.018 1663.32 965.018 1690.87 967.996C1690.87 971.489 1690.87 974.983 1690.87 978.582C1728.41 978.582 1765.94 978.582 1804.62 978.582C1799.93 983.822 1795.23 989.063 1790.4 994.462C1764.01 994.298 1764.01 994.298 1737.08 994.131C1695.4 994.104 1659.84 995.166 1619.77 999.755C1610.39 999.755 1601 999.755 1591.34 999.755C1586.64 1003.25 1581.95 1006.74 1577.12 1010.34C1577.12 1005.1 1577.12 999.861 1577.12 994.462C1586.5 994.462 1595.89 994.462 1605.55 994.462C1607.61 990.204 1609.66 985.946 1611.78 981.56C1619.77 967.996 1619.77 967.996 1633.99 962.703Z" fill="#E4E8F2"/>
<path d="M1278.52 909.771C1278.52 911.518 1278.52 913.265 1278.52 915.064C1270.11 915.965 1261.69 916.866 1253.02 917.794C1148.37 929.742 1088.91 945.66 1022.58 978.583C1022.58 958.451 1025.94 946.964 1058.57 930.634C1130.56 904.205 1181.63 899.836 1278.52 909.771Z" fill="#CECCCB"/>
<path d="M1321.17 1121.5C1335.25 1123.25 1349.33 1124.99 1363.83 1126.79C1359.14 1133.78 1354.45 1140.77 1349.61 1147.96C1340.52 1148.51 1331.43 1149.06 1322.06 1149.62C1312.39 1150.82 1302.71 1152.02 1292.74 1153.26C1288.04 1158.5 1283.35 1163.74 1278.52 1169.14C1311.36 1165.64 1344.21 1162.15 1378.05 1158.55C1378.05 1163.79 1378.05 1169.03 1378.05 1174.43C1334.78 1182.48 1297.66 1180.99 1250.08 1179.72C1221.64 1163.84 1221.64 1163.84 1221.64 1147.96C1270.91 1145.34 1270.91 1145.34 1321.17 1142.67C1316.48 1137.43 1311.79 1132.19 1306.96 1126.79C1311.65 1125.05 1316.34 1123.3 1321.17 1121.5Z" fill="#738BB4"/>
<path d="M1250.08 1126.79C1192.92 1150.65 1136.26 1167.43 1047.79 1170.09C1020.42 1170.12 993.041 1169.67 965.701 1169.14C961.009 1165.64 956.317 1162.15 951.482 1158.55C1003.1 1158.55 1054.71 1158.55 1107.89 1158.55C1107.89 1153.31 1107.89 1148.07 1107.89 1142.67C1202.09 1120.84 1202.09 1120.84 1250.08 1126.79Z" fill="#7A8FAC"/>
<path d="M2515.57 756.269C2520.26 761.509 2524.95 766.749 2529.79 772.148C2557.94 772.148 2586.09 772.148 2615.1 772.148C2601.02 773.895 2586.95 775.642 2572.44 777.441C2572.44 780.935 2572.44 784.428 2572.44 788.028C2558.37 790.648 2558.37 790.648 2544 793.321C2539.31 798.561 2534.62 803.801 2529.79 809.2C2548.55 809.2 2567.32 809.2 2586.66 809.2C2586.66 816.187 2586.66 823.175 2586.66 830.373C2558.51 830.373 2530.35 830.373 2501.35 830.373C2492.46 812.509 2492.46 812.509 2487.13 793.321C2496.51 789.827 2505.9 786.334 2515.57 782.735C2517.94 769.059 2517.94 769.059 2515.57 756.269Z" fill="#E4E5E3"/>
<path d="M1449.15 1015.64C1421.08 1046.98 1337.38 1058.46 1264.3 1073.86C1279.53 1041.11 1279.53 1041.11 1314.79 1029.63C1362.93 1019 1392.69 1015.64 1449.15 1015.64Z" fill="#DED9E1"/>
<path d="M1093.67 851.546C1098.36 855.04 1103.06 858.533 1107.89 862.133C1136.68 865.585 1136.68 865.585 1164.77 867.426C1169.46 877.906 1174.15 888.387 1178.99 899.185C1146.1 902.824 1146.1 902.824 1107.89 904.478C1081.23 898.523 1081.23 898.523 1065.23 888.599C1068.95 874.441 1076.62 864.245 1093.67 851.546Z" fill="#CFCFCD"/>
<path d="M1818.84 1116.21C1823.53 1123.19 1828.22 1130.18 1833.06 1137.38C1884.67 1137.38 1936.29 1137.38 1989.47 1137.38C1989.47 1140.87 1989.47 1144.37 1989.47 1147.96C1975.68 1149.49 1961.9 1151.02 1947.7 1152.6C1902.64 1156.66 1902.64 1156.66 1889.93 1169.14C1857.09 1160.4 1824.24 1151.67 1790.4 1142.67C1799.79 1133.94 1809.17 1125.2 1818.84 1116.21Z" fill="#54668A"/>
<path d="M1406.49 830.374C1439.33 830.374 1472.18 830.374 1506.02 830.374C1506.02 837.361 1506.02 844.348 1506.02 851.547C1411.82 867.426 1411.82 867.426 1363.83 867.426C1390.49 842.284 1390.49 842.284 1406.49 830.374Z" fill="#D0C6CD"/>
<path d="M2558.22 840.96C2576.99 840.96 2595.76 840.96 2615.1 840.96C2615.1 851.44 2615.1 861.921 2615.1 872.719C2624.48 872.719 2633.87 872.719 2643.54 872.719C2643.54 869.226 2643.54 865.732 2643.54 862.133C2652.92 862.133 2662.31 862.133 2671.98 862.133C2671.98 858.639 2671.98 855.146 2671.98 851.546C2681.36 851.546 2690.74 851.546 2700.41 851.546C2691.03 862.027 2681.64 872.507 2671.98 883.306C2643.82 883.306 2615.67 883.306 2586.66 883.306C2586.66 878.065 2586.66 872.825 2586.66 867.426C2577.28 867.426 2567.89 867.426 2558.22 867.426C2558.22 858.692 2558.22 849.958 2558.22 840.96Z" fill="#A3C6F0"/>
<path d="M1449.15 1158.55C1467.91 1162.04 1486.68 1165.54 1506.02 1169.14C1506.02 1174.38 1506.02 1179.62 1506.02 1185.02C1524.79 1186.76 1543.56 1188.51 1562.9 1190.31C1562.9 1186.82 1562.9 1183.32 1562.9 1179.72C1595.74 1179.72 1628.59 1179.72 1662.43 1179.72C1635.32 1190.25 1613.86 1195.22 1574.78 1197.03C1485.73 1197.62 1485.73 1197.62 1434.93 1185.02C1439.62 1176.28 1444.31 1167.55 1449.15 1158.55Z" fill="#7085B4"/>
<path d="M1633.99 851.546C1678.94 873.858 1681.44 878.334 1676.65 904.478C1695.42 904.478 1714.19 904.478 1733.53 904.478C1733.53 911.465 1733.53 918.452 1733.53 925.651C1714.76 927.398 1695.99 929.145 1676.65 930.944C1686.03 923.957 1695.42 916.97 1705.09 909.771C1681.63 908.025 1658.16 906.278 1633.99 904.478C1633.99 887.011 1633.99 869.543 1633.99 851.546Z" fill="#DED7DE"/>
<path d="M1477.58 740.389C1515.77 754.604 1521.1 768.846 1534.46 788.028C1485.8 794.066 1447.91 793.841 1396.71 793.652C1371.56 793.58 1371.56 793.58 1345.89 793.507C1333.04 793.446 1320.19 793.384 1306.96 793.321C1306.96 791.574 1306.96 789.828 1306.96 788.028C1363.26 788.028 1419.57 788.028 1477.58 788.028C1474.94 782.133 1472.3 776.237 1469.59 770.163C1463.36 750.976 1463.36 750.976 1477.58 740.389Z" fill="#B6B4B4"/>
<path d="M1904.15 1169.14C1924.9 1171.66 1945.63 1174.2 1966.36 1176.75C1977.91 1178.16 1989.45 1179.57 2001.35 1181.03C2032.12 1185.02 2032.12 1185.02 2060.56 1190.31C2070.9 1200.79 2080.44 1211.37 2089 1222.07C2053.81 1216.83 2053.81 1216.83 2017.9 1211.48C2017.9 1207.99 2017.9 1204.5 2017.9 1200.9C2007.05 1199.59 1996.2 1198.28 1985.02 1196.93C1943.45 1189.73 1928.32 1183.35 1904.15 1169.14Z" fill="#6C8DC7"/>
<path d="M979.92 1047.39C1000.07 1048.15 1020.21 1048.92 1040.35 1049.71C1057.18 1050.35 1057.18 1050.35 1074.34 1051.01C1105.38 1052.56 1134.58 1054.91 1164.77 1057.98C1160.07 1061.47 1155.38 1064.97 1150.55 1068.57C1133.54 1068.46 1116.53 1068.35 1099 1068.24C1048.45 1068.2 1001.17 1070.16 951.482 1073.86C960.867 1065.13 970.251 1056.39 979.92 1047.39Z" fill="#E3E6E9"/>
<path d="M1719.31 973.29C1752.15 973.29 1785 973.29 1818.84 973.29C1823.53 980.277 1828.22 987.264 1833.06 994.463C1809.6 996.21 1786.13 997.956 1761.96 999.756C1760.79 1003.03 1759.62 1006.31 1758.41 1009.68C1747.74 1020.93 1747.74 1020.93 1718.42 1027.55C1709.33 1028.86 1700.23 1030.17 1690.87 1031.52C1700.25 1024.53 1709.64 1017.54 1719.31 1010.34C1728.69 1010.34 1738.07 1010.34 1747.74 1010.34C1743.05 1005.1 1738.36 999.862 1733.52 994.463C1752.29 994.463 1771.06 994.463 1790.4 994.463C1790.4 990.969 1790.4 987.476 1790.4 983.876C1766.94 982.13 1743.48 980.383 1719.31 978.583C1719.31 976.836 1719.31 975.09 1719.31 973.29Z" fill="#D4DEEE"/>
<path d="M2458.69 851.546C2486.24 855.185 2486.24 855.185 2515.57 862.133C2522.68 875.366 2522.68 875.366 2529.79 888.599C2557.76 895.799 2557.76 895.799 2586.66 899.185C2586.66 902.679 2586.66 906.172 2586.66 909.771C2545.78 906.463 2545.78 906.463 2501.35 899.185C2482.69 883.636 2482.69 883.636 2472.91 867.426C2468.22 862.186 2463.53 856.945 2458.69 851.546Z" fill="#C4DAF2"/>
<path d="M837.731 1105.62C870.577 1109.11 903.422 1112.61 937.263 1116.21C927.879 1124.94 918.494 1133.67 908.826 1142.67C881.276 1139.03 881.276 1139.03 851.95 1132.09C841.286 1118.19 841.286 1118.19 837.731 1105.62Z" fill="#4E5D77"/>
<path d="M2515.57 1121.5C2569.9 1124.31 2601.76 1129.42 2643.54 1142.67C2615.38 1144.42 2587.23 1146.17 2558.22 1147.96C2553.53 1156.7 2548.84 1165.43 2544 1174.43C2528.41 1157.02 2532.64 1149.48 2544 1132.09C2534.62 1132.09 2525.24 1132.09 2515.57 1132.09C2515.57 1128.59 2515.57 1125.1 2515.57 1121.5Z" fill="#5D77AC"/>
<path d="M1681.09 1029.86C1693.7 1030.41 1706.31 1030.95 1719.31 1031.51C1705.09 1044.75 1705.09 1044.75 1676.65 1057.98C1636.92 1060.46 1603.53 1059.22 1562.9 1057.98C1622.4 1031.92 1622.4 1031.92 1681.09 1029.86Z" fill="#C0D3EE"/>
<path d="M1747.74 846.253C1840.5 849.51 1840.5 849.51 1874.83 859.817C1879.81 862.328 1884.8 864.839 1889.93 867.426C1885.24 872.666 1880.55 877.906 1875.71 883.305C1852.25 881.559 1828.79 879.812 1804.62 878.012C1804.62 871.025 1804.62 864.038 1804.62 856.839C1785.85 853.346 1767.08 849.852 1747.74 846.253Z" fill="#9FB9DD"/>
<path d="M1250.08 994.462C1287.41 996.447 1287.41 996.447 1321.18 999.756C1255.41 1025.56 1255.41 1025.56 1207.42 1031.51C1218.09 1006.37 1218.09 1006.37 1250.08 994.462Z" fill="#D4CCD0"/>
<path d="M1833.06 1105.62C1842.44 1110.86 1851.83 1116.1 1861.5 1121.5C1856.8 1124.99 1852.11 1128.49 1847.28 1132.09C1856.95 1131.21 1866.63 1130.34 1876.6 1129.44C1924.29 1126.42 1969.61 1126.44 2017.9 1126.79C2013.21 1132.03 2008.52 1137.27 2003.68 1142.67C1947.38 1140.93 1891.07 1139.18 1833.06 1137.38C1828.37 1128.65 1823.67 1119.91 1818.84 1110.91C1823.53 1109.17 1828.22 1107.42 1833.06 1105.62Z" fill="#7392C8"/>
<path d="M2472.91 1095.03C2508.1 1097.65 2508.1 1097.65 2544.01 1100.33C2548.7 1105.57 2553.39 1110.81 2558.22 1116.21C2539.46 1117.95 2520.69 1119.7 2501.35 1121.5C2501.35 1133.73 2501.35 1145.95 2501.35 1158.55C2496.66 1158.55 2491.96 1158.55 2487.13 1158.55C2482.44 1137.59 2477.74 1116.63 2472.91 1095.03Z" fill="#7197D5"/>
<path d="M1250.08 1036.81C1264.16 1036.81 1278.23 1036.81 1292.74 1036.81C1292.74 1043.79 1292.74 1050.78 1292.74 1057.98C1278.66 1057.98 1264.58 1057.98 1250.08 1057.98C1240.7 1061.47 1231.31 1064.97 1221.64 1068.57C1184.32 1069.23 1184.32 1069.23 1150.55 1068.57C1150.55 1065.07 1150.55 1061.58 1150.55 1057.98C1167.26 1055.69 1167.26 1055.69 1184.32 1053.35C1223.02 1048.19 1223.02 1048.19 1250.08 1036.81Z" fill="#A5B6CF"/>
<path d="M2273.84 761.562C2294.32 762.92 2314.75 764.372 2335.16 765.863C2346.55 766.661 2357.93 767.459 2369.66 768.282C2405.15 772.549 2420.64 777.55 2444.47 788.028C2439.78 791.521 2435.09 795.015 2430.25 798.614C2423.21 796.103 2416.18 793.592 2408.92 791.005C2359.23 779.444 2317.79 779.246 2259.63 777.442C2264.32 772.201 2269.01 766.961 2273.84 761.562Z" fill="#D2DBE8"/>
<path d="M2117.44 650.405C2173.74 660.885 2173.74 660.885 2231.19 671.578C2226.5 675.071 2221.8 678.565 2216.97 682.164C2187.64 685.472 2187.64 685.472 2160.09 687.457C2160.09 682.217 2160.09 676.977 2160.09 671.578C2141.32 669.831 2122.56 668.084 2103.22 666.284C2107.91 661.044 2112.6 655.804 2117.44 650.405Z" fill="#9BC1E7"/>
<path d="M1676.65 978.583C1718.88 978.583 1761.11 978.583 1804.62 978.583C1799.93 983.823 1795.23 989.063 1790.4 994.462C1752.86 992.715 1715.32 990.969 1676.65 989.169C1676.65 985.675 1676.65 982.182 1676.65 978.583ZM1648.21 989.169C1662.29 991.789 1662.29 991.789 1676.65 994.462C1662.57 997.082 1662.57 997.082 1648.21 999.755C1648.21 996.262 1648.21 992.768 1648.21 989.169Z" fill="#F3F1F1"/>
<path d="M1648.21 909.771C1666.98 909.771 1685.75 909.771 1705.09 909.771C1697.98 919.696 1697.98 919.696 1676.65 930.944C1638.94 936.158 1602.63 938.668 1562.9 941.531C1562.9 936.29 1562.9 931.05 1562.9 925.651C1591.05 925.651 1619.2 925.651 1648.21 925.651C1648.21 920.411 1648.21 915.171 1648.21 909.771Z" fill="#F4EDE7"/>
<path d="M1605.55 782.735C1605.55 787.975 1605.55 793.215 1605.55 798.614C1572.67 804.569 1572.67 804.569 1534.46 809.201C1520.38 805.707 1506.31 802.214 1491.8 798.614C1491.8 795.121 1491.8 791.627 1491.8 788.028C1533.44 782.861 1562.27 782.299 1605.55 782.735Z" fill="#DCD6D6"/>
<path d="M1975.25 840.96C1989.32 840.96 2003.4 840.96 2017.9 840.96C2017.9 851.44 2017.9 861.921 2017.9 872.719C2008.52 872.719 1999.13 872.719 1989.47 872.719C1989.47 879.706 1989.47 886.693 1989.47 893.892C1980.08 892.145 1970.7 890.398 1961.03 888.599C1965.72 872.878 1970.41 857.157 1975.25 840.96Z" fill="#CBCFDD"/>
<path d="M1406.49 830.374C1439.33 830.374 1472.18 830.374 1506.02 830.374C1506.02 832.121 1506.02 833.868 1506.02 835.667C1477.87 835.667 1449.71 835.667 1420.71 835.667C1416.02 842.654 1411.32 849.641 1406.49 856.84C1420.57 858.587 1434.64 860.333 1449.15 862.133C1420.99 863.88 1392.84 865.627 1363.83 867.426C1390.49 842.284 1390.49 842.284 1406.49 830.374Z" fill="#E3DCE0"/>
<path d="M1619.77 830.374C1652.62 833.868 1685.47 837.361 1719.31 840.96C1709.92 844.454 1700.54 847.947 1690.87 851.547C1680.95 858.52 1671.39 865.569 1662.43 872.72C1619.77 842.284 1619.77 842.284 1619.77 830.374Z" fill="#A4BBD4"/>
<path d="M2757.29 809.201C2776.06 812.694 2794.83 816.188 2814.16 819.787C2814.16 826.774 2814.16 833.761 2814.16 840.96C2800.09 839.213 2786.01 837.466 2771.51 835.667C2757.43 837.413 2743.35 839.16 2728.85 840.96C2728.85 837.466 2728.85 833.973 2728.85 830.373C2738.24 830.373 2747.62 830.373 2757.29 830.373C2757.29 823.386 2757.29 816.399 2757.29 809.201ZM2700.41 840.96C2714.49 843.58 2714.49 843.58 2728.85 846.253C2714.77 848.873 2714.77 848.873 2700.41 851.546C2700.41 848.053 2700.41 844.559 2700.41 840.96Z" fill="#9CCAF5"/>
<path d="M1065.23 930.944C1079.31 934.438 1093.39 937.931 1107.89 941.531C1096.4 947.721 1084.83 953.893 1073.23 960.057C1066.8 963.496 1060.37 966.935 1053.74 970.478C1048.15 973.153 1042.56 975.827 1036.8 978.583C1032.1 978.583 1027.41 978.583 1022.58 978.583C1033.24 942.854 1033.24 942.854 1065.23 930.944Z" fill="#BAB9B9"/>
<path d="M2558.22 840.96C2576.99 840.96 2595.76 840.96 2615.1 840.96C2619.79 853.187 2624.48 865.415 2629.32 878.012C2619.93 878.012 2610.55 878.012 2600.88 878.012C2596.19 874.519 2591.5 871.025 2586.66 867.426C2577.28 867.426 2567.89 867.426 2558.22 867.426C2558.22 858.692 2558.22 849.958 2558.22 840.96Z" fill="#9FC8FD"/>
<path d="M2458.69 793.321C2468.08 795.068 2477.46 796.815 2487.13 798.614C2495.57 812.634 2497.68 826.626 2501.35 840.96C2491.96 840.96 2482.58 840.96 2472.91 840.96C2444.47 825.08 2444.47 825.08 2449.8 808.208C2452.74 803.296 2455.67 798.383 2458.69 793.321Z" fill="#83AAD5"/>
<path d="M1847.28 1137.38C1894.2 1137.38 1941.12 1137.38 1989.47 1137.38C1984.77 1140.87 1980.08 1144.37 1975.25 1147.96C1883.84 1154.77 1883.84 1154.77 1847.28 1147.96C1847.28 1144.47 1847.28 1140.98 1847.28 1137.38Z" fill="#6278AE"/>
<path d="M979.921 1036.81C979.921 1040.3 979.921 1043.79 979.921 1047.39C937.691 1047.39 895.46 1047.39 851.95 1047.39C880.593 1026.07 926.968 1032.01 979.921 1036.81Z" fill="#DBDCE3"/>
<path d="M1705.09 967.997C1761.39 967.997 1817.7 967.997 1875.71 967.997C1880.41 971.49 1885.1 974.984 1889.93 978.583C1880.55 982.076 1871.16 985.57 1861.5 989.169C1847.42 985.676 1833.34 982.182 1818.84 978.583C1789.7 976.194 1789.7 976.194 1759.3 975.275C1732.46 974.292 1732.46 974.292 1705.09 973.29C1705.09 971.543 1705.09 969.796 1705.09 967.997Z" fill="#A3B3D1"/>
<path d="M2757.29 692.75C2757.29 696.244 2757.29 699.738 2757.29 703.337C2710.12 710.862 2665.69 715.988 2615.1 719.216C2683.9 692.75 2683.9 692.75 2757.29 692.75Z" fill="#DDDFE4"/>
<path d="M2728.85 687.458C2766.39 687.458 2803.93 687.458 2842.6 687.458C2842.6 696.191 2842.6 704.925 2842.6 713.923C2833.22 713.923 2823.83 713.923 2814.16 713.923C2810.65 710.539 2807.13 707.155 2803.5 703.668C2788.35 691.759 2788.35 691.759 2755.51 688.781C2742.31 688.126 2742.31 688.126 2728.85 687.458Z" fill="#9EBEDB"/>
<path d="M2686.19 983.876C2690.89 987.369 2695.58 990.863 2700.41 994.462C2695.72 999.703 2691.03 1004.94 2686.19 1010.34C2676.81 1010.34 2667.42 1010.34 2657.76 1010.34C2634.65 1018.06 2634.65 1018.06 2615.1 1026.22C2618.65 1011 2618.65 1011 2629.32 994.462C2658.64 987.184 2658.64 987.184 2686.19 983.876Z" fill="#7DA9E4"/>
<path d="M1207.42 793.321C1226.19 793.321 1244.96 793.321 1264.3 793.321C1264.3 796.815 1264.3 800.308 1264.3 803.908C1201.95 819.787 1201.95 819.787 1164.77 819.787C1191.43 799.276 1191.43 799.276 1207.42 793.321Z" fill="#AEAEAE"/>
<path d="M1904.15 1169.14C1946.38 1174.38 1988.61 1179.62 2032.12 1185.02C2003.97 1190.26 2003.97 1190.26 1975.25 1195.6C1951.79 1186.87 1928.32 1178.14 1904.15 1169.14Z" fill="#6680A0"/>
<path d="M1306.96 1057.98C1316.34 1059.73 1325.72 1061.47 1335.39 1063.27C1301.8 1076.64 1283.29 1083.86 1235.86 1089.74C1240.55 1081.01 1245.25 1072.27 1250.08 1063.27C1264.16 1063.27 1278.23 1063.27 1292.74 1063.27C1297.43 1061.53 1302.12 1059.78 1306.96 1057.98Z" fill="#ACBBD5"/>
<path d="M2686.19 809.201C2709.66 809.201 2733.12 809.201 2757.29 809.201C2757.29 816.188 2757.29 823.175 2757.29 830.373C2733.83 832.12 2710.37 833.867 2686.19 835.667C2695.58 828.68 2704.96 821.693 2714.63 814.494C2705.25 812.747 2695.86 811 2686.19 809.201Z" fill="#E2E4E8"/>
<path d="M2515.57 756.269C2520.26 761.509 2524.95 766.749 2529.79 772.148C2557.94 772.148 2586.09 772.148 2615.1 772.148C2601.02 773.895 2586.95 775.642 2572.44 777.441C2572.44 780.935 2572.44 784.428 2572.44 788.028C2553.67 786.281 2534.9 784.534 2515.57 782.735C2515.57 774.001 2515.57 765.267 2515.57 756.269Z" fill="#AFB0B4"/>
</g>
<defs>
<clipPath id="clip0_18_908">
<rect width="7437" height="5288" fill="white"/>
</clipPath>
</defs>
</svg>
