<svg width="7437" height="5288" viewBox="0 0 7437 5288" fill="none" xmlns="http://www.w3.org/2000/svg">
<g clip-path="url(#clip0_18_908)">
<path d="M2589.63 2824.24C2636.74 2832.89 2674.56 2842.89 2709.16 2859.65C2714.97 2881.79 2714.97 2881.79 2709.16 2900.97C2722.31 2906.81 2722.31 2906.81 2735.72 2912.77C2737.38 2931.22 2737.38 2931.22 2735.72 2948.19C2744.49 2948.19 2753.25 2948.19 2762.28 2948.19C2762.28 2952.08 2762.28 2955.98 2762.28 2959.99C2775.98 2960.48 2789.67 2960.96 2803.78 2961.47C2862.28 2966.5 2888.25 2973.82 2934.93 2989.5C2966.01 2978.14 2966.01 2978.14 2966.48 2958.15C2978.08 2927.71 3001.98 2915.43 3057.21 2897.19C3130.55 2875.76 3179.42 2867.13 3266.96 2871.46C3271.78 2876.49 3271.78 2876.49 3276.71 2881.62C3281.16 2886.18 3285.61 2890.74 3290.2 2895.44C3294.99 2900.36 3299.78 2905.28 3304.72 2910.35C3320.31 2925.86 3320.31 2925.86 3349.96 2943.02C3392.93 2974.55 3379.07 3019.1 3373.2 3054.43C3368.82 3058.32 3364.44 3062.22 3359.92 3066.23C3351.16 3066.23 3342.39 3066.23 3333.36 3066.23C3339.02 3078.42 3344.87 3090.59 3350.79 3102.75C3354.03 3109.53 3357.26 3116.31 3360.6 3123.29C3372.86 3142.42 3389.37 3155.78 3413.04 3172.47C3422.18 3192.02 3422.18 3192.02 3426.33 3207.88C3435.09 3207.88 3443.86 3207.88 3452.89 3207.88C3457.04 3223.75 3457.04 3223.75 3452.89 3243.3C3415.07 3264.43 3379.36 3277.86 3320.08 3284.61C3291.03 3283.88 3291.03 3283.88 3266.96 3278.71C3250.35 3266.54 3250.35 3266.54 3240.39 3255.1C3218.48 3255.1 3196.57 3255.1 3173.99 3255.1C3178.37 3260.95 3182.75 3266.79 3187.27 3272.81C3194.56 3300.69 3193.46 3320.62 3164.03 3345.85C3112.82 3372.4 3080.37 3380.96 3001.34 3384.95C3000.02 3389.32 2998.7 3393.69 2997.34 3398.18C2986.96 3416.39 2973.58 3424.87 2945.72 3438.81C2938.14 3442.72 2930.56 3446.63 2922.74 3450.66C2858.19 3476.39 2795.59 3482.5 2710.82 3481.97C2696.8 3481.94 2696.8 3481.94 2682.49 3481.91C2607.06 3481.01 2558.79 3474.18 2496.66 3455.78C2496.66 3451.88 2496.66 3447.99 2496.66 3443.97C2483.52 3442.33 2483.52 3442.33 2470.1 3440.65C2421.52 3430.31 2387.93 3416.32 2348.81 3400.05C2323.75 3389.62 2323.75 3389.62 2284.17 3384.95C2261.55 3391.48 2261.55 3391.48 2240.18 3401.18C2169.36 3429.44 2114.13 3440.06 2019.23 3439.85C1991.99 3438.07 1991.99 3438.07 1952.15 3426.27C1956.53 3416.53 1960.91 3406.79 1965.43 3396.76C1924.73 3399.84 1924.73 3399.84 1894.88 3411.88C1872.46 3420.36 1872.46 3420.36 1825.15 3422.58C1802.55 3421.48 1802.55 3421.48 1779.5 3420.36C1752.94 3402.66 1752.94 3402.66 1752.94 3384.95C1798.95 3382.03 1798.95 3382.03 1845.9 3379.05C1841.52 3375.15 1837.14 3371.26 1832.62 3367.24C1772.86 3369.73 1733.41 3381.36 1684.77 3395.83C1632.04 3410.34 1574.12 3414.54 1513.88 3408.56C1466.27 3394.63 1420.16 3378.38 1394.35 3355.44C1391.99 3338.14 1390.66 3321.11 1390.2 3303.8C1389.82 3299.08 1389.43 3294.36 1389.04 3289.5C1388.26 3257.19 1400.15 3239.67 1447.48 3213.79C1456.52 3208.13 1456.52 3208.13 1465.74 3202.35C1487.32 3196.08 1487.32 3196.08 1529.65 3197.92C1541.98 3199.26 1554.3 3200.6 1567 3201.98C1564.13 3194.68 1564.13 3194.68 1561.19 3187.23C1570.46 3154.29 1622.09 3136.18 1673.25 3113.45C1664.76 3111.99 1656.27 3110.53 1647.52 3109.02C1620.13 3101.64 1620.13 3101.64 1609.49 3091.02C1605.83 3073.04 1619.74 3066.27 1643.37 3051.84C1667.23 3037.05 1688.31 3023.4 1707.28 3007.21C1726.37 2995.4 1726.37 2995.4 1759.58 2990.98C1776.01 2990.25 1776.01 2990.25 1792.78 2989.5C1805.93 2987.55 1819.07 2985.61 1832.62 2983.6C1860 2983.19 1887.41 2983.1 1914.8 2983.23C1936.44 2983.31 1936.44 2983.31 1958.53 2983.39C1969.57 2983.46 1980.61 2983.53 1991.99 2983.6C1988.16 2978 1984.32 2972.4 1980.37 2966.63C1968.72 2933.89 2018.29 2908.94 2058.4 2883.26C2089.07 2885.21 2119.75 2887.16 2151.36 2889.16C2154.79 2885.6 2158.21 2882.04 2161.74 2878.37C2189.6 2856.31 2232.21 2845.47 2284.17 2836.04C2319.61 2834.58 2352.33 2834.85 2387.77 2836.16C2460.13 2835.87 2506.68 2818.25 2589.63 2824.24Z" fill="#8DB4E6"/>
<path d="M2525.72 2823.5C2537.68 2823.61 2549.65 2823.71 2561.98 2823.82C2571.11 2823.96 2580.23 2824.1 2589.63 2824.24C2573.14 2844.54 2555.67 2861.14 2523.23 2877.36C2514.46 2877.36 2505.7 2877.36 2496.67 2877.36C2496.67 2885.15 2496.67 2892.94 2496.67 2900.97C2487.9 2900.97 2479.13 2900.97 2470.1 2900.97C2470.1 2932.13 2470.1 2963.3 2470.1 2995.4C2452.57 2997.35 2435.04 2999.3 2416.98 3001.31C2423.55 3007.03 2430.13 3012.75 2436.9 3018.64C2462.12 3044.32 2460.62 3068.18 2456.82 3095.74C2419.47 3094.64 2419.47 3094.64 2377.14 3089.84C2371.93 3085.21 2366.73 3080.59 2361.37 3075.82C2326.53 3053.4 2286.03 3050.53 2228.56 3043.73C2218.6 3042.45 2208.65 3041.18 2198.39 3039.87C2173.92 3036.75 2149.37 3033.77 2124.8 3030.82C2130.55 3035.31 2130.55 3035.31 2136.42 3039.9C2167.5 3065.51 2184.65 3083.58 2177.92 3113.45C2195.46 3113.45 2212.99 3113.45 2231.05 3113.45C2231.05 3121.24 2231.05 3129.03 2231.05 3137.06C2221.92 3138.91 2212.8 3140.77 2203.4 3142.68C2191.43 3145.21 2179.46 3147.73 2167.13 3150.34C2155.27 3152.8 2143.41 3155.27 2131.18 3157.81C2096.45 3167.05 2079.15 3174.86 2058.4 3190.18C2058.4 3194.07 2058.4 3197.97 2058.4 3201.98C2071.54 3203.93 2084.69 3205.88 2098.24 3207.88C2101.53 3204.11 2104.81 3200.34 2108.2 3196.45C2124.8 3184.28 2124.8 3184.28 2153.02 3179.85C2161.24 3179.36 2169.46 3178.87 2177.92 3178.37C2182.31 3184.22 2186.69 3190.06 2191.21 3196.08C2199.97 3194.13 2208.74 3192.18 2217.77 3190.18C2300.75 3187.45 2300.75 3187.45 2343.11 3199.03C2349.95 3201.95 2356.8 3204.87 2363.86 3207.88C2350.58 3225.59 2350.58 3225.59 2326.71 3231.08C2317.06 3233.16 2307.4 3235.25 2297.45 3237.4C2278.31 3245.36 2259.52 3253.49 2241.01 3261.74C2198.8 3278.61 2183.86 3284.19 2126.46 3288.3C2095.56 3286.93 2066.57 3284.09 2036.3 3280.97C1956.39 3273.05 1911.35 3270.96 1840.04 3290.26C1833.21 3292.29 1826.38 3294.32 1819.34 3296.42C1806.19 3299.34 1806.19 3299.34 1792.78 3302.32C1801.54 3288.69 1810.31 3275.05 1819.34 3261C1809.75 3263.8 1800.17 3266.6 1790.29 3269.49C1754.33 3278.37 1726.88 3282.05 1686.53 3284.61C1686.53 3288.51 1686.53 3292.4 1686.53 3296.42C1670.65 3296.3 1654.76 3296.17 1638.39 3296.05C1591.18 3296.01 1547.01 3298.19 1500.6 3302.32C1509.37 3292.58 1518.13 3282.84 1527.16 3272.81C1487.72 3272.81 1448.27 3272.81 1407.63 3272.81C1401.64 3254.6 1401.95 3241.87 1422.58 3225.64C1442.68 3214.05 1460.82 3204.78 1487.32 3196.08C1532.14 3196.45 1532.14 3196.45 1567 3201.98C1564.13 3194.68 1564.13 3194.68 1561.19 3187.23C1570.46 3154.29 1622.09 3136.18 1673.25 3113.45C1664.76 3111.99 1656.27 3110.53 1647.52 3109.02C1620.13 3101.64 1620.13 3101.64 1609.49 3091.02C1605.83 3073.04 1619.74 3066.27 1643.37 3051.84C1667.23 3037.05 1688.31 3023.4 1707.28 3007.21C1726.38 2995.4 1726.38 2995.4 1759.58 2990.98C1776.01 2990.25 1776.01 2990.25 1792.78 2989.5C1805.93 2987.55 1819.08 2985.61 1832.62 2983.6C1860 2983.19 1887.41 2983.1 1914.8 2983.23C1936.45 2983.31 1936.45 2983.31 1958.53 2983.39C1969.57 2983.46 1980.62 2983.53 1991.99 2983.6C1988.16 2978 1984.32 2972.4 1980.37 2966.63C1968.72 2933.89 2018.29 2908.94 2058.4 2883.26C2089.08 2885.21 2119.75 2887.16 2151.36 2889.16C2154.79 2885.6 2158.21 2882.04 2161.74 2878.37C2189.6 2856.31 2232.21 2845.47 2284.17 2836.04C2319.61 2834.58 2352.33 2834.85 2387.77 2836.16C2438.67 2835.96 2469.6 2822.85 2525.72 2823.5Z" fill="#F9F8F5"/>
<path d="M2124.8 3142.96C2137.95 3144.91 2151.1 3146.86 2164.64 3148.86C2145.74 3153.79 2145.74 3153.79 2126.46 3158.82C2083.78 3172.86 2072.27 3179.79 2058.4 3201.98C2071.54 3203.93 2084.69 3205.88 2098.24 3207.88C2101.53 3204.11 2104.81 3200.34 2108.2 3196.45C2124.8 3184.28 2124.8 3184.28 2153.02 3179.85C2161.24 3179.36 2169.46 3178.87 2177.92 3178.37C2182.31 3184.22 2186.69 3190.06 2191.21 3196.08C2199.97 3194.13 2208.74 3192.18 2217.77 3190.18C2300.74 3187.45 2300.74 3187.45 2343.11 3199.03C2349.95 3201.95 2356.8 3204.87 2363.86 3207.88C2350.58 3225.59 2350.58 3225.59 2326.71 3231.08C2317.06 3233.16 2307.4 3235.25 2297.45 3237.4C2278.31 3245.36 2259.52 3253.49 2241.01 3261.74C2198.8 3278.61 2183.86 3284.19 2126.46 3288.3C2095.56 3286.93 2066.57 3284.09 2036.3 3280.97C1956.39 3273.05 1911.35 3270.96 1840.04 3290.26C1833.21 3292.29 1826.38 3294.32 1819.34 3296.42C1810.58 3298.37 1801.81 3300.31 1792.78 3302.32C1803.94 3273.67 1807.59 3264.72 1862.5 3247.36C1893.81 3240.47 1922.56 3236.02 1956.3 3231.49C1992.96 3227.16 1992.96 3227.16 2008.59 3214.89C2011.88 3210.63 2015.17 3206.37 2018.55 3201.98C2039.8 3175 2065.71 3156.09 2124.8 3142.96Z" fill="#E2E5EC"/>
<path d="M3213.83 2877.36C3209.45 2883.2 3205.07 2889.05 3200.55 2895.07C3191.72 2896.69 3182.88 2898.32 3173.78 2900C3160.74 2903.4 3160.74 2903.4 3147.43 2906.87C3138.08 2922.5 3138.08 2922.5 3137.47 2940.07C3136.71 2945.99 3135.96 2951.91 3135.18 2958.01C3134.84 2962.56 3134.5 2967.11 3134.15 2971.8C3142.91 2971.8 3151.68 2971.8 3160.71 2971.8C3160.71 2975.69 3160.71 2979.59 3160.71 2983.6C3169.47 2983.6 3178.24 2983.6 3187.27 2983.6C3187.27 2999.18 3187.27 3014.76 3187.27 3030.82C3178.5 3030.82 3169.74 3030.82 3160.71 3030.82C3160.71 3034.71 3160.71 3038.61 3160.71 3042.62C3151.94 3042.62 3143.18 3042.62 3134.15 3042.62C3134.15 3046.52 3134.15 3050.41 3134.15 3054.43C3125.38 3054.43 3116.62 3054.43 3107.58 3054.43C3107.58 3058.32 3107.58 3062.22 3107.58 3066.23C3098.82 3066.23 3090.05 3066.23 3081.02 3066.23C3081.02 3070.13 3081.02 3074.02 3081.02 3078.04C3072.26 3078.04 3063.49 3078.04 3054.46 3078.04C3037.3 3053.72 3024.41 3032.78 3027.9 3007.21C3010.37 3007.21 2992.84 3007.21 2974.78 3007.21C2979.16 2999.42 2983.54 2991.63 2988.06 2983.6C2996.82 2983.6 3005.59 2983.6 3014.62 2983.6C3014.62 2979.7 3014.62 2975.81 3014.62 2971.8C3001.47 2969.85 2988.32 2967.9 2974.78 2965.89C2974.01 2949.16 2974.24 2939.84 2988.06 2924.58C3057.75 2893.79 3115.46 2876.41 3213.83 2877.36Z" fill="#CCD6E9"/>
<path d="M3120.87 3213.79C3125.25 3219.63 3129.63 3225.47 3134.15 3231.49C3147.3 3231.49 3160.44 3231.49 3173.99 3231.49C3173.99 3235.39 3173.99 3239.28 3173.99 3243.3C3209.05 3243.3 3244.11 3243.3 3280.24 3243.3C3284.07 3246.95 3287.91 3250.6 3291.86 3254.36C3305.96 3267.69 3305.96 3267.69 3333.36 3278.71C3309.29 3282.77 3309.29 3282.77 3280.24 3284.61C3257 3276.87 3257 3276.87 3240.39 3266.91C3240.39 3263.01 3240.39 3259.12 3240.39 3255.1C3218.48 3255.1 3196.57 3255.1 3173.99 3255.1C3178.37 3260.94 3182.75 3266.79 3187.27 3272.81C3194.56 3300.69 3193.46 3320.62 3164.03 3345.85C3112.82 3372.4 3080.37 3380.96 3001.34 3384.95C3000.24 3389.33 2999.15 3393.72 2998.02 3398.23C2986.2 3417.48 2968.33 3425.14 2934.93 3438.07C2937.4 3432.35 2939.86 3426.63 2942.4 3420.73C2945.28 3411.79 2945.28 3411.79 2948.21 3402.66C2943.83 3400.71 2939.45 3398.76 2934.93 3396.76C2931.82 3384.86 2929.44 3372.92 2927.46 3360.97C2926.35 3354.45 2925.24 3347.93 2924.09 3341.21C2922.88 3333.65 2922.88 3333.65 2921.65 3325.93C2943.57 3327.88 2965.48 3329.82 2988.06 3331.83C2988.88 3335.48 2989.7 3339.13 2990.55 3342.9C2999.02 3356.94 2999.02 3356.94 3033.71 3362.82C3066.08 3367.8 3066.08 3367.8 3094.3 3367.24C3089.92 3357.51 3085.54 3347.77 3081.02 3337.73C3098.55 3333.84 3116.09 3329.94 3134.15 3325.93C3130.75 3291.31 3125.41 3268.93 3067.74 3243.3C3076.51 3237.45 3085.27 3231.61 3094.3 3225.59C3103.07 3227.54 3111.84 3229.49 3120.87 3231.49C3120.87 3225.65 3120.87 3219.81 3120.87 3213.79Z" fill="#698DCB"/>
<path d="M2961.5 2948.19C2965.88 2954.03 2970.26 2959.87 2974.78 2965.89C3001.07 2965.89 3027.37 2965.89 3054.46 2965.89C3041.31 2967.84 3028.17 2969.79 3014.62 2971.79C3014.62 2975.69 3014.62 2979.59 3014.62 2983.6C3001.47 2986.52 3001.47 2986.52 2988.06 2989.5C2983.68 2995.34 2979.29 3001.19 2974.78 3007.21C2992.31 3007.21 3009.84 3007.21 3027.9 3007.21C3049.04 3031.86 3057.29 3051.66 3054.46 3078.03C3063.23 3078.03 3071.99 3078.03 3081.02 3078.03C3081.02 3074.14 3081.02 3070.24 3081.02 3066.23C3089.79 3066.23 3098.55 3066.23 3107.59 3066.23C3107.59 3062.34 3107.59 3058.44 3107.59 3054.43C3116.35 3054.43 3125.12 3054.43 3134.15 3054.43C3125.38 3066.11 3116.62 3077.8 3107.59 3089.84C3081.29 3091.79 3054.99 3093.73 3027.9 3095.74C3027.9 3103.53 3027.9 3111.32 3027.9 3119.35C2989.72 3115.66 2989.72 3115.66 2948.22 3107.55C2930.78 3090.21 2930.78 3090.21 2921.65 3072.13C2917.27 3066.29 2912.89 3060.45 2908.37 3054.43C2917.14 3054.43 2925.9 3054.43 2934.93 3054.43C2934.63 3049.88 2934.32 3045.33 2934 3040.64C2933.76 3034.72 2933.52 3028.8 2933.27 3022.7C2932.97 3016.81 2932.66 3010.92 2932.34 3004.86C2934.93 2989.5 2934.93 2989.5 2961.5 2977.7C2963.71 2962.45 2963.71 2962.45 2961.5 2948.19Z" fill="#96C2ED"/>
<path d="M3120.87 2895.07C3112.1 2922.33 3103.34 2949.6 3094.3 2977.7C3103.07 2977.7 3111.84 2977.7 3120.87 2977.7C3117.55 2988.76 3117.55 2988.76 3107.59 3001.31C3080.19 3008.68 3080.19 3008.68 3054.46 3013.11C3054.46 3018.95 3054.46 3024.8 3054.46 3030.82C3045.7 3030.82 3036.93 3030.82 3027.9 3030.82C3027.9 3023.03 3027.9 3015.24 3027.9 3007.21C3010.37 3007.21 2992.84 3007.21 2974.78 3007.21C2979.16 2999.42 2983.54 2991.63 2988.06 2983.6C2996.82 2983.6 3005.59 2983.6 3014.62 2983.6C3014.62 2979.7 3014.62 2975.81 3014.62 2971.8C3001.47 2969.85 2988.32 2967.9 2974.78 2965.89C2982.83 2927.94 2982.83 2927.94 3004.66 2913.88C3040.9 2902.95 3076.6 2895.07 3120.87 2895.07Z" fill="#F8F8F8"/>
<path d="M2470.1 2900.97C2478.87 2900.97 2487.63 2900.97 2496.67 2900.97C2497.74 2918.31 2498.53 2935.64 2499.16 2952.98C2499.49 2957.9 2499.82 2962.82 2500.17 2967.89C2500.36 2974.99 2500.36 2974.99 2500.56 2982.24C2500.87 2988.78 2500.87 2988.78 2501.19 2995.45C2495.48 3010.29 2482.39 3015.44 2456.82 3024.91C2469.97 3026.86 2483.12 3028.81 2496.67 3030.82C2496.67 3034.71 2496.67 3038.61 2496.67 3042.62C2505.43 3042.62 2514.2 3042.62 2523.23 3042.62C2531.53 3056.64 2531.53 3056.64 2536.51 3072.13C2527.74 3076.03 2518.98 3079.92 2509.95 3083.94C2503.86 3095.58 2503.86 3095.58 2501.65 3108.28C2500 3115.83 2498.36 3123.38 2496.67 3131.15C2487.9 3131.15 2479.13 3131.15 2470.1 3131.15C2465.72 3135.05 2461.34 3138.95 2456.82 3142.96C2450.25 3134.19 2450.25 3134.19 2443.54 3125.25C2430.39 3123.3 2417.25 3121.36 2403.7 3119.35C2399.32 3109.61 2394.93 3099.87 2390.42 3089.84C2407.95 3089.84 2425.48 3089.84 2443.54 3089.84C2446.12 3057.22 2440.19 3032.26 2416.98 3001.31C2430.13 2999.36 2443.28 2997.41 2456.82 2995.4C2461.21 2964.24 2465.59 2933.08 2470.1 2900.97Z" fill="#B8CDEA"/>
<path d="M1394.35 3249.2C1398.74 3256.99 1403.12 3264.78 1407.63 3272.81C1447.08 3272.81 1486.52 3272.81 1527.16 3272.81C1518.4 3282.55 1509.63 3292.29 1500.6 3302.32C1509.37 3304.27 1518.13 3306.22 1527.16 3308.22C1509.63 3329.65 1492.1 3351.07 1474.04 3373.15C1456.51 3373.15 1438.98 3373.15 1420.91 3373.15C1393.46 3354.84 1391.1 3351.14 1391.76 3330.47C1391.84 3325.73 1391.93 3321 1392.02 3316.12C1392.24 3311.2 1392.46 3306.28 1392.69 3301.21C1392.81 3296.23 1392.93 3291.24 1393.06 3286.1C1393.37 3273.8 1393.84 3261.5 1394.35 3249.2Z" fill="#92A8C3"/>
<path d="M3187.27 3007.21C3187.27 3015 3187.27 3022.79 3187.27 3030.82C3178.5 3030.82 3169.74 3030.82 3160.71 3030.82C3160.71 3034.71 3160.71 3038.61 3160.71 3042.62C3151.94 3042.62 3143.18 3042.62 3134.15 3042.62C3134.15 3046.52 3134.15 3050.41 3134.15 3054.43C3125.38 3054.43 3116.62 3054.43 3107.58 3054.43C3107.58 3058.32 3107.58 3062.22 3107.58 3066.23C3098.82 3066.23 3090.05 3066.23 3081.02 3066.23C3081.02 3070.13 3081.02 3074.02 3081.02 3078.04C3072.26 3078.04 3063.49 3078.04 3054.46 3078.04C3045.7 3062.45 3036.93 3046.87 3027.9 3030.82C3036.67 3030.82 3045.43 3030.82 3054.46 3030.82C3058.84 3024.97 3063.23 3019.13 3067.74 3013.11C3067.74 3017.01 3067.74 3020.9 3067.74 3024.92C3075.14 3021.99 3082.53 3019.07 3090.15 3016.06C3125.93 3005.75 3145.49 3005.66 3187.27 3007.21Z" fill="#E8E6E7"/>
<path d="M3120.87 3213.79C3125.25 3219.63 3129.63 3225.47 3134.15 3231.49C3147.29 3231.49 3160.44 3231.49 3173.99 3231.49C3173.99 3235.39 3173.99 3239.28 3173.99 3243.3C3209.05 3243.3 3244.11 3243.3 3280.24 3243.3C3284.07 3246.95 3287.91 3250.6 3291.86 3254.36C3305.96 3267.69 3305.96 3267.69 3333.36 3278.71C3308.46 3282.4 3308.46 3282.4 3280.24 3284.61C3271.47 3280.72 3262.71 3276.82 3253.67 3272.81C3253.67 3265.02 3253.67 3257.23 3253.67 3249.2C3223 3249.2 3192.32 3249.2 3160.71 3249.2C3156.33 3256.99 3151.94 3264.78 3147.43 3272.81C3105.44 3264.72 3094.4 3261.07 3067.74 3243.3C3076.51 3237.45 3085.27 3231.61 3094.3 3225.59C3103.07 3227.54 3111.83 3229.49 3120.87 3231.49C3120.87 3225.65 3120.87 3219.81 3120.87 3213.79Z" fill="#749BDA"/>
<path d="M2324.01 3196.08C2337.16 3199.98 2350.31 3203.87 2363.86 3207.88C2350.58 3225.59 2350.58 3225.59 2326.71 3231.08C2317.06 3233.16 2307.4 3235.25 2297.45 3237.4C2278.31 3245.36 2259.52 3253.49 2241.01 3261.74C2199.54 3278.67 2174.56 3287.84 2117.33 3287.56C2102.26 3286.59 2087.2 3285.62 2071.68 3284.61C2121.71 3259.01 2158.89 3252.37 2231.05 3243.3C2246.1 3231.39 2246.1 3231.39 2257.61 3219.69C2292.47 3215.26 2292.47 3215.26 2324.01 3213.79C2324.01 3207.94 2324.01 3202.1 2324.01 3196.08Z" fill="#B7CBE8"/>
<path d="M2523.23 2841.95C2540.76 2843.89 2558.29 2845.84 2576.35 2847.85C2559.34 2857.93 2541.59 2867.76 2523.23 2877.36C2514.46 2877.36 2505.7 2877.36 2496.66 2877.36C2496.66 2885.15 2496.66 2892.94 2496.66 2900.97C2487.9 2900.97 2479.13 2900.97 2470.1 2900.97C2470.1 2932.13 2470.1 2963.3 2470.1 2995.4C2452.57 2997.35 2435.04 2999.3 2416.98 3001.31C2412.6 3005.2 2408.21 3009.1 2403.7 3013.11C2403.7 3007.27 2403.7 3001.42 2403.7 2995.4C2412.46 2993.46 2421.23 2991.51 2430.26 2989.5C2437.05 2970.32 2441.37 2951.31 2445.18 2931.98C2451.95 2902.76 2467.94 2880.25 2496.66 2853.75C2505.43 2853.75 2514.2 2853.75 2523.23 2853.75C2523.23 2849.85 2523.23 2845.96 2523.23 2841.95Z" fill="#E4E4E5"/>
<path d="M2496.67 3042.62C2505.43 3042.62 2514.2 3042.62 2523.23 3042.62C2531.53 3056.64 2531.53 3056.64 2536.51 3072.13C2527.74 3076.03 2518.98 3079.92 2509.95 3083.94C2503.86 3095.58 2503.86 3095.58 2501.65 3108.28C2500 3115.83 2498.36 3123.38 2496.67 3131.15C2487.9 3131.15 2479.13 3131.15 2470.1 3131.15C2465.72 3135.05 2461.34 3138.95 2456.82 3142.96C2452.44 3137.12 2448.06 3131.27 2443.54 3125.25C2430.39 3123.3 2417.25 3121.36 2403.7 3119.35C2399.32 3109.61 2394.93 3099.87 2390.42 3089.84C2407.95 3089.84 2425.48 3089.84 2443.54 3089.84C2443.54 3093.73 2443.54 3097.63 2443.54 3101.64C2452.31 3101.64 2461.07 3101.64 2470.1 3101.64C2470.1 3093.85 2470.1 3086.06 2470.1 3078.03C2478.87 3078.03 2487.63 3078.03 2496.67 3078.03C2496.67 3066.35 2496.67 3054.66 2496.67 3042.62Z" fill="#A7C2E7"/>
<path d="M2231.05 3142.96C2213.52 3144.91 2195.99 3146.85 2177.92 3148.86C2182.31 3158.6 2186.69 3168.34 2191.2 3178.37C2180.8 3179.96 2170.39 3181.54 2159.66 3183.17C2121.07 3189.28 2121.07 3189.28 2098.24 3207.88C2080.71 3205.94 2063.18 3203.99 2045.12 3201.98C2063.13 3175.78 2087.19 3164.11 2138.08 3148.86C2198.55 3135.74 2198.55 3135.74 2231.05 3142.96Z" fill="#A7BAD8"/>
<path d="M2921.65 3325.93C2954.52 3328.85 2954.52 3328.85 2988.06 3331.83C2992.44 3337.67 2996.82 3343.52 3001.34 3349.54C2988.19 3351.49 2975.04 3353.43 2961.5 3355.44C2961.5 3359.34 2961.5 3363.23 2961.5 3367.24C2970.26 3367.24 2979.03 3367.24 2988.06 3367.24C2986.9 3376.84 2985.47 3386.43 2983.91 3396.02C2983.14 3401.36 2982.37 3406.7 2981.57 3412.2C2974.78 3426.27 2974.78 3426.27 2934.93 3438.07C2937.4 3432.35 2939.86 3426.63 2942.4 3420.73C2944.32 3414.77 2946.24 3408.8 2948.21 3402.66C2943.83 3400.71 2939.45 3398.76 2934.93 3396.76C2931.82 3384.86 2929.44 3372.92 2927.46 3360.97C2926.35 3354.45 2925.24 3347.93 2924.09 3341.21C2922.88 3333.65 2922.88 3333.65 2921.65 3325.93Z" fill="#6D8DCD"/>
<path d="M2138.08 3178.37C2165.47 3180.96 2165.47 3180.96 2191.21 3184.28C2191.21 3188.17 2191.21 3192.07 2191.21 3196.08C2226.27 3196.08 2261.33 3196.08 2297.45 3196.08C2293.07 3201.92 2288.69 3207.77 2284.17 3213.79C2259.52 3213.6 2259.52 3213.6 2234.37 3213.42C2195.44 3213.39 2162.22 3214.57 2124.8 3219.69C2116.04 3219.69 2107.27 3219.69 2098.24 3219.69C2093.86 3223.58 2089.47 3227.48 2084.96 3231.49C2084.96 3225.65 2084.96 3219.81 2084.96 3213.79C2093.72 3213.79 2102.49 3213.79 2111.52 3213.79C2113.44 3209.04 2115.35 3204.29 2117.33 3199.4C2124.8 3184.28 2124.8 3184.28 2138.08 3178.37Z" fill="#E4E8F2"/>
<path d="M1806.06 3119.35C1806.06 3121.3 1806.06 3123.25 1806.06 3125.25C1798.2 3126.26 1790.34 3127.26 1782.25 3128.3C1684.49 3141.62 1628.96 3159.37 1567 3196.08C1567 3173.63 1570.14 3160.82 1600.62 3142.61C1667.87 3113.14 1715.57 3108.27 1806.06 3119.35Z" fill="#CECCCB"/>
<path d="M1845.9 3355.44C1859.05 3357.39 1872.2 3359.33 1885.74 3361.34C1881.36 3369.13 1876.98 3376.92 1872.46 3384.95C1863.97 3385.56 1855.48 3386.17 1846.73 3386.8C1837.69 3388.13 1828.65 3389.47 1819.34 3390.85C1814.96 3396.7 1810.58 3402.54 1806.06 3408.56C1836.74 3404.66 1867.42 3400.77 1899.03 3396.76C1899.03 3402.6 1899.03 3408.44 1899.03 3414.46C1858.61 3423.44 1823.93 3421.77 1779.5 3420.36C1752.94 3402.66 1752.94 3402.66 1752.94 3384.95C1798.95 3382.03 1798.95 3382.03 1845.9 3379.05C1841.52 3373.21 1837.14 3367.36 1832.62 3361.34C1837 3359.39 1841.39 3357.45 1845.9 3355.44Z" fill="#738BB4"/>
<path d="M1779.5 3361.34C1726.11 3387.95 1673.19 3406.66 1590.56 3409.62C1564.99 3409.66 1539.42 3409.16 1513.88 3408.56C1509.5 3404.66 1505.12 3400.77 1500.6 3396.76C1548.81 3396.76 1597.02 3396.76 1646.69 3396.76C1646.69 3390.91 1646.69 3385.07 1646.69 3379.05C1734.68 3354.7 1734.68 3354.7 1779.5 3361.34Z" fill="#7A8FAC"/>
<path d="M2961.5 2948.19C2965.88 2954.03 2970.26 2959.87 2974.78 2965.89C3001.07 2965.89 3027.37 2965.89 3054.46 2965.89C3041.31 2967.84 3028.17 2969.79 3014.62 2971.79C3014.62 2975.69 3014.62 2979.59 3014.62 2983.6C3001.47 2986.52 3001.47 2986.52 2988.06 2989.5C2983.67 2995.34 2979.29 3001.19 2974.78 3007.21C2992.31 3007.21 3009.84 3007.21 3027.9 3007.21C3027.9 3015 3027.9 3022.79 3027.9 3030.82C3001.6 3030.82 2975.31 3030.82 2948.21 3030.82C2939.91 3010.9 2939.91 3010.9 2934.93 2989.5C2943.7 2985.61 2952.46 2981.71 2961.5 2977.7C2963.71 2962.45 2963.71 2962.45 2961.5 2948.19Z" fill="#E4E5E3"/>
<path d="M1965.43 3237.4C1939.22 3272.34 1861.04 3285.15 1792.78 3302.32C1807 3265.8 1807 3265.8 1839.94 3253C1884.9 3241.15 1912.7 3237.4 1965.43 3237.4Z" fill="#DED9E1"/>
<path d="M1633.41 3054.43C1637.79 3058.32 1642.17 3062.22 1646.69 3066.23C1673.58 3070.08 1673.58 3070.08 1699.81 3072.13C1704.2 3083.82 1708.58 3095.51 1713.09 3107.55C1682.38 3111.6 1682.38 3111.6 1646.69 3113.45C1621.79 3106.81 1621.79 3106.81 1606.85 3095.74C1610.31 3079.95 1617.48 3068.59 1633.41 3054.43Z" fill="#CFCFCD"/>
<path d="M2310.73 3349.54C2315.12 3357.33 2319.5 3365.12 2324.01 3373.15C2372.22 3373.15 2420.43 3373.15 2470.1 3373.15C2470.1 3377.04 2470.1 3380.94 2470.1 3384.95C2457.23 3386.66 2444.36 3388.36 2431.09 3390.12C2389 3394.64 2389 3394.64 2377.14 3408.56C2346.46 3398.82 2315.78 3389.08 2284.17 3379.05C2292.94 3369.31 2301.7 3359.57 2310.73 3349.54Z" fill="#54668A"/>
<path d="M1925.59 3030.82C1956.27 3030.82 1986.95 3030.82 2018.55 3030.82C2018.55 3038.61 2018.55 3046.4 2018.55 3054.43C1930.57 3072.13 1930.57 3072.13 1885.75 3072.13C1910.65 3044.1 1910.65 3044.1 1925.59 3030.82Z" fill="#D0C6CD"/>
<path d="M3001.34 3042.62C3018.87 3042.62 3036.4 3042.62 3054.46 3042.62C3054.46 3054.31 3054.46 3065.99 3054.46 3078.03C3063.23 3078.03 3071.99 3078.03 3081.02 3078.03C3081.02 3074.14 3081.02 3070.24 3081.02 3066.23C3089.79 3066.23 3098.55 3066.23 3107.58 3066.23C3107.58 3062.34 3107.58 3058.44 3107.58 3054.43C3116.35 3054.43 3125.12 3054.43 3134.15 3054.43C3125.38 3066.11 3116.62 3077.8 3107.58 3089.84C3081.29 3089.84 3054.99 3089.84 3027.9 3089.84C3027.9 3084 3027.9 3078.15 3027.9 3072.13C3019.13 3072.13 3010.37 3072.13 3001.34 3072.13C3001.34 3062.39 3001.34 3052.66 3001.34 3042.62Z" fill="#A3C6F0"/>
<path d="M1965.43 3396.75C1982.96 3400.65 2000.49 3404.55 2018.55 3408.56C2018.55 3414.4 2018.55 3420.25 2018.55 3426.27C2036.08 3428.21 2053.62 3430.16 2071.68 3432.17C2071.68 3428.27 2071.68 3424.38 2071.68 3420.36C2102.36 3420.36 2133.03 3420.36 2164.64 3420.36C2139.32 3432.11 2119.28 3437.64 2082.78 3439.66C1999.6 3440.32 1999.6 3440.32 1952.15 3426.27C1956.53 3416.53 1960.91 3406.79 1965.43 3396.75Z" fill="#7085B4"/>
<path d="M2138.08 3054.43C2180.07 3079.3 2182.4 3084.3 2177.92 3113.45C2195.46 3113.45 2212.99 3113.45 2231.05 3113.45C2231.05 3121.24 2231.05 3129.03 2231.05 3137.06C2213.52 3139.01 2195.99 3140.95 2177.92 3142.96C2186.69 3135.17 2195.46 3127.38 2204.49 3119.35C2182.57 3117.4 2160.66 3115.46 2138.08 3113.45C2138.08 3093.97 2138.08 3074.49 2138.08 3054.43Z" fill="#DED7DE"/>
<path d="M1991.99 2930.48C2027.66 2946.33 2032.64 2962.21 2045.12 2983.6C1999.66 2990.33 1964.28 2990.08 1916.46 2989.87C1892.96 2989.79 1892.96 2989.79 1868.99 2989.71C1856.99 2989.64 1844.99 2989.57 1832.62 2989.5C1832.62 2987.55 1832.62 2985.61 1832.62 2983.6C1885.21 2983.6 1937.81 2983.6 1991.99 2983.6C1989.53 2977.03 1987.06 2970.45 1984.52 2963.68C1978.71 2942.28 1978.71 2942.28 1991.99 2930.48Z" fill="#B6B4B4"/>
<path d="M2390.42 3408.56C2409.79 3411.38 2429.16 3414.21 2448.52 3417.04C2459.31 3418.62 2470.09 3420.19 2481.21 3421.82C2509.95 3426.27 2509.95 3426.27 2536.51 3432.17C2546.16 3443.85 2555.08 3455.66 2563.07 3467.58C2530.2 3461.74 2530.2 3461.74 2496.67 3455.78C2496.67 3451.88 2496.67 3447.99 2496.67 3443.97C2486.53 3442.51 2476.4 3441.05 2465.95 3439.55C2427.12 3431.52 2413 3424.4 2390.42 3408.56Z" fill="#6C8DC7"/>
<path d="M1527.16 3272.81C1545.98 3273.65 1564.79 3274.51 1583.61 3275.39C1599.32 3276.11 1599.32 3276.11 1615.35 3276.84C1644.35 3278.57 1671.62 3281.19 1699.81 3284.61C1695.43 3288.51 1691.05 3292.4 1686.53 3296.42C1670.64 3296.3 1654.76 3296.17 1638.39 3296.05C1591.17 3296.01 1547.01 3298.19 1500.6 3302.32C1509.37 3292.58 1518.13 3282.84 1527.16 3272.81Z" fill="#E3E6E9"/>
<path d="M2217.77 3190.18C2248.45 3190.18 2279.12 3190.18 2310.73 3190.18C2315.12 3197.97 2319.5 3205.76 2324.01 3213.79C2302.1 3215.73 2280.19 3217.68 2257.61 3219.69C2256.51 3223.34 2255.42 3226.99 2254.29 3230.76C2244.33 3243.3 2244.33 3243.3 2216.94 3250.68C2208.45 3252.14 2199.95 3253.6 2191.21 3255.1C2199.97 3247.31 2208.74 3239.52 2217.77 3231.49C2226.53 3231.49 2235.3 3231.49 2244.33 3231.49C2239.95 3225.65 2235.56 3219.81 2231.05 3213.79C2248.58 3213.79 2266.11 3213.79 2284.17 3213.79C2284.17 3209.89 2284.17 3206 2284.17 3201.98C2262.26 3200.03 2240.34 3198.09 2217.77 3196.08C2217.77 3194.13 2217.77 3192.18 2217.77 3190.18Z" fill="#D4DEEE"/>
<path d="M2908.37 3054.43C2934.1 3058.48 2934.1 3058.48 2961.5 3066.23C2968.14 3080.99 2968.14 3080.99 2974.78 3095.74C3000.91 3103.77 3000.91 3103.77 3027.9 3107.55C3027.9 3111.44 3027.9 3115.34 3027.9 3119.35C2989.72 3115.66 2989.72 3115.66 2948.22 3107.55C2930.78 3090.21 2930.78 3090.21 2921.65 3072.13C2917.27 3066.29 2912.89 3060.45 2908.37 3054.43Z" fill="#C4DAF2"/>
<path d="M1394.35 3337.73C1425.03 3341.63 1455.71 3345.52 1487.32 3349.54C1478.55 3359.28 1469.79 3369.01 1460.76 3379.05C1435.03 3374.99 1435.03 3374.99 1407.63 3367.24C1397.67 3351.75 1397.67 3351.75 1394.35 3337.73Z" fill="#4E5D77"/>
<path d="M2961.5 3355.44C3012.24 3358.57 3042 3364.28 3081.02 3379.05C3054.73 3381 3028.43 3382.94 3001.34 3384.95C2996.96 3394.69 2992.57 3404.43 2988.06 3414.46C2973.49 3395.04 2977.44 3386.64 2988.06 3367.24C2979.29 3367.24 2970.53 3367.24 2961.5 3367.24C2961.5 3363.35 2961.5 3359.45 2961.5 3355.44Z" fill="#5D77AC"/>
<path d="M2182.07 3253.26C2193.85 3253.87 2205.63 3254.47 2217.77 3255.1C2204.49 3269.86 2204.49 3269.86 2177.92 3284.61C2140.82 3287.38 2109.63 3286 2071.68 3284.61C2127.25 3255.56 2127.25 3255.56 2182.07 3253.26Z" fill="#C0D3EE"/>
<path d="M2244.33 3048.52C2330.96 3052.16 2330.96 3052.16 2363.03 3063.65C2367.68 3066.45 2372.34 3069.25 2377.14 3072.13C2372.75 3077.98 2368.37 3083.82 2363.86 3089.84C2341.94 3087.89 2320.03 3085.94 2297.45 3083.94C2297.45 3076.15 2297.45 3068.36 2297.45 3060.33C2279.92 3056.43 2262.39 3052.54 2244.33 3048.52Z" fill="#9FB9DD"/>
<path d="M1779.5 3213.79C1814.36 3216 1814.36 3216 1845.9 3219.69C1784.48 3248.46 1784.48 3248.46 1739.66 3255.1C1749.62 3227.07 1749.62 3227.07 1779.5 3213.79Z" fill="#D4CCD0"/>
<path d="M2324.01 3337.73C2332.78 3343.58 2341.54 3349.42 2350.58 3355.44C2346.19 3359.34 2341.81 3363.23 2337.29 3367.24C2346.33 3366.27 2355.37 3365.3 2364.69 3364.29C2409.23 3360.92 2451.56 3360.95 2496.67 3361.34C2492.28 3367.19 2487.9 3373.03 2483.38 3379.05C2430.79 3377.1 2378.2 3375.15 2324.01 3373.15C2319.63 3363.41 2315.25 3353.67 2310.73 3343.64C2315.12 3341.69 2319.5 3339.74 2324.01 3337.73Z" fill="#7392C8"/>
<path d="M2921.65 3325.93C2954.52 3328.85 2954.52 3328.85 2988.06 3331.83C2992.44 3337.67 2996.82 3343.52 3001.34 3349.54C2983.81 3351.49 2966.28 3353.43 2948.21 3355.44C2948.21 3369.07 2948.21 3382.71 2948.21 3396.76C2943.83 3396.76 2939.45 3396.76 2934.93 3396.76C2930.55 3373.38 2926.17 3350.01 2921.65 3325.93Z" fill="#7197D5"/>
<path d="M1779.5 3261C1792.65 3261 1805.79 3261 1819.34 3261C1819.34 3268.79 1819.34 3276.59 1819.34 3284.61C1806.19 3284.61 1793.04 3284.61 1779.5 3284.61C1770.73 3288.51 1761.97 3292.4 1752.94 3296.42C1718.07 3297.16 1718.07 3297.16 1686.53 3296.42C1686.53 3292.52 1686.53 3288.63 1686.53 3284.61C1702.15 3282.06 1702.15 3282.06 1718.07 3279.45C1754.22 3273.7 1754.22 3273.7 1779.5 3261Z" fill="#A5B6CF"/>
<path d="M2735.72 2954.09C2754.85 2955.6 2773.93 2957.22 2792.99 2958.88C2803.63 2959.77 2814.26 2960.66 2825.21 2961.58C2858.36 2966.34 2872.83 2971.92 2895.09 2983.6C2890.71 2987.5 2886.33 2991.39 2881.81 2995.4C2875.24 2992.6 2868.66 2989.8 2861.89 2986.92C2815.48 2974.03 2776.76 2973.81 2722.44 2971.8C2726.82 2965.95 2731.2 2960.11 2735.72 2954.09Z" fill="#D2DBE8"/>
<path d="M2589.63 2830.14C2642.22 2841.83 2642.22 2841.83 2695.88 2853.75C2691.5 2857.65 2687.11 2861.54 2682.6 2865.56C2655.21 2869.24 2655.21 2869.24 2629.47 2871.46C2629.47 2865.61 2629.47 2859.77 2629.47 2853.75C2611.94 2851.8 2594.41 2849.86 2576.35 2847.85C2580.73 2842.01 2585.12 2836.16 2589.63 2830.14Z" fill="#9BC1E7"/>
<path d="M2177.92 3196.08C2217.37 3196.08 2256.81 3196.08 2297.45 3196.08C2293.07 3201.92 2288.69 3207.77 2284.17 3213.79C2249.11 3211.84 2214.05 3209.89 2177.92 3207.88C2177.92 3203.99 2177.92 3200.09 2177.92 3196.08ZM2151.36 3207.88C2164.51 3210.81 2164.51 3210.81 2177.92 3213.79C2164.78 3216.71 2164.78 3216.71 2151.36 3219.69C2151.36 3215.79 2151.36 3211.9 2151.36 3207.88Z" fill="#F3F1F1"/>
<path d="M2151.36 3119.35C2168.89 3119.35 2186.42 3119.35 2204.49 3119.35C2197.85 3130.42 2197.85 3130.42 2177.92 3142.96C2142.71 3148.77 2108.79 3151.57 2071.68 3154.76C2071.68 3148.92 2071.68 3143.08 2071.68 3137.06C2097.97 3137.06 2124.27 3137.06 2151.36 3137.06C2151.36 3131.21 2151.36 3125.37 2151.36 3119.35Z" fill="#F4EDE7"/>
<path d="M2111.52 2977.7C2111.52 2983.54 2111.52 2989.38 2111.52 2995.4C2080.81 3002.04 2080.81 3002.04 2045.12 3007.21C2031.97 3003.31 2018.82 2999.42 2005.27 2995.4C2005.27 2991.51 2005.27 2987.61 2005.27 2983.6C2044.16 2977.84 2071.09 2977.21 2111.52 2977.7Z" fill="#DCD6D6"/>
<path d="M2456.82 3042.62C2469.97 3042.62 2483.12 3042.62 2496.66 3042.62C2496.66 3054.31 2496.66 3065.99 2496.66 3078.03C2487.9 3078.03 2479.13 3078.03 2470.1 3078.03C2470.1 3085.83 2470.1 3093.62 2470.1 3101.64C2461.34 3099.7 2452.57 3097.75 2443.54 3095.74C2447.92 3078.21 2452.31 3060.68 2456.82 3042.62Z" fill="#CBCFDD"/>
<path d="M1925.59 3030.82C1956.27 3030.82 1986.95 3030.82 2018.55 3030.82C2018.55 3032.77 2018.55 3034.71 2018.55 3036.72C1992.26 3036.72 1965.96 3036.72 1938.87 3036.72C1934.49 3044.51 1930.1 3052.3 1925.59 3060.33C1938.74 3062.28 1951.88 3064.22 1965.43 3066.23C1939.13 3068.18 1912.84 3070.13 1885.75 3072.13C1910.65 3044.1 1910.65 3044.1 1925.59 3030.82Z" fill="#E3DCE0"/>
<path d="M2124.8 3030.82C2155.48 3034.71 2186.16 3038.61 2217.77 3042.62C2209 3046.52 2200.24 3050.41 2191.21 3054.43C2181.94 3062.2 2173.02 3070.06 2164.64 3078.04C2124.8 3044.1 2124.8 3044.1 2124.8 3030.82Z" fill="#A4BBD4"/>
<path d="M3187.27 3007.21C3204.8 3011.1 3222.33 3015 3240.39 3019.01C3240.39 3026.8 3240.39 3034.59 3240.39 3042.62C3227.25 3040.67 3214.1 3038.73 3200.55 3036.72C3187.4 3038.67 3174.25 3040.62 3160.71 3042.62C3160.71 3038.73 3160.71 3034.83 3160.71 3030.82C3169.47 3030.82 3178.24 3030.82 3187.27 3030.82C3187.27 3023.03 3187.27 3015.24 3187.27 3007.21ZM3134.15 3042.62C3147.29 3045.54 3147.29 3045.54 3160.71 3048.52C3147.56 3051.45 3147.56 3051.45 3134.15 3054.43C3134.15 3050.53 3134.15 3046.64 3134.15 3042.62Z" fill="#9CCAF5"/>
<path d="M1606.85 3142.96C1619.99 3146.86 1633.14 3150.75 1646.69 3154.76C1635.95 3161.67 1625.15 3168.55 1614.32 3175.42C1608.31 3179.26 1602.3 3183.09 1596.11 3187.04C1590.89 3190.02 1585.66 3193.01 1580.29 3196.08C1575.9 3196.08 1571.52 3196.08 1567 3196.08C1576.96 3156.24 1576.96 3156.24 1606.85 3142.96Z" fill="#BAB9B9"/>
<path d="M3001.34 3042.62C3018.87 3042.62 3036.4 3042.62 3054.46 3042.62C3058.84 3056.26 3063.23 3069.89 3067.74 3083.94C3058.98 3083.94 3050.21 3083.94 3041.18 3083.94C3036.8 3080.04 3032.42 3076.15 3027.9 3072.13C3019.13 3072.13 3010.37 3072.13 3001.34 3072.13C3001.34 3062.39 3001.34 3052.66 3001.34 3042.62Z" fill="#9FC8FD"/>
<path d="M2908.37 2989.5C2917.14 2991.45 2925.9 2993.4 2934.93 2995.4C2942.82 3011.04 2944.79 3026.64 2948.22 3042.62C2939.45 3042.62 2930.68 3042.62 2921.65 3042.62C2895.09 3024.92 2895.09 3024.92 2900.07 3006.1C2902.81 3000.62 2905.55 2995.15 2908.37 2989.5Z" fill="#83AAD5"/>
<path d="M2337.29 3373.15C2381.12 3373.15 2424.95 3373.15 2470.1 3373.15C2465.72 3377.04 2461.34 3380.94 2456.82 3384.95C2371.45 3392.54 2371.45 3392.54 2337.29 3384.95C2337.29 3381.05 2337.29 3377.16 2337.29 3373.15Z" fill="#6278AE"/>
<path d="M1527.16 3261C1527.16 3264.9 1527.16 3268.8 1527.16 3272.81C1487.72 3272.81 1448.27 3272.81 1407.63 3272.81C1434.39 3249.03 1477.7 3255.66 1527.16 3261Z" fill="#DBDCE3"/>
<path d="M2204.49 3184.28C2257.08 3184.28 2309.67 3184.28 2363.86 3184.28C2368.24 3188.17 2372.62 3192.07 2377.14 3196.08C2368.37 3199.98 2359.61 3203.87 2350.58 3207.88C2337.43 3203.99 2324.28 3200.09 2310.73 3196.08C2283.52 3193.42 2283.52 3193.42 2255.12 3192.39C2230.06 3191.3 2230.06 3191.3 2204.49 3190.18C2204.49 3188.23 2204.49 3186.28 2204.49 3184.28Z" fill="#A3B3D1"/>
<path d="M3187.27 2877.36C3187.27 2881.25 3187.27 2885.15 3187.27 2889.16C3143.22 2897.55 3101.71 2903.27 3054.46 2906.87C3118.72 2877.36 3118.72 2877.36 3187.27 2877.36Z" fill="#DDDFE4"/>
<path d="M3160.71 2871.46C3195.77 2871.46 3230.83 2871.46 3266.96 2871.46C3266.96 2881.2 3266.96 2890.93 3266.96 2900.97C3258.19 2900.97 3249.42 2900.97 3240.39 2900.97C3237.11 2897.19 3233.82 2893.42 3230.43 2889.53C3216.28 2876.25 3216.28 2876.25 3185.61 2872.93C3173.28 2872.2 3173.28 2872.2 3160.71 2871.46Z" fill="#9EBEDB"/>
<path d="M3120.87 3201.98C3125.25 3205.88 3129.63 3209.77 3134.15 3213.79C3129.76 3219.63 3125.38 3225.47 3120.87 3231.49C3112.1 3231.49 3103.34 3231.49 3094.3 3231.49C3072.72 3240.1 3072.72 3240.1 3054.46 3249.2C3057.78 3232.23 3057.78 3232.23 3067.74 3213.79C3095.13 3205.67 3095.13 3205.67 3120.87 3201.98Z" fill="#7DA9E4"/>
<path d="M1739.66 2989.5C1757.19 2989.5 1774.72 2989.5 1792.78 2989.5C1792.78 2993.4 1792.78 2997.29 1792.78 3001.31C1734.55 3019.01 1734.55 3019.01 1699.81 3019.01C1724.71 2996.14 1724.71 2996.14 1739.66 2989.5Z" fill="#AEAEAE"/>
<path d="M2390.42 3408.56C2429.86 3414.4 2469.31 3420.25 2509.95 3426.27C2483.65 3432.11 2483.65 3432.11 2456.82 3438.07C2434.91 3428.33 2413 3418.59 2390.42 3408.56Z" fill="#6680A0"/>
<path d="M1832.62 3284.61C1841.39 3286.56 1850.15 3288.51 1859.18 3290.52C1827.8 3305.42 1810.51 3313.46 1766.22 3320.03C1770.6 3310.29 1774.98 3300.55 1779.5 3290.52C1792.65 3290.52 1805.79 3290.52 1819.34 3290.52C1823.72 3288.57 1828.11 3286.62 1832.62 3284.61Z" fill="#ACBBD5"/>
<path d="M3120.87 3007.21C3142.78 3007.21 3164.69 3007.21 3187.27 3007.21C3187.27 3015 3187.27 3022.79 3187.27 3030.82C3165.36 3032.77 3143.44 3034.71 3120.87 3036.72C3129.63 3028.93 3138.4 3021.14 3147.43 3013.11C3138.66 3011.16 3129.9 3009.22 3120.87 3007.21Z" fill="#E2E4E8"/>
<path d="M2961.5 2948.19C2965.88 2954.03 2970.26 2959.87 2974.78 2965.89C3001.07 2965.89 3027.37 2965.89 3054.46 2965.89C3041.31 2967.84 3028.17 2969.79 3014.62 2971.79C3014.62 2975.69 3014.62 2979.59 3014.62 2983.6C2997.09 2981.65 2979.56 2979.7 2961.5 2977.7C2961.5 2967.96 2961.5 2958.22 2961.5 2948.19Z" fill="#AFB0B4"/>
</g>
<defs>
<clipPath id="clip0_18_908">
<rect width="7437" height="5288" fill="white"/>
</clipPath>
</defs>
</svg>
