<svg width="7437" height="5288" viewBox="0 0 7437 5288" fill="none" xmlns="http://www.w3.org/2000/svg">
<g clip-path="url(#clip0_18_908)">
<path d="M4549.87 1787.79C4612.41 1800.3 4662.62 1814.76 4708.55 1839C4716.26 1871.01 4716.26 1871.01 4708.55 1898.75C4726 1907.2 4726 1907.2 4743.81 1915.82C4746.01 1942.5 4746.01 1942.5 4743.81 1967.04C4755.45 1967.04 4767.08 1967.04 4779.07 1967.04C4779.07 1972.67 4779.07 1978.3 4779.07 1984.11C4797.25 1984.81 4815.43 1985.51 4834.17 1986.24C4911.83 1993.52 4946.3 2004.1 5008.27 2026.78C5049.52 2010.36 5049.52 2010.36 5050.14 1981.44C5065.55 1937.43 5097.28 1919.67 5170.6 1893.28C5267.95 1862.3 5332.83 1849.82 5449.04 1856.08C5455.45 1863.35 5455.45 1863.35 5461.99 1870.78C5467.89 1877.37 5473.8 1883.96 5479.89 1890.75C5486.26 1897.87 5492.62 1904.99 5499.18 1912.32C5519.87 1934.75 5519.87 1934.75 5559.23 1959.57C5616.27 2005.16 5597.87 2069.58 5590.08 2120.67C5584.27 2126.31 5578.45 2131.94 5572.45 2137.74C5560.82 2137.74 5549.18 2137.74 5537.19 2137.74C5544.71 2155.37 5552.47 2172.97 5560.33 2190.56C5564.63 2200.36 5568.92 2210.16 5573.35 2220.26C5589.62 2247.92 5611.55 2267.24 5642.98 2291.38C5655.1 2319.65 5655.1 2319.65 5660.61 2342.59C5672.24 2342.59 5683.88 2342.59 5695.87 2342.59C5701.38 2365.53 5701.38 2365.53 5695.87 2393.8C5645.66 2424.36 5598.25 2443.78 5519.56 2453.55C5480.99 2452.49 5480.99 2452.49 5449.04 2445.02C5427 2427.41 5427 2427.41 5413.78 2410.88C5384.69 2410.88 5355.59 2410.88 5325.62 2410.88C5331.44 2419.33 5337.26 2427.78 5343.25 2436.48C5352.93 2476.8 5351.47 2505.63 5312.4 2542.11C5244.42 2580.5 5201.34 2592.88 5096.42 2598.65C5094.67 2604.97 5092.92 2611.29 5091.12 2617.79C5077.34 2644.11 5059.58 2656.38 5022.59 2676.54C5012.53 2682.19 5002.46 2687.85 4992.09 2693.68C4906.39 2730.88 4823.29 2739.73 4710.75 2738.95C4692.14 2738.91 4692.14 2738.91 4673.15 2738.87C4573.01 2737.57 4508.93 2727.7 4426.46 2701.08C4426.46 2695.45 4426.46 2689.81 4426.46 2684.01C4409 2681.63 4409 2681.63 4391.19 2679.21C4326.7 2664.25 4282.11 2644.02 4230.18 2620.49C4196.9 2605.4 4196.9 2605.4 4144.36 2598.65C4114.34 2608.09 4114.34 2608.09 4085.96 2622.13C3991.94 2662.99 3918.63 2678.36 3792.65 2678.04C3756.49 2675.47 3756.49 2675.47 3703.6 2658.4C3709.41 2644.32 3715.23 2630.24 3721.23 2615.72C3667.2 2620.18 3667.2 2620.18 3627.56 2637.6C3597.81 2649.87 3597.81 2649.87 3535 2653.07C3505 2651.48 3505 2651.48 3474.4 2649.87C3439.14 2624.26 3439.14 2624.26 3439.14 2598.65C3500.23 2594.43 3500.23 2594.43 3562.55 2590.12C3556.73 2584.49 3550.91 2578.85 3544.92 2573.05C3465.59 2576.65 3413.22 2593.47 3348.64 2614.39C3278.64 2635.38 3201.75 2641.44 3121.78 2632.8C3058.58 2612.64 2997.36 2589.15 2963.11 2555.98C2959.97 2530.96 2958.21 2506.33 2957.6 2481.29C2957.08 2474.47 2956.57 2467.65 2956.05 2460.62C2955.01 2413.89 2970.8 2388.56 3033.63 2351.13C3045.63 2342.94 3045.63 2342.94 3057.87 2334.59C3086.52 2325.52 3086.52 2325.52 3142.72 2328.19C3159.08 2330.13 3175.45 2332.06 3192.31 2334.06C3188.49 2323.49 3188.49 2323.49 3184.59 2312.72C3196.89 2265.09 3265.44 2238.9 3333.35 2206.03C3322.08 2203.91 3310.81 2201.8 3299.19 2199.62C3262.83 2188.96 3262.83 2188.96 3248.71 2173.59C3243.85 2147.59 3262.32 2137.8 3293.68 2116.94C3325.36 2095.54 3353.34 2075.8 3378.53 2052.39C3403.87 2035.32 3403.87 2035.32 3447.95 2028.92C3469.77 2027.86 3469.77 2027.86 3492.03 2026.78C3509.48 2023.97 3526.94 2021.15 3544.92 2018.25C3581.26 2017.66 3617.65 2017.53 3654.01 2017.71C3682.75 2017.83 3682.75 2017.83 3712.07 2017.95C3726.73 2018.05 3741.39 2018.15 3756.49 2018.25C3751.4 2010.15 3746.31 2002.05 3741.06 1993.71C3725.6 1946.36 3791.4 1910.28 3844.64 1873.15C3885.37 1875.96 3926.1 1878.78 3968.06 1881.68C3972.6 1876.53 3977.15 1871.38 3981.83 1866.08C4018.82 1834.16 4075.39 1818.5 4144.36 1804.86C4191.41 1802.74 4234.85 1803.14 4281.9 1805.03C4377.95 1804.62 4439.75 1779.14 4549.87 1787.79Z" fill="#8DB4E6"/>
<path d="M4465.02 1786.73C4480.91 1786.88 4496.8 1787.03 4513.16 1787.19C4525.28 1787.39 4537.39 1787.59 4549.87 1787.79C4527.98 1817.15 4504.78 1841.16 4461.72 1864.61C4450.08 1864.61 4438.45 1864.61 4426.46 1864.61C4426.46 1875.88 4426.46 1887.14 4426.46 1898.75C4414.82 1898.75 4403.18 1898.75 4391.2 1898.75C4391.2 1943.82 4391.2 1988.89 4391.2 2035.32C4367.92 2038.14 4344.65 2040.95 4320.67 2043.85C4329.4 2052.13 4338.13 2060.4 4347.12 2068.93C4380.59 2106.05 4378.61 2140.56 4373.56 2180.42C4323.98 2178.82 4323.98 2178.82 4267.78 2171.88C4260.87 2165.2 4253.96 2158.51 4246.84 2151.61C4200.59 2119.19 4146.83 2115.04 4070.54 2105.2C4057.32 2103.36 4044.1 2101.52 4030.49 2099.62C3998.01 2095.11 3965.41 2090.8 3932.8 2086.53C3940.43 2093.03 3940.43 2093.03 3948.22 2099.67C3989.48 2136.7 4012.24 2162.83 4003.32 2206.03C4026.59 2206.03 4049.86 2206.03 4073.84 2206.03C4073.84 2217.29 4073.84 2228.56 4073.84 2240.17C4061.73 2242.85 4049.62 2245.54 4037.13 2248.3C4021.25 2251.96 4005.36 2255.61 3988.99 2259.37C3973.24 2262.94 3957.49 2266.5 3941.27 2270.17C3895.15 2283.53 3872.19 2294.83 3844.64 2316.99C3844.64 2322.62 3844.64 2328.25 3844.64 2334.06C3862.1 2336.87 3879.55 2339.69 3897.54 2342.59C3901.9 2337.14 3906.26 2331.68 3910.76 2326.06C3932.8 2308.45 3932.8 2308.45 3970.26 2302.05C3981.17 2301.35 3992.08 2300.64 4003.32 2299.92C4009.14 2308.37 4014.96 2316.82 4020.95 2325.52C4032.59 2322.7 4044.22 2319.89 4056.21 2316.99C4166.37 2313.04 4166.37 2313.04 4222.6 2329.79C4231.69 2334.01 4240.78 2338.24 4250.15 2342.59C4232.52 2368.2 4232.52 2368.2 4200.84 2376.13C4188.02 2379.15 4175.2 2382.16 4162 2385.27C4136.59 2396.79 4111.63 2408.54 4087.07 2420.48C4031.03 2444.87 4011.19 2452.94 3935 2458.89C3893.98 2456.91 3855.49 2452.79 3815.3 2448.28C3709.23 2436.83 3649.44 2433.8 3554.77 2461.72C3545.7 2464.66 3536.63 2467.6 3527.29 2470.62C3509.84 2474.85 3509.84 2474.85 3492.03 2479.16C3503.66 2459.44 3515.3 2439.73 3527.29 2419.41C3514.56 2423.46 3501.84 2427.51 3488.72 2431.68C3440.99 2444.52 3404.55 2449.85 3350.98 2453.55C3350.98 2459.19 3350.98 2464.82 3350.98 2470.62C3329.89 2470.45 3308.8 2470.27 3287.07 2470.09C3224.39 2470.04 3165.76 2473.19 3104.15 2479.16C3115.79 2465.08 3127.42 2450.99 3139.41 2436.48C3087.05 2436.48 3034.69 2436.48 2980.74 2436.48C2972.78 2410.15 2973.19 2391.74 3000.57 2368.27C3027.26 2351.51 3051.34 2338.1 3086.52 2325.52C3146.03 2326.06 3146.03 2326.06 3192.31 2334.06C3188.49 2323.49 3188.49 2323.49 3184.59 2312.72C3196.89 2265.09 3265.44 2238.9 3333.35 2206.03C3322.08 2203.91 3310.81 2201.8 3299.19 2199.62C3262.83 2188.96 3262.83 2188.96 3248.71 2173.59C3243.85 2147.59 3262.32 2137.8 3293.68 2116.94C3325.36 2095.54 3353.34 2075.8 3378.53 2052.39C3403.87 2035.32 3403.87 2035.32 3447.95 2028.92C3469.77 2027.86 3469.77 2027.86 3492.03 2026.78C3509.48 2023.97 3526.94 2021.15 3544.92 2018.25C3581.27 2017.66 3617.65 2017.53 3654.01 2017.71C3682.75 2017.83 3682.75 2017.83 3712.07 2017.95C3726.73 2018.05 3741.39 2018.15 3756.49 2018.25C3751.4 2010.15 3746.31 2002.05 3741.06 1993.71C3725.6 1946.36 3791.4 1910.28 3844.64 1873.15C3885.37 1875.96 3926.1 1878.78 3968.06 1881.68C3972.6 1876.53 3977.15 1871.38 3981.83 1866.08C4018.82 1834.16 4075.39 1818.5 4144.37 1804.86C4191.41 1802.74 4234.85 1803.13 4281.9 1805.03C4349.46 1804.74 4390.53 1785.79 4465.02 1786.73Z" fill="#F9F8F5"/>
<path d="M3932.8 2248.7C3950.25 2251.52 3967.71 2254.34 3985.69 2257.24C3960.6 2264.37 3960.6 2264.37 3935 2271.64C3878.34 2291.94 3863.06 2301.97 3844.64 2334.06C3862.1 2336.87 3879.55 2339.69 3897.53 2342.59C3901.9 2337.14 3906.26 2331.68 3910.76 2326.06C3932.8 2308.45 3932.8 2308.45 3970.26 2302.05C3981.17 2301.35 3992.08 2300.64 4003.32 2299.92C4009.14 2308.37 4014.96 2316.82 4020.95 2325.52C4032.59 2322.71 4044.22 2319.89 4056.21 2316.99C4166.37 2313.04 4166.37 2313.04 4222.6 2329.79C4231.69 2334.01 4240.78 2338.24 4250.15 2342.59C4232.52 2368.2 4232.52 2368.2 4200.84 2376.13C4188.02 2379.15 4175.2 2382.16 4162 2385.27C4136.58 2396.79 4111.63 2408.54 4087.07 2420.48C4031.03 2444.87 4011.19 2452.94 3935 2458.89C3893.98 2456.91 3855.49 2452.79 3815.3 2448.28C3709.23 2436.83 3649.44 2433.8 3554.77 2461.72C3545.7 2464.66 3536.63 2467.6 3527.29 2470.62C3515.65 2473.44 3504.02 2476.26 3492.03 2479.16C3506.84 2437.73 3511.69 2424.79 3584.59 2399.67C3626.15 2389.72 3664.32 2383.28 3709.11 2376.73C3757.77 2370.46 3757.77 2370.46 3778.53 2352.73C3782.89 2346.57 3787.25 2340.41 3791.75 2334.06C3819.96 2295.04 3854.36 2267.69 3932.8 2248.7Z" fill="#E2E5EC"/>
<path d="M5378.51 1864.61C5372.7 1873.06 5366.88 1881.51 5360.88 1890.22C5349.16 1892.57 5337.43 1894.93 5325.35 1897.35C5308.03 1902.27 5308.03 1902.27 5290.36 1907.29C5277.95 1929.89 5277.95 1929.89 5277.14 1955.3C5276.14 1963.86 5275.14 1972.42 5274.11 1981.24C5273.65 1987.82 5273.2 1994.4 5272.73 2001.18C5284.37 2001.18 5296 2001.18 5307.99 2001.18C5307.99 2006.81 5307.99 2012.44 5307.99 2018.25C5319.63 2018.25 5331.26 2018.25 5343.25 2018.25C5343.25 2040.78 5343.25 2063.31 5343.25 2086.53C5331.62 2086.53 5319.98 2086.53 5307.99 2086.53C5307.99 2092.16 5307.99 2097.8 5307.99 2103.6C5296.36 2103.6 5284.72 2103.6 5272.73 2103.6C5272.73 2109.24 5272.73 2114.87 5272.73 2120.67C5261.09 2120.67 5249.46 2120.67 5237.47 2120.67C5237.47 2126.31 5237.47 2131.94 5237.47 2137.74C5225.83 2137.74 5214.2 2137.74 5202.21 2137.74C5202.21 2143.38 5202.21 2149.01 5202.21 2154.81C5190.57 2154.81 5178.93 2154.81 5166.95 2154.81C5144.16 2119.65 5127.06 2089.36 5131.68 2052.39C5108.41 2052.39 5085.14 2052.39 5061.16 2052.39C5066.98 2041.12 5072.8 2029.86 5078.79 2018.25C5090.43 2018.25 5102.06 2018.25 5114.05 2018.25C5114.05 2012.61 5114.05 2006.98 5114.05 2001.18C5096.6 1998.36 5079.14 1995.54 5061.16 1992.64C5060.14 1968.45 5060.45 1954.96 5078.79 1932.89C5171.31 1888.37 5247.92 1863.24 5378.51 1864.61Z" fill="#CCD6E9"/>
<path d="M5255.1 2351.13C5260.92 2359.58 5266.74 2368.03 5272.73 2376.73C5290.19 2376.73 5307.64 2376.73 5325.62 2376.73C5325.62 2382.37 5325.62 2388 5325.62 2393.8C5372.17 2393.8 5418.71 2393.8 5466.67 2393.8C5471.76 2399.09 5476.85 2404.37 5482.1 2409.81C5500.82 2429.08 5500.82 2429.08 5537.19 2445.02C5505.24 2450.89 5505.24 2450.89 5466.67 2453.55C5435.82 2442.35 5435.82 2442.35 5413.78 2427.95C5413.78 2422.31 5413.78 2416.68 5413.78 2410.88C5384.69 2410.88 5355.6 2410.88 5325.62 2410.88C5331.44 2419.33 5337.26 2427.78 5343.25 2436.48C5352.93 2476.8 5351.47 2505.63 5312.4 2542.11C5244.42 2580.5 5201.34 2592.88 5096.42 2598.65C5094.97 2604.99 5093.51 2611.33 5092.02 2617.86C5076.33 2645.7 5052.61 2656.78 5008.27 2675.47C5011.54 2667.2 5014.82 2658.92 5018.19 2650.4C5022.01 2637.46 5022.01 2637.46 5025.9 2624.26C5020.08 2621.44 5014.26 2618.63 5008.27 2615.72C5004.14 2598.52 5000.98 2581.25 4998.35 2563.98C4996.88 2554.55 4995.4 2545.12 4993.88 2535.41C4992.27 2524.46 4992.27 2524.46 4990.64 2513.3C5019.73 2516.12 5048.82 2518.93 5078.79 2521.84C5079.88 2527.12 5080.98 2532.4 5082.1 2537.84C5093.35 2558.14 5093.35 2558.14 5139.4 2566.65C5182.37 2573.85 5182.37 2573.85 5219.84 2573.05C5214.02 2558.96 5208.2 2544.88 5202.21 2530.37C5225.48 2524.74 5248.75 2519.1 5272.73 2513.3C5268.23 2463.24 5261.14 2430.87 5184.58 2393.8C5196.21 2385.35 5207.85 2376.9 5219.84 2368.2C5231.48 2371.02 5243.11 2373.83 5255.1 2376.73C5255.1 2368.28 5255.1 2359.83 5255.1 2351.13Z" fill="#698DCB"/>
<path d="M5043.53 1967.04C5049.35 1975.49 5055.17 1983.94 5061.16 1992.64C5096.07 1992.64 5130.98 1992.64 5166.95 1992.64C5149.49 1995.46 5132.04 1998.28 5114.06 2001.18C5114.06 2006.81 5114.06 2012.44 5114.06 2018.25C5096.6 2022.47 5096.6 2022.47 5078.79 2026.78C5072.98 2035.23 5067.16 2043.68 5061.16 2052.39C5084.44 2052.39 5107.71 2052.39 5131.69 2052.39C5159.74 2088.04 5170.7 2116.67 5166.95 2154.81C5178.58 2154.81 5190.22 2154.81 5202.21 2154.81C5202.21 2149.18 5202.21 2143.55 5202.21 2137.74C5213.84 2137.74 5225.48 2137.74 5237.47 2137.74C5237.47 2132.11 5237.47 2126.48 5237.47 2120.67C5249.11 2120.67 5260.74 2120.67 5272.73 2120.67C5261.1 2137.57 5249.46 2154.47 5237.47 2171.88C5202.56 2174.7 5167.65 2177.52 5131.69 2180.42C5131.69 2191.69 5131.69 2202.95 5131.69 2214.56C5081 2209.23 5081 2209.23 5025.9 2197.49C5002.76 2172.42 5002.76 2172.42 4990.64 2146.28C4984.82 2137.83 4979 2129.38 4973.01 2120.67C4984.65 2120.67 4996.28 2120.67 5008.27 2120.67C5007.86 2114.09 5007.45 2107.51 5007.03 2100.73C5006.71 2092.17 5006.39 2083.61 5006.07 2074.79C5005.66 2066.28 5005.25 2057.76 5004.83 2048.99C5008.27 2026.78 5008.27 2026.78 5043.53 2009.71C5046.47 1987.66 5046.47 1987.66 5043.53 1967.04Z" fill="#96C2ED"/>
<path d="M5255.1 1890.22C5243.46 1929.65 5231.83 1969.08 5219.84 2009.71C5231.48 2009.71 5243.11 2009.71 5255.1 2009.71C5250.69 2025.72 5250.69 2025.72 5237.47 2043.85C5201.11 2054.52 5201.11 2054.52 5166.95 2060.92C5166.95 2069.37 5166.95 2077.83 5166.95 2086.53C5155.31 2086.53 5143.67 2086.53 5131.69 2086.53C5131.69 2075.26 5131.69 2064 5131.69 2052.39C5108.41 2052.39 5085.14 2052.39 5061.16 2052.39C5066.98 2041.12 5072.8 2029.86 5078.79 2018.25C5090.43 2018.25 5102.07 2018.25 5114.05 2018.25C5114.05 2012.61 5114.05 2006.98 5114.05 2001.18C5096.6 1998.36 5079.15 1995.54 5061.16 1992.64C5071.86 1937.76 5071.86 1937.76 5100.83 1917.42C5148.94 1901.62 5196.33 1890.22 5255.1 1890.22Z" fill="#F8F8F8"/>
<path d="M4391.19 1898.75C4402.83 1898.75 4414.47 1898.75 4426.46 1898.75C4427.88 1923.83 4428.93 1948.89 4429.76 1973.97C4430.21 1981.08 4430.65 1988.2 4431.11 1995.53C4431.36 2005.8 4431.36 2005.8 4431.62 2016.28C4432.04 2025.73 4432.04 2025.73 4432.46 2035.38C4424.88 2056.85 4407.51 2064.29 4373.56 2078C4391.02 2080.81 4408.47 2083.63 4426.46 2086.53C4426.46 2092.16 4426.46 2097.8 4426.46 2103.6C4438.09 2103.6 4449.73 2103.6 4461.72 2103.6C4472.74 2123.87 4472.74 2123.87 4479.35 2146.28C4467.71 2151.91 4456.08 2157.55 4444.09 2163.35C4436.01 2180.18 4436.01 2180.18 4433.07 2198.56C4430.89 2209.47 4428.7 2220.39 4426.46 2231.63C4414.82 2231.63 4403.18 2231.63 4391.19 2231.63C4385.38 2237.27 4379.56 2242.9 4373.56 2248.7C4364.84 2236.03 4364.84 2236.03 4355.93 2223.1C4338.48 2220.28 4321.02 2217.46 4303.04 2214.56C4297.22 2200.48 4291.41 2186.39 4285.41 2171.88C4308.68 2171.88 4331.96 2171.88 4355.93 2171.88C4359.35 2124.71 4351.49 2088.61 4320.67 2043.85C4338.13 2041.04 4355.58 2038.22 4373.56 2035.32C4379.38 1990.25 4385.2 1945.18 4391.19 1898.75Z" fill="#B8CDEA"/>
<path d="M2963.11 2402.34C2968.92 2413.61 2974.74 2424.87 2980.74 2436.48C3033.1 2436.48 3085.46 2436.48 3139.41 2436.48C3127.78 2450.57 3116.14 2464.65 3104.15 2479.16C3115.79 2481.98 3127.42 2484.79 3139.41 2487.69C3116.14 2518.68 3092.87 2549.66 3068.89 2581.58C3045.62 2581.58 3022.35 2581.58 2998.37 2581.58C2961.92 2555.12 2958.79 2549.75 2959.66 2519.87C2959.78 2513.02 2959.89 2506.17 2960.01 2499.11C2960.3 2492 2960.6 2484.89 2960.9 2477.56C2961.06 2470.35 2961.22 2463.13 2961.38 2455.7C2961.8 2437.91 2962.43 2420.13 2963.11 2402.34Z" fill="#92A8C3"/>
<path d="M5343.25 2052.39C5343.25 2063.66 5343.25 2074.92 5343.25 2086.53C5331.62 2086.53 5319.98 2086.53 5307.99 2086.53C5307.99 2092.16 5307.99 2097.8 5307.99 2103.6C5296.36 2103.6 5284.72 2103.6 5272.73 2103.6C5272.73 2109.24 5272.73 2114.87 5272.73 2120.67C5261.09 2120.67 5249.46 2120.67 5237.47 2120.67C5237.47 2126.31 5237.47 2131.94 5237.47 2137.74C5225.83 2137.74 5214.2 2137.74 5202.21 2137.74C5202.21 2143.38 5202.21 2149.01 5202.21 2154.81C5190.57 2154.81 5178.94 2154.81 5166.95 2154.81C5155.31 2132.28 5143.67 2109.75 5131.69 2086.53C5143.32 2086.53 5154.96 2086.53 5166.95 2086.53C5172.76 2078.08 5178.58 2069.63 5184.58 2060.92C5184.58 2066.56 5184.58 2072.19 5184.58 2078C5194.4 2073.77 5204.21 2069.55 5214.33 2065.19C5261.83 2050.28 5287.78 2050.15 5343.25 2052.39Z" fill="#E8E6E7"/>
<path d="M5255.1 2351.13C5260.92 2359.58 5266.74 2368.03 5272.73 2376.73C5290.19 2376.73 5307.64 2376.73 5325.62 2376.73C5325.62 2382.37 5325.62 2388 5325.62 2393.8C5372.17 2393.8 5418.71 2393.8 5466.67 2393.8C5471.76 2399.09 5476.85 2404.37 5482.1 2409.81C5500.82 2429.08 5500.82 2429.08 5537.19 2445.02C5504.13 2450.35 5504.13 2450.35 5466.67 2453.55C5455.03 2447.92 5443.4 2442.29 5431.41 2436.48C5431.41 2425.22 5431.41 2413.95 5431.41 2402.34C5390.68 2402.34 5349.95 2402.34 5307.99 2402.34C5302.17 2413.61 5296.36 2424.87 5290.36 2436.48C5234.63 2424.79 5219.97 2419.5 5184.58 2393.8C5196.21 2385.35 5207.85 2376.9 5219.84 2368.2C5231.47 2371.02 5243.11 2373.83 5255.1 2376.73C5255.1 2368.28 5255.1 2359.83 5255.1 2351.13Z" fill="#749BDA"/>
<path d="M4197.26 2325.52C4214.71 2331.16 4232.17 2336.79 4250.15 2342.59C4232.52 2368.2 4232.52 2368.2 4200.84 2376.13C4188.02 2379.15 4175.2 2382.16 4162 2385.27C4136.58 2396.79 4111.63 2408.54 4087.06 2420.48C4032.01 2444.97 3998.85 2458.21 3922.88 2457.82C3902.88 2456.41 3882.88 2455 3862.27 2453.55C3928.7 2416.52 3978.04 2406.93 4073.84 2393.81C4093.83 2376.59 4093.83 2376.59 4109.1 2359.66C4155.38 2353.26 4155.38 2353.26 4197.26 2351.13C4197.26 2342.68 4197.26 2334.23 4197.26 2325.52Z" fill="#B7CBE8"/>
<path d="M4461.72 1813.4C4484.99 1816.22 4508.26 1819.03 4532.24 1821.93C4509.66 1836.51 4486.09 1850.73 4461.72 1864.61C4450.08 1864.61 4438.44 1864.61 4426.46 1864.61C4426.46 1875.88 4426.46 1887.14 4426.46 1898.75C4414.82 1898.75 4403.18 1898.75 4391.19 1898.75C4391.19 1943.82 4391.19 1988.89 4391.19 2035.32C4367.92 2038.14 4344.65 2040.95 4320.67 2043.85C4314.85 2049.49 4309.04 2055.12 4303.04 2060.92C4303.04 2052.47 4303.04 2044.02 4303.04 2035.32C4314.68 2032.5 4326.31 2029.69 4338.3 2026.78C4347.32 1999.04 4353.05 1971.55 4358.1 1943.6C4367.09 1901.34 4388.33 1868.79 4426.46 1830.47C4438.09 1830.47 4449.73 1830.47 4461.72 1830.47C4461.72 1824.84 4461.72 1819.2 4461.72 1813.4Z" fill="#E4E4E5"/>
<path d="M4426.46 2103.6C4438.09 2103.6 4449.73 2103.6 4461.72 2103.6C4472.74 2123.87 4472.74 2123.87 4479.35 2146.28C4467.71 2151.91 4456.08 2157.55 4444.09 2163.35C4436.01 2180.18 4436.01 2180.18 4433.07 2198.56C4430.89 2209.47 4428.7 2220.39 4426.46 2231.63C4414.82 2231.63 4403.18 2231.63 4391.19 2231.63C4385.38 2237.27 4379.56 2242.9 4373.56 2248.7C4367.75 2240.25 4361.93 2231.8 4355.93 2223.1C4338.48 2220.28 4321.02 2217.46 4303.04 2214.56C4297.22 2200.48 4291.41 2186.39 4285.41 2171.88C4308.68 2171.88 4331.96 2171.88 4355.93 2171.88C4355.93 2177.52 4355.93 2183.15 4355.93 2188.96C4367.57 2188.96 4379.21 2188.96 4391.19 2188.96C4391.19 2177.69 4391.19 2166.42 4391.19 2154.81C4402.83 2154.81 4414.47 2154.81 4426.46 2154.81C4426.46 2137.91 4426.46 2121.01 4426.46 2103.6Z" fill="#A7C2E7"/>
<path d="M4073.84 2248.7C4050.57 2251.52 4027.3 2254.34 4003.32 2257.24C4009.14 2271.32 4014.95 2285.41 4020.95 2299.92C4007.13 2302.2 3993.31 2304.49 3979.08 2306.85C3927.84 2315.69 3927.84 2315.69 3897.53 2342.59C3874.26 2339.78 3850.99 2336.96 3827.01 2334.06C3850.93 2296.17 3882.87 2279.3 3950.43 2257.24C4030.7 2238.26 4030.7 2238.26 4073.84 2248.7Z" fill="#A7BAD8"/>
<path d="M4990.64 2513.3C5034.28 2517.53 5034.28 2517.53 5078.79 2521.84C5084.61 2530.29 5090.43 2538.74 5096.42 2547.44C5078.97 2550.26 5061.52 2553.08 5043.53 2555.98C5043.53 2561.61 5043.53 2567.24 5043.53 2573.05C5055.17 2573.05 5066.8 2573.05 5078.79 2573.05C5077.26 2586.93 5075.35 2600.8 5073.28 2614.66C5072.26 2622.38 5071.24 2630.11 5070.18 2638.06C5061.16 2658.4 5061.16 2658.4 5008.27 2675.47C5011.54 2667.2 5014.82 2658.92 5018.19 2650.4C5020.73 2641.77 5023.28 2633.15 5025.9 2624.26C5020.08 2621.44 5014.26 2618.63 5008.27 2615.72C5004.14 2598.52 5000.98 2581.25 4998.35 2563.98C4996.88 2554.55 4995.4 2545.12 4993.88 2535.41C4992.27 2524.46 4992.27 2524.46 4990.64 2513.3Z" fill="#6D8DCD"/>
<path d="M3950.43 2299.92C3986.79 2303.65 3986.79 2303.65 4020.95 2308.45C4020.95 2314.08 4020.95 2319.72 4020.95 2325.52C4067.49 2325.52 4114.04 2325.52 4162 2325.52C4156.18 2333.97 4150.36 2342.42 4144.36 2351.13C4111.64 2350.86 4111.64 2350.86 4078.25 2350.59C4026.58 2350.55 3982.47 2352.26 3932.8 2359.66C3921.16 2359.66 3909.52 2359.66 3897.53 2359.66C3891.72 2365.3 3885.9 2370.93 3879.9 2376.73C3879.9 2368.28 3879.9 2359.83 3879.9 2351.13C3891.54 2351.13 3903.18 2351.13 3915.17 2351.13C3917.71 2344.26 3920.26 2337.4 3922.88 2330.32C3932.8 2308.45 3932.8 2308.45 3950.43 2299.92Z" fill="#E4E8F2"/>
<path d="M3509.66 2214.56C3509.66 2217.38 3509.66 2220.2 3509.66 2223.1C3499.23 2224.55 3488.8 2226 3478.05 2227.5C3348.28 2246.77 3274.55 2272.43 3192.31 2325.52C3192.31 2293.06 3196.47 2274.54 3236.93 2248.2C3326.2 2205.59 3389.52 2198.54 3509.66 2214.56Z" fill="#CECCCB"/>
<path d="M3562.55 2555.98C3580 2558.79 3597.46 2561.61 3615.44 2564.51C3609.62 2575.78 3603.81 2587.05 3597.81 2598.65C3586.54 2599.53 3575.27 2600.41 3563.65 2601.32C3551.65 2603.26 3539.65 2605.19 3527.29 2607.19C3521.47 2615.64 3515.65 2624.09 3509.66 2632.8C3550.39 2627.16 3591.11 2621.53 3633.07 2615.72C3633.07 2624.17 3633.07 2632.62 3633.07 2641.33C3579.42 2654.32 3533.39 2651.91 3474.4 2649.87C3439.14 2624.26 3439.14 2624.26 3439.14 2598.65C3500.23 2594.43 3500.23 2594.43 3562.55 2590.12C3556.73 2581.67 3550.91 2573.22 3544.92 2564.51C3550.74 2561.7 3556.56 2558.88 3562.55 2555.98Z" fill="#738BB4"/>
<path d="M3474.4 2564.51C3403.52 2602.99 3333.27 2630.04 3223.57 2634.33C3189.63 2634.39 3155.68 2633.66 3121.78 2632.8C3115.96 2627.16 3110.15 2621.53 3104.15 2615.72C3168.15 2615.72 3232.15 2615.72 3298.09 2615.72C3298.09 2607.27 3298.09 2598.82 3298.09 2590.12C3414.89 2554.91 3414.89 2554.91 3474.4 2564.51Z" fill="#7A8FAC"/>
<path d="M5043.53 1967.04C5049.35 1975.49 5055.17 1983.94 5061.16 1992.64C5096.07 1992.64 5130.98 1992.64 5166.95 1992.64C5149.49 1995.46 5132.04 1998.28 5114.05 2001.18C5114.05 2006.81 5114.05 2012.44 5114.05 2018.25C5096.6 2022.47 5096.6 2022.47 5078.79 2026.78C5072.97 2035.23 5067.16 2043.68 5061.16 2052.39C5084.43 2052.39 5107.71 2052.39 5131.69 2052.39C5131.69 2063.66 5131.69 2074.92 5131.69 2086.53C5096.78 2086.53 5061.87 2086.53 5025.9 2086.53C5014.88 2057.72 5014.88 2057.72 5008.27 2026.78C5019.91 2021.15 5031.54 2015.52 5043.53 2009.71C5046.47 1987.66 5046.47 1987.66 5043.53 1967.04Z" fill="#E4E5E3"/>
<path d="M3721.23 2385.27C3686.43 2435.81 3582.65 2454.33 3492.03 2479.16C3510.91 2426.34 3510.91 2426.34 3554.63 2407.84C3614.33 2390.7 3651.22 2385.27 3721.23 2385.27Z" fill="#DED9E1"/>
<path d="M3280.46 2120.67C3286.28 2126.31 3292.1 2131.94 3298.09 2137.74C3333.79 2143.31 3333.79 2143.31 3368.61 2146.28C3374.43 2163.18 3380.25 2180.08 3386.24 2197.49C3345.47 2203.36 3345.47 2203.36 3298.09 2206.03C3265.03 2196.42 3265.03 2196.42 3245.2 2180.42C3249.8 2157.59 3259.31 2141.15 3280.46 2120.67Z" fill="#CFCFCD"/>
<path d="M4179.63 2547.44C4185.44 2558.71 4191.26 2569.98 4197.26 2581.58C4261.26 2581.58 4325.26 2581.58 4391.2 2581.58C4391.2 2587.22 4391.2 2592.85 4391.2 2598.65C4374.1 2601.12 4357.01 2603.58 4339.4 2606.12C4283.53 2612.67 4283.53 2612.67 4267.78 2632.8C4227.05 2618.71 4186.33 2604.63 4144.36 2590.12C4156 2576.04 4167.64 2561.95 4179.63 2547.44Z" fill="#54668A"/>
<path d="M3668.34 2086.53C3709.06 2086.53 3749.79 2086.53 3791.75 2086.53C3791.75 2097.8 3791.75 2109.06 3791.75 2120.67C3674.95 2146.28 3674.95 2146.28 3615.44 2146.28C3648.5 2105.74 3648.5 2105.74 3668.34 2086.53Z" fill="#D0C6CD"/>
<path d="M5096.42 2103.6C5119.7 2103.6 5142.97 2103.6 5166.95 2103.6C5166.95 2120.5 5166.95 2137.4 5166.95 2154.81C5178.58 2154.81 5190.22 2154.81 5202.21 2154.81C5202.21 2149.18 5202.21 2143.55 5202.21 2137.74C5213.84 2137.74 5225.48 2137.74 5237.47 2137.74C5237.47 2132.11 5237.47 2126.48 5237.47 2120.67C5249.11 2120.67 5260.74 2120.67 5272.73 2120.67C5261.09 2137.57 5249.46 2154.47 5237.47 2171.88C5202.56 2171.88 5167.65 2171.88 5131.69 2171.88C5131.69 2163.43 5131.69 2154.98 5131.69 2146.28C5120.05 2146.28 5108.41 2146.28 5096.42 2146.28C5096.42 2132.2 5096.42 2118.11 5096.42 2103.6Z" fill="#A3C6F0"/>
<path d="M3721.23 2615.72C3744.5 2621.36 3767.77 2626.99 3791.75 2632.8C3791.75 2641.25 3791.75 2649.7 3791.75 2658.4C3815.02 2661.22 3838.3 2664.03 3862.27 2666.94C3862.27 2661.3 3862.27 2655.67 3862.27 2649.87C3903 2649.87 3943.73 2649.87 3985.69 2649.87C3952.08 2666.85 3925.47 2674.85 3877.01 2677.77C3766.58 2678.73 3766.58 2678.73 3703.6 2658.4C3709.41 2644.32 3715.23 2630.23 3721.23 2615.72Z" fill="#7085B4"/>
<path d="M3950.43 2120.67C4006.16 2156.65 4009.26 2163.87 4003.32 2206.03C4026.59 2206.03 4049.86 2206.03 4073.84 2206.03C4073.84 2217.29 4073.84 2228.56 4073.84 2240.17C4050.57 2242.98 4027.3 2245.8 4003.32 2248.7C4014.96 2237.44 4026.59 2226.17 4038.58 2214.56C4009.49 2211.74 3980.4 2208.93 3950.43 2206.03C3950.43 2177.86 3950.43 2149.69 3950.43 2120.67Z" fill="#DED7DE"/>
<path d="M3756.49 1941.43C3803.84 1964.35 3810.45 1987.32 3827.01 2018.25C3766.67 2027.99 3719.7 2027.62 3656.21 2027.32C3625.02 2027.2 3625.02 2027.2 3593.2 2027.08C3577.27 2026.98 3561.33 2026.89 3544.92 2026.78C3544.92 2023.97 3544.92 2021.15 3544.92 2018.25C3614.74 2018.25 3684.56 2018.25 3756.49 2018.25C3753.22 2008.74 3749.94 1999.24 3746.57 1989.44C3738.86 1958.5 3738.86 1958.5 3756.49 1941.43Z" fill="#B6B4B4"/>
<path d="M4285.41 2632.8C4311.13 2636.87 4336.84 2640.96 4362.55 2645.07C4376.86 2647.34 4391.18 2649.62 4405.93 2651.97C4444.09 2658.4 4444.09 2658.4 4479.35 2666.94C4492.17 2683.83 4504 2700.9 4514.61 2718.15C4470.97 2709.7 4470.97 2709.7 4426.46 2701.08C4426.46 2695.45 4426.46 2689.81 4426.46 2684.01C4413 2681.9 4399.55 2679.78 4385.69 2677.61C4334.13 2666 4315.38 2655.71 4285.41 2632.8Z" fill="#6C8DC7"/>
<path d="M3139.41 2436.48C3164.4 2437.7 3189.37 2438.95 3214.34 2440.22C3235.21 2441.26 3235.21 2441.26 3256.49 2442.32C3294.98 2444.81 3331.19 2448.61 3368.61 2453.55C3362.79 2459.19 3356.98 2464.82 3350.98 2470.62C3329.89 2470.45 3308.8 2470.27 3287.07 2470.09C3224.39 2470.04 3165.76 2473.19 3104.15 2479.16C3115.79 2465.07 3127.42 2450.99 3139.41 2436.48Z" fill="#E3E6E9"/>
<path d="M4056.21 2316.99C4096.94 2316.99 4137.67 2316.99 4179.63 2316.99C4185.44 2328.25 4191.26 2339.52 4197.26 2351.13C4168.17 2353.94 4139.08 2356.76 4109.1 2359.66C4107.65 2364.94 4106.19 2370.23 4104.7 2375.67C4091.47 2393.8 4091.47 2393.8 4055.11 2404.47C4043.84 2406.59 4032.56 2408.7 4020.95 2410.88C4032.59 2399.61 4044.22 2388.34 4056.21 2376.73C4067.85 2376.73 4079.48 2376.73 4091.47 2376.73C4085.65 2368.28 4079.84 2359.83 4073.84 2351.13C4097.11 2351.13 4120.39 2351.13 4144.36 2351.13C4144.36 2345.49 4144.36 2339.86 4144.36 2334.06C4115.27 2331.24 4086.18 2328.42 4056.21 2325.52C4056.21 2322.71 4056.21 2319.89 4056.21 2316.99Z" fill="#D4DEEE"/>
<path d="M4973.01 2120.67C5007.17 2126.54 5007.17 2126.54 5043.53 2137.74C5052.35 2159.08 5052.35 2159.08 5061.16 2180.42C5095.85 2192.03 5095.85 2192.03 5131.69 2197.49C5131.69 2203.12 5131.69 2208.76 5131.69 2214.56C5081 2209.23 5081 2209.23 5025.9 2197.49C5002.76 2172.42 5002.76 2172.42 4990.64 2146.28C4984.82 2137.83 4979 2129.38 4973.01 2120.67Z" fill="#C4DAF2"/>
<path d="M2963.11 2530.37C3003.83 2536 3044.56 2541.64 3086.52 2547.44C3074.88 2561.53 3063.25 2575.61 3051.26 2590.12C3017.1 2584.25 3017.1 2584.25 2980.74 2573.05C2967.51 2550.64 2967.51 2550.64 2963.11 2530.37Z" fill="#4E5D77"/>
<path d="M5043.53 2555.98C5110.9 2560.51 5150.4 2568.75 5202.21 2590.12C5167.3 2592.94 5132.39 2595.75 5096.42 2598.65C5090.61 2612.74 5084.79 2626.82 5078.79 2641.33C5059.46 2613.25 5064.7 2601.1 5078.79 2573.05C5067.16 2573.05 5055.52 2573.05 5043.53 2573.05C5043.53 2567.41 5043.53 2561.78 5043.53 2555.98Z" fill="#5D77AC"/>
<path d="M4008.83 2408.21C4024.46 2409.09 4040.1 2409.97 4056.21 2410.88C4038.58 2432.21 4038.58 2432.21 4003.32 2453.55C3954.06 2457.55 3912.66 2455.55 3862.27 2453.55C3936.05 2411.53 3936.05 2411.53 4008.83 2408.21Z" fill="#C0D3EE"/>
<path d="M4091.47 2112.14C4206.48 2117.39 4206.48 2117.39 4249.05 2134.01C4255.23 2138.06 4261.41 2142.11 4267.78 2146.28C4261.96 2154.73 4256.14 2163.18 4250.15 2171.88C4221.06 2169.07 4191.97 2166.25 4162 2163.35C4162 2152.08 4162 2140.82 4162 2129.21C4138.72 2123.57 4115.45 2117.94 4091.47 2112.14Z" fill="#9FB9DD"/>
<path d="M3474.4 2351.13C3520.68 2354.33 3520.68 2354.33 3562.55 2359.66C3481.01 2401.27 3481.01 2401.27 3421.5 2410.88C3434.73 2370.33 3434.73 2370.33 3474.4 2351.13Z" fill="#D4CCD0"/>
<path d="M4197.26 2530.37C4208.89 2538.82 4220.53 2547.27 4232.52 2555.98C4226.7 2561.61 4220.88 2567.24 4214.89 2573.05C4226.89 2571.64 4238.89 2570.23 4251.25 2568.78C4310.38 2563.91 4366.58 2563.94 4426.46 2564.51C4420.64 2572.96 4414.82 2581.41 4408.83 2590.12C4339.01 2587.3 4269.19 2584.49 4197.26 2581.58C4191.44 2567.5 4185.62 2553.42 4179.63 2538.91C4185.44 2536.09 4191.26 2533.27 4197.26 2530.37Z" fill="#7392C8"/>
<path d="M4990.64 2513.3C5034.28 2517.53 5034.28 2517.53 5078.79 2521.84C5084.61 2530.29 5090.43 2538.74 5096.42 2547.44C5073.15 2550.26 5049.88 2553.08 5025.9 2555.98C5025.9 2575.69 5025.9 2595.41 5025.9 2615.72C5020.08 2615.72 5014.26 2615.72 5008.27 2615.72C5002.45 2581.92 4996.63 2548.12 4990.64 2513.3Z" fill="#7197D5"/>
<path d="M3474.4 2419.41C3491.85 2419.41 3509.31 2419.41 3527.29 2419.41C3527.29 2430.68 3527.29 2441.94 3527.29 2453.55C3509.83 2453.55 3492.38 2453.55 3474.4 2453.55C3462.76 2459.19 3451.12 2464.82 3439.14 2470.62C3392.85 2471.69 3392.85 2471.69 3350.98 2470.62C3350.98 2464.99 3350.98 2459.36 3350.98 2453.55C3371.71 2449.86 3371.71 2449.86 3392.85 2446.08C3440.84 2437.77 3440.84 2437.77 3474.4 2419.41Z" fill="#A5B6CF"/>
<path d="M4743.81 1975.57C4769.2 1977.76 4794.53 1980.1 4819.84 1982.51C4833.95 1983.79 4848.07 1985.08 4862.61 1986.41C4906.62 1993.29 4925.83 2001.35 4955.38 2018.25C4949.56 2023.88 4943.74 2029.51 4937.75 2035.32C4929.02 2031.27 4920.29 2027.22 4911.3 2023.05C4849.69 2004.41 4798.29 2004.09 4726.18 2001.18C4732 1992.73 4737.81 1984.28 4743.81 1975.57Z" fill="#D2DBE8"/>
<path d="M4549.87 1796.33C4619.69 1813.23 4619.69 1813.23 4690.92 1830.47C4685.1 1836.1 4679.28 1841.74 4673.29 1847.54C4636.92 1852.88 4636.92 1852.88 4602.76 1856.08C4602.76 1847.63 4602.76 1839.18 4602.76 1830.47C4579.49 1827.65 4556.22 1824.84 4532.24 1821.93C4538.06 1813.48 4543.88 1805.03 4549.87 1796.33Z" fill="#9BC1E7"/>
<path d="M4003.32 2325.52C4055.68 2325.52 4108.05 2325.52 4162 2325.52C4156.18 2333.97 4150.36 2342.42 4144.36 2351.13C4097.82 2348.31 4051.27 2345.49 4003.32 2342.59C4003.32 2336.96 4003.32 2331.33 4003.32 2325.52ZM3968.06 2342.59C3985.51 2346.82 3985.51 2346.82 4003.32 2351.13C3985.86 2355.35 3985.86 2355.35 3968.06 2359.66C3968.06 2354.03 3968.06 2348.4 3968.06 2342.59Z" fill="#F3F1F1"/>
<path d="M3968.06 2214.56C3991.33 2214.56 4014.6 2214.56 4038.58 2214.56C4029.77 2230.57 4029.77 2230.57 4003.32 2248.7C3956.57 2257.11 3911.54 2261.16 3862.27 2265.77C3862.27 2257.32 3862.27 2248.87 3862.27 2240.17C3897.18 2240.17 3932.09 2240.17 3968.06 2240.17C3968.06 2231.72 3968.06 2223.27 3968.06 2214.56Z" fill="#F4EDE7"/>
<path d="M3915.17 2009.71C3915.17 2018.16 3915.17 2026.61 3915.17 2035.32C3874.39 2044.92 3874.39 2044.92 3827.01 2052.39C3809.56 2046.76 3792.1 2041.12 3774.12 2035.32C3774.12 2029.69 3774.12 2024.05 3774.12 2018.25C3825.75 2009.92 3861.5 2009.01 3915.17 2009.71Z" fill="#DCD6D6"/>
<path d="M4373.56 2103.6C4391.02 2103.6 4408.47 2103.6 4426.46 2103.6C4426.46 2120.5 4426.46 2137.4 4426.46 2154.81C4414.82 2154.81 4403.18 2154.81 4391.19 2154.81C4391.19 2166.08 4391.19 2177.35 4391.19 2188.96C4379.56 2186.14 4367.92 2183.32 4355.93 2180.42C4361.75 2155.07 4367.57 2129.72 4373.56 2103.6Z" fill="#CBCFDD"/>
<path d="M3668.34 2086.53C3709.06 2086.53 3749.79 2086.53 3791.75 2086.53C3791.75 2089.35 3791.75 2092.16 3791.75 2095.07C3756.84 2095.07 3721.93 2095.07 3685.97 2095.07C3680.15 2106.33 3674.33 2117.6 3668.34 2129.21C3685.79 2132.02 3703.24 2134.84 3721.23 2137.74C3686.32 2140.56 3651.41 2143.38 3615.44 2146.28C3648.5 2105.74 3648.5 2105.74 3668.34 2086.53Z" fill="#E3DCE0"/>
<path d="M3932.8 2086.53C3973.52 2092.16 4014.25 2097.8 4056.21 2103.6C4044.58 2109.24 4032.94 2114.87 4020.95 2120.67C4008.65 2131.92 3996.8 2143.28 3985.69 2154.81C3932.8 2105.74 3932.8 2105.74 3932.8 2086.53Z" fill="#A4BBD4"/>
<path d="M5343.25 2052.39C5366.53 2058.02 5389.8 2063.66 5413.78 2069.46C5413.78 2080.73 5413.78 2091.99 5413.78 2103.6C5396.32 2100.79 5378.87 2097.97 5360.88 2095.07C5343.43 2097.88 5325.98 2100.7 5307.99 2103.6C5307.99 2097.97 5307.99 2092.34 5307.99 2086.53C5319.63 2086.53 5331.26 2086.53 5343.25 2086.53C5343.25 2075.26 5343.25 2064 5343.25 2052.39ZM5272.73 2103.6C5290.19 2107.83 5290.19 2107.83 5307.99 2112.14C5290.54 2116.36 5290.54 2116.36 5272.73 2120.67C5272.73 2115.04 5272.73 2109.41 5272.73 2103.6Z" fill="#9CCAF5"/>
<path d="M3245.2 2248.7C3262.65 2254.34 3280.11 2259.97 3298.09 2265.77C3283.84 2275.76 3269.49 2285.71 3255.12 2295.65C3247.14 2301.19 3239.16 2306.74 3230.94 2312.45C3224.01 2316.77 3217.08 2321.08 3209.94 2325.52C3204.12 2325.52 3198.3 2325.52 3192.31 2325.52C3205.53 2267.91 3205.53 2267.91 3245.2 2248.7Z" fill="#BAB9B9"/>
<path d="M5096.42 2103.6C5119.7 2103.6 5142.97 2103.6 5166.95 2103.6C5172.76 2123.32 5178.58 2143.04 5184.58 2163.35C5172.94 2163.35 5161.3 2163.35 5149.32 2163.35C5143.5 2157.72 5137.68 2152.08 5131.69 2146.28C5120.05 2146.28 5108.41 2146.28 5096.42 2146.28C5096.42 2132.2 5096.42 2118.11 5096.42 2103.6Z" fill="#9FC8FD"/>
<path d="M4973.01 2026.78C4984.65 2029.6 4996.28 2032.42 5008.27 2035.32C5018.74 2057.93 5021.35 2080.49 5025.9 2103.6C5014.27 2103.6 5002.63 2103.6 4990.64 2103.6C4955.38 2078 4955.38 2078 4961.99 2050.79C4965.63 2042.87 4969.26 2034.95 4973.01 2026.78Z" fill="#83AAD5"/>
<path d="M4214.89 2581.58C4273.07 2581.58 4331.25 2581.58 4391.19 2581.58C4385.38 2587.22 4379.56 2592.85 4373.56 2598.65C4260.22 2609.63 4260.22 2609.63 4214.89 2598.65C4214.89 2593.02 4214.89 2587.39 4214.89 2581.58Z" fill="#6278AE"/>
<path d="M3139.41 2419.41C3139.41 2425.04 3139.41 2430.68 3139.41 2436.48C3087.05 2436.48 3034.69 2436.48 2980.74 2436.48C3016.25 2402.09 3073.76 2411.68 3139.41 2419.41Z" fill="#DBDCE3"/>
<path d="M4038.58 2308.45C4108.4 2308.45 4178.22 2308.45 4250.15 2308.45C4255.97 2314.08 4261.79 2319.72 4267.78 2325.52C4256.14 2331.16 4244.51 2336.79 4232.52 2342.59C4215.06 2336.96 4197.61 2331.33 4179.63 2325.52C4143.5 2321.67 4143.5 2321.67 4105.8 2320.19C4072.53 2318.6 4072.53 2318.6 4038.58 2316.99C4038.58 2314.17 4038.58 2311.35 4038.58 2308.45Z" fill="#A3B3D1"/>
<path d="M5343.25 1864.61C5343.25 1870.24 5343.25 1875.88 5343.25 1881.68C5284.77 1893.82 5229.67 1902.08 5166.95 1907.29C5252.26 1864.61 5252.26 1864.61 5343.25 1864.61Z" fill="#DDDFE4"/>
<path d="M5307.99 1856.08C5354.54 1856.08 5401.08 1856.08 5449.04 1856.08C5449.04 1870.16 5449.04 1884.24 5449.04 1898.75C5437.4 1898.75 5425.77 1898.75 5413.78 1898.75C5409.41 1893.3 5405.05 1887.84 5400.55 1882.22C5381.77 1863.01 5381.77 1863.01 5341.05 1858.21C5324.69 1857.15 5324.69 1857.15 5307.99 1856.08Z" fill="#9EBEDB"/>
<path d="M5255.1 2334.06C5260.92 2339.69 5266.74 2345.32 5272.73 2351.13C5266.91 2359.58 5261.09 2368.03 5255.1 2376.73C5243.46 2376.73 5231.83 2376.73 5219.84 2376.73C5191.19 2389.18 5191.19 2389.18 5166.95 2402.34C5171.35 2377.8 5171.35 2377.8 5184.58 2351.13C5220.94 2339.39 5220.94 2339.39 5255.1 2334.06Z" fill="#7DA9E4"/>
<path d="M3421.5 2026.78C3444.78 2026.78 3468.05 2026.78 3492.03 2026.78C3492.03 2032.42 3492.03 2038.05 3492.03 2043.85C3414.72 2069.46 3414.72 2069.46 3368.61 2069.46C3401.67 2036.39 3401.67 2036.39 3421.5 2026.78Z" fill="#AEAEAE"/>
<path d="M4285.41 2632.8C4337.77 2641.25 4390.14 2649.7 4444.09 2658.4C4409.18 2666.85 4409.18 2666.85 4373.56 2675.47C4344.47 2661.39 4315.38 2647.31 4285.41 2632.8Z" fill="#6680A0"/>
<path d="M3544.92 2453.55C3556.56 2456.37 3568.19 2459.19 3580.18 2462.09C3538.52 2483.65 3515.57 2495.28 3456.77 2504.77C3462.58 2490.68 3468.4 2476.6 3474.4 2462.09C3491.85 2462.09 3509.31 2462.09 3527.29 2462.09C3533.11 2459.27 3538.92 2456.45 3544.92 2453.55Z" fill="#ACBBD5"/>
<path d="M5255.1 2052.39C5284.19 2052.39 5313.28 2052.39 5343.25 2052.39C5343.25 2063.66 5343.25 2074.92 5343.25 2086.53C5314.16 2089.35 5285.07 2092.16 5255.1 2095.07C5266.74 2083.8 5278.37 2072.53 5290.36 2060.93C5278.73 2058.11 5267.09 2055.29 5255.1 2052.39Z" fill="#E2E4E8"/>
<path d="M5043.53 1967.04C5049.35 1975.49 5055.17 1983.94 5061.16 1992.64C5096.07 1992.64 5130.98 1992.64 5166.95 1992.64C5149.49 1995.46 5132.04 1998.28 5114.05 2001.18C5114.05 2006.81 5114.05 2012.44 5114.05 2018.25C5090.78 2015.43 5067.51 2012.61 5043.53 2009.71C5043.53 1995.63 5043.53 1981.55 5043.53 1967.04Z" fill="#AFB0B4"/>
</g>
<defs>
<clipPath id="clip0_18_908">
<rect width="7437" height="5288" fill="white"/>
</clipPath>
</defs>
</svg>
