<svg width="7437" height="5288" viewBox="0 0 7437 5288" fill="none" xmlns="http://www.w3.org/2000/svg">
<g clip-path="url(#clip0_18_908)">
<path d="M7165.87 3623.41C7228.41 3640.2 7278.62 3659.6 7324.55 3692.14C7332.26 3735.09 7332.26 3735.09 7324.55 3772.32C7342 3783.66 7342 3783.66 7359.81 3795.23C7362.01 3831.03 7362.01 3831.03 7359.81 3863.96C7371.45 3863.96 7383.08 3863.96 7395.07 3863.96C7395.07 3871.52 7395.07 3879.08 7395.07 3886.87C7413.25 3887.82 7431.43 3888.76 7450.17 3889.74C7527.83 3899.5 7562.3 3913.71 7624.27 3944.15C7665.52 3922.1 7665.52 3922.1 7666.14 3883.29C7681.55 3824.23 7713.28 3800.39 7786.6 3764.98C7883.95 3723.4 7948.83 3706.66 8065.04 3715.05C8071.45 3724.81 8071.45 3724.81 8077.99 3734.78C8083.89 3743.63 8089.8 3752.47 8095.89 3761.58C8102.26 3771.14 8108.62 3780.69 8115.18 3790.53C8135.87 3820.63 8135.87 3820.63 8175.23 3853.94C8232.27 3915.13 8213.87 4001.59 8206.08 4070.16C8200.27 4077.72 8194.45 4085.28 8188.45 4093.07C8176.82 4093.07 8165.18 4093.07 8153.19 4093.07C8160.71 4116.72 8168.47 4140.34 8176.33 4163.95C8180.63 4177.1 8184.92 4190.26 8189.35 4203.81C8205.62 4240.94 8227.55 4266.86 8258.98 4299.26C8271.1 4337.2 8271.1 4337.2 8276.61 4367.99C8288.24 4367.99 8299.88 4367.99 8311.87 4367.99C8317.38 4398.78 8317.38 4398.78 8311.87 4436.72C8261.66 4477.73 8214.25 4503.8 8135.56 4516.91C8096.99 4515.48 8096.99 4515.48 8065.04 4505.45C8043 4481.83 8043 4481.83 8029.78 4459.63C8000.69 4459.63 7971.59 4459.63 7941.62 4459.63C7947.44 4470.97 7953.26 4482.31 7959.25 4494C7968.93 4548.11 7967.47 4586.8 7928.4 4635.75C7860.42 4687.28 7817.34 4703.9 7712.42 4711.64C7710.67 4720.12 7708.92 4728.6 7707.12 4737.33C7693.34 4772.65 7675.58 4789.12 7638.59 4816.17C7628.53 4823.76 7618.46 4831.35 7608.09 4839.17C7522.39 4889.11 7439.29 4900.98 7326.75 4899.94C7308.14 4899.88 7308.14 4899.88 7289.15 4899.83C7189.01 4898.08 7124.93 4884.83 7042.46 4849.11C7042.46 4841.55 7042.46 4833.99 7042.46 4826.2C7025 4823.01 7025 4823.01 7007.19 4819.75C6942.7 4799.67 6898.11 4772.53 6846.18 4740.95C6812.9 4720.7 6812.9 4720.7 6760.36 4711.64C6730.34 4724.31 6730.34 4724.31 6701.96 4743.15C6607.94 4797.98 6534.63 4818.61 6408.65 4818.19C6372.49 4814.74 6372.49 4814.74 6319.6 4791.83C6325.41 4772.93 6331.23 4754.03 6337.23 4734.56C6283.2 4740.54 6283.2 4740.54 6243.56 4763.91C6213.81 4780.38 6213.81 4780.38 6151 4784.67C6121 4782.55 6121 4782.55 6090.4 4780.38C6055.14 4746.01 6055.14 4746.01 6055.14 4711.64C6116.23 4705.97 6116.23 4705.97 6178.55 4700.19C6172.73 4692.63 6166.91 4685.07 6160.92 4677.28C6081.59 4682.11 6029.22 4704.68 5964.64 4732.77C5894.64 4760.93 5817.75 4769.07 5737.78 4757.47C5674.58 4730.42 5613.36 4698.88 5579.11 4654.37C5575.97 4620.79 5574.21 4587.74 5573.6 4554.14C5573.08 4544.98 5572.57 4535.83 5572.05 4526.39C5571.01 4463.68 5586.8 4429.68 5649.63 4379.45C5661.63 4368.46 5661.63 4368.46 5673.87 4357.25C5702.52 4345.08 5702.52 4345.08 5758.72 4348.66C5775.08 4351.26 5791.45 4353.86 5808.31 4356.54C5804.49 4342.36 5804.49 4342.36 5800.59 4327.9C5812.89 4263.98 5881.44 4228.83 5949.35 4184.71C5938.08 4181.87 5926.81 4179.04 5915.19 4176.12C5878.83 4161.8 5878.83 4161.8 5864.71 4141.17C5859.85 4106.28 5878.32 4093.14 5909.68 4065.14C5941.36 4036.43 5969.34 4009.94 5994.53 3978.52C6019.87 3955.61 6019.87 3955.61 6063.95 3947.01C6085.77 3945.6 6085.77 3945.6 6108.03 3944.15C6125.48 3940.37 6142.94 3936.59 6160.92 3932.69C6197.26 3931.9 6233.65 3931.72 6270.01 3931.98C6298.75 3932.13 6298.75 3932.13 6328.07 3932.29C6342.73 3932.42 6357.39 3932.56 6372.49 3932.69C6367.4 3921.83 6362.31 3910.96 6357.06 3899.76C6341.6 3836.22 6407.4 3787.8 6460.64 3737.96C6501.37 3741.74 6542.1 3745.52 6584.06 3749.41C6588.6 3742.5 6593.15 3735.59 6597.83 3728.47C6634.82 3685.64 6691.39 3664.61 6760.36 3646.32C6807.41 3643.47 6850.85 3644 6897.9 3646.54C6993.95 3645.99 7055.75 3611.79 7165.87 3623.41Z" fill="#8DB4E6"/>
<path d="M7081.02 3621.97C7096.91 3622.18 7112.8 3622.39 7129.16 3622.6C7141.28 3622.87 7153.39 3623.13 7165.87 3623.41C7143.98 3662.8 7120.78 3695.02 7077.72 3726.5C7066.08 3726.5 7054.45 3726.5 7042.46 3726.5C7042.46 3741.62 7042.46 3756.74 7042.46 3772.32C7030.82 3772.32 7019.18 3772.32 7007.2 3772.32C7007.2 3832.81 7007.2 3893.29 7007.2 3955.61C6983.92 3959.39 6960.65 3963.17 6936.67 3967.06C6945.4 3978.17 6954.13 3989.27 6963.12 4000.71C6996.59 4050.54 6994.61 4096.85 6989.56 4150.34C6939.98 4148.2 6939.98 4148.2 6883.78 4138.89C6876.87 4129.91 6869.96 4120.93 6862.84 4111.68C6816.59 4068.16 6762.83 4062.6 6686.54 4049.39C6673.32 4046.92 6660.1 4044.45 6646.49 4041.9C6614.01 4035.85 6581.41 4030.07 6548.8 4024.34C6556.43 4033.06 6556.43 4033.06 6564.22 4041.97C6605.48 4091.67 6628.24 4126.74 6619.32 4184.71C6642.59 4184.71 6665.86 4184.71 6689.84 4184.71C6689.84 4199.83 6689.84 4214.95 6689.84 4230.53C6677.73 4234.13 6665.62 4237.74 6653.13 4241.45C6637.25 4246.35 6621.36 4251.25 6604.99 4256.3C6589.24 4261.09 6573.49 4265.87 6557.27 4270.8C6511.15 4288.73 6488.19 4303.89 6460.64 4333.63C6460.64 4341.19 6460.64 4348.75 6460.64 4356.54C6478.1 4360.32 6495.55 4364.1 6513.53 4367.99C6517.9 4360.67 6522.26 4353.34 6526.76 4345.8C6548.8 4322.17 6548.8 4322.17 6586.26 4313.58C6597.17 4312.63 6608.08 4311.69 6619.32 4310.72C6625.14 4322.06 6630.96 4333.4 6636.95 4345.08C6648.59 4341.3 6660.22 4337.52 6672.21 4333.63C6782.37 4328.32 6782.37 4328.32 6838.6 4350.81C6847.69 4356.48 6856.78 4362.15 6866.15 4367.99C6848.52 4402.36 6848.52 4402.36 6816.84 4413.01C6804.02 4417.05 6791.2 4421.1 6778 4425.27C6752.58 4440.72 6727.63 4456.5 6703.07 4472.52C6647.03 4505.25 6627.19 4516.08 6551 4524.07C6509.98 4521.41 6471.49 4515.89 6431.3 4509.84C6325.23 4494.46 6265.44 4490.4 6170.77 4527.87C6161.7 4531.81 6152.63 4535.76 6143.29 4539.82C6125.84 4545.49 6125.84 4545.49 6108.03 4551.27C6119.66 4524.81 6131.3 4498.35 6143.29 4471.09C6130.56 4476.52 6117.84 4481.96 6104.72 4487.55C6056.99 4504.78 6020.55 4511.94 5966.98 4516.91C5966.98 4524.47 5966.98 4532.03 5966.98 4539.82C5945.89 4539.58 5924.8 4539.35 5903.07 4539.1C5840.39 4539.03 5781.76 4543.27 5720.15 4551.27C5731.79 4532.37 5743.42 4513.47 5755.41 4494C5703.05 4494 5650.69 4494 5596.74 4494C5588.78 4458.65 5589.19 4433.95 5616.57 4402.45C5643.26 4379.96 5667.34 4361.97 5702.52 4345.08C5762.03 4345.8 5762.03 4345.8 5808.31 4356.54C5804.49 4342.36 5804.49 4342.36 5800.59 4327.9C5812.89 4263.98 5881.44 4228.83 5949.35 4184.71C5938.08 4181.87 5926.81 4179.04 5915.19 4176.12C5878.83 4161.8 5878.83 4161.8 5864.71 4141.17C5859.85 4106.28 5878.32 4093.14 5909.68 4065.15C5941.36 4036.43 5969.34 4009.94 5994.53 3978.52C6019.87 3955.61 6019.87 3955.61 6063.95 3947.01C6085.77 3945.6 6085.77 3945.6 6108.03 3944.15C6125.48 3940.37 6142.94 3936.59 6160.92 3932.7C6197.27 3931.9 6233.65 3931.73 6270.01 3931.98C6298.75 3932.13 6298.75 3932.13 6328.07 3932.29C6342.73 3932.43 6357.39 3932.56 6372.49 3932.7C6367.4 3921.83 6362.31 3910.96 6357.06 3899.76C6341.6 3836.22 6407.4 3787.8 6460.64 3737.96C6501.37 3741.74 6542.1 3745.52 6584.06 3749.41C6588.6 3742.5 6593.15 3735.59 6597.83 3728.47C6634.82 3685.64 6691.39 3664.61 6760.37 3646.32C6807.41 3643.47 6850.85 3644 6897.9 3646.54C6965.46 3646.15 7006.53 3620.72 7081.02 3621.97Z" fill="#F9F8F5"/>
<path d="M6548.8 4241.98C6566.25 4245.76 6583.71 4249.54 6601.69 4253.44C6576.6 4263.01 6576.6 4263.01 6551 4272.77C6494.34 4300.01 6479.06 4313.47 6460.64 4356.53C6478.1 4360.32 6495.55 4364.1 6513.53 4367.99C6517.9 4360.67 6522.26 4353.34 6526.76 4345.8C6548.8 4322.17 6548.8 4322.17 6586.26 4313.58C6597.17 4312.63 6608.08 4311.69 6619.32 4310.71C6625.14 4322.05 6630.96 4333.4 6636.95 4345.08C6648.59 4341.3 6660.22 4337.52 6672.21 4333.62C6782.37 4328.32 6782.37 4328.32 6838.6 4350.81C6847.69 4356.48 6856.78 4362.15 6866.15 4367.99C6848.52 4402.36 6848.52 4402.36 6816.84 4413.01C6804.02 4417.05 6791.2 4421.1 6778 4425.27C6752.58 4440.72 6727.63 4456.5 6703.07 4472.52C6647.03 4505.25 6627.19 4516.08 6551 4524.07C6509.98 4521.41 6471.49 4515.89 6431.3 4509.84C6325.23 4494.46 6265.44 4490.4 6170.77 4527.87C6161.7 4531.81 6152.63 4535.76 6143.29 4539.82C6131.65 4543.6 6120.02 4547.38 6108.03 4551.27C6122.84 4495.67 6127.69 4478.3 6200.59 4444.6C6242.15 4431.24 6280.32 4422.6 6325.11 4413.81C6373.77 4405.4 6373.77 4405.4 6394.53 4381.59C6398.89 4373.32 6403.25 4365.05 6407.75 4356.53C6435.96 4304.18 6470.36 4267.47 6548.8 4241.98Z" fill="#E2E5EC"/>
<path d="M7007.19 3772.32C7018.83 3772.32 7030.47 3772.32 7042.46 3772.32C7043.88 3805.98 7044.93 3839.61 7045.76 3873.27C7046.21 3882.82 7046.65 3892.36 7047.11 3902.2C7047.36 3915.99 7047.36 3915.99 7047.62 3930.06C7048.04 3942.74 7048.04 3942.74 7048.46 3955.69C7040.88 3984.5 7023.51 3994.49 6989.56 4012.88C7007.02 4016.66 7024.47 4020.44 7042.46 4024.34C7042.46 4031.9 7042.46 4039.46 7042.46 4047.25C7054.09 4047.25 7065.73 4047.25 7077.72 4047.25C7088.74 4074.45 7088.74 4074.45 7095.35 4104.52C7083.71 4112.08 7072.08 4119.64 7060.09 4127.43C7052.01 4150.03 7052.01 4150.03 7049.07 4174.69C7046.89 4189.33 7044.7 4203.98 7042.46 4219.07C7030.82 4219.07 7019.18 4219.07 7007.19 4219.07C7001.38 4226.63 6995.56 4234.19 6989.56 4241.98C6980.84 4224.97 6980.84 4224.97 6971.93 4207.62C6954.48 4203.84 6937.02 4200.06 6919.04 4196.16C6913.22 4177.26 6907.41 4158.36 6901.41 4138.89C6924.68 4138.89 6947.96 4138.89 6971.93 4138.89C6975.35 4075.58 6967.49 4027.13 6936.67 3967.06C6954.13 3963.28 6971.58 3959.5 6989.56 3955.61C6995.38 3895.12 7001.2 3834.64 7007.19 3772.32Z" fill="#B8CDEA"/>
<path d="M5579.11 4448.18C5584.92 4463.3 5590.74 4478.42 5596.74 4494C5649.1 4494 5701.46 4494 5755.41 4494C5743.78 4512.9 5732.14 4531.8 5720.15 4551.27C5731.79 4555.05 5743.42 4558.83 5755.41 4562.73C5732.14 4604.31 5708.87 4645.89 5684.89 4688.73C5661.62 4688.73 5638.35 4688.73 5614.37 4688.73C5577.92 4653.21 5574.79 4646.01 5575.66 4605.91C5575.78 4596.72 5575.89 4587.52 5576.01 4578.05C5576.3 4568.51 5576.6 4558.96 5576.9 4549.12C5577.06 4539.44 5577.22 4529.77 5577.38 4519.79C5577.8 4495.92 5578.43 4472.05 5579.11 4448.18Z" fill="#92A8C3"/>
<path d="M6813.26 4345.08C6830.71 4352.64 6848.17 4360.2 6866.15 4367.99C6848.52 4402.36 6848.52 4402.36 6816.84 4413.01C6804.02 4417.05 6791.2 4421.1 6778 4425.27C6752.58 4440.72 6727.63 4456.5 6703.06 4472.52C6648.01 4505.38 6614.85 4523.16 6538.88 4522.63C6518.88 4520.74 6498.88 4518.85 6478.27 4516.91C6544.7 4467.21 6594.04 4454.34 6689.84 4436.72C6709.83 4413.62 6709.83 4413.62 6725.1 4390.9C6771.38 4382.31 6771.38 4382.31 6813.26 4379.45C6813.26 4368.1 6813.26 4356.76 6813.26 4345.08Z" fill="#B7CBE8"/>
<path d="M7077.72 3657.77C7100.99 3661.55 7124.26 3665.33 7148.24 3669.23C7125.66 3688.79 7102.09 3707.87 7077.72 3726.5C7066.08 3726.5 7054.44 3726.5 7042.46 3726.5C7042.46 3741.62 7042.46 3756.74 7042.46 3772.32C7030.82 3772.32 7019.18 3772.32 7007.19 3772.32C7007.19 3832.81 7007.19 3893.29 7007.19 3955.6C6983.92 3959.39 6960.65 3963.17 6936.67 3967.06C6930.85 3974.62 6925.04 3982.18 6919.04 3989.97C6919.04 3978.63 6919.04 3967.29 6919.04 3955.6C6930.68 3951.82 6942.31 3948.04 6954.3 3944.15C6963.32 3906.92 6969.05 3870.02 6974.1 3832.51C6983.09 3775.8 7004.33 3732.12 7042.46 3680.68C7054.09 3680.68 7065.73 3680.68 7077.72 3680.68C7077.72 3673.12 7077.72 3665.56 7077.72 3657.77Z" fill="#E4E4E5"/>
<path d="M7042.46 4047.25C7054.09 4047.25 7065.73 4047.25 7077.72 4047.25C7088.74 4074.45 7088.74 4074.45 7095.35 4104.52C7083.71 4112.08 7072.08 4119.64 7060.09 4127.43C7052.01 4150.03 7052.01 4150.03 7049.07 4174.68C7046.89 4189.33 7044.7 4203.98 7042.46 4219.07C7030.82 4219.07 7019.18 4219.07 7007.19 4219.07C7001.38 4226.63 6995.56 4234.19 6989.56 4241.98C6983.75 4230.64 6977.93 4219.3 6971.93 4207.62C6954.48 4203.84 6937.02 4200.06 6919.04 4196.16C6913.22 4177.26 6907.41 4158.36 6901.41 4138.89C6924.68 4138.89 6947.96 4138.89 6971.93 4138.89C6971.93 4146.45 6971.93 4154.01 6971.93 4161.8C6983.57 4161.8 6995.21 4161.8 7007.19 4161.8C7007.19 4146.68 7007.19 4131.56 7007.19 4115.98C7018.83 4115.98 7030.47 4115.98 7042.46 4115.98C7042.46 4093.3 7042.46 4070.61 7042.46 4047.25Z" fill="#A7C2E7"/>
<path d="M6689.84 4241.98C6666.57 4245.76 6643.3 4249.54 6619.32 4253.44C6625.14 4272.34 6630.95 4291.24 6636.95 4310.71C6623.13 4313.79 6609.31 4316.86 6595.08 4320.02C6543.84 4331.89 6543.84 4331.89 6513.53 4367.99C6490.26 4364.21 6466.99 4360.43 6443.01 4356.54C6466.93 4305.68 6498.87 4283.04 6566.43 4253.44C6646.7 4227.97 6646.7 4227.97 6689.84 4241.98Z" fill="#A7BAD8"/>
<path d="M6566.43 4310.71C6602.79 4315.73 6602.79 4315.73 6636.95 4322.17C6636.95 4329.73 6636.95 4337.29 6636.95 4345.08C6683.49 4345.08 6730.04 4345.08 6778 4345.08C6772.18 4356.42 6766.36 4367.76 6760.36 4379.45C6727.64 4379.09 6727.64 4379.09 6694.25 4378.73C6642.58 4378.67 6598.47 4380.97 6548.8 4390.9C6537.16 4390.9 6525.52 4390.9 6513.53 4390.9C6507.72 4398.46 6501.9 4406.02 6495.9 4413.81C6495.9 4402.47 6495.9 4391.13 6495.9 4379.45C6507.54 4379.45 6519.18 4379.45 6531.17 4379.45C6533.71 4370.23 6536.26 4361.02 6538.88 4351.52C6548.8 4322.17 6548.8 4322.17 6566.43 4310.71Z" fill="#E4E8F2"/>
<path d="M6125.66 4196.16C6125.66 4199.94 6125.66 4203.72 6125.66 4207.62C6115.23 4209.57 6104.8 4211.52 6094.05 4213.52C5964.28 4239.38 5890.55 4273.83 5808.31 4345.08C5808.31 4301.51 5812.47 4276.65 5852.93 4241.31C5942.2 4184.12 6005.52 4174.66 6125.66 4196.16Z" fill="#CECCCB"/>
<path d="M6178.55 4654.37C6196 4658.15 6213.46 4661.93 6231.44 4665.82C6225.62 4680.95 6219.81 4696.07 6213.81 4711.64C6202.54 4712.83 6191.27 4714.01 6179.65 4715.22C6167.65 4717.82 6155.65 4720.42 6143.29 4723.1C6137.47 4734.44 6131.65 4745.78 6125.66 4757.47C6166.39 4749.91 6207.11 4742.34 6249.07 4734.56C6249.07 4745.9 6249.07 4757.24 6249.07 4768.92C6195.42 4786.35 6149.39 4783.11 6090.4 4780.38C6055.14 4746.01 6055.14 4746.01 6055.14 4711.64C6116.23 4705.97 6116.23 4705.97 6178.55 4700.19C6172.73 4688.85 6166.91 4677.51 6160.92 4665.82C6166.74 4662.04 6172.56 4658.26 6178.55 4654.37Z" fill="#738BB4"/>
<path d="M6090.4 4665.82C6019.52 4717.46 5949.27 4753.77 5839.57 4759.52C5805.63 4759.6 5771.68 4758.62 5737.78 4757.46C5731.96 4749.9 5726.15 4742.34 5720.15 4734.55C5784.15 4734.55 5848.15 4734.55 5914.09 4734.55C5914.09 4723.21 5914.09 4711.87 5914.09 4700.19C6030.89 4652.94 6030.89 4652.94 6090.4 4665.82Z" fill="#7A8FAC"/>
<path d="M6337.23 4425.27C6302.43 4493.09 6198.65 4517.95 6108.03 4551.27C6126.91 4480.39 6126.91 4480.39 6170.63 4455.56C6230.33 4432.55 6267.22 4425.27 6337.23 4425.27Z" fill="#DED9E1"/>
<path d="M5896.46 4070.16C5902.28 4077.72 5908.1 4085.28 5914.09 4093.07C5949.79 4100.54 5949.79 4100.54 5984.61 4104.52C5990.43 4127.2 5996.25 4149.89 6002.24 4173.25C5961.47 4181.13 5961.47 4181.13 5914.09 4184.71C5881.03 4171.82 5881.03 4171.82 5861.2 4150.34C5865.8 4119.7 5875.31 4097.64 5896.46 4070.16Z" fill="#CFCFCD"/>
<path d="M6795.63 4642.91C6801.44 4658.03 6807.26 4673.15 6813.26 4688.73C6877.26 4688.73 6941.26 4688.73 7007.2 4688.73C7007.2 4696.29 7007.2 4703.85 7007.2 4711.64C6990.1 4714.95 6973.01 4718.26 6955.41 4721.67C6899.53 4730.46 6899.53 4730.46 6883.78 4757.46C6843.05 4738.56 6802.33 4719.66 6760.37 4700.19C6772 4681.29 6783.64 4662.39 6795.63 4642.91Z" fill="#54668A"/>
<path d="M6284.34 4024.34C6325.06 4024.34 6365.79 4024.34 6407.75 4024.34C6407.75 4039.46 6407.75 4054.58 6407.75 4070.16C6290.95 4104.52 6290.95 4104.52 6231.44 4104.52C6264.5 4050.11 6264.5 4050.11 6284.34 4024.34Z" fill="#D0C6CD"/>
<path d="M6337.23 4734.55C6360.5 4742.12 6383.77 4749.68 6407.75 4757.46C6407.75 4768.81 6407.75 4780.15 6407.75 4791.83C6431.02 4795.61 6454.3 4799.39 6478.27 4803.29C6478.27 4795.73 6478.27 4788.16 6478.27 4780.38C6519 4780.38 6559.73 4780.38 6601.69 4780.38C6568.08 4803.16 6541.47 4813.91 6493.01 4817.83C6382.58 4819.11 6382.58 4819.11 6319.6 4791.83C6325.41 4772.93 6331.23 4754.03 6337.23 4734.55Z" fill="#7085B4"/>
<path d="M6566.43 4070.16C6622.16 4118.44 6625.26 4128.13 6619.32 4184.71C6642.59 4184.71 6665.86 4184.71 6689.84 4184.71C6689.84 4199.83 6689.84 4214.95 6689.84 4230.53C6666.57 4234.31 6643.3 4238.09 6619.32 4241.98C6630.96 4226.86 6642.59 4211.74 6654.58 4196.16C6625.49 4192.38 6596.4 4188.6 6566.43 4184.71C6566.43 4146.91 6566.43 4109.1 6566.43 4070.16Z" fill="#DED7DE"/>
<path d="M6372.49 3829.6C6419.84 3860.36 6426.45 3891.18 6443.01 3932.69C6382.67 3945.76 6335.7 3945.27 6272.21 3944.87C6241.02 3944.71 6241.02 3944.71 6209.2 3944.55C6193.27 3944.42 6177.33 3944.29 6160.92 3944.15C6160.92 3940.37 6160.92 3936.59 6160.92 3932.69C6230.74 3932.69 6300.56 3932.69 6372.49 3932.69C6369.22 3919.94 6365.94 3907.18 6362.57 3894.03C6354.86 3852.51 6354.86 3852.51 6372.49 3829.6Z" fill="#B6B4B4"/>
<path d="M6901.41 4757.47C6927.13 4762.93 6952.84 4768.43 6978.55 4773.93C6992.86 4776.99 7007.18 4780.05 7021.93 4783.2C7060.09 4791.83 7060.09 4791.83 7095.35 4803.29C7108.17 4825.95 7120 4848.87 7130.61 4872.02C7086.97 4860.68 7086.97 4860.68 7042.46 4849.11C7042.46 4841.55 7042.46 4833.99 7042.46 4826.2C7029 4823.36 7015.55 4820.53 7001.69 4817.61C6950.13 4802.03 6931.38 4788.21 6901.41 4757.47Z" fill="#6C8DC7"/>
<path d="M5755.41 4494C5780.4 4495.63 5805.37 4497.31 5830.34 4499.01C5851.21 4500.4 5851.21 4500.4 5872.49 4501.83C5910.98 4505.18 5947.19 4510.27 5984.61 4516.91C5978.79 4524.47 5972.98 4532.03 5966.98 4539.82C5945.89 4539.58 5924.8 4539.34 5903.07 4539.1C5840.39 4539.03 5781.76 4543.27 5720.15 4551.27C5731.79 4532.37 5743.42 4513.47 5755.41 4494Z" fill="#E3E6E9"/>
<path d="M6672.21 4333.62C6712.94 4333.62 6753.67 4333.62 6795.63 4333.62C6801.44 4348.75 6807.26 4363.87 6813.26 4379.45C6784.17 4383.23 6755.08 4387.01 6725.1 4390.9C6723.65 4397.99 6722.19 4405.08 6720.7 4412.38C6707.47 4436.72 6707.47 4436.72 6671.11 4451.04C6659.84 4453.88 6648.56 4456.71 6636.95 4459.63C6648.59 4444.51 6660.22 4429.39 6672.21 4413.81C6683.85 4413.81 6695.48 4413.81 6707.47 4413.81C6701.65 4402.47 6695.84 4391.13 6689.84 4379.45C6713.11 4379.45 6736.39 4379.45 6760.36 4379.45C6760.36 4371.89 6760.36 4364.32 6760.36 4356.54C6731.27 4352.76 6702.18 4348.97 6672.21 4345.08C6672.21 4341.3 6672.21 4337.52 6672.21 4333.62Z" fill="#D4DEEE"/>
<path d="M5579.11 4620C5619.83 4627.56 5660.56 4635.12 5702.52 4642.91C5690.88 4661.82 5679.25 4680.72 5667.26 4700.19C5633.1 4692.31 5633.1 4692.31 5596.74 4677.28C5583.51 4647.21 5583.51 4647.21 5579.11 4620Z" fill="#4E5D77"/>
<path d="M6624.83 4456.05C6640.46 4457.23 6656.1 4458.41 6672.21 4459.63C6654.58 4488.27 6654.58 4488.27 6619.32 4516.91C6570.06 4522.27 6528.66 4519.59 6478.27 4516.91C6552.05 4460.51 6552.05 4460.51 6624.83 4456.05Z" fill="#C0D3EE"/>
<path d="M6707.47 4058.7C6822.48 4065.75 6822.48 4065.75 6865.05 4088.05C6871.23 4093.49 6877.41 4098.92 6883.78 4104.52C6877.96 4115.86 6872.14 4127.2 6866.15 4138.89C6837.06 4135.11 6807.97 4131.33 6778 4127.43C6778 4112.31 6778 4097.19 6778 4081.61C6754.72 4074.05 6731.45 4066.49 6707.47 4058.7Z" fill="#9FB9DD"/>
<path d="M6090.4 4379.45C6136.68 4383.74 6136.68 4383.74 6178.55 4390.9C6097.01 4446.74 6097.01 4446.74 6037.5 4459.63C6050.73 4405.22 6050.73 4405.22 6090.4 4379.45Z" fill="#D4CCD0"/>
<path d="M6813.26 4620C6824.89 4631.34 6836.53 4642.69 6848.52 4654.37C6842.7 4661.93 6836.88 4669.49 6830.89 4677.28C6842.89 4675.39 6854.89 4673.5 6867.25 4671.55C6926.38 4665.01 6982.58 4665.06 7042.46 4665.82C7036.64 4677.17 7030.82 4688.51 7024.83 4700.19C6955.01 4696.41 6885.19 4692.63 6813.26 4688.73C6807.44 4669.83 6801.62 4650.93 6795.63 4631.46C6801.44 4627.68 6807.26 4623.9 6813.26 4620Z" fill="#7392C8"/>
<path d="M6090.4 4471.09C6107.85 4471.09 6125.31 4471.09 6143.29 4471.09C6143.29 4486.21 6143.29 4501.33 6143.29 4516.91C6125.83 4516.91 6108.38 4516.91 6090.4 4516.91C6078.76 4524.47 6067.12 4532.03 6055.14 4539.82C6008.85 4541.25 6008.85 4541.25 5966.98 4539.82C5966.98 4532.26 5966.98 4524.7 5966.98 4516.91C5987.71 4511.95 5987.71 4511.95 6008.85 4506.88C6056.84 4495.73 6056.84 4495.73 6090.4 4471.09Z" fill="#A5B6CF"/>
<path d="M7359.81 3875.42C7385.2 3878.36 7410.53 3881.5 7435.84 3884.73C7449.95 3886.45 7464.07 3888.18 7478.61 3889.96C7522.62 3899.2 7541.83 3910.02 7571.38 3932.69C7565.56 3940.26 7559.74 3947.82 7553.75 3955.6C7545.02 3950.17 7536.29 3944.74 7527.3 3939.14C7465.69 3914.12 7414.29 3913.69 7342.18 3909.78C7348 3898.44 7353.81 3887.1 7359.81 3875.42Z" fill="#D2DBE8"/>
<path d="M7165.87 3634.86C7235.69 3657.54 7235.69 3657.54 7306.92 3680.68C7301.1 3688.24 7295.28 3695.8 7289.29 3703.59C7252.92 3710.75 7252.92 3710.75 7218.76 3715.05C7218.76 3703.71 7218.76 3692.37 7218.76 3680.68C7195.49 3676.9 7172.22 3673.12 7148.24 3669.23C7154.06 3657.89 7159.88 3646.55 7165.87 3634.86Z" fill="#9BC1E7"/>
<path d="M6619.32 4345.08C6671.68 4345.08 6724.05 4345.08 6778 4345.08C6772.18 4356.42 6766.36 4367.76 6760.36 4379.45C6713.82 4375.67 6667.27 4371.89 6619.32 4367.99C6619.32 4360.43 6619.32 4352.87 6619.32 4345.08ZM6584.06 4367.99C6601.51 4373.66 6601.51 4373.66 6619.32 4379.45C6601.86 4385.12 6601.86 4385.12 6584.06 4390.9C6584.06 4383.34 6584.06 4375.78 6584.06 4367.99Z" fill="#F3F1F1"/>
<path d="M6584.06 4196.16C6607.33 4196.16 6630.6 4196.16 6654.58 4196.16C6645.76 4217.64 6645.76 4217.64 6619.32 4241.98C6572.57 4253.27 6527.54 4258.7 6478.27 4264.89C6478.27 4253.55 6478.27 4242.21 6478.27 4230.53C6513.18 4230.53 6548.09 4230.53 6584.06 4230.53C6584.06 4219.19 6584.06 4207.85 6584.06 4196.16Z" fill="#F4EDE7"/>
<path d="M6531.17 3921.24C6531.17 3932.58 6531.17 3943.92 6531.17 3955.6C6490.39 3968.49 6490.39 3968.49 6443.01 3978.52C6425.56 3970.95 6408.1 3963.39 6390.12 3955.6C6390.12 3948.04 6390.12 3940.48 6390.12 3932.69C6441.75 3921.51 6477.5 3920.3 6531.17 3921.24Z" fill="#DCD6D6"/>
<path d="M6989.56 4047.25C7007.02 4047.25 7024.47 4047.25 7042.46 4047.25C7042.46 4069.93 7042.46 4092.61 7042.46 4115.98C7030.82 4115.98 7019.18 4115.98 7007.19 4115.98C7007.19 4131.1 7007.19 4146.22 7007.19 4161.8C6995.56 4158.02 6983.92 4154.24 6971.93 4150.34C6977.75 4116.32 6983.57 4082.3 6989.56 4047.25Z" fill="#CBCFDD"/>
<path d="M6284.34 4024.34C6325.06 4024.34 6365.79 4024.34 6407.75 4024.34C6407.75 4028.12 6407.75 4031.9 6407.75 4035.79C6372.84 4035.79 6337.93 4035.79 6301.97 4035.79C6296.15 4050.91 6290.33 4066.03 6284.34 4081.61C6301.79 4085.39 6319.24 4089.17 6337.23 4093.07C6302.32 4096.85 6267.41 4100.63 6231.44 4104.52C6264.5 4050.11 6264.5 4050.11 6284.34 4024.34Z" fill="#E3DCE0"/>
<path d="M6548.8 4024.34C6589.52 4031.9 6630.25 4039.46 6672.21 4047.25C6660.58 4054.81 6648.94 4062.37 6636.95 4070.16C6624.65 4085.25 6612.8 4100.5 6601.69 4115.98C6548.8 4050.11 6548.8 4050.11 6548.8 4024.34Z" fill="#A4BBD4"/>
<path d="M5861.2 4241.98C5878.65 4249.54 5896.11 4257.1 5914.09 4264.89C5899.84 4278.29 5885.49 4291.65 5871.12 4304.99C5863.14 4312.43 5855.16 4319.87 5846.94 4327.54C5840.01 4333.33 5833.08 4339.12 5825.94 4345.08C5820.12 4345.08 5814.3 4345.08 5808.31 4345.08C5821.53 4267.76 5821.53 4267.76 5861.2 4241.98Z" fill="#BAB9B9"/>
<path d="M6830.89 4688.73C6889.07 4688.73 6947.25 4688.73 7007.19 4688.73C7001.38 4696.29 6995.56 4703.86 6989.56 4711.64C6876.22 4726.37 6876.22 4726.37 6830.89 4711.64C6830.89 4704.08 6830.89 4696.52 6830.89 4688.73Z" fill="#6278AE"/>
<path d="M5755.41 4471.09C5755.41 4478.65 5755.41 4486.21 5755.41 4494C5703.05 4494 5650.69 4494 5596.74 4494C5632.25 4447.85 5689.76 4460.71 5755.41 4471.09Z" fill="#DBDCE3"/>
<path d="M6654.58 4322.17C6724.4 4322.17 6794.22 4322.17 6866.15 4322.17C6871.97 4329.73 6877.79 4337.29 6883.78 4345.08C6872.14 4352.64 6860.51 4360.2 6848.52 4367.99C6831.06 4360.43 6813.61 4352.87 6795.63 4345.08C6759.5 4339.91 6759.5 4339.91 6721.8 4337.92C6688.53 4335.79 6688.53 4335.79 6654.58 4333.63C6654.58 4329.84 6654.58 4326.06 6654.58 4322.17Z" fill="#A3B3D1"/>
<path d="M6037.5 3944.15C6060.78 3944.15 6084.05 3944.15 6108.03 3944.15C6108.03 3951.71 6108.03 3959.27 6108.03 3967.06C6030.72 4001.43 6030.72 4001.43 5984.61 4001.43C6017.67 3957.04 6017.67 3957.04 6037.5 3944.15Z" fill="#AEAEAE"/>
<path d="M6901.41 4757.47C6953.77 4768.81 7006.14 4780.15 7060.09 4791.83C7025.18 4803.17 7025.18 4803.17 6989.56 4814.74C6960.47 4795.84 6931.38 4776.94 6901.41 4757.47Z" fill="#6680A0"/>
<path d="M6160.92 4516.91C6172.56 4520.69 6184.19 4524.47 6196.18 4528.36C6154.52 4557.3 6131.57 4572.9 6072.77 4585.64C6078.58 4566.74 6084.4 4547.84 6090.4 4528.36C6107.85 4528.36 6125.31 4528.36 6143.29 4528.36C6149.11 4524.58 6154.93 4520.8 6160.92 4516.91Z" fill="#ACBBD5"/>
</g>
<defs>
<clipPath id="clip0_18_908">
<rect width="7437" height="5288" fill="white"/>
</clipPath>
</defs>
</svg>
