<svg width="7437" height="5288" viewBox="0 0 7437 5288" fill="none" xmlns="http://www.w3.org/2000/svg">
<g clip-path="url(#clip0_13_5)">
<path d="M7081.22 3540.53C7165.53 3558.65 7230.89 3585.87 7297.24 3637.97C7330.12 3660.56 7362.75 3666.35 7401.98 3675.25C7458.48 3728.64 7476.44 3813.04 7477.72 3886.46C7475.94 3931.67 7468.68 3970.15 7449.5 4012.07C7457.34 4019.48 7465.18 4026.89 7473.26 4034.52C7485.02 4027.11 7496.79 4019.7 7508.9 4012.07C7559.37 4008.6 7596.33 4008.36 7639.59 4034.52C7639.59 4041.93 7639.59 4049.34 7639.59 4056.98C7650.61 4061.14 7650.61 4061.14 7661.86 4065.4C7687.11 4079.43 7687.11 4079.43 7697.5 4099.78C7710.34 4127.58 7710.34 4127.58 7745.02 4149.6C7788.61 4182.71 7813.19 4219.8 7829.67 4270.29C7833.14 4304.39 7832.68 4337.23 7829.67 4371.34C7837.51 4371.34 7845.35 4371.34 7853.43 4371.34C7859.11 4437.15 7842.5 4474.73 7805.91 4528.52C7790.23 4554.45 7774.55 4580.39 7758.39 4607.11C7828.96 4625.63 7899.52 4644.16 7972.23 4663.24C7972.23 4666.95 7972.23 4670.65 7972.23 4674.47C7957.5 4675.43 7942.77 4676.39 7927.6 4677.38C7872.33 4680.99 7817.07 4684.62 7761.8 4688.24C7738 4689.8 7714.2 4691.36 7690.4 4692.91C7655.95 4695.16 7621.5 4697.42 7587.05 4699.69C7575.93 4700.41 7564.8 4701.13 7553.34 4701.88C7494.81 4705.73 7436.44 4710.25 7378.04 4715.56C7331.99 4719.37 7293.01 4717.31 7247.54 4708.15C7220.58 4707.15 7193.59 4706.69 7166.61 4706.75C7153.05 4706.72 7139.5 4706.69 7125.54 4706.66C7094.13 4704.66 7094.13 4704.66 7081.22 4719.38C7051.15 4720.2 7021.42 4720.42 6991.37 4720.08C6978.7 4720 6978.7 4720 6965.78 4719.93C6944.86 4719.79 6923.94 4719.59 6903.01 4719.38C6903.01 4715.67 6903.01 4711.97 6903.01 4708.15C6789.32 4704.45 6675.63 4700.74 6558.49 4696.92C6558.49 4693.22 6558.49 4689.51 6558.49 4685.7C6287.98 4674.58 6287.98 4674.58 6012 4663.24C6017.88 4652.13 6017.88 4652.13 6023.88 4640.79C6085.59 4623 6149.56 4615.13 6213.96 4618.33C6212.55 4611.82 6211.15 4605.31 6209.69 4598.6C6201.28 4550.42 6198.07 4525.03 6221.39 4480.1C6272.58 4425.36 6321.29 4397.6 6392.17 4371.34C6384.33 4360.22 6376.48 4349.11 6368.41 4337.66C6363.97 4243.24 6382.53 4162.2 6448.6 4090.57C6516.9 4024.14 6516.9 4024.14 6557.84 4022.2C6581.82 4022.56 6605.79 4022.93 6629.77 4023.29C6629.8 4011.63 6629.83 3999.96 6629.86 3987.95C6632.37 3875.24 6648.69 3792.1 6736.69 3708.93C6740.12 3696.43 6743.55 3683.92 6747.09 3671.04C6761.42 3627.4 6768.03 3610.6 6807.97 3585.43C6835.02 3581.15 6861.13 3579.13 6888.54 3578.37C6916.21 3575.96 6916.21 3575.96 6938.65 3557.37C6981.91 3526.71 7029.55 3534.57 7081.22 3540.53Z" fill="#4B6284"/>
<path d="M7053.47 3536.01C7081.22 3540.53 7081.22 3540.53 7109.43 3562.28C7176.26 3681.3 7176.26 3681.3 7176.26 3720.16C7184.1 3720.16 7191.94 3720.16 7200.02 3720.16C7200.02 3727.57 7200.02 3734.98 7200.02 3742.61C7207.86 3742.61 7215.7 3742.61 7223.78 3742.61C7223.78 3750.02 7223.78 3757.43 7223.78 3765.07C7208.1 3768.77 7192.42 3772.48 7176.26 3776.3C7176.26 3783.71 7176.26 3791.12 7176.26 3798.75C7152.74 3809.87 7152.74 3809.87 7128.74 3821.2C7130.58 3835.79 7130.58 3835.79 7132.45 3850.68C7128.74 3888.57 7128.74 3888.57 7098.3 3922.25C7064.69 3953.62 7064.69 3953.62 7071.56 3993.82C7074.75 4003.55 7077.94 4013.27 7081.22 4023.29C7073.62 4024.68 7066.03 4026.07 7058.2 4027.5C7050.11 4029.82 7042.03 4032.14 7033.7 4034.52C7027.82 4045.64 7027.82 4045.64 7021.82 4056.98C7010.06 4056.98 6998.29 4056.98 6986.18 4056.98C6982.26 4049.57 6978.34 4042.16 6974.3 4034.52C6946.61 4029.82 6946.61 4029.82 6914.89 4034.52C6859.54 4079.36 6853.74 4138.08 6843.61 4202.93C6824.01 4202.93 6804.41 4202.93 6784.21 4202.93C6784.21 4176.99 6784.21 4151.06 6784.21 4124.34C6704.7 4118.99 6656.2 4119.85 6594.13 4169.25C6590.21 4165.54 6586.29 4161.84 6582.25 4158.02C6558.76 4156.91 6535.23 4156.56 6511.71 4156.62C6498.86 4156.59 6486.01 4156.56 6472.78 4156.53C6440.2 4155.89 6440.2 4155.89 6415.93 4169.25C6417.73 4113.03 6450.4 4087.56 6490.87 4050.84C6535.09 4014.93 6573.57 4022.44 6629.77 4023.29C6629.8 4011.63 6629.83 3999.96 6629.86 3987.95C6632.37 3875.24 6648.69 3792.1 6736.69 3708.93C6740.12 3696.43 6743.55 3683.92 6747.09 3671.04C6761.42 3627.4 6768.03 3610.6 6807.97 3585.43C6835.02 3581.15 6861.13 3579.13 6888.54 3578.37C6916.18 3575.99 6916.18 3575.99 6938.28 3557.41C6975.6 3531.3 7008.38 3534.45 7053.47 3536.01Z" fill="#FBF6ED"/>
<path d="M6727.04 4110.3C6742.73 4110.57 6742.73 4110.57 6758.74 4110.83C6784.21 4113.11 6784.21 4113.11 6796.09 4124.34C6792.68 4150.6 6788.73 4176.81 6784.21 4202.93C6803.82 4202.93 6823.42 4202.93 6843.61 4202.93C6847.53 4191.81 6851.45 4180.7 6855.49 4169.25C6855.49 4176.66 6855.49 4184.07 6855.49 4191.7C6875.1 4184.29 6894.7 4176.88 6914.89 4169.25C6939.4 4193.81 6939.4 4193.81 6962.42 4225.38C6959.45 4256.96 6959.45 4256.96 6950.54 4281.52C6911.92 4290.64 6911.92 4290.64 6867.37 4292.75C6842.87 4266.78 6842.87 4266.78 6819.85 4236.61C6782.77 4221.48 6782.77 4221.48 6748.57 4214.16C6766.39 4180.47 6766.39 4180.47 6784.21 4146.79C6768.53 4146.79 6752.85 4146.79 6736.69 4146.79C6736.69 4139.38 6736.69 4131.97 6736.69 4124.34C6728.85 4124.34 6721.01 4124.34 6712.93 4124.34C6712.93 4131.75 6712.93 4139.16 6712.93 4146.79C6693.33 4150.5 6673.73 4154.2 6653.53 4158.02C6653.53 4165.43 6653.53 4172.84 6653.53 4180.47C6657.45 4184.18 6661.37 4187.88 6665.41 4191.7C6662.01 4210.51 6658.07 4229.24 6653.53 4247.84C6580.24 4249.76 6580.24 4249.76 6546.61 4236.61C6530.16 4212.51 6522.85 4198 6522.85 4169.25C6491.48 4169.25 6460.12 4169.25 6427.81 4169.25C6431.73 4161.84 6435.65 4154.43 6439.69 4146.79C6499.09 4146.79 6558.49 4146.79 6617.89 4146.79C6625.2 4141.29 6632.5 4135.79 6640.03 4130.13C6671.43 4109.08 6688.99 4109.24 6727.04 4110.3Z" fill="#727C91"/>
<path d="M7152.5 3652.8C7157.4 3658.12 7162.3 3663.45 7167.35 3668.94C7190.3 3688.31 7205.74 3692.83 7235.66 3697.71C7235.66 3712.53 7235.66 3727.35 7235.66 3742.61C7243.5 3742.61 7251.34 3742.61 7259.42 3742.61C7259.42 3761.14 7259.42 3779.66 7259.42 3798.75C7242.14 3806.39 7242.14 3806.39 7224.52 3814.19C7187.3 3828.59 7187.3 3828.59 7176.26 3854.89C7173.57 3874.01 7171.4 3893.21 7169.58 3912.43C7168.58 3922.64 7167.58 3932.86 7166.56 3943.39C7165.84 3951.23 7165.12 3959.08 7164.38 3967.16C7148.7 3967.16 7133.01 3967.16 7116.86 3967.16C7116.86 3974.57 7116.86 3981.98 7116.86 3989.61C7109.02 3989.61 7101.18 3989.61 7093.1 3989.61C7093.1 3997.02 7093.1 4004.43 7093.1 4012.07C7100.94 4015.77 7108.78 4019.48 7116.86 4023.29C7105.1 4045.52 7093.33 4067.75 7081.22 4090.66C7045.93 4086.95 7010.65 4083.25 6974.29 4079.43C6974.29 4072.02 6974.29 4064.61 6974.29 4056.98C6939.15 4064.92 6939.15 4064.92 6903.01 4079.43C6888.65 4101.89 6888.65 4101.89 6879.25 4124.34C6861.61 4129.9 6861.61 4129.9 6843.61 4135.57C6857.76 4086.55 6871.04 4054.08 6914.89 4023.29C6947.56 4020.49 6947.56 4020.49 6974.29 4023.29C6978.22 4034.41 6982.14 4045.52 6986.18 4056.98C6997.94 4056.98 7009.7 4056.98 7021.82 4056.98C7025.74 4045.86 7029.66 4034.75 7033.7 4023.29C7049.38 4023.29 7065.06 4023.29 7081.22 4023.29C7076.07 4013.57 7070.93 4003.84 7065.62 3993.82C7061.58 3975.07 7061.58 3975.07 7057.46 3955.93C7076.65 3933.01 7096.49 3910.57 7116.86 3888.57C7119.84 3853.01 7119.84 3853.01 7116.86 3821.2C7124.7 3813.79 7132.54 3806.39 7140.62 3798.75C7152.38 3798.75 7164.14 3798.75 7176.26 3798.75C7176.26 3791.34 7176.26 3783.93 7176.26 3776.3C7191.94 3772.59 7207.62 3768.89 7223.78 3765.07C7223.78 3757.66 7223.78 3750.25 7223.78 3742.61C7215.94 3742.61 7208.1 3742.61 7200.02 3742.61C7200.02 3735.2 7200.02 3727.79 7200.02 3720.16C7192.18 3720.16 7184.34 3720.16 7176.26 3720.16C7168.42 3697.93 7160.58 3675.7 7152.5 3652.8Z" fill="#6B84A6"/>
<path d="M6629.77 4000.84C6633.69 4000.84 6637.61 4000.84 6641.65 4000.84C6644.27 4045.42 6640.27 4059.59 6617.89 4101.88C6661.02 4101.88 6704.14 4101.88 6748.57 4101.88C6748.57 4105.59 6748.57 4109.29 6748.57 4113.11C6730.19 4114.5 6730.19 4114.5 6711.45 4115.92C6659.12 4125.49 6635.89 4139.41 6594.13 4169.25C6590.21 4165.54 6586.29 4161.84 6582.25 4158.02C6558.76 4156.91 6535.23 4156.56 6511.71 4156.62C6498.86 4156.59 6486.01 4156.56 6472.78 4156.53C6440.2 4155.89 6440.2 4155.89 6415.93 4169.25C6417.73 4113.03 6450.4 4087.56 6490.87 4050.84C6535.09 4014.93 6573.57 4022.44 6629.77 4023.29C6629.77 4015.88 6629.77 4008.47 6629.77 4000.84Z" fill="#EFD9D1"/>
<path d="M6213.96 4595.88C6217.88 4607 6221.8 4618.11 6225.84 4629.56C6210.16 4633.27 6194.48 4636.97 6178.32 4640.79C6198.2 4641.72 6198.2 4641.72 6218.49 4642.67C6267.48 4644.98 6316.48 4647.36 6365.47 4649.77C6386.71 4650.8 6407.95 4651.81 6429.19 4652.8C6459.65 4654.23 6490.11 4655.73 6520.57 4657.23C6530.13 4657.67 6539.68 4658.1 6549.52 4658.55C6616.54 4661.96 6616.54 4661.96 6629.77 4674.47C6647.76 4675.58 6665.81 4675.94 6683.83 4675.96C6694.84 4675.98 6705.84 4675.99 6717.18 4676.01C6728.76 4675.96 6740.35 4675.92 6752.28 4675.87C6769.46 4675.94 6769.46 4675.94 6786.97 4676.01C6803.55 4675.98 6803.55 4675.98 6820.46 4675.96C6835.65 4675.94 6835.65 4675.94 6851.15 4675.92C6877.94 4674.54 6901.08 4670.31 6926.77 4663.24C6926.77 4670.65 6926.77 4678.06 6926.77 4685.7C6977.74 4693.11 7028.71 4700.52 7081.22 4708.15C7081.22 4711.86 7081.22 4715.56 7081.22 4719.38C7022.41 4719.38 6963.6 4719.38 6903.01 4719.38C6903.01 4715.67 6903.01 4711.97 6903.01 4708.15C6789.32 4704.45 6675.63 4700.74 6558.49 4696.92C6558.49 4693.22 6558.49 4689.51 6558.49 4685.7C6287.98 4674.58 6287.98 4674.58 6012 4663.24C6015.92 4655.83 6019.84 4648.42 6023.88 4640.79C6085.59 4623 6149.56 4615.13 6213.96 4618.33C6213.96 4610.92 6213.96 4603.51 6213.96 4595.88Z" fill="#323B4A"/>
<path d="M6748.57 4113.11C6764.25 4116.82 6779.94 4120.52 6796.09 4124.34C6792.17 4150.27 6788.25 4176.21 6784.21 4202.93C6803.82 4202.93 6823.42 4202.93 6843.61 4202.93C6847.53 4191.81 6851.45 4180.7 6855.49 4169.25C6855.49 4176.66 6855.49 4184.07 6855.49 4191.7C6875.1 4184.29 6894.7 4176.88 6914.89 4169.25C6939.4 4193.81 6939.4 4193.81 6962.42 4225.38C6959.45 4256.96 6959.45 4256.96 6950.54 4281.52C6911.92 4290.64 6911.92 4290.64 6867.37 4292.75C6842.87 4266.78 6842.87 4266.78 6819.85 4236.61C6782.77 4221.48 6782.77 4221.48 6748.57 4214.16C6752.98 4203.74 6757.39 4193.32 6761.94 4182.58C6765.37 4170.77 6768.8 4158.96 6772.33 4146.79C6764.49 4135.68 6756.65 4124.56 6748.57 4113.11Z" fill="#788AA7"/>
<path d="M7024.79 3538.42C7040.68 3538.88 7040.68 3538.88 7056.9 3539.34C7064.93 3539.73 7072.95 3540.12 7081.22 3540.53C7081.22 3544.23 7081.22 3547.94 7081.22 3551.75C7069.7 3554.53 7058.18 3557.31 7046.32 3560.17C7034.31 3564.8 7022.31 3569.44 7009.94 3574.21C6998.43 3597.03 6998.43 3597.03 6998.06 3619.12C6984.82 3620.04 6971.59 3620.97 6957.96 3621.92C6881.85 3630.9 6800.49 3653.36 6748.57 3708.93C6751.87 3668.48 6755.12 3638.32 6778.27 3603.68C6815.59 3580.75 6844.67 3579.58 6888.54 3578.37C6916.2 3576.02 6916.2 3576.02 6938.1 3557.19C6969.03 3535.99 6987.07 3537.01 7024.79 3538.42Z" fill="#EEE4DC"/>
<path d="M7152.5 3652.8C7159.85 3660.79 7159.85 3660.79 7167.35 3668.94C7190.3 3688.31 7205.74 3692.83 7235.66 3697.71C7235.66 3712.53 7235.66 3727.35 7235.66 3742.61C7243.5 3742.61 7251.34 3742.61 7259.42 3742.61C7259.42 3761.14 7259.42 3779.66 7259.42 3798.75C7242.51 3805 7242.51 3805 7225.26 3811.38C7179.53 3837.31 7178.6 3852.76 7164.38 3899.8C7140.62 3926.46 7140.62 3926.46 7116.86 3944.7C7109.02 3944.7 7101.18 3944.7 7093.1 3944.7C7093.1 3952.11 7093.1 3959.52 7093.1 3967.16C7081.34 3970.86 7069.57 3974.57 7057.46 3978.39C7077.02 3925.75 7077.02 3925.75 7100.52 3906.11C7125.07 3879.75 7117.62 3855.2 7116.86 3821.2C7124.7 3813.79 7132.54 3806.39 7140.62 3798.75C7152.38 3798.75 7164.14 3798.75 7176.26 3798.75C7176.26 3791.34 7176.26 3783.93 7176.26 3776.3C7191.94 3772.59 7207.62 3768.89 7223.78 3765.07C7223.78 3757.66 7223.78 3750.25 7223.78 3742.61C7215.94 3742.61 7208.1 3742.61 7200.02 3742.61C7200.02 3735.2 7200.02 3727.79 7200.02 3720.16C7192.18 3720.16 7184.34 3720.16 7176.26 3720.16C7168.42 3697.93 7160.58 3675.7 7152.5 3652.8Z" fill="#7D8BA4"/>
<path d="M6546.61 4034.52C6571.11 4039.43 6571.11 4039.43 6594.13 4045.75C6595.61 4072.41 6595.61 4072.41 6594.13 4101.88C6564.49 4129.9 6550.49 4128.37 6509.48 4131.36C6498.67 4132.2 6487.86 4133.03 6476.72 4133.9C6464.27 4134.72 6464.27 4134.72 6451.57 4135.57C6447.65 4124.45 6443.73 4113.34 6439.69 4101.88C6470.15 4070.01 6489.66 4053.09 6534.73 4045.75C6538.65 4042.04 6542.57 4038.34 6546.61 4034.52Z" fill="#F6EDE2"/>
<path d="M6570.37 4663.24C6583.25 4665.98 6583.25 4665.98 6596.4 4668.76C6627.96 4674.16 6656.46 4675.92 6688.47 4675.96C6704.75 4675.98 6704.75 4675.98 6721.35 4676.01C6732.54 4675.96 6743.73 4675.92 6755.25 4675.87C6766.49 4675.92 6777.72 4675.96 6789.29 4676.01C6800.13 4675.99 6810.96 4675.98 6822.13 4675.96C6836.86 4675.94 6836.86 4675.94 6851.9 4675.92C6878.37 4674.52 6901.36 4670.19 6926.77 4663.24C6926.77 4670.65 6926.77 4678.06 6926.77 4685.7C6977.74 4693.11 7028.71 4700.52 7081.22 4708.15C7081.22 4711.86 7081.22 4715.56 7081.22 4719.38C7022.41 4719.38 6963.6 4719.38 6903.01 4719.38C6903.01 4715.67 6903.01 4711.97 6903.01 4708.15C6789.32 4704.45 6675.63 4700.74 6558.49 4696.92C6562.41 4685.81 6566.33 4674.7 6570.37 4663.24Z" fill="#3C4759"/>
<path d="M6974.3 4012.07C6974.3 4015.77 6974.3 4019.48 6974.3 4023.29C6958.12 4026.77 6958.12 4026.77 6941.62 4030.31C6892.16 4050.09 6879.37 4067.99 6855.49 4113.11C6848.62 4143.45 6845.88 4171.83 6843.61 4202.93C6824.01 4202.93 6804.41 4202.93 6784.21 4202.93C6788.13 4176.99 6792.05 4151.06 6796.09 4124.34C6803.93 4124.34 6811.77 4124.34 6819.85 4124.34C6824.75 4112.07 6829.65 4099.79 6834.7 4087.15C6865.04 4021.28 6898.39 4007.18 6974.3 4012.07Z" fill="#F7E7DC"/>
<path d="M7449.5 3776.3C7480.12 3834.16 7479.98 3880.99 7473.26 3944.7C7455.44 3986.1 7455.44 3986.1 7437.62 4012.07C7433.7 3997.25 7429.78 3982.43 7425.74 3967.16C7413.98 3967.16 7402.22 3967.16 7390.1 3967.16C7395.98 3950.49 7395.98 3950.49 7401.98 3933.48C7417.66 3926.07 7433.35 3918.66 7449.5 3911.02C7449.5 3866.56 7449.5 3822.1 7449.5 3776.3Z" fill="#354E78"/>
<path d="M7223.78 3765.07C7219.86 3776.18 7215.94 3787.3 7211.9 3798.75C7187.4 3806.47 7187.4 3806.47 7164.38 3809.98C7164.38 3817.39 7164.38 3824.8 7164.38 3832.43C7156.54 3832.43 7148.7 3832.43 7140.62 3832.43C7141.11 3844.7 7141.6 3856.98 7142.1 3869.62C7140.62 3911.02 7140.62 3911.02 7116.86 3944.7C7109.02 3944.7 7101.18 3944.7 7093.1 3944.7C7093.1 3952.11 7093.1 3959.52 7093.1 3967.16C7081.34 3970.86 7069.57 3974.57 7057.46 3978.39C7077.02 3925.75 7077.02 3925.75 7100.52 3906.11C7125.07 3879.75 7117.62 3855.2 7116.86 3821.2C7124.7 3813.8 7132.54 3806.39 7140.62 3798.75C7152.38 3798.75 7164.14 3798.75 7176.26 3798.75C7176.26 3791.34 7176.26 3783.93 7176.26 3776.3C7200.02 3765.07 7200.02 3765.07 7223.78 3765.07Z" fill="#CEA8A7"/>
<path d="M6427.81 4393.79C6419.97 4408.61 6412.12 4423.43 6404.05 4438.7C6393.51 4438.24 6382.97 4437.77 6372.12 4437.3C6332.71 4438.7 6309.07 4446.56 6273.36 4461.15C6261.6 4461.15 6249.84 4461.15 6237.72 4461.15C6349.71 4365.4 6349.71 4365.4 6427.81 4393.79Z" fill="#445263"/>
<path d="M6950.54 3596.66C6943.23 3596.82 6935.93 3596.98 6928.4 3597.14C6899.1 3598.78 6872.12 3601.24 6843.61 3607.89C6821.7 3633.35 6821.7 3633.35 6807.97 3664.02C6776.05 3689.99 6776.05 3689.99 6748.57 3708.93C6751.87 3668.48 6755.12 3638.32 6778.27 3603.68C6833.93 3569.49 6894.93 3561.63 6950.54 3596.66Z" fill="#CABFB9"/>
<path d="M7295.8 4702.54C7340.87 4707.02 7381.54 4708.05 7426.49 4702.54C7473.26 4696.92 7473.26 4696.92 7497.02 4708.15C7497.02 4715.56 7497.02 4722.97 7497.02 4730.61C7453.96 4731.26 7410.9 4731.66 7367.83 4732.01C7355.56 4732.2 7343.29 4732.39 7330.65 4732.58C7318.94 4732.65 7307.22 4732.72 7295.15 4732.8C7278.92 4732.98 7278.92 4732.98 7262.35 4733.16C7235.66 4730.61 7235.66 4730.61 7211.9 4708.15C7243.15 4693.39 7261.27 4698.5 7295.8 4702.54Z" fill="#282F42"/>
<path d="M6748.57 4113.11C6764.25 4116.82 6779.94 4120.52 6796.09 4124.34C6792.17 4150.27 6788.25 4176.21 6784.21 4202.93C6803.82 4202.93 6823.42 4202.93 6843.61 4202.93C6847.53 4191.81 6851.45 4180.7 6855.49 4169.25C6855.49 4176.66 6855.49 4184.07 6855.49 4191.7C6863.33 4191.7 6871.18 4191.7 6879.25 4191.7C6879.25 4199.11 6879.25 4206.52 6879.25 4214.16C6871.41 4214.16 6863.57 4214.16 6855.49 4214.16C6855.49 4221.57 6855.49 4228.98 6855.49 4236.61C6802.57 4225.5 6802.57 4225.5 6748.57 4214.16C6752.98 4203.74 6757.39 4193.32 6761.94 4182.58C6765.37 4170.77 6768.8 4158.96 6772.33 4146.79C6764.49 4135.68 6756.65 4124.56 6748.57 4113.11Z" fill="#ADAAB1"/>
<path d="M6629.77 4000.84C6633.69 4000.84 6637.61 4000.84 6641.65 4000.84C6644.04 4041.54 6639.96 4066.69 6617.89 4101.88C6610.05 4101.88 6602.21 4101.88 6594.13 4101.88C6590.21 4083.36 6586.29 4064.83 6582.25 4045.75C6570.49 4042.04 6558.73 4038.34 6546.61 4034.52C6550.53 4045.64 6554.45 4056.75 6558.49 4068.2C6538.89 4064.5 6519.28 4060.79 6499.09 4056.98C6510.97 4040.13 6510.97 4040.13 6534.73 4023.29C6567.02 4020.22 6597.18 4021.78 6629.77 4023.29C6629.77 4015.88 6629.77 4008.47 6629.77 4000.84Z" fill="#DDD9D0"/>
<path d="M7140.62 3899.8C7148.46 3899.8 7156.3 3899.8 7164.38 3899.8C7164.38 3922.02 7164.38 3944.25 7164.38 3967.16C7148.7 3967.16 7133.01 3967.16 7116.86 3967.16C7116.86 3974.57 7116.86 3981.98 7116.86 3989.61C7101.18 3989.61 7085.49 3989.61 7069.34 3989.61C7069.34 3982.2 7069.34 3974.79 7069.34 3967.16C7077.18 3967.16 7085.02 3967.16 7093.1 3967.16C7093.1 3959.75 7093.1 3952.34 7093.1 3944.7C7100.94 3944.7 7108.78 3944.7 7116.86 3944.7C7124.7 3929.88 7132.54 3915.06 7140.62 3899.8Z" fill="#5F84B5"/>
<path d="M7330.7 4270.29C7358.14 4270.29 7385.59 4270.29 7413.86 4270.29C7409.94 4277.7 7406.02 4285.11 7401.98 4292.75C7394.14 4292.75 7386.3 4292.75 7378.22 4292.75C7374.3 4303.86 7370.38 4314.98 7366.34 4326.43C7350.66 4326.43 7334.98 4326.43 7318.82 4326.43C7322.74 4307.9 7326.66 4289.38 7330.7 4270.29Z" fill="#5D7A9B"/>
<path d="M6427.81 4113.11C6439.57 4116.82 6451.33 4120.52 6463.45 4124.34C6497.1 4127.32 6530.74 4129.32 6564.48 4131.31C6594.13 4135.57 6594.13 4135.57 6617.89 4158.02C6594.73 4158.02 6571.57 4157.9 6548.42 4157.63C6535.82 4157.52 6523.21 4157.42 6510.23 4157.32C6497.59 4157.19 6484.96 4157.06 6471.94 4156.92C6440.07 4155.9 6440.07 4155.9 6415.93 4169.25C6419.85 4150.72 6423.77 4132.2 6427.81 4113.11Z" fill="#D9BCB6"/>
<path d="M6974.29 4023.29C6966.94 4024.22 6959.59 4025.15 6952.02 4026.1C6925.14 4032.27 6925.14 4032.27 6913.41 4054.87C6908.26 4067.03 6908.26 4067.03 6903.01 4079.43C6891.88 4103.99 6891.88 4103.99 6879.25 4124.34C6867.49 4128.04 6855.73 4131.75 6843.61 4135.57C6864.18 4064.3 6888.67 4014.3 6974.29 4023.29Z" fill="#8E8C9B"/>
<path d="M7081.22 3989.61C7085.14 3997.02 7089.06 4004.43 7093.1 4012.07C7100.94 4015.77 7108.78 4019.48 7116.86 4023.29C7105.1 4045.52 7093.34 4067.75 7081.22 4090.66C7069.46 4086.95 7057.69 4083.25 7045.58 4079.43C7045.58 4072.02 7045.58 4064.61 7045.58 4056.98C7053.42 4056.98 7061.26 4056.98 7069.34 4056.98C7069.34 4049.57 7069.34 4042.16 7069.34 4034.52C7057.58 4030.82 7045.81 4027.11 7033.7 4023.29C7049.38 4023.29 7065.06 4023.29 7081.22 4023.29C7081.22 4012.18 7081.22 4001.06 7081.22 3989.61Z" fill="#717E97"/>
<path d="M6570.37 4663.24C6633.1 4670.65 6695.82 4678.06 6760.45 4685.7C6760.45 4689.4 6760.45 4693.11 6760.45 4696.92C6693.8 4696.92 6627.16 4696.92 6558.49 4696.92C6562.41 4685.81 6566.33 4674.7 6570.37 4663.24Z" fill="#464F61"/>
<path d="M7152.5 3652.8C7157.4 3658.12 7162.3 3663.45 7167.35 3668.94C7190.3 3688.31 7205.74 3692.83 7235.66 3697.71C7235.66 3719.94 7235.66 3742.17 7235.66 3765.07C7231.74 3757.66 7227.82 3750.25 7223.78 3742.61C7215.94 3742.61 7208.1 3742.61 7200.02 3742.61C7200.02 3735.2 7200.02 3727.79 7200.02 3720.16C7192.18 3720.16 7184.34 3720.16 7176.26 3720.16C7168.42 3697.93 7160.58 3675.7 7152.5 3652.8Z" fill="#C2B6BC"/>
<path d="M6974.29 4012.07C6974.29 4015.77 6974.29 4019.48 6974.29 4023.29C6958.12 4026.77 6958.12 4026.77 6941.62 4030.31C6894.02 4049.35 6880.5 4071.3 6855.49 4113.11C6845.84 4094.17 6845.84 4094.17 6843.61 4068.2C6883.02 4018.54 6908.96 4004.89 6974.29 4012.07Z" fill="#EBD0CA"/>
<path d="M7413.86 4270.29C7425.62 4274 7437.38 4277.7 7449.5 4281.52C7425.98 4303.75 7402.46 4325.98 7378.22 4348.88C7366.46 4345.18 7354.7 4341.47 7342.58 4337.66C7366.34 4315.2 7390.1 4292.75 7413.86 4270.29Z" fill="#4F6E92"/>
<path d="M7069.34 3989.61C7073.26 4000.73 7077.18 4011.84 7081.22 4023.29C7073.62 4024.68 7066.03 4026.07 7058.2 4027.5C7050.11 4029.82 7042.03 4032.14 7033.7 4034.52C7029.78 4041.93 7025.86 4049.34 7021.82 4056.98C7010.05 4056.98 6998.29 4056.98 6986.18 4056.98C6999.21 4023.37 7006.1 4013.79 7041.12 3998.03C7050.43 3995.25 7059.74 3992.48 7069.34 3989.61Z" fill="#CFB6B6"/>
<path d="M7176.26 3720.16C7184.1 3720.16 7191.94 3720.16 7200.02 3720.16C7200.02 3727.57 7200.02 3734.98 7200.02 3742.61C7207.86 3742.61 7215.7 3742.61 7223.78 3742.61C7223.78 3750.02 7223.78 3757.43 7223.78 3765.07C7208.1 3768.77 7192.42 3772.48 7176.26 3776.3C7176.26 3783.71 7176.26 3791.12 7176.26 3798.75C7168.42 3795.05 7160.58 3791.34 7152.5 3787.52C7160.34 3765.29 7168.18 3743.06 7176.26 3720.16Z" fill="#F2E4D7"/>
<path d="M7081.22 3551.75C7117.82 3582.88 7136.91 3608.6 7152.5 3652.8C7130.22 3646.48 7130.22 3646.48 7104.98 3630.34C7090.13 3589.64 7090.13 3589.64 7081.22 3551.75Z" fill="#CCB8BC"/>
<path d="M7093.1 3551.75C7124.46 3559.16 7155.82 3566.57 7188.14 3574.21C7182.5 3579.3 7176.87 3584.4 7171.06 3589.64C7151.43 3607.13 7151.43 3607.13 7140.62 3630.34C7117.1 3591.44 7117.1 3591.44 7093.1 3551.75Z" fill="#5A7695"/>
<path d="M6118.92 4640.79C6118.92 4648.2 6118.92 4655.61 6118.92 4663.24C6083.64 4663.24 6048.35 4663.24 6012 4663.24C6023.88 4640.79 6023.88 4640.79 6045.41 4633.07C6073.64 4629.26 6091.99 4632.61 6118.92 4640.79Z" fill="#2B3445"/>
<path d="M6748.57 4169.25C6756.41 4172.95 6764.25 4176.66 6772.33 4180.47C6760.57 4197.15 6760.57 4197.15 6748.57 4214.16C6783.86 4219.71 6783.86 4219.71 6819.85 4225.38C6788.4 4241.78 6773.59 4247.84 6736.69 4247.84C6736.19 4225.39 6736.21 4202.92 6736.69 4180.47C6740.61 4176.77 6744.53 4173.06 6748.57 4169.25Z" fill="#717F97"/>
<path d="M6903.01 4169.25C6926.77 4189.6 6926.77 4189.6 6950.54 4214.16C6950.54 4225.27 6950.54 4236.39 6950.54 4247.84C6934.85 4240.43 6919.17 4233.02 6903.01 4225.38C6906.93 4217.97 6910.86 4210.56 6914.89 4202.93C6903.13 4199.22 6891.37 4195.52 6879.25 4191.7C6887.09 4184.29 6894.94 4176.88 6903.01 4169.25Z" fill="#7487A7"/>
<path d="M6404.05 4146.79C6411.89 4157.91 6419.73 4169.02 6427.81 4180.47C6423.89 4187.88 6419.97 4195.29 6415.93 4202.93C6413.26 4220.18 6411.08 4237.5 6409.24 4254.85C6408.25 4264.03 6407.25 4273.21 6406.23 4282.66C6405.51 4289.69 6404.79 4296.73 6404.05 4303.97C6400.13 4303.97 6396.21 4303.97 6392.17 4303.97C6391.85 4281.99 6391.62 4260 6391.42 4238.01C6391.29 4225.77 6391.15 4213.53 6391.01 4200.91C6392.17 4169.25 6392.17 4169.25 6404.05 4146.79Z" fill="#7D7882"/>
<path d="M7024.04 3539.12C7034.75 3539.32 7045.45 3539.53 7056.48 3539.74C7064.64 3540 7072.81 3540.26 7081.22 3540.53C7081.22 3544.23 7081.22 3547.94 7081.22 3551.75C7064.42 3555.86 7047.58 3559.8 7030.73 3563.68C7021.35 3565.9 7011.98 3568.11 7002.33 3570.39C6973.06 3574.38 6954.62 3571.61 6926.77 3562.98C6966.14 3538.18 6978.39 3538 7024.04 3539.12Z" fill="#B6A9A6"/>
<path d="M2106 4215.21C2122.14 4231.19 2122.14 4231.19 2122.14 4255.16C2144.4 4262.07 2144.4 4262.07 2170.58 4263.15C2184.2 4252.71 2197.66 4242.05 2210.95 4231.19C2233.15 4225.7 2233.15 4225.7 2259.39 4231.19C2311.06 4262.78 2357.96 4303.03 2383.01 4358.54C2391.27 4394.96 2394.45 4425.77 2378.98 4460.42C2376.81 4466.52 2374.65 4472.61 2372.42 4478.9C2383.26 4495.65 2383.26 4495.65 2396.64 4510.86C2396.64 4521.41 2396.64 4531.95 2396.64 4542.82C2404.8 4543.64 2412.96 4544.47 2421.36 4545.32C2464.4 4552.75 2497.28 4566.61 2533.89 4590.76C2542.38 4591.26 2550.87 4591.75 2559.62 4592.26C2601.75 4601.15 2626.49 4623.37 2654.99 4654.69C2678.78 4691.64 2676.15 4732.23 2671.13 4774.55C2653.27 4811.2 2634.42 4827.73 2598.47 4846.46C2593.14 4851.73 2587.82 4857.01 2582.33 4862.44C2588.65 4864.75 2594.98 4867.05 2601.5 4869.43C2622.69 4878.42 2622.69 4878.42 2638.84 4894.4C2638.65 4911.69 2638.65 4911.69 2635.81 4931.36C2634.92 4937.89 2634.02 4944.42 2633.1 4951.15C2632.33 4956.15 2631.56 4961.16 2630.77 4966.32C2636.59 4966.81 2642.42 4967.31 2648.43 4967.82C2678.07 4976.29 2691.13 4991.86 2711.5 5014.26C2714.16 5016.9 2716.83 5019.53 2719.57 5022.25C2721.62 5016.85 2723.67 5011.46 2725.79 5005.89C2729.95 4995.2 2729.95 4995.2 2734.21 4984.3C2736.92 4977.25 2739.64 4970.2 2742.44 4962.95C2751.61 4942.9 2762.08 4927.38 2776.09 4910.38C2790.82 4913.6 2790.82 4913.6 2805.86 4916.88C2823.54 4919.69 2823.54 4919.69 2840.67 4918.37C2863.38 4900.56 2863.38 4900.56 2881.04 4878.42C2916.91 4856.22 2953.08 4858.45 2994.07 4862.44C3030.58 4874.03 3053.07 4892.15 3074.55 4923.96C3088.8 4955.44 3092.08 4988.32 3096.12 5022.34C3099.39 5050.8 3099.39 5050.8 3107.09 5078.18C3127.2 5088.54 3127.2 5088.54 3147.46 5094.16C3159.31 5149.23 3153.76 5182.43 3123.24 5230C3130.73 5229.67 3138.23 5229.34 3145.95 5229C3171.68 5230 3171.68 5230 3195.9 5245.98C3195.9 5251.26 3195.9 5256.53 3195.9 5261.96C3235.86 5261.96 3275.83 5261.96 3317 5261.96C3317 5267.24 3317 5272.51 3317 5277.95C3284.76 5280.1 3252.52 5282.23 3220.27 5284.33C3204.18 5285.39 3188.1 5286.47 3172.01 5287.54C3136.93 5289.86 3101.83 5291.9 3066.73 5293.93C3060.77 5294.28 3054.81 5294.64 3048.67 5295.01C2892.06 5304.08 2735.36 5302.97 2578.55 5302.73C2539.67 5302.68 2500.8 5302.67 2461.92 5302.66C2388.62 5302.64 2315.31 5302.57 2242.01 5302.49C2158.42 5302.4 2074.84 5302.36 1991.25 5302.32C1819.59 5302.24 1647.93 5302.1 1476.28 5301.92C1476.28 5296.64 1476.28 5291.37 1476.28 5285.94C1486.89 5285.63 1486.89 5285.63 1497.72 5285.31C1599.69 5280.8 1698.86 5263.89 1799.21 5245.98C1772.79 5232.91 1743.45 5236.05 1714.38 5235.47C1707.59 5235.3 1700.8 5235.13 1693.81 5234.96C1672.1 5234.44 1650.38 5233.97 1628.66 5233.5C1613.95 5233.15 1599.25 5232.81 1584.54 5232.45C1548.45 5231.6 1512.37 5230.79 1476.28 5230C1473.61 5224.73 1470.95 5219.46 1468.2 5214.02C1393.61 5214.02 1319.01 5214.02 1242.15 5214.02C1242.15 5221.93 1242.15 5229.84 1242.15 5237.99C1228.83 5237.99 1215.51 5237.99 1201.78 5237.99C1201.78 5243.27 1201.78 5248.54 1201.78 5253.97C1191.13 5253.97 1180.47 5253.97 1169.49 5253.97C1166.83 5243.43 1164.16 5232.88 1161.42 5222.01C1121.45 5219.38 1081.49 5216.74 1040.32 5214.02C1040.32 5208.75 1040.32 5203.47 1040.32 5198.04C1035.15 5195.73 1029.99 5193.43 1024.67 5191.05C1008.02 5182.06 1008.02 5182.06 999.949 5166.08C995.088 5129.35 991.327 5093.28 1010.2 5060.24C1026.88 5040.92 1041.47 5025.68 1064.54 5014.26C1062.04 5009.32 1059.54 5004.37 1056.97 4999.28C1037.84 4961.42 1034.12 4926.23 1044.86 4884.91C1072.7 4850.17 1104.56 4829.32 1149.31 4823.49C1181.37 4821.47 1210.65 4824.51 1242.15 4830.48C1242.15 4825.2 1242.15 4819.93 1242.15 4814.5C1286.19 4810.05 1309.65 4816.6 1343.51 4842.9C1359.07 4858.3 1365.88 4873.46 1371.32 4894.4C1376.65 4894.4 1381.98 4894.4 1387.47 4894.4C1387.47 4886.49 1387.47 4878.58 1387.47 4870.43C1395.46 4865.16 1403.46 4859.88 1411.69 4854.45C1418.12 4839.42 1418.12 4839.42 1422.29 4821.99C1446.88 4743.94 1494.03 4693.92 1564.74 4653.69C1597.01 4640.01 1627.76 4640.41 1661.96 4646.7C1709.57 4669.69 1750.17 4701.69 1791.14 4734.59C1788.47 4729.32 1785.81 4724.05 1783.06 4718.61C1778.98 4676.18 1778.98 4676.18 1783.06 4654.69C1801.73 4641.2 1801.73 4641.2 1823.43 4630.72C1838.03 4610.21 1838.03 4610.21 1847.65 4590.76C1843.65 4585.65 1839.66 4580.55 1835.54 4575.28C1819.37 4542.61 1816.22 4514.67 1823.43 4478.9C1842.61 4455.42 1842.61 4455.42 1863.8 4438.94C1869.13 4433.67 1874.45 4428.4 1879.94 4422.96C1879.61 4414.23 1879.28 4405.49 1878.94 4396.5C1880.19 4359.8 1885.55 4352.23 1912.24 4327.08C1932.62 4312.6 1953.3 4298.65 1974.11 4284.78C1995.39 4269.4 2009.62 4252.04 2025.26 4231.19C2051.52 4213 2074.44 4212.49 2106 4215.21Z" fill="#596B85"/>
<path d="M2106 4215.21C2122.14 4231.19 2122.14 4231.19 2122.14 4255.16C2144.4 4262.07 2144.4 4262.07 2170.59 4263.15C2184.21 4252.71 2197.66 4242.05 2210.95 4231.19C2237.69 4229.19 2237.69 4229.19 2259.39 4231.19C2262.06 4239.1 2264.72 4247.01 2267.47 4255.16C2259.47 4255.16 2251.48 4255.16 2243.25 4255.16C2242.94 4260.08 2242.64 4264.99 2242.33 4270.05C2241.53 4279.74 2241.53 4279.74 2240.72 4289.62C2240.25 4296.02 2239.79 4302.42 2239.3 4309.01C2234.44 4330.26 2227.31 4337.01 2210.95 4351.05C2195.68 4375.71 2194.81 4384.4 2194.81 4414.97C2200.45 4415.46 2206.09 4415.94 2211.9 4416.44C2219.25 4417.11 2226.59 4417.78 2234.16 4418.47C2241.47 4419.12 2248.77 4419.77 2256.3 4420.44C2275.54 4422.96 2275.54 4422.96 2291.69 4430.95C2291.69 4438.86 2291.69 4446.78 2291.69 4454.93C2238.2 4486.89 2238.2 4486.89 2210.95 4486.89C2208.29 4492.16 2205.62 4497.43 2202.88 4502.87C2193.72 4507.32 2184.56 4511.77 2175.13 4516.35C2150.2 4530.03 2146.78 4533.93 2134.25 4561.3C2130.04 4592.03 2132.05 4616.42 2138.29 4646.7C2143.62 4646.7 2148.95 4646.7 2154.44 4646.7C2170.59 4646.7 2186.73 4646.7 2202.88 4646.7C2202.88 4657.24 2202.88 4667.79 2202.88 4678.66C2207.71 4680.47 2212.54 4682.28 2217.51 4684.15C2240.19 4697.62 2248.36 4711.02 2259.39 4734.59C2256.73 4742.5 2254.06 4750.41 2251.32 4758.56C2245.99 4753.29 2240.66 4748.02 2235.17 4742.58C2206.24 4741.25 2206.24 4741.25 2178.66 4742.58C2170.67 4758.4 2170.67 4758.4 2162.51 4774.55C2170.5 4777.18 2178.5 4779.82 2186.73 4782.54C2170.59 4790.53 2170.59 4790.53 2139.81 4788.53C2110.33 4787.95 2107.51 4789.2 2083.8 4810C2077.8 4816.76 2071.81 4823.52 2065.63 4830.48C2046.96 4836.97 2046.96 4836.97 2033.34 4838.47C2038.83 4845.56 2044.33 4852.64 2049.99 4859.94C2065.63 4886.41 2065.63 4886.41 2063.61 4909.38C2060.62 4917.79 2060.62 4917.79 2057.56 4926.36C2052.59 4925.21 2047.63 4924.06 2042.52 4922.87C2032.73 4920.64 2032.73 4920.64 2022.74 4918.37C2013.05 4916.15 2013.05 4916.15 2003.16 4913.88C1984.03 4909.62 1984.03 4909.62 1960.68 4910.38C1955.35 4897.2 1950.02 4884.01 1944.53 4870.43C1931.54 4870.68 1931.54 4870.68 1918.29 4870.93C1888.02 4870.43 1888.02 4870.43 1873.61 4866.53C1808.08 4851.55 1721.8 4854 1661.96 4886.41C1641.54 4903.97 1634.29 4915.83 1629.67 4942.35C1636.83 4941.36 1643.99 4940.37 1651.37 4939.35C1680.54 4942.62 1683.46 4944.45 1701.32 4965.32C1718.48 4990.29 1718.48 4990.29 1718.48 5006.27C1712.33 5005.62 1706.18 5004.97 1699.84 5004.3C1649.91 5001.28 1619.29 5002.79 1579.21 5034.24C1568.92 5043.34 1558.75 5052.59 1548.94 5062.2C1518.03 5047.78 1518.03 5047.78 1505.54 5033.74C1471.72 5004.12 1411.17 5013.32 1368.3 5013.76C1361.58 5013.8 1354.87 5013.83 1347.95 5013.87C1331.52 5013.96 1315.09 5014.11 1298.66 5014.26C1293.5 5003.26 1293.5 5003.26 1288.22 4992.04C1248.18 4917.31 1172.43 4891.13 1096.83 4862.44C1102.79 4846.87 1102.79 4846.87 1112.98 4830.48C1154.49 4816.67 1199.97 4822.48 1242.15 4830.48C1242.15 4825.2 1242.15 4819.93 1242.15 4814.5C1286.19 4810.05 1309.65 4816.6 1343.51 4842.9C1359.07 4858.3 1365.88 4873.46 1371.32 4894.4C1376.65 4894.4 1381.98 4894.4 1387.47 4894.4C1387.47 4886.49 1387.47 4878.58 1387.47 4870.43C1395.46 4865.16 1403.46 4859.88 1411.69 4854.45C1418.12 4839.42 1418.12 4839.42 1422.29 4821.99C1446.88 4743.94 1494.03 4693.92 1564.74 4653.69C1597.01 4640.01 1627.76 4640.41 1661.96 4646.7C1709.57 4669.69 1750.17 4701.69 1791.14 4734.59C1788.47 4729.32 1785.81 4724.05 1783.06 4718.61C1778.98 4676.18 1778.98 4676.18 1783.06 4654.69C1801.73 4641.2 1801.73 4641.2 1823.43 4630.72C1838.03 4610.21 1838.03 4610.21 1847.65 4590.76C1843.65 4585.65 1839.66 4580.55 1835.54 4575.28C1819.37 4542.61 1816.22 4514.67 1823.43 4478.9C1842.61 4455.42 1842.61 4455.42 1863.8 4438.94C1869.13 4433.67 1874.45 4428.4 1879.94 4422.96C1879.61 4414.23 1879.28 4405.49 1878.94 4396.5C1880.19 4359.8 1885.55 4352.23 1912.24 4327.08C1932.62 4312.6 1953.3 4298.65 1974.11 4284.78C1995.39 4269.4 2009.62 4252.04 2025.26 4231.19C2051.52 4213 2074.44 4212.49 2106 4215.21Z" fill="#FAF5EC"/>
<path d="M2776.09 4910.38C2808.11 4914.81 2835.16 4921.96 2864.89 4934.36C2870.22 4935.18 2875.55 4936 2881.04 4936.85C2907.09 4945.72 2920.37 4961.51 2937.55 4982.3C2940.08 5004.77 2940.08 5004.77 2937.55 5022.25C2901.59 5026.21 2901.59 5026.21 2864.89 5030.24C2862.23 5038.15 2859.56 5046.06 2856.82 5054.21C2852.82 5066.08 2852.82 5066.08 2848.75 5078.18C2844.58 5075.55 2840.42 5072.91 2836.13 5070.19C2780.26 5047.51 2712.18 5068.65 2654.99 5078.18C2652.32 5086.09 2649.66 5094 2646.91 5102.16C2641.58 5102.16 2636.26 5102.16 2630.77 5102.16C2629.6 5108.42 2628.43 5114.68 2627.23 5121.13C2622.69 5142.11 2622.69 5142.11 2614.62 5158.09C2642.59 5154.13 2642.59 5154.13 2671.13 5150.1C2673.8 5163.28 2676.46 5176.47 2679.21 5190.05C2660.56 5195.32 2641.91 5200.6 2622.69 5206.03C2618.2 5201.09 2613.7 5196.14 2609.07 5191.05C2569.97 5155.49 2519.97 5151.26 2469.3 5142.11C2469.3 5136.83 2469.3 5131.56 2469.3 5126.13C2477.29 5126.13 2485.28 5126.13 2493.52 5126.13C2493.52 5120.85 2493.52 5115.58 2493.52 5110.15C2469.54 5107.51 2445.56 5104.87 2420.86 5102.16C2417.53 5068.58 2416.35 5052.04 2437.51 5024.75C2488.47 4985.04 2522.66 4969.06 2586.87 4970.81C2592.75 4970.75 2598.64 4970.7 2604.7 4970.64C2643.16 4971.09 2670.25 4977.29 2703.43 4998.28C2708.75 5006.19 2714.08 5014.1 2719.57 5022.25C2722.65 5014.15 2722.65 5014.15 2725.78 5005.89C2728.56 4998.77 2731.34 4991.64 2734.21 4984.3C2736.92 4977.25 2739.64 4970.2 2742.44 4962.95C2751.61 4942.9 2762.08 4927.38 2776.09 4910.38Z" fill="#F2E5DB"/>
<path d="M1242.15 4814.5C1286.19 4810.05 1309.65 4816.6 1343.51 4842.9C1359.07 4858.3 1365.88 4873.46 1371.32 4894.4C1376.65 4894.4 1381.98 4894.4 1387.47 4894.4C1387.47 4886.49 1387.47 4878.58 1387.47 4870.43C1395.46 4867.79 1403.46 4865.16 1411.69 4862.44C1417.02 4899.36 1422.35 4936.27 1427.84 4974.31C1441.16 4976.94 1454.48 4979.58 1468.2 4982.3C1484.01 4988.74 1499.66 4995.58 1515.13 5002.77C1526.95 5008.23 1526.95 5008.23 1539 5013.79C1544.95 5016.58 1550.89 5019.37 1557.01 5022.25C1557.01 5014.34 1557.01 5006.43 1557.01 4998.28C1580.99 4987.73 1604.97 4977.18 1629.67 4966.32C1629.67 4971.59 1629.67 4976.86 1629.67 4982.3C1638.33 4982.13 1646.99 4981.97 1655.91 4981.8C1679.3 4982.18 1696.57 4983.35 1718.48 4990.29C1718.48 4995.56 1718.48 5000.84 1718.48 5006.27C1712.33 5005.62 1706.18 5004.97 1699.84 5004.3C1649.91 5001.28 1619.29 5002.79 1579.21 5034.24C1568.92 5043.34 1558.75 5052.59 1548.94 5062.2C1518.03 5047.78 1518.03 5047.78 1505.54 5033.74C1471.72 5004.12 1411.17 5013.32 1368.3 5013.76C1361.58 5013.8 1354.87 5013.83 1347.95 5013.87C1331.52 5013.96 1315.09 5014.11 1298.66 5014.26C1295.22 5006.93 1291.77 4999.59 1288.22 4992.04C1248.18 4917.3 1172.43 4891.13 1096.83 4862.44C1102.79 4846.87 1102.79 4846.87 1112.98 4830.48C1154.49 4816.67 1199.97 4822.48 1242.15 4830.48C1242.15 4825.2 1242.15 4819.93 1242.15 4814.5Z" fill="#F8EEE1"/>
<path d="M1815.36 5253.97C1793.06 5276.05 1773.32 5274.58 1742.7 5277.95C1909.66 5278.32 2076.63 5278.6 2243.59 5278.77C2321.13 5278.86 2398.67 5278.97 2476.2 5279.15C2543.85 5279.31 2611.5 5279.41 2679.14 5279.45C2714.9 5279.47 2750.66 5279.52 2786.42 5279.64C2820.2 5279.75 2853.99 5279.78 2887.77 5279.75C2900.05 5279.76 2912.33 5279.79 2924.61 5279.85C3002.86 5280.23 3079 5275.17 3156.67 5265.55C3192.09 5261.47 3225.88 5260.33 3261.5 5260.97C3269.75 5261.07 3269.75 5261.07 3278.18 5261.18C3291.12 5261.37 3304.06 5261.65 3317 5261.96C3317 5267.24 3317 5272.51 3317 5277.95C3284.76 5280.1 3252.52 5282.23 3220.27 5284.33C3204.18 5285.39 3188.1 5286.47 3172.01 5287.54C3136.93 5289.86 3101.83 5291.9 3066.73 5293.93C3057.79 5294.46 3057.79 5294.46 3048.67 5295.01C2892.06 5304.08 2735.36 5302.97 2578.55 5302.73C2539.67 5302.68 2500.8 5302.67 2461.92 5302.66C2388.62 5302.64 2315.31 5302.57 2242.01 5302.49C2158.42 5302.4 2074.84 5302.36 1991.25 5302.32C1819.59 5302.24 1647.93 5302.1 1476.28 5301.92C1476.28 5296.64 1476.28 5291.37 1476.28 5285.94C1486.89 5285.63 1486.89 5285.63 1497.72 5285.31C1578.29 5281.75 1656.09 5270.63 1735.43 5256.25C1743.47 5254.82 1751.51 5253.39 1759.79 5251.91C1767 5250.58 1774.21 5249.25 1781.64 5247.88C1799.21 5245.98 1799.21 5245.98 1815.36 5253.97Z" fill="#3D4355"/>
<path d="M1783.06 4654.69C1795.17 4664.68 1795.17 4664.68 1807.28 4678.66C1807.28 4689.21 1807.28 4699.75 1807.28 4710.62C1812.06 4709.58 1816.84 4708.54 1821.76 4707.47C1841.78 4704.01 1859.62 4701.69 1879.94 4702.63C1904.67 4722.11 1904.67 4722.11 1920.31 4742.58C1917.65 4750.49 1914.98 4758.4 1912.24 4766.55C1928.22 4766.55 1944.21 4766.55 1960.68 4766.55C1960.68 4771.83 1960.68 4777.1 1960.68 4782.54C1947.36 4782.54 1934.04 4782.54 1920.31 4782.54C1914.98 4793.08 1909.65 4803.63 1904.16 4814.5C1908.85 4813.16 1913.53 4811.82 1918.35 4810.44C1946.58 4804.31 1974.48 4807.83 2003.06 4810C2009.08 4810.42 2015.09 4810.84 2021.29 4811.27C2036.07 4812.3 2050.85 4813.39 2065.63 4814.5C2061.64 4826.36 2061.64 4826.36 2057.56 4838.47C2049.57 4838.47 2041.57 4838.47 2033.34 4838.47C2041.58 4849.1 2041.58 4849.1 2049.99 4859.94C2065.63 4886.41 2065.63 4886.41 2063.61 4909.38C2061.61 4914.99 2059.62 4920.59 2057.56 4926.36C2052.59 4925.21 2047.63 4924.06 2042.52 4922.87C2032.73 4920.64 2032.73 4920.64 2022.74 4918.37C2013.05 4916.15 2013.05 4916.15 2003.16 4913.88C1984.03 4909.62 1984.03 4909.62 1960.68 4910.38C1955.35 4897.2 1950.02 4884.02 1944.53 4870.43C1935.87 4870.6 1927.21 4870.76 1918.29 4870.93C1888.02 4870.43 1888.02 4870.43 1873.61 4866.53C1808.08 4851.55 1721.8 4854 1661.96 4886.41C1642.7 4903.28 1632.12 4919.11 1621.6 4942.35C1614.05 4918.29 1613.16 4911.45 1621.6 4886.41C1626.93 4886.41 1632.25 4886.41 1637.74 4886.41C1637.74 4881.14 1637.74 4875.86 1637.74 4870.43C1660.01 4850.84 1682.75 4840.84 1710.4 4830.48C1713.07 4827.84 1715.73 4825.21 1718.48 4822.49C1731.68 4821.79 1744.9 4821.63 1758.12 4821.71C1770.1 4821.75 1770.1 4821.75 1782.32 4821.79C1790.73 4821.85 1799.13 4821.92 1807.79 4821.99C1820.44 4822.04 1820.44 4822.04 1833.35 4822.1C1854.26 4822.19 1875.18 4822.32 1896.09 4822.49C1891.37 4813.49 1886.64 4804.48 1881.77 4795.21C1879.12 4790.14 1876.46 4785.08 1873.72 4779.86C1856.88 4757.27 1833.99 4755.47 1807.28 4750.57C1791.14 4742.58 1791.14 4742.58 1783.06 4718.61C1782.03 4697.25 1782.71 4676.09 1783.06 4654.69Z" fill="#F9E5DA"/>
<path d="M2259.39 4231.19C2262.06 4239.1 2264.72 4247.01 2267.46 4255.16C2259.47 4255.16 2251.48 4255.16 2243.24 4255.16C2242.94 4260.08 2242.64 4264.99 2242.33 4270.05C2241.8 4276.51 2241.27 4282.97 2240.72 4289.62C2240.25 4296.02 2239.79 4302.42 2239.3 4309.01C2234.44 4330.26 2227.31 4337.01 2210.95 4351.05C2195.68 4375.71 2194.8 4384.4 2194.8 4414.97C2200.45 4415.46 2206.09 4415.94 2211.9 4416.44C2219.25 4417.11 2226.59 4417.78 2234.16 4418.47C2241.47 4419.12 2248.77 4419.77 2256.3 4420.44C2275.54 4422.96 2275.54 4422.96 2291.69 4430.95C2291.69 4438.86 2291.69 4446.78 2291.69 4454.93C2238.2 4486.89 2238.2 4486.89 2210.95 4486.89C2208.29 4492.16 2205.62 4497.43 2202.88 4502.87C2193.72 4507.32 2184.56 4511.77 2175.13 4516.35C2150.2 4530.03 2146.78 4533.93 2134.25 4561.3C2130.04 4592.03 2132.05 4616.42 2138.29 4646.7C2143.62 4646.7 2148.95 4646.7 2154.44 4646.7C2170.58 4646.7 2186.73 4646.7 2202.88 4646.7C2202.88 4657.24 2202.88 4667.79 2202.88 4678.66C2208.21 4681.3 2213.54 4683.93 2219.02 4686.65C2192.38 4686.65 2165.74 4686.65 2138.29 4686.65C2138.29 4691.92 2138.29 4697.2 2138.29 4702.63C2118.61 4699.63 2118.61 4699.63 2097.92 4694.64C2085.05 4669.16 2089.03 4641.67 2089.35 4613.74C2089.38 4607.71 2089.42 4601.69 2089.46 4595.48C2089.55 4580.59 2089.7 4565.7 2089.85 4550.81C2079.19 4550.81 2068.54 4550.81 2057.56 4550.81C2060.84 4531.96 2064.81 4519.97 2076.23 4504.37C2082.97 4499.67 2082.97 4499.67 2089.85 4494.88C2094.75 4496.47 2099.65 4498.07 2104.71 4499.72C2122.79 4504.86 2122.79 4504.86 2139.43 4493.44C2145.05 4488.97 2150.67 4484.5 2156.46 4479.9C2162.16 4475.47 2167.86 4471.04 2173.74 4466.47C2178.03 4462.66 2182.31 4458.85 2186.73 4454.93C2186.73 4452.29 2186.73 4449.65 2186.73 4446.94C2181.57 4445.78 2176.41 4444.63 2171.09 4443.44C2154.44 4438.94 2154.44 4438.94 2146.36 4430.95C2141.59 4397.1 2144.66 4385.38 2165.03 4357.04C2186.73 4335.07 2186.73 4335.07 2210.95 4319.09C2210.95 4311.18 2210.95 4303.27 2210.95 4295.12C2189.64 4295.12 2168.32 4295.12 2146.36 4295.12C2143.7 4284.57 2141.04 4274.02 2138.29 4263.15C2144.29 4262.33 2150.28 4261.51 2156.46 4260.66C2178.94 4256.73 2178.94 4256.73 2194.3 4242.68C2216.58 4227.31 2232.86 4229.4 2259.39 4231.19Z" fill="#CBC6D2"/>
<path d="M2684.76 4983.8C2706.3 5000.5 2710.87 5013.05 2719.57 5038.23C2731.56 5042.19 2731.56 5042.19 2743.79 5046.22C2743.79 5048.86 2743.79 5051.5 2743.79 5054.21C2719.22 5054.87 2702.85 5054.02 2679.21 5046.22C2671.71 5048.69 2664.22 5051.17 2656.5 5053.71C2630.06 5062.43 2609.96 5063.51 2582.33 5062.2C2579.66 5070.11 2577 5078.02 2574.25 5086.17C2560.93 5086.17 2547.61 5086.17 2533.89 5086.17C2531.22 5094.08 2528.56 5102 2525.81 5110.15C2507.16 5107.51 2488.51 5104.87 2469.3 5102.16C2466.51 5063.48 2472.02 5038.94 2493.52 5006.27C2511.18 4999.28 2511.18 4999.28 2525.81 4998.28C2525.81 4993.01 2525.81 4987.73 2525.81 4982.3C2575.97 4965.75 2634.79 4967.87 2684.76 4983.8Z" fill="#F4E9DB"/>
<path d="M1242.15 4814.5C1244.81 4819.77 1247.48 4825.05 1250.22 4830.48C1255.55 4831.8 1260.88 4833.12 1266.37 4834.47C1271.7 4835.79 1277.03 4837.11 1282.52 4838.47C1285.18 4843.74 1287.85 4849.02 1290.59 4854.45C1261.28 4849.18 1231.98 4843.9 1201.78 4838.47C1205.49 4876.75 1205.49 4876.75 1223.35 4891.13C1228.89 4894.68 1234.43 4898.23 1240.13 4901.89C1262.62 4917.26 1280.3 4931.51 1297.15 4952.83C1313.07 4976.11 1313.07 4976.11 1339.03 4982.3C1350.23 4983.1 1361.45 4983.53 1372.68 4983.7C1379.23 4983.89 1385.78 4984.08 1392.53 4984.28C1406.15 4984.62 1419.78 4984.87 1433.4 4985.03C1482.55 4986.68 1514.39 4997.88 1557.01 5022.25C1557.01 5014.34 1557.01 5006.43 1557.01 4998.28C1580.99 4987.73 1604.97 4977.18 1629.67 4966.32C1629.67 4971.59 1629.67 4976.86 1629.67 4982.3C1638.33 4982.13 1646.99 4981.97 1655.91 4981.8C1679.3 4982.18 1696.57 4983.35 1718.48 4990.29C1718.48 4995.56 1718.48 5000.84 1718.48 5006.27C1712.33 5005.62 1706.18 5004.97 1699.84 5004.3C1649.91 5001.28 1619.29 5002.79 1579.21 5034.24C1568.92 5043.34 1558.75 5052.59 1548.94 5062.2C1518.03 5047.78 1518.03 5047.78 1505.54 5033.74C1471.72 5004.12 1411.17 5013.32 1368.3 5013.76C1361.58 5013.8 1354.87 5013.83 1347.95 5013.87C1331.52 5013.96 1315.09 5014.11 1298.66 5014.26C1295.22 5006.93 1291.77 4999.59 1288.22 4992.04C1248.18 4917.31 1172.43 4891.13 1096.83 4862.44C1102.79 4846.87 1102.79 4846.87 1112.98 4830.48C1154.49 4816.67 1199.97 4822.48 1242.15 4830.48C1242.15 4825.2 1242.15 4819.93 1242.15 4814.5Z" fill="#DFBBAE"/>
<path d="M2537.42 4976.3C2541.58 4978.28 2545.74 4980.26 2550.03 4982.3C2542.04 4982.3 2534.05 4982.3 2525.81 4982.3C2525.81 4987.57 2525.81 4992.84 2525.81 4998.28C2515.16 5000.92 2504.5 5003.55 2493.52 5006.27C2485.53 5037.91 2477.53 5069.55 2469.3 5102.15C2487.95 5104.79 2506.6 5107.43 2525.81 5110.15C2528.48 5099.6 2531.14 5089.05 2533.89 5078.18C2540.38 5078.35 2546.87 5078.51 2553.56 5078.68C2573.72 5080.55 2573.72 5080.55 2582.33 5070.19C2595.78 5069.87 2609.24 5069.85 2622.69 5070.19C2621.53 5075.8 2620.36 5081.4 2619.16 5087.17C2614.5 5110.75 2610.45 5134.38 2606.55 5158.09C2638.52 5154.13 2638.52 5154.13 2671.13 5150.1C2673.8 5163.28 2676.46 5176.47 2679.21 5190.05C2660.56 5195.32 2641.91 5200.6 2622.69 5206.03C2618.2 5201.09 2613.7 5196.14 2609.07 5191.05C2569.97 5155.49 2519.97 5151.26 2469.3 5142.11C2469.3 5136.83 2469.3 5131.56 2469.3 5126.13C2477.29 5126.13 2485.28 5126.13 2493.52 5126.13C2493.52 5120.85 2493.52 5115.58 2493.52 5110.15C2469.54 5107.51 2445.56 5104.87 2420.86 5102.15C2417.53 5068.58 2416.35 5052.03 2437.51 5024.75C2504.03 4972.92 2504.03 4972.92 2537.42 4976.3Z" fill="#F9E9DA"/>
<path d="M1815.36 5253.97C1799.21 5269.96 1799.21 5269.96 1670.04 5285.94C2269.48 5289.89 2269.48 5289.89 2881.04 5293.93C2881.04 5296.56 2881.04 5299.2 2881.04 5301.92C2417.47 5301.92 1953.9 5301.92 1476.28 5301.92C1476.28 5296.64 1476.28 5291.37 1476.28 5285.94C1486.89 5285.63 1486.89 5285.63 1497.72 5285.31C1578.29 5281.75 1656.09 5270.63 1735.43 5256.25C1743.47 5254.82 1751.51 5253.39 1759.79 5251.91C1767 5250.58 1774.21 5249.25 1781.64 5247.88C1799.21 5245.98 1799.21 5245.98 1815.36 5253.97Z" fill="#272B3E"/>
<path d="M2202.88 4454.93C2201.87 4468.41 2201.87 4468.41 2194.8 4486.89C2182.34 4496.4 2169.87 4505.91 2157.37 4515.39C2138.77 4534.75 2139.79 4557.14 2138.29 4582.77C2135.63 4585.41 2132.96 4588.05 2130.22 4590.76C2132.54 4609.46 2135.22 4628.11 2138.29 4646.7C2143.62 4646.7 2148.95 4646.7 2154.44 4646.7C2170.58 4646.7 2186.73 4646.7 2202.88 4646.7C2202.88 4657.25 2202.88 4667.79 2202.88 4678.66C2208.21 4681.3 2213.54 4683.93 2219.02 4686.65C2192.38 4686.65 2165.74 4686.65 2138.29 4686.65C2138.29 4691.92 2138.29 4697.2 2138.29 4702.63C2118.61 4699.63 2118.61 4699.63 2097.92 4694.64C2085.05 4669.17 2089.03 4641.67 2089.35 4613.74C2089.38 4607.71 2089.42 4601.69 2089.46 4595.48C2089.55 4580.59 2089.7 4565.7 2089.85 4550.81C2079.19 4550.81 2068.54 4550.81 2057.56 4550.81C2060.84 4531.96 2064.81 4519.97 2076.23 4504.37C2080.72 4501.24 2085.22 4498.1 2089.85 4494.88C2094.77 4496.49 2099.7 4498.09 2104.77 4499.75C2122.78 4504.91 2122.78 4504.91 2138.86 4493.16C2144.33 4488.62 2149.81 4484.08 2155.45 4479.4C2185.3 4454.93 2185.3 4454.93 2202.88 4454.93Z" fill="#DBD4D8"/>
<path d="M1264.56 5205.12C1274.32 5205.17 1284.09 5205.21 1294.15 5205.25C1304.69 5205.28 1315.23 5205.3 1326.08 5205.33C1337.3 5205.4 1348.51 5205.46 1359.72 5205.53C1370.96 5205.57 1382.2 5205.61 1393.45 5205.64C1421.06 5205.74 1448.67 5205.87 1476.28 5206.03C1476.28 5211.31 1476.28 5216.58 1476.28 5222.01C1577.52 5224.65 1678.76 5227.29 1783.06 5230C1783.06 5232.64 1783.06 5235.28 1783.06 5237.99C1729.78 5237.99 1676.5 5237.99 1621.6 5237.99C1621.6 5243.27 1621.6 5248.54 1621.6 5253.97C1589.19 5264.67 1558.51 5263.56 1524.72 5261.96C1516.72 5256.69 1508.73 5251.42 1500.5 5245.98C1476.53 5242.31 1476.53 5242.31 1450.54 5240.99C1441.77 5240.39 1433 5239.79 1423.96 5239.18C1417.25 5238.79 1410.53 5238.4 1403.62 5237.99C1403.62 5232.72 1403.62 5227.45 1403.62 5222.01C1379.64 5222.01 1355.66 5222.01 1330.96 5222.01C1330.96 5227.29 1330.96 5232.56 1330.96 5237.99C1303.33 5247.11 1281.82 5246.77 1252.75 5246.48C1238.46 5246.38 1238.46 5246.38 1223.89 5246.26C1216.59 5246.17 1209.3 5246.08 1201.78 5245.98C1201.78 5243.35 1201.78 5240.71 1201.78 5237.99C1215.1 5237.99 1228.43 5237.99 1242.15 5237.99C1239.49 5230.08 1236.82 5222.17 1234.08 5214.02C1242.15 5206.03 1242.15 5206.03 1264.56 5205.12Z" fill="#38414E"/>
<path d="M1597.38 4942.35C1617.06 4950.34 1617.06 4950.34 1629.67 4958.33C1629.67 4953.05 1629.67 4947.78 1629.67 4942.35C1651.87 4939.85 1651.87 4939.85 1678.11 4942.35C1697.28 4962.32 1697.28 4962.32 1710.4 4982.3C1707.74 4987.57 1705.08 4992.85 1702.33 4998.28C1693.59 4996.3 1693.59 4996.3 1684.67 4994.28C1663.06 4990.48 1643.48 4989.67 1621.6 4990.29C1621.6 4985.01 1621.6 4979.74 1621.6 4974.31C1613.94 4978.26 1606.28 4982.22 1598.39 4986.29C1573.16 4998.28 1573.16 4998.28 1557.01 4998.28C1557.01 5006.19 1557.01 5014.1 1557.01 5022.25C1522.18 5018.42 1507.23 5008.3 1484.35 4982.3C1523.37 4950.77 1545.06 4935.51 1597.38 4942.35Z" fill="#E5DCD3"/>
<path d="M2065.63 4814.5C2068.3 4814.5 2070.96 4814.5 2073.7 4814.5C2073.7 4832.96 2073.7 4851.41 2073.7 4870.43C2085.19 4869.94 2085.19 4869.94 2096.92 4869.43C2122.14 4870.43 2122.14 4870.43 2138.29 4886.41C2128.55 4891.6 2128.55 4891.6 2118.61 4896.9C2095.68 4908.82 2095.68 4908.82 2089.85 4934.35C2039.23 4934.35 1988.61 4934.35 1936.46 4934.35C1912.24 4878.42 1912.24 4878.42 1912.24 4862.44C1932.22 4866.4 1932.22 4866.4 1952.6 4870.43C1955.27 4883.62 1957.93 4896.8 1960.68 4910.38C1967.67 4908.74 1974.66 4907.09 1981.87 4905.39C2012.06 4902.07 2029.7 4907.21 2057.56 4918.37C2053.46 4888.66 2048.55 4864.56 2033.34 4838.47C2041.33 4835.83 2049.32 4833.2 2057.56 4830.48C2060.22 4825.2 2062.89 4819.93 2065.63 4814.5Z" fill="#9C9198"/>
<path d="M2537.42 4976.3C2541.58 4978.28 2545.74 4980.26 2550.03 4982.3C2542.04 4982.3 2534.05 4982.3 2525.81 4982.3C2525.81 4987.57 2525.81 4992.84 2525.81 4998.28C2515.16 5000.92 2504.5 5003.55 2493.52 5006.27C2485.53 5037.91 2477.53 5069.55 2469.3 5102.15C2482.62 5102.15 2495.94 5102.15 2509.67 5102.15C2511.16 5107.1 2512.66 5112.04 2514.21 5117.14C2531.58 5142.55 2553.06 5143.66 2582.33 5150.1C2582.33 5155.37 2582.33 5160.65 2582.33 5166.08C2566.51 5163.61 2550.7 5161.11 2534.89 5158.59C2521.69 5156.5 2521.69 5156.5 2508.21 5154.37C2485.45 5150.1 2485.45 5150.1 2469.3 5142.11C2469.3 5136.83 2469.3 5131.56 2469.3 5126.13C2477.29 5126.13 2485.28 5126.13 2493.52 5126.13C2493.52 5120.85 2493.52 5115.58 2493.52 5110.15C2469.54 5107.51 2445.56 5104.87 2420.86 5102.15C2417.53 5068.58 2416.35 5052.03 2437.51 5024.75C2504.03 4972.92 2504.03 4972.92 2537.42 4976.3Z" fill="#E1C2B3"/>
<path d="M1912.24 4846.46C1917.57 4851.73 1922.89 4857.01 1928.38 4862.44C1891.93 4871.46 1891.93 4871.46 1874.11 4866.78C1808.65 4851.33 1721.82 4853.99 1661.96 4886.41C1642.7 4903.28 1632.12 4919.11 1621.6 4942.35C1614.05 4918.29 1613.16 4911.45 1621.6 4886.41C1626.93 4886.41 1632.25 4886.41 1637.74 4886.41C1637.74 4881.14 1637.74 4875.86 1637.74 4870.43C1701.56 4807.27 1833.77 4821.4 1912.24 4846.46Z" fill="#EABAAB"/>
<path d="M2089.85 4678.66C2095.18 4683.93 2100.51 4689.21 2106 4694.64C2122.7 4699.77 2122.7 4699.77 2138.29 4702.63C2138.29 4697.36 2138.29 4692.08 2138.29 4686.65C2168.39 4683.88 2197.1 4682.43 2227.1 4686.65C2249.3 4709.12 2249.3 4709.12 2259.39 4734.59C2256.73 4742.5 2254.06 4750.41 2251.32 4758.56C2245.99 4753.29 2240.66 4748.02 2235.17 4742.58C2206.24 4741.25 2206.24 4741.25 2178.66 4742.58C2173.33 4753.13 2168 4763.68 2162.51 4774.55C2170.5 4777.18 2178.5 4779.82 2186.73 4782.54C2163.63 4793.97 2146.9 4787.33 2122.14 4782.54C2127.47 4779.9 2132.8 4777.26 2138.29 4774.55C2138.29 4764 2138.29 4753.45 2138.29 4742.58C2143.62 4742.58 2148.95 4742.58 2154.44 4742.58C2154.44 4737.31 2154.44 4732.04 2154.44 4726.6C2159.77 4726.6 2165.09 4726.6 2170.58 4726.6C2170.58 4718.69 2170.58 4710.78 2170.58 4702.63C2162.59 4706.59 2162.59 4706.59 2154.44 4710.62C2132.86 4711.69 2111.47 4710.97 2089.85 4710.62C2089.85 4700.07 2089.85 4689.53 2089.85 4678.66Z" fill="#F9F1EF"/>
<path d="M1783.06 4654.69C1795.17 4664.68 1795.17 4664.68 1807.28 4678.66C1807.28 4689.21 1807.28 4699.75 1807.28 4710.62C1812.34 4709.86 1817.4 4709.1 1822.61 4708.31C1829.21 4707.43 1835.81 4706.54 1842.6 4705.63C1852.44 4704.24 1852.44 4704.24 1862.47 4702.82C1868.24 4702.76 1874 4702.69 1879.94 4702.63C1896.09 4718.61 1896.09 4718.61 1897.67 4737.65C1897.39 4748.5 1897.39 4748.5 1897.1 4759.56C1896.95 4766.84 1896.81 4774.11 1896.66 4781.6C1896.38 4789.97 1896.38 4789.97 1896.09 4798.52C1890.76 4792.09 1885.43 4785.66 1879.94 4779.04C1848.62 4752.56 1831.5 4752.61 1791.14 4750.57C1780.42 4718.76 1782.51 4687.84 1783.06 4654.69Z" fill="#EACDBC"/>
<path d="M2138.29 4542.82C2138.64 4556.13 2138.62 4569.46 2138.29 4582.77C2135.63 4585.41 2132.96 4588.05 2130.22 4590.76C2132.54 4609.46 2135.22 4628.11 2138.29 4646.7C2143.62 4646.7 2148.95 4646.7 2154.44 4646.7C2170.58 4646.7 2186.73 4646.7 2202.88 4646.7C2202.88 4657.24 2202.88 4667.79 2202.88 4678.66C2208.21 4681.3 2213.53 4683.93 2219.02 4686.65C2167.07 4690.6 2167.07 4690.6 2114.07 4694.64C2102.15 4671.04 2104.31 4649.48 2103.98 4623.22C2103.77 4613.26 2103.56 4603.3 2103.35 4593.04C2106 4566.79 2106 4566.79 2117.73 4551.28C2130.22 4542.82 2130.22 4542.82 2138.29 4542.82Z" fill="#8FAED1"/>
<path d="M1823.43 4478.9C1826.1 4489.44 1828.76 4499.99 1831.5 4510.86C1838.66 4510.04 1845.82 4509.21 1853.2 4508.36C1888.07 4511.62 1898.16 4525.02 1920.31 4550.81C1906.99 4553.45 1893.67 4556.09 1879.94 4558.8C1877.28 4571.99 1874.62 4585.17 1871.87 4598.75C1852.62 4591.13 1841.72 4586.13 1830.5 4568.54C1822.54 4548.58 1821.79 4534.21 1822.42 4512.86C1822.57 4506.47 1822.71 4500.08 1822.86 4493.5C1823.05 4488.68 1823.24 4483.86 1823.43 4478.9Z" fill="#E9D2C5"/>
<path d="M2721.59 5045.22C2732.39 5047.66 2732.39 5047.66 2743.41 5050.15C2748.87 5051.49 2754.32 5052.83 2759.94 5054.21C2736.03 5067.56 2716.58 5072.8 2689.3 5075.19C2682.85 5075.78 2676.39 5076.38 2669.74 5077C2664.87 5077.39 2660 5077.78 2654.99 5078.18C2652.32 5086.09 2649.66 5094 2646.91 5102.15C2641.58 5102.15 2636.26 5102.15 2630.77 5102.15C2629.77 5108.42 2628.77 5114.68 2627.74 5121.13C2622.69 5142.11 2622.69 5142.11 2606.55 5158.09C2604.96 5124.38 2608.14 5100.8 2622.69 5070.19C2606.71 5070.19 2590.72 5070.19 2574.25 5070.19C2576.92 5064.92 2579.58 5059.65 2582.33 5054.21C2598.09 5054.73 2613.86 5055.25 2629.63 5055.77C2647.34 5055.32 2647.34 5055.32 2662.55 5045.72C2684.99 5035.63 2697.9 5039.67 2721.59 5045.22Z" fill="#D3C2BA"/>
<path d="M2259.39 4231.19C2262.06 4239.1 2264.72 4247.01 2267.46 4255.16C2259.47 4255.16 2251.48 4255.16 2243.24 4255.16C2240.58 4268.35 2237.92 4281.53 2235.17 4295.12C2205.87 4295.12 2176.56 4295.12 2146.36 4295.12C2143.7 4284.57 2141.04 4274.02 2138.29 4263.15C2144.29 4262.33 2150.28 4261.51 2156.46 4260.66C2178.94 4256.73 2178.94 4256.73 2194.3 4242.68C2216.58 4227.31 2232.86 4229.4 2259.39 4231.19Z" fill="#D5D9DB"/>
<path d="M2056.26 4872.96C2065.63 4886.41 2065.63 4886.41 2063.11 4907.89C2061.28 4913.98 2059.44 4920.08 2057.56 4926.36C2052.59 4925.21 2047.63 4924.06 2042.51 4922.87C2035.99 4921.39 2029.46 4919.9 2022.74 4918.37C2016.28 4916.89 2009.82 4915.41 2003.16 4913.88C1984.03 4909.62 1984.03 4909.62 1960.68 4910.38C1956.14 4894.9 1956.14 4894.9 1952.6 4878.42C1965.85 4865.31 1981.85 4866.63 2000.04 4864.44C2007.17 4863.49 2014.31 4862.54 2021.67 4861.57C2041.41 4862.44 2041.41 4862.44 2056.26 4872.96Z" fill="#F8CAB5"/>
<path d="M1621.6 4966.32C1624.26 4971.59 1626.93 4976.86 1629.67 4982.3C1638.33 4982.13 1646.99 4981.97 1655.91 4981.8C1679.3 4982.18 1696.57 4983.35 1718.48 4990.29C1718.48 4995.56 1718.48 5000.84 1718.48 5006.27C1712.05 5005.9 1705.61 5005.53 1698.99 5005.15C1646.04 5003.36 1613.46 5002.78 1573.16 5038.23C1567.83 5035.59 1562.5 5032.96 1557.01 5030.24C1557.01 5035.51 1557.01 5040.79 1557.01 5046.22C1546.35 5043.58 1535.7 5040.95 1524.72 5038.23C1527.38 5030.32 1530.05 5022.41 1532.79 5014.26C1540.78 5016.9 1548.78 5019.53 1557.01 5022.25C1557.01 5014.34 1557.01 5006.43 1557.01 4998.28C1578.32 4987.73 1599.64 4977.18 1621.6 4966.32Z" fill="#E2C6BD"/>
<path d="M2372.42 4414.97C2375.08 4414.97 2377.75 4414.97 2380.49 4414.97C2380.49 4438.94 2380.49 4462.92 2380.49 4486.89C2383.16 4492.16 2385.82 4497.43 2388.57 4502.87C2388.89 4521.51 2388.91 4540.16 2388.57 4558.8C2375.24 4561.44 2361.92 4564.08 2348.2 4566.79C2348.2 4556.24 2348.2 4545.7 2348.2 4534.83C2353.53 4534.83 2358.86 4534.83 2364.35 4534.83C2364.35 4524.28 2364.35 4513.74 2364.35 4502.87C2353.69 4502.87 2343.03 4502.87 2332.05 4502.87C2334.72 4489.68 2337.38 4476.5 2340.12 4462.92C2348.12 4460.28 2356.11 4457.64 2364.35 4454.93C2367.01 4441.74 2369.67 4428.56 2372.42 4414.97Z" fill="#577DA9"/>
<path d="M1161.42 5230C1164.08 5237.91 1166.74 5245.82 1169.49 5253.97C1225.44 5253.97 1281.39 5253.97 1339.03 5253.97C1309.33 5273.57 1294.84 5271.81 1259.46 5271.52C1254.12 5271.49 1248.78 5271.47 1243.28 5271.45C1226.25 5271.36 1209.22 5271.16 1192.2 5270.95C1180.64 5270.87 1169.08 5270.8 1157.52 5270.74C1129.22 5270.56 1100.91 5270.28 1072.61 5269.96C1101.79 5255.41 1131.33 5242.6 1161.42 5230Z" fill="#2B3039"/>
<path d="M1605.45 4958.33C1605.45 4966.24 1605.45 4974.15 1605.45 4982.3C1589.47 4987.57 1573.48 4992.85 1557.01 4998.28C1557.01 5006.19 1557.01 5014.1 1557.01 5022.25C1537.84 5020.25 1537.84 5020.25 1516.64 5014.26C1506.05 4997.78 1506.05 4997.78 1500.5 4982.3C1531.04 4950.75 1564.45 4955.98 1605.45 4958.33Z" fill="#FBF1E7"/>
<path d="M1381.42 5004.77C1391.78 5004.66 1402.15 5004.54 1412.83 5004.43C1444.71 5006.31 1470.61 5011.17 1500.5 5022.25C1508.49 5034.12 1508.49 5034.12 1516.64 5046.22C1489.11 5039.93 1462.64 5031.27 1435.91 5022.25C1433.25 5024.89 1430.58 5027.52 1427.84 5030.24C1406.07 5030.83 1384.51 5030.98 1362.75 5030.74C1356.62 5030.7 1350.5 5030.67 1344.19 5030.63C1329.01 5030.54 1313.84 5030.39 1298.66 5030.24C1298.66 5024.97 1298.66 5019.69 1298.66 5014.26C1327.45 5004.76 1351.07 5004.92 1381.42 5004.77Z" fill="#757A8A"/>
<path d="M1492.42 5230C1588.34 5230 1684.25 5230 1783.06 5230C1783.06 5232.64 1783.06 5235.28 1783.06 5237.99C1729.78 5237.99 1676.5 5237.99 1621.6 5237.99C1621.6 5243.27 1621.6 5248.54 1621.6 5253.97C1589.19 5264.67 1558.51 5263.56 1524.72 5261.97C1500.5 5245.98 1500.5 5245.98 1492.42 5230Z" fill="#20262F"/>
<path d="M2864.89 4934.35C2889.86 4936.12 2899.69 4944.37 2919.39 4960.32C2937.55 4982.3 2937.55 4982.3 2940.08 5004.77C2938.83 5013.42 2938.83 5013.42 2937.55 5022.25C2916.24 5022.25 2894.93 5022.25 2872.97 5022.25C2872.97 5003.61 2872.97 4984.96 2872.97 4966.32C2867.64 4958.41 2862.31 4950.5 2856.82 4942.35C2859.48 4939.71 2862.15 4937.07 2864.89 4934.35Z" fill="#E6D5C7"/>
<path d="M2477.37 4998.28C2477.37 5021.57 2474.07 5040.96 2469.3 5063.7C2467.8 5070.9 2466.3 5078.1 2464.76 5085.52C2463.59 5091.01 2462.43 5096.5 2461.23 5102.16C2447.9 5102.16 2434.58 5102.16 2420.86 5102.16C2418.34 5076.69 2418.34 5076.69 2420.86 5046.22C2438.4 5025.21 2452.72 5010.48 2477.37 4998.28Z" fill="#CFA99D"/>
<path d="M1912.24 4862.44C1932.22 4866.4 1932.22 4866.4 1952.6 4870.43C1955.27 4886.25 1957.93 4902.07 1960.68 4918.37C1981.99 4918.37 2003.31 4918.37 2025.26 4918.37C2027.93 4923.65 2030.59 4928.92 2033.34 4934.35C2001.37 4934.35 1969.4 4934.35 1936.46 4934.35C1912.24 4880.42 1912.24 4880.42 1912.24 4862.44Z" fill="#828798"/>
<path d="M1185.64 4822.49C1180.25 4843.8 1174.87 4865.1 1169.49 4886.41C1145.51 4878.5 1121.53 4870.59 1096.83 4862.44C1119.6 4817.37 1138.3 4821.45 1185.64 4822.49Z" fill="#D9B19F"/>
<path d="M2654.99 4670.67C2675.69 4691.16 2673.77 4700.14 2674.16 4728.6C2673.49 4770.32 2667.31 4791.82 2638.84 4822.49C2633.51 4822.49 2628.18 4822.49 2622.69 4822.49C2622.69 4814.58 2622.69 4806.67 2622.69 4798.52C2630.68 4798.52 2638.68 4798.52 2646.91 4798.52C2646.91 4790.61 2646.91 4782.7 2646.91 4774.55C2638.92 4774.55 2630.93 4774.55 2622.69 4774.55C2628.02 4764 2633.35 4753.45 2638.84 4742.58C2644.17 4742.58 2649.5 4742.58 2654.99 4742.58C2654.99 4718.85 2654.99 4695.12 2654.99 4670.67Z" fill="#415471"/>
<path d="M1670.04 4870.43C1678.03 4873.07 1686.02 4875.7 1694.26 4878.42C1688.93 4894.24 1683.6 4910.06 1678.11 4926.36C1683.44 4931.64 1688.77 4936.91 1694.26 4942.35C1667.72 4948.73 1656.23 4951.11 1629.67 4942.35C1633.54 4907.87 1643.76 4893.08 1670.04 4870.43Z" fill="#7386AC"/>
<path d="M2235.17 4422.96C2273.52 4421.96 2273.52 4421.96 2291.68 4430.95C2291.68 4438.86 2291.68 4446.78 2291.68 4454.93C2238.2 4486.89 2238.2 4486.89 2210.95 4486.89C2208.29 4492.16 2205.62 4497.43 2202.88 4502.87C2183.2 4516.35 2183.2 4516.35 2162.51 4526.84C2157.18 4524.2 2151.85 4521.57 2146.36 4518.85C2155.07 4511.15 2163.83 4503.5 2172.6 4495.88C2179.91 4489.48 2179.91 4489.48 2187.36 4482.95C2215.73 4460.93 2230.64 4454.93 2267.46 4454.93C2267.46 4449.65 2267.46 4444.38 2267.46 4438.94C2256.81 4433.67 2246.15 4428.4 2235.17 4422.96Z" fill="#78A3CF"/>
<path d="M2679.21 5158.09C2679.21 5168.64 2679.21 5179.18 2679.21 5190.05C2660.56 5195.32 2641.91 5200.6 2622.69 5206.03C2609.37 5190.21 2596.05 5174.39 2582.33 5158.09C2617.17 5152 2644.85 5148.81 2679.21 5158.09Z" fill="#DBBFB0"/>
<path d="M2372.42 5006.27C2392.1 5009.27 2392.1 5009.27 2412.79 5014.26C2429.63 5047.6 2427.16 5064.74 2420.86 5102.16C2444.84 5104.79 2468.81 5107.43 2493.52 5110.15C2493.52 5115.42 2493.52 5120.69 2493.52 5126.13C2485.53 5126.13 2477.53 5126.13 2469.3 5126.13C2466.63 5131.4 2463.97 5136.67 2461.23 5142.11C2458.56 5134.2 2455.9 5126.29 2453.15 5118.14C2439.83 5115.5 2426.51 5112.86 2412.79 5110.15C2410.12 5086.41 2407.46 5062.68 2404.71 5038.23C2394.06 5035.59 2383.4 5032.96 2372.42 5030.24C2372.42 5022.33 2372.42 5014.42 2372.42 5006.27Z" fill="#908280"/>
<path d="M2235.17 4702.63C2247.79 4717.11 2247.79 4717.11 2259.39 4734.59C2256.73 4742.5 2254.06 4750.41 2251.32 4758.56C2245.99 4753.29 2240.66 4748.02 2235.17 4742.58C2206.24 4741.25 2206.24 4741.25 2178.66 4742.58C2173.33 4753.13 2168 4763.68 2162.51 4774.55C2170.5 4777.18 2178.5 4779.82 2186.73 4782.54C2163.63 4793.97 2146.9 4787.33 2122.14 4782.54C2127.47 4779.9 2132.8 4777.26 2138.29 4774.55C2138.29 4764 2138.29 4753.45 2138.29 4742.58C2143.62 4742.58 2148.95 4742.58 2154.44 4742.58C2154.44 4737.31 2154.44 4732.04 2154.44 4726.6C2181.08 4726.6 2207.72 4726.6 2235.17 4726.6C2235.17 4718.69 2235.17 4710.78 2235.17 4702.63Z" fill="#D7D8DD"/>
<path d="M2202.88 4454.93C2200.87 4481.81 2193.53 4488.01 2172.6 4506.36C2168.29 4509.68 2163.99 4513 2159.55 4516.42C2140.12 4531.78 2123.31 4549.15 2106 4566.79C2121.11 4524.41 2149.43 4454.93 2202.88 4454.93Z" fill="#D5C9CE"/>
<path d="M1242.15 5206.03C1250.14 5206.03 1258.13 5206.03 1266.37 5206.03C1269.03 5211.31 1271.7 5216.58 1274.44 5222.01C1293.09 5222.01 1311.74 5222.01 1330.96 5222.01C1330.96 5227.29 1330.96 5232.56 1330.96 5237.99C1303.33 5247.11 1281.82 5246.77 1252.75 5246.48C1238.46 5246.38 1238.46 5246.38 1223.89 5246.27C1216.59 5246.17 1209.3 5246.08 1201.78 5245.98C1201.78 5243.35 1201.78 5240.71 1201.78 5237.99C1215.1 5237.99 1228.43 5237.99 1242.15 5237.99C1239.49 5230.08 1236.82 5222.17 1234.08 5214.02C1236.74 5211.39 1239.4 5208.75 1242.15 5206.03Z" fill="#303746"/>
<path d="M1936.46 4806.51C1958.71 4806.65 1979.96 4807.62 2002.05 4809.5C2008.14 4809.96 2014.23 4810.41 2020.5 4810.88C2035.55 4812.01 2050.59 4813.24 2065.63 4814.5C2062.97 4822.41 2060.3 4830.32 2057.56 4838.47C2041.92 4844.96 2041.92 4844.96 2025.26 4846.46C2019.94 4841.19 2014.61 4835.91 2009.12 4830.48C1987.62 4826.78 1987.62 4826.78 1963.71 4825.48C1951.56 4824.59 1951.56 4824.59 1939.17 4823.67C1932.95 4823.28 1926.72 4822.89 1920.31 4822.49C1925.64 4817.21 1930.97 4811.94 1936.46 4806.51Z" fill="#D7C9C6"/>
<path d="M2219.02 4295.12C2224.35 4295.12 2229.68 4295.12 2235.17 4295.12C2232.14 4318.59 2232.14 4318.59 2227.1 4343.06C2219.11 4347.01 2219.11 4347.01 2210.95 4351.05C2196.74 4374.21 2191.21 4396.38 2186.73 4422.96C2181.4 4422.96 2176.07 4422.96 2170.58 4422.96C2169.58 4377.02 2169.58 4377.02 2178.66 4359.04C2183.99 4359.04 2189.31 4359.04 2194.8 4359.04C2203.49 4337.85 2211.71 4316.82 2219.02 4295.12Z" fill="#6EA9D8"/>
<path d="M1403.62 4862.44C1420.95 4889.94 1420.56 4908.56 1416.74 4940.35C1415.84 4948.22 1414.95 4956.09 1414.02 4964.19C1413.25 4970.17 1412.48 4976.14 1411.69 4982.3C1403.7 4982.3 1395.7 4982.3 1387.47 4982.3C1386.46 4938.15 1386.46 4938.15 1392.01 4917.38C1396.27 4899.31 1393.14 4887.89 1387.47 4870.43C1392.8 4867.79 1398.13 4865.16 1403.62 4862.44Z" fill="#DBC9BE"/>
<path d="M1322.88 4806.51C1340.95 4818.4 1340.95 4818.4 1357.7 4832.98C1363.33 4837.72 1368.96 4842.47 1374.76 4847.36C1387.47 4862.44 1387.47 4862.44 1387.47 4894.4C1382.14 4894.4 1376.81 4894.4 1371.32 4894.4C1366.49 4886.99 1361.67 4879.57 1356.69 4871.93C1338.61 4845.85 1326.73 4836.38 1298.66 4822.49C1292.5 4819.36 1286.34 4816.23 1279.99 4813C1275.5 4810.86 1271 4808.71 1266.37 4806.51C1288.6 4795.51 1299.27 4799.7 1322.88 4806.51Z" fill="#1C1D19"/>
<path d="M2154.44 4646.7C2170.42 4646.7 2186.41 4646.7 2202.88 4646.7C2202.88 4657.24 2202.88 4667.79 2202.88 4678.66C2208.21 4681.3 2213.53 4683.93 2219.02 4686.65C2192.38 4686.65 2165.74 4686.65 2138.29 4686.65C2143.62 4673.47 2148.95 4660.28 2154.44 4646.7Z" fill="#D1CFD6"/>
<path d="M1702.33 4846.46C1692.17 4876.63 1681.14 4879.27 1653.89 4894.4C1638.13 4910 1630.9 4922.62 1621.6 4942.35C1614.05 4918.29 1613.16 4911.45 1621.6 4886.41C1626.93 4886.41 1632.25 4886.41 1637.74 4886.41C1637.74 4881.14 1637.74 4875.86 1637.74 4870.43C1661.6 4848.51 1668.22 4846.46 1702.33 4846.46Z" fill="#EEC7B9"/>
<path d="M1912.24 4327.08C1912.24 4334.99 1912.24 4342.9 1912.24 4351.05C1912.4 4358.79 1912.57 4366.54 1912.74 4374.52C1912.32 4395.22 1910.26 4411.34 1904.16 4430.95C1896.17 4428.32 1888.18 4425.68 1879.94 4422.96C1877.26 4389.05 1876.4 4372.18 1896.09 4343.56C1901.42 4338.12 1906.75 4332.68 1912.24 4327.08Z" fill="#DBDBD5"/>
<path d="M2776.09 4910.38C2786.74 4913.02 2797.4 4915.66 2808.38 4918.37C2800.39 4918.37 2792.39 4918.37 2784.16 4918.37C2784.16 4936.83 2784.16 4955.29 2784.16 4974.31C2768.17 4979.58 2752.19 4984.85 2735.72 4990.29C2745.05 4959.03 2754.73 4935.36 2776.09 4910.38Z" fill="#BEB5AE"/>
<path d="M1056.46 4870.43C1061.79 4870.43 1067.12 4870.43 1072.61 4870.43C1071.28 4877.52 1069.95 4884.6 1068.57 4891.91C1065.08 4914.8 1063.92 4935.27 1064.54 4958.33C1064.54 4968.87 1064.54 4979.42 1064.54 4990.29C1052.43 4982.3 1052.43 4982.3 1040.32 4966.32C1037.39 4929.77 1035.28 4901.88 1056.46 4870.43Z" fill="#49545E"/>
<path d="M1896.09 4726.6C1904.08 4729.24 1912.08 4731.88 1920.31 4734.59C1917.65 4745.14 1914.98 4755.69 1912.24 4766.55C1928.22 4766.55 1944.21 4766.55 1960.68 4766.55C1960.68 4771.83 1960.68 4777.1 1960.68 4782.54C1947.36 4782.54 1934.04 4782.54 1920.31 4782.54C1918.56 4791.93 1918.56 4791.93 1916.78 4801.51C1912.24 4822.49 1912.24 4822.49 1904.16 4838.47C1889.7 4797.19 1887.05 4770.47 1896.09 4726.6Z" fill="#EBDFD4"/>
<path d="M2493.52 5110.15C2505.29 5115.3 2517.07 5120.46 2528.84 5125.63C2538.67 5129.94 2538.67 5129.94 2548.71 5134.34C2560.02 5139.37 2571.23 5144.61 2582.33 5150.1C2582.33 5155.37 2582.33 5160.65 2582.33 5166.08C2566.51 5163.61 2550.7 5161.11 2534.89 5158.59C2526.09 5157.2 2517.29 5155.81 2508.21 5154.37C2485.45 5150.1 2485.45 5150.1 2469.3 5142.11C2469.3 5136.83 2469.3 5131.56 2469.3 5126.13C2477.29 5126.13 2485.28 5126.13 2493.52 5126.13C2493.52 5120.85 2493.52 5115.58 2493.52 5110.15Z" fill="#D5AD9D"/>
<path d="M2340.12 5038.23C2329.29 5070.4 2312.49 5077.25 2283.61 5094.17C2278.28 5094.17 2272.95 5094.17 2267.46 5094.17C2269.99 5075.19 2269.99 5075.19 2275.54 5054.21C2301.6 5037.02 2310.12 5036.63 2340.12 5038.23Z" fill="#7E7F8C"/>
<path d="M1637.74 4958.33C1656.39 4958.33 1675.04 4958.33 1694.26 4958.33C1699.59 4971.51 1704.91 4984.7 1710.4 4998.28C1699.66 4996.3 1699.66 4996.3 1688.71 4994.28C1665.71 4990.85 1644.77 4989.61 1621.6 4990.29C1626.93 4979.74 1632.25 4969.19 1637.74 4958.33Z" fill="#F7E9E7"/>
<path d="M2679.21 5150.1C2687.2 5150.1 2695.19 5150.1 2703.43 5150.1C2703.43 5158.01 2703.43 5165.92 2703.43 5174.07C2708.75 5176.71 2714.08 5179.34 2719.57 5182.06C2719.57 5192.61 2719.57 5203.15 2719.57 5214.02C2703.59 5216.66 2687.6 5219.3 2671.13 5222.01C2671.13 5216.74 2671.13 5211.46 2671.13 5206.03C2676.46 5206.03 2681.79 5206.03 2687.28 5206.03C2684.61 5187.57 2681.95 5169.12 2679.21 5150.1Z" fill="#5A5F79"/>
<path d="M2864.89 5030.24C2859.51 5046.22 2854.13 5062.2 2848.75 5078.18C2844.42 5075.71 2840.09 5073.24 2835.63 5070.69C2813.24 5060.78 2792.23 5057.48 2768.01 5054.21C2776.09 5038.23 2776.09 5038.23 2792.2 5032.89C2798.71 5031.52 2805.21 5030.15 2811.91 5028.74C2818.39 5027.31 2824.88 5025.88 2831.56 5024.4C2848.75 5022.25 2848.75 5022.25 2864.89 5030.24Z" fill="#E2BFB2"/>
<path d="M1411.69 4910.38C1414.35 4910.38 1417.02 4910.38 1419.76 4910.38C1422.43 4931.48 1425.09 4952.57 1427.84 4974.31C1441.16 4976.94 1454.48 4979.58 1468.2 4982.3C1468.2 4984.93 1468.2 4987.57 1468.2 4990.29C1425.58 4990.29 1382.95 4990.29 1339.03 4990.29C1339.03 4987.65 1339.03 4985.01 1339.03 4982.3C1363.01 4982.3 1386.99 4982.3 1411.69 4982.3C1411.69 4958.57 1411.69 4934.83 1411.69 4910.38Z" fill="#F7DACD"/>
<path d="M1823.43 4654.69C1831.42 4654.69 1839.42 4654.69 1847.65 4654.69C1847.65 4667.87 1847.65 4681.06 1847.65 4694.64C1852.98 4697.28 1858.31 4699.91 1863.8 4702.63C1845.15 4705.27 1826.5 4707.9 1807.28 4710.62C1806.27 4691.64 1806.27 4691.64 1807.28 4670.67C1812.61 4665.4 1817.94 4660.12 1823.43 4654.69Z" fill="#F3DECF"/>
<path d="M1322.88 5006.27C1341.89 5005.83 1360.89 5005.52 1379.9 5005.27C1395.78 5004.99 1395.78 5004.99 1411.97 5004.71C1444.36 5006.29 1470.19 5010.94 1500.5 5022.25C1508.49 5034.12 1508.49 5034.12 1516.64 5046.22C1497.99 5041.96 1480.63 5036.86 1462.65 5030.24C1433.32 5021.48 1406.92 5018.97 1376.37 5017.26C1366.32 5016.66 1356.26 5016.06 1345.9 5015.45C1334.51 5014.86 1334.51 5014.86 1322.88 5014.26C1322.88 5011.62 1322.88 5008.99 1322.88 5006.27Z" fill="#9C8689"/>
<path d="M1435.91 4782.54C1441.24 4785.17 1446.57 4787.81 1452.06 4790.53C1454.08 4835.47 1454.08 4835.47 1435.91 4862.44C1427.92 4859.8 1419.92 4857.17 1411.69 4854.45C1419.68 4830.72 1427.68 4806.99 1435.91 4782.54Z" fill="#D0BEB5"/>
<path d="M1363.25 4926.36C1368.58 4926.36 1373.91 4926.36 1379.4 4926.36C1379.4 4944.82 1379.4 4963.28 1379.4 4982.3C1366.08 4982.3 1352.75 4982.3 1339.03 4982.3C1345.09 4944.34 1345.09 4944.34 1363.25 4926.36Z" fill="#FAF4E9"/>
<path d="M1064.54 4990.29C1069.86 4990.29 1075.19 4990.29 1080.68 4990.29C1080.68 4995.56 1080.68 5000.84 1080.68 5006.27C1088.68 5008.91 1096.67 5011.54 1104.9 5014.26C1104.9 5019.53 1104.9 5024.81 1104.9 5030.24C1094.41 5030.98 1094.41 5030.98 1083.71 5031.74C1048.71 5040.08 1034.17 5054.15 1008.02 5078.18C1017.27 5054.89 1025.03 5045.55 1045.36 5029.74C1051.69 5024.63 1058.02 5019.52 1064.54 5014.26C1064.54 5006.35 1064.54 4998.44 1064.54 4990.29Z" fill="#424D5D"/>
<path d="M2955.21 4861.94C2962.49 4862.01 2969.76 4862.09 2977.26 4862.16C2982.8 4862.25 2988.35 4862.34 2994.07 4862.44C2994.07 4865.08 2994.07 4867.71 2994.07 4870.43C2989.38 4870.54 2984.7 4870.66 2979.88 4870.77C2944.55 4872.91 2920.91 4875.26 2894.16 4899.4C2887.17 4905.66 2880.17 4911.92 2872.97 4918.37C2864.97 4915.74 2856.98 4913.1 2848.75 4910.38C2884.36 4873.23 2903.68 4861.28 2955.21 4861.94Z" fill="#435062"/>
<path d="M1815.36 4718.61C1828.68 4721.25 1842 4723.89 1855.72 4726.6C1855.72 4731.88 1855.72 4737.15 1855.72 4742.58C1861.05 4742.58 1866.38 4742.58 1871.87 4742.58C1869.21 4750.49 1866.54 4758.4 1863.8 4766.55C1809.3 4751.57 1809.3 4751.57 1791.14 4742.58C1799.13 4739.95 1807.12 4737.31 1815.36 4734.59C1815.36 4729.32 1815.36 4724.04 1815.36 4718.61Z" fill="#C99F93"/>
<path d="M3107.09 5222.01C3138.98 5226.42 3166.43 5233.11 3195.9 5245.98C3190.57 5251.26 3185.24 5256.53 3179.75 5261.96C3162.28 5261.78 3162.28 5261.78 3142.41 5258.97C3135.82 5258.08 3129.22 5257.2 3122.42 5256.28C3117.36 5255.52 3112.3 5254.76 3107.09 5253.97C3107.09 5243.43 3107.09 5232.88 3107.09 5222.01Z" fill="#2D3648"/>
<path d="M2207.42 4734.09C2216.58 4734.26 2225.74 4734.42 2235.17 4734.59C2219.19 4742.5 2219.19 4742.5 2202.88 4750.57C2202.88 4761.12 2202.88 4771.67 2202.88 4782.54C2189.56 4779.9 2176.24 4777.26 2162.51 4774.55C2171.6 4734.72 2171.6 4734.72 2207.42 4734.09Z" fill="#7F90B1"/>
<path d="M1710.4 4966.32C1713.07 4971.59 1715.73 4976.86 1718.48 4982.3C1723.81 4982.3 1729.13 4982.3 1734.62 4982.3C1739.95 4995.48 1745.28 5008.67 1750.77 5022.25C1732.12 5024.89 1713.47 5027.52 1694.26 5030.24C1694.26 5022.33 1694.26 5014.42 1694.26 5006.27C1702.25 5006.27 1710.24 5006.27 1718.48 5006.27C1713.15 4995.72 1707.82 4985.17 1702.33 4974.31C1704.99 4971.67 1707.66 4969.03 1710.4 4966.32Z" fill="#7D8397"/>
<path d="M2921.41 4974.31C2926.73 4976.94 2932.06 4979.58 2937.55 4982.3C2937.55 4995.48 2937.55 5008.67 2937.55 5022.25C2916.24 5022.25 2894.93 5022.25 2872.97 5022.25C2872.97 5009.07 2872.97 4995.88 2872.97 4982.3C2878.29 4982.3 2883.62 4982.3 2889.11 4982.3C2891.78 4987.57 2894.44 4992.85 2897.19 4998.28C2902.51 4998.28 2907.84 4998.28 2913.33 4998.28C2916 4990.37 2918.66 4982.46 2921.41 4974.31Z" fill="#E5C9B8"/>
<path d="M2138.29 4886.41C2128.55 4891.6 2128.55 4891.6 2118.61 4896.9C2095.68 4908.82 2095.68 4908.82 2089.85 4934.35C2081.86 4931.72 2073.87 4929.08 2065.63 4926.36C2068.3 4913.18 2070.96 4900 2073.7 4886.41C2120.13 4877.42 2120.13 4877.42 2138.29 4886.41Z" fill="#7C8497"/>
<path d="M2009.12 4838.47C2019.77 4843.74 2030.43 4849.02 2041.41 4854.45C2041.41 4859.72 2041.41 4865 2041.41 4870.43C2012.1 4873.07 1982.8 4875.7 1952.6 4878.42C1949.94 4870.51 1947.28 4862.6 1944.53 4854.45C1968.51 4857.09 1992.49 4859.72 2017.19 4862.44C2014.53 4854.53 2011.86 4846.62 2009.12 4838.47Z" fill="#F0DCCD"/>
<path d="M2089.85 4678.66C2095.18 4683.93 2100.51 4689.21 2106 4694.64C2122.7 4699.77 2122.7 4699.77 2138.29 4702.63C2138.29 4697.36 2138.29 4692.08 2138.29 4686.65C2162.27 4686.65 2186.25 4686.65 2210.95 4686.65C2210.95 4689.29 2210.95 4691.92 2210.95 4694.64C2168.62 4708.61 2134.47 4712.17 2089.85 4710.62C2089.85 4700.07 2089.85 4689.53 2089.85 4678.66Z" fill="#EAE8E8"/>
<path d="M2186.73 4247.17C2192.06 4247.17 2197.39 4247.17 2202.88 4247.17C2197.33 4266.65 2197.33 4266.65 2186.73 4287.13C2165.54 4293.62 2165.54 4293.62 2146.36 4295.12C2143.7 4284.57 2141.04 4274.02 2138.29 4263.15C2148.03 4261.42 2148.03 4261.42 2157.97 4259.66C2178.02 4257.23 2178.02 4257.23 2186.73 4247.17Z" fill="#D3D4D3"/>
<path d="M999.949 5078.18C1014.16 5099.29 1020.35 5109.94 1024.17 5134.12C1021.51 5142.03 1018.84 5149.94 1016.1 5158.09C1019.24 5175.21 1019.24 5175.21 1024.17 5190.05C1012.15 5180.91 1012.15 5180.91 999.949 5166.08C997.584 5144.51 997.584 5144.51 998.436 5120.63C998.654 5112.69 998.873 5104.75 999.098 5096.57C999.379 5090.5 999.66 5084.43 999.949 5078.18Z" fill="#424B58"/>
<path d="M2041.41 4862.44C2054.03 4871.93 2054.03 4871.93 2065.63 4886.41C2063.11 4907.89 2063.11 4907.89 2057.56 4926.36C2041.57 4921.09 2025.59 4915.82 2009.12 4910.38C2019.77 4907.75 2030.43 4905.11 2041.41 4902.39C2041.41 4889.21 2041.41 4876.02 2041.41 4862.44Z" fill="#DBB3A9"/>
<path d="M1783.06 4654.69C1805.65 4671.21 1807.5 4679.81 1812.83 4708.12C1813.67 4716.86 1814.5 4725.59 1815.36 4734.59C1807.36 4734.59 1799.37 4734.59 1791.14 4734.59C1778.16 4708.91 1782.6 4683.17 1783.06 4654.69Z" fill="#DECBC3"/>
<path d="M1686.18 4998.28C1675.42 5003.61 1664.65 5008.93 1653.89 5014.26C1648.56 5017.39 1643.23 5020.52 1637.74 5023.75C1618.14 5031.63 1608.89 5029.17 1589.3 5022.25C1619.67 4992.2 1645.6 4996.27 1686.18 4998.28Z" fill="#837E8B"/>
<path d="M1670.04 4870.43C1678.03 4873.07 1686.02 4875.7 1694.26 4878.42C1686.26 4881.06 1678.27 4883.7 1670.04 4886.41C1670.04 4896.96 1670.04 4907.51 1670.04 4918.37C1659.38 4918.37 1648.72 4918.37 1637.74 4918.37C1635.08 4926.28 1632.42 4934.2 1629.67 4942.35C1633.54 4907.87 1643.76 4893.08 1670.04 4870.43Z" fill="#988FA4"/>
<path d="M2292.19 4257.16C2315.9 4271.14 2315.9 4271.14 2332.05 4295.12C2293.7 4289.12 2293.7 4289.12 2275.54 4271.14C2264.9 4265.57 2254.15 4260.2 2243.24 4255.16C2267.46 4247.17 2267.46 4247.17 2292.19 4257.16Z" fill="#668DB5"/>
<path d="M2646.91 5150.1C2657.57 5152.73 2668.23 5155.37 2679.21 5158.09C2676.54 5168.64 2673.88 5179.18 2671.13 5190.05C2647.15 5186.09 2647.15 5186.09 2622.69 5182.06C2622.69 5176.79 2622.69 5171.51 2622.69 5166.08C2630.68 5166.08 2638.68 5166.08 2646.91 5166.08C2646.91 5160.8 2646.91 5155.53 2646.91 5150.1Z" fill="#F8EBDB"/>
<path d="M2721.09 5045.72C2728.36 5047.28 2735.64 5048.83 2743.13 5050.44C2748.68 5051.68 2754.22 5052.93 2759.94 5054.21C2759.94 5056.85 2759.94 5059.49 2759.94 5062.2C2722.64 5062.2 2685.34 5062.2 2646.91 5062.2C2663.32 5029.72 2690.7 5039.08 2721.09 5045.72Z" fill="#E4CCC0"/>
<path d="M1831.5 4854.45C1871.47 4862.36 1871.47 4862.36 1912.24 4870.43C1901.58 4878.34 1890.92 4886.25 1879.94 4894.4C1879.94 4886.49 1879.94 4878.58 1879.94 4870.43C1859.98 4873.18 1859.98 4873.18 1839.58 4878.42C1836.91 4883.7 1834.25 4888.97 1831.5 4894.4C1831.5 4881.22 1831.5 4868.03 1831.5 4854.45Z" fill="#7D849E"/>
<path d="M2622.69 4742.58C2628.02 4745.22 2633.35 4747.86 2638.84 4750.57C2630.85 4762.44 2630.85 4762.44 2622.69 4774.55C2630.68 4774.55 2638.68 4774.55 2646.91 4774.55C2646.91 4782.46 2646.91 4790.37 2646.91 4798.52C2633.59 4798.52 2620.27 4798.52 2606.55 4798.52C2606.55 4773.7 2610.9 4763.74 2622.69 4742.58Z" fill="#466386"/>
<path d="M1443.98 4838.47C1450.04 4852.45 1450.04 4852.45 1452.06 4870.43C1436.41 4888.41 1436.41 4888.41 1419.76 4902.39C1417.1 4889.21 1414.43 4876.02 1411.69 4862.44C1419.68 4859.8 1427.68 4857.17 1435.91 4854.45C1438.57 4849.18 1441.24 4843.9 1443.98 4838.47Z" fill="#F0E3DD"/>
<path d="M2235.17 4702.63C2247.79 4717.11 2247.79 4717.11 2259.39 4734.59C2256.73 4742.5 2254.06 4750.41 2251.32 4758.56C2245.99 4753.29 2240.66 4748.02 2235.17 4742.58C2213.47 4740.43 2192.45 4741.88 2170.58 4742.58C2170.58 4737.31 2170.58 4732.04 2170.58 4726.6C2191.9 4726.6 2213.21 4726.6 2235.17 4726.6C2235.17 4718.69 2235.17 4710.78 2235.17 4702.63Z" fill="#D8DEED"/>
<path d="M1823.43 4478.9C1826.1 4478.9 1828.76 4478.9 1831.5 4478.9C1832.48 4484.29 1833.46 4489.69 1834.47 4495.25C1835.82 4502.38 1837.17 4509.51 1838.57 4516.85C1839.88 4523.9 1841.19 4530.94 1842.54 4538.2C1847.39 4557.76 1853.95 4573.23 1863.8 4590.76C1839.58 4582.77 1839.58 4582.77 1830.05 4568.67C1822.67 4548.76 1821.79 4533.98 1822.42 4512.86C1822.57 4506.47 1822.71 4500.08 1822.86 4493.5C1823.05 4488.68 1823.24 4483.86 1823.43 4478.9Z" fill="#897F77"/>
<path d="M1492.42 5014.26C1513.95 5024.91 1535.48 5035.57 1557.01 5046.22C1557.01 5040.95 1557.01 5035.67 1557.01 5030.24C1562.34 5030.24 1567.67 5030.24 1573.16 5030.24C1570.49 5038.15 1567.83 5046.06 1565.08 5054.21C1548.43 5059.71 1548.43 5059.71 1532.79 5062.2C1519.47 5046.38 1506.15 5030.56 1492.42 5014.26Z" fill="#D6ABA6"/>
<path d="M2372.42 5006.27C2392.4 5010.22 2392.4 5010.22 2412.79 5014.26C2412.79 5032.72 2412.79 5051.18 2412.79 5070.19C2410.12 5059.65 2407.46 5049.1 2404.71 5038.23C2394.06 5035.59 2383.4 5032.96 2372.42 5030.24C2372.42 5022.33 2372.42 5014.42 2372.42 5006.27Z" fill="#7F7F8C"/>
<path d="M1952.6 4878.42C1968.59 4878.42 1984.57 4878.42 2001.04 4878.42C2003.71 4886.33 2006.37 4894.24 2009.12 4902.39C1993.13 4905.03 1977.15 4907.67 1960.68 4910.38C1958.01 4899.84 1955.35 4889.29 1952.6 4878.42Z" fill="#E0BEAC"/>
<path d="M1177.56 4846.46C1180.23 4854.37 1182.89 4862.28 1185.64 4870.43C1205.86 4880.17 1205.86 4880.17 1226 4886.41C1223.34 4891.69 1220.67 4896.96 1217.93 4902.39C1204.61 4899.76 1191.29 4897.12 1177.56 4894.4C1174.48 4881.17 1171.8 4867.84 1169.49 4854.45C1172.15 4851.81 1174.82 4849.18 1177.56 4846.46Z" fill="#E9C1AC"/>
<path d="M2235.68 4230.69C2247.42 4230.94 2247.42 4230.94 2259.39 4231.19C2262.06 4239.1 2264.72 4247.01 2267.46 4255.16C2259.47 4255.16 2251.48 4255.16 2243.24 4255.16C2240.58 4260.44 2237.92 4265.71 2235.17 4271.14C2235.17 4263.23 2235.17 4255.32 2235.17 4247.17C2224.51 4244.54 2213.86 4241.9 2202.88 4239.18C2210.95 4231.19 2210.95 4231.19 2235.68 4230.69Z" fill="#B3BBBF"/>
<path d="M2461.23 5150.1C2490.53 5150.1 2519.84 5150.1 2550.03 5150.1C2542.04 5152.73 2534.05 5155.37 2525.81 5158.09C2525.81 5163.36 2525.81 5168.64 2525.81 5174.07C2498.57 5169.7 2484.78 5165.64 2461.23 5150.1Z" fill="#656373"/>
<path d="M1557.01 4998.28C1562.34 4998.28 1567.67 4998.28 1573.16 4998.28C1573.16 5008.83 1573.16 5019.37 1573.16 5030.24C1567.83 5030.24 1562.5 5030.24 1557.01 5030.24C1557.01 5035.51 1557.01 5040.79 1557.01 5046.22C1546.35 5043.58 1535.7 5040.95 1524.72 5038.23C1527.38 5030.32 1530.05 5022.41 1532.79 5014.26C1540.78 5016.9 1548.78 5019.53 1557.01 5022.25C1557.01 5014.34 1557.01 5006.43 1557.01 4998.28Z" fill="#EDCCBB"/>
<path d="M2267.46 4438.94C2267.46 4444.22 2267.46 4449.49 2267.46 4454.93C2246.15 4460.2 2224.84 4465.47 2202.88 4470.91C2202.88 4463 2202.88 4455.09 2202.88 4446.94C2226.52 4439.14 2242.89 4438.29 2267.46 4438.94Z" fill="#CFC2C5"/>
<path d="M2600.49 5044.22C2611.48 5045.21 2611.48 5045.21 2622.69 5046.22C2622.69 5048.86 2622.69 5051.5 2622.69 5054.21C2609.37 5056.85 2596.05 5059.49 2582.33 5062.2C2579.66 5070.11 2577 5078.02 2574.25 5086.17C2563.6 5083.54 2552.94 5080.9 2541.96 5078.18C2561.42 5054.48 2568.98 5046.62 2600.49 5044.22Z" fill="#EADFD1"/>
<path d="M1250.22 4814.5C1273.43 4813.5 1273.43 4813.5 1298.66 4814.5C1303.99 4819.77 1309.32 4825.05 1314.81 4830.48C1300.68 4839.47 1300.68 4839.47 1282.52 4846.46C1264.35 4839.47 1264.35 4839.47 1250.22 4830.48C1250.22 4825.2 1250.22 4819.93 1250.22 4814.5Z" fill="#E7E3DD"/>
<path d="M2219.02 4295.12C2224.35 4295.12 2229.68 4295.12 2235.17 4295.12C2233.15 4318.09 2233.15 4318.09 2227.1 4343.06C2210.45 4354.05 2210.45 4354.05 2194.8 4359.04C2197.3 4352.94 2199.8 4346.84 2202.37 4340.56C2208.36 4325.58 2213.88 4310.4 2219.02 4295.12Z" fill="#82ABD3"/>
<path d="M2630.77 5102.16C2633.43 5102.16 2636.09 5102.16 2638.84 5102.16C2638.84 5115.34 2638.84 5128.52 2638.84 5142.11C2649.5 5144.74 2660.15 5147.38 2671.13 5150.1C2652.48 5152.74 2633.83 5155.37 2614.62 5158.09C2619.95 5139.63 2625.28 5121.17 2630.77 5102.16Z" fill="#787684"/>
<path d="M2663.06 4998.28C2679.37 5003.09 2695.52 5008.45 2711.5 5014.26C2714.16 5019.53 2716.83 5024.81 2719.57 5030.24C2706.25 5030.24 2692.93 5030.24 2679.21 5030.24C2673.88 5019.69 2668.55 5009.15 2663.06 4998.28Z" fill="#F4F0E7"/>
<path d="M2154.44 4646.7C2170.42 4646.7 2186.41 4646.7 2202.88 4646.7C2202.88 4657.24 2202.88 4667.79 2202.88 4678.66C2192.22 4678.66 2181.56 4678.66 2170.58 4678.66C2170.58 4673.39 2170.58 4668.11 2170.58 4662.68C2165.26 4657.4 2159.93 4652.13 2154.44 4646.7Z" fill="#929EBC"/>
<path d="M2089.85 4494.88C2095.18 4494.88 2100.51 4494.88 2106 4494.88C2106 4508.06 2106 4521.25 2106 4534.83C2095.34 4534.83 2084.68 4534.83 2073.7 4534.83C2080.77 4503.87 2080.77 4503.87 2089.85 4494.88Z" fill="#CDD0DB"/>
</g>
<defs>
<clipPath id="clip0_13_5">
<rect width="7437" height="5288" fill="white"/>
</clipPath>
</defs>
</svg>
