<svg width="7437" height="5288" viewBox="0 0 7437 5288" fill="none" xmlns="http://www.w3.org/2000/svg">
<g clip-path="url(#clip0_18_908)">
<path d="M7476.91 388.905C7557.5 439.709 7609.18 509.203 7617.33 583.193C7613.15 658.446 7581.45 732.658 7552.46 805.136C7572.48 807.736 7592.49 810.336 7613.11 813.015C7655.88 820.264 7677.32 824.81 7711.53 843.871C7733.35 877.188 7730.57 905.843 7727.43 941.692C7753.68 941.692 7779.93 941.692 7806.97 941.692C7809.59 934.976 7812.22 928.26 7814.92 921.34C7838.78 899.675 7838.78 899.675 7896.44 887.201C7958.61 883.892 7989.57 895.822 8037.61 921.34C8079.79 948.54 8092.22 956.707 8099.25 996.183C8096.3 1010.81 8096.3 1010.81 8093.28 1025.73C8107.57 1049.91 8107.57 1049.91 8125.1 1067.74C8083.33 1114.74 8058 1132.77 7981.94 1151.78C7967.83 1173.22 7967.83 1173.22 7966.03 1193.79C7983.42 1193.14 8000.81 1192.49 8018.72 1191.82C8077.38 1193.79 8077.38 1193.79 8108.2 1207.58C8125.1 1225.31 8125.1 1225.31 8125.1 1256.82C8134.61 1257.9 8144.13 1258.99 8153.93 1260.1C8196.71 1268.98 8211.95 1273.77 8236.44 1298.84C8248 1375.18 8221.52 1423.91 8156.91 1487.91C8124.91 1491.16 8124.91 1491.16 8085.77 1490.25C8071.44 1490.06 8057.12 1489.86 8042.37 1489.66C8027.35 1489.3 8012.33 1488.94 7996.85 1488.57C7897.93 1486.41 7810.22 1487.71 7714.06 1503.8C7657.67 1512.21 7601.12 1513.78 7543.52 1515.49C7532.02 1515.89 7520.53 1516.3 7508.69 1516.72C7480.87 1517.69 7453.04 1518.57 7425.21 1519.43C7425.21 1526.36 7425.21 1533.29 7425.21 1540.44C7271.13 1551.41 7118.64 1552.03 6963.92 1550.94C6963.92 1544.01 6963.92 1537.07 6963.92 1529.93C7000.67 1519.53 7037.41 1509.13 7075.27 1498.42C7051.65 1493.22 7051.65 1493.22 7027.55 1487.91C7027.55 1477.51 7027.55 1467.12 7027.55 1456.4C6948.81 1456.4 6870.07 1456.4 6788.95 1456.4C6788.95 1463.33 6788.95 1470.27 6788.95 1477.41C6622.74 1496.89 6464.09 1500.84 6295.85 1498.42C6295.85 1505.35 6295.85 1512.28 6295.85 1519.43C6285.35 1519.43 6274.85 1519.43 6264.03 1519.43C6264.03 1526.36 6264.03 1533.29 6264.03 1540.44C6290.55 1538.16 6290.55 1538.16 6317.59 1535.84C6443.7 1525.34 6566.14 1516.76 6693.51 1519.43C6693.51 1526.36 6693.51 1533.29 6693.51 1540.44C6545.64 1560.85 6402.73 1564.03 6252.1 1562.76C6229.98 1562.65 6207.86 1562.56 6185.74 1562.47C6132.31 1562.22 6078.87 1561.88 6025.44 1561.44C6025.44 1554.51 6025.44 1547.58 6025.44 1540.44C6056.93 1535.24 6056.93 1535.24 6089.06 1529.93C6079.36 1530.26 6069.66 1530.59 6059.66 1530.93C6015.45 1532.25 5971.25 1533.06 5927.01 1533.87C5904.12 1534.66 5904.12 1534.66 5880.76 1535.47C5769.89 1536.99 5769.89 1536.99 5726.49 1516.38C5696.67 1493.58 5675.07 1476.2 5676.49 1445.24C5681.41 1438.52 5686.33 1431.81 5691.4 1424.89C5696.98 1415.36 5702.55 1405.82 5708.3 1396C5713.22 1388.2 5718.14 1380.4 5723.21 1372.37C5706.15 1373.45 5689.09 1374.53 5671.52 1375.65C5611.87 1372.37 5611.87 1372.37 5574.09 1348.08C5517.85 1286.66 5519.6 1221.62 5532.33 1151.78C5569.84 1089.28 5623.49 1043.04 5707.31 1004.72C5720.1 994.968 5732.9 985.219 5746.08 975.174C5786.84 952.196 5786.84 952.196 5834.56 950.883C5882.28 962.7 5882.28 962.7 5921.05 989.618C5959.81 1019.33 5959.81 1019.33 6022.45 1018.5C6039.19 1017.42 6055.92 1016.34 6073.16 1015.22C6071.84 1005.26 6070.53 995.29 6069.18 985.022C6069.18 930.628 6103.17 885.372 6136.78 836.649C6142.11 828.511 6147.44 820.373 6152.94 811.989C6191.37 756.495 6191.37 756.495 6230.23 739.813C6264.03 731.607 6264.03 731.607 6327.66 731.607C6330 723.726 6332.34 715.845 6334.74 707.726C6373.07 592.24 6433.59 511.896 6579.8 441.426C6670.47 403.106 6745.17 397.135 6852.58 405.974C6907.08 429.97 6918.36 449.232 6932.11 490.008C6949.39 482.595 6949.39 482.595 6967.03 475.032C7291.41 337.079 7291.41 337.079 7476.91 388.905Z" fill="#5C7799"/>
<path d="M7377.49 384.965C7377.49 388.432 7377.49 391.898 7377.49 395.47C7340.75 398.936 7304 402.402 7266.15 405.974C7250.2 437.568 7245.42 464.149 7241.29 497.23C7239.29 512.89 7239.29 512.89 7237.25 528.866C7236.29 536.841 7235.33 544.817 7234.33 553.034C7221.21 549.567 7208.09 546.101 7194.57 542.529C7119.47 528.36 7052.87 525.219 6975.85 537.934C6906.66 575.468 6882.09 621.668 6872.46 678.428C6870.88 692.641 6869.46 706.865 6868.48 721.102C6884.23 721.102 6899.98 721.102 6916.2 721.102C6919.81 714.386 6923.42 707.67 6927.14 700.75C6948.02 679.085 6948.02 679.085 6989.77 671.207C7002.24 670.34 7014.7 669.473 7027.55 668.581C7105.09 728.98 7105.09 728.98 7122.99 752.615C7146.61 757.814 7146.61 757.814 7170.71 763.119C7194.22 794.176 7187.57 823.438 7186.61 857.657C7181.36 850.725 7176.12 843.792 7170.71 836.649C7160.21 836.649 7149.71 836.649 7138.89 836.649C7138.89 829.716 7138.89 822.783 7138.89 815.64C7128.4 815.64 7117.9 815.64 7107.08 815.64C7099.21 794.842 7099.21 794.842 7091.17 773.623C7022.94 766.69 6954.7 759.758 6884.39 752.615C6884.39 759.548 6884.39 766.48 6884.39 773.623C6874.2 775.925 6864.01 778.227 6853.51 780.599C6721.79 812.488 6614.09 855.755 6550.35 941.692C6552.48 981.4 6552.48 981.4 6566.26 1015.22C6608.25 1018.69 6650.25 1022.15 6693.51 1025.73C6671.73 1056.71 6647.73 1083.76 6613.98 1109.76C6603.48 1109.76 6592.98 1109.76 6582.17 1109.76C6582.17 1116.69 6582.17 1123.63 6582.17 1130.77C6571.67 1130.77 6561.17 1130.77 6550.35 1130.77C6555.6 1109.97 6560.85 1089.17 6566.26 1067.74C6501.73 1089.62 6466 1106.74 6439.01 1151.78C6435.21 1190.45 6436.24 1228.64 6439.01 1267.32C6400.4 1257.33 6363.1 1247.62 6326.67 1234.5C6291.82 1222.42 6291.82 1222.42 6232.22 1225.31C6242.72 1239.17 6253.22 1253.04 6264.04 1267.32C6224.3 1251.59 6186.73 1235.65 6152.69 1214.8C6145.73 1185.26 6145.73 1185.26 6152.69 1162.28C6040.9 1151.37 6040.9 1151.37 5930 1162.28C5924.75 1172.68 5919.5 1183.08 5914.09 1193.79C5894.41 1188.92 5894.41 1188.92 5874.33 1183.95C5812.43 1171.54 5755.64 1166.67 5691.4 1162.28C5691.4 1158.81 5691.4 1155.35 5691.4 1151.78C5633.73 1149.66 5598.11 1153.27 5548.24 1172.79C5557.5 1108.61 5591.83 1066.82 5666.55 1025.07C5680 1018.35 5693.45 1011.64 5707.31 1004.72C5720.1 994.968 5732.9 985.219 5746.08 975.174C5786.84 952.196 5786.84 952.196 5834.56 950.883C5882.28 962.7 5882.28 962.7 5921.05 989.617C5959.81 1019.33 5959.81 1019.33 6022.45 1018.5C6039.19 1017.42 6055.92 1016.34 6073.16 1015.22C6071.84 1005.26 6070.53 995.29 6069.18 985.022C6069.18 930.627 6103.17 885.372 6136.78 836.649C6142.11 828.511 6147.45 820.373 6152.94 811.988C6191.37 756.494 6191.37 756.494 6230.23 739.813C6264.04 731.606 6264.04 731.606 6327.66 731.606C6330 723.726 6332.34 715.845 6334.74 707.725C6373.07 592.24 6433.59 511.895 6579.8 441.426C6670.47 403.106 6745.17 397.134 6852.58 405.974C6907.08 429.969 6918.36 449.231 6932.11 490.008C6949.39 482.595 6949.39 482.595 6967.03 475.031C7013.49 455.272 7060.26 435.858 7107.08 416.478C7122.83 409.762 7138.58 403.046 7154.8 396.126C7228.12 378.978 7300.51 382.523 7377.49 384.965Z" fill="#FCF7ED"/>
<path d="M7377.49 384.965C7377.49 388.432 7377.49 391.898 7377.49 395.47C7340.75 398.936 7304 402.402 7266.15 405.974C7250.2 437.568 7245.42 464.149 7241.29 497.23C7239.96 507.67 7238.63 518.109 7237.25 528.866C7235.81 540.829 7235.81 540.829 7234.33 553.034C7221.21 549.567 7208.09 546.101 7194.57 542.529C7119.47 528.36 7052.87 525.219 6975.85 537.934C6906.66 575.468 6882.08 621.668 6872.46 678.428C6870.88 692.641 6869.46 706.865 6868.48 721.102C6884.23 721.102 6899.98 721.102 6916.2 721.102C6919.81 714.386 6923.42 707.67 6927.14 700.75C6948.01 679.085 6948.01 679.085 6989.77 671.207C7002.24 670.34 7014.7 669.473 7027.55 668.581C7105.09 728.98 7105.09 728.98 7122.99 752.615C7138.73 756.081 7154.48 759.548 7170.71 763.119C7194.22 794.176 7187.57 823.438 7186.61 857.657C7181.36 850.725 7176.11 843.792 7170.71 836.649C7160.21 836.649 7149.71 836.649 7138.89 836.649C7138.89 829.716 7138.89 822.783 7138.89 815.64C7128.39 815.64 7117.9 815.64 7107.08 815.64C7099.21 794.842 7099.21 794.842 7091.17 773.623C7022.93 766.69 6954.7 759.758 6884.39 752.615C6884.39 759.548 6884.39 766.48 6884.39 773.623C6874.2 775.925 6864.01 778.227 6853.51 780.599C6721.79 812.488 6614.09 855.755 6550.35 941.692C6552.47 981.4 6552.47 981.4 6566.26 1015.22C6608.25 1018.69 6650.24 1022.15 6693.51 1025.73C6671.73 1056.71 6647.73 1083.76 6613.98 1109.76C6603.48 1109.76 6592.98 1109.76 6582.16 1109.76C6582.16 1116.69 6582.16 1123.63 6582.16 1130.77C6571.67 1130.77 6561.17 1130.77 6550.35 1130.77C6555.6 1109.97 6560.85 1089.17 6566.26 1067.74C6501.73 1089.62 6466 1106.74 6439.01 1151.78C6435.21 1190.45 6436.24 1228.64 6439.01 1267.32C6392.64 1256.04 6363 1248.65 6327.66 1225.31C6343.41 1220.11 6343.41 1220.11 6359.47 1214.8C6371.63 1191.55 6371.63 1191.55 6381.34 1164.25C6399.73 1121.75 6413.3 1093.44 6470.82 1067.74C6514.56 1059.86 6514.56 1059.86 6550.35 1057.24C6542.62 1053.08 6534.89 1048.92 6526.93 1044.64C6487.74 1014.13 6495.07 985.334 6497.35 946.78C6512.16 873.615 6608.35 829.606 6686.55 782.609C6722.85 764.364 6744.47 756.762 6788.95 752.615C6788.95 745.682 6788.95 738.749 6788.95 731.606C6804.7 731.606 6820.44 731.606 6836.67 731.606C6834.78 725.364 6832.9 719.122 6830.95 712.69C6812.82 635.716 6837.08 581.54 6884.39 511.017C6852.89 514.483 6821.4 517.949 6788.95 521.521C6784.97 497.23 6784.97 497.23 6788.95 469C6820.76 449.961 6820.76 449.961 6852.58 437.487C6835.31 423.699 6835.31 423.699 6793.36 425.957C6775.83 426.078 6758.3 426.2 6740.24 426.326C6722.66 426.421 6705.09 426.515 6686.99 426.613C6673.39 426.735 6659.8 426.857 6645.79 426.982C6686.89 399.839 6705.98 402.54 6763.1 402.035C6845.9 403.037 6845.9 403.037 6894.33 424.356C6915.34 447.064 6923.46 464.365 6932.11 490.008C6943.63 485.066 6955.16 480.123 6967.03 475.031C7013.49 455.272 7060.25 435.858 7107.08 416.478C7122.83 409.762 7138.57 403.046 7154.8 396.126C7228.12 378.978 7300.51 382.523 7377.49 384.965Z" fill="#CABAB7"/>
<path d="M6343.57 668.581C6348.82 668.581 6354.07 668.581 6359.47 668.581C6359.47 699.779 6359.47 730.976 6359.47 763.119C6317.48 773.519 6275.49 783.918 6232.22 794.632C6242.72 798.099 6253.22 801.565 6264.03 805.137C6264.03 812.069 6264.03 819.002 6264.03 826.145C6306.03 822.679 6348.02 819.212 6391.29 815.641C6391.29 822.574 6391.29 829.506 6391.29 836.649C6376.34 839.513 6376.34 839.513 6361.09 842.435C6348.09 845.075 6335.09 847.716 6321.7 850.436C6302.32 854.275 6302.32 854.275 6282.55 858.191C6242.85 867.255 6242.85 867.255 6216.32 899.675C6184.63 906.933 6152.82 913.951 6120.88 920.684C6115.63 927.616 6110.38 934.549 6104.97 941.692C6125.97 945.158 6146.96 948.625 6168.6 952.196C6165.61 976.487 6165.61 976.487 6152.69 1004.72C6095.25 1036.14 6050.95 1039.6 5977.72 1036.23C5982.97 1053.56 5988.22 1070.89 5993.62 1088.75C6046.12 1095.68 6098.61 1102.62 6152.69 1109.76C6152.69 1116.69 6152.69 1123.63 6152.69 1130.77C6163.19 1130.77 6173.69 1130.77 6184.5 1130.77C6188.44 1140.73 6192.38 1150.7 6196.43 1160.97C6211.32 1194.71 6211.32 1194.71 6250.12 1208.24C6259.96 1210.4 6269.8 1212.57 6279.94 1214.8C6264.19 1218.27 6248.45 1221.74 6232.22 1225.31C6242.72 1239.17 6253.22 1253.04 6264.03 1267.32C6224.3 1251.59 6186.73 1235.65 6152.69 1214.8C6145.73 1185.26 6145.73 1185.26 6152.69 1162.28C6040.9 1151.37 6040.9 1151.37 5930 1162.28C5924.75 1172.68 5919.5 1183.08 5914.09 1193.79C5900.97 1190.54 5887.85 1187.29 5874.33 1183.95C5812.43 1171.54 5755.64 1166.67 5691.4 1162.28C5691.4 1158.82 5691.4 1155.35 5691.4 1151.78C5633.73 1149.66 5598.11 1153.27 5548.24 1172.79C5557.5 1108.61 5591.83 1066.82 5666.55 1025.07C5680 1018.35 5693.45 1011.64 5707.31 1004.72C5720.1 994.968 5732.9 985.219 5746.08 975.174C5786.84 952.196 5786.84 952.196 5834.56 950.883C5882.28 962.701 5882.28 962.701 5921.05 989.618C5959.81 1019.33 5959.81 1019.33 6022.45 1018.5C6039.19 1017.42 6055.92 1016.34 6073.16 1015.22C6071.84 1005.26 6070.53 995.29 6069.18 985.022C6069.18 930.628 6103.17 885.373 6136.78 836.649C6142.11 828.511 6147.45 820.373 6152.94 811.989C6191.37 756.495 6191.37 756.495 6230.23 739.813C6264.03 731.607 6264.03 731.607 6327.66 731.607C6332.91 710.808 6338.16 690.01 6343.57 668.581Z" fill="#E9C5AD"/>
<path d="M5882.28 962.7C5928.01 987.648 5928.01 987.648 5961.81 1015.22C5961.81 1025.62 5961.81 1036.02 5961.81 1046.73C5951.97 1049.12 5942.13 1051.5 5931.99 1053.96C5888.5 1068.64 5888.5 1068.64 5866.37 1120.26C5771.89 1120.26 5677.4 1120.26 5580.05 1120.26C5598.6 1071.28 5621.17 1059.97 5675.49 1025.73C5689.95 1014.46 5704.21 1003.08 5718.24 991.587C5773.77 947.981 5800.17 947.816 5882.28 962.7Z" fill="#F0EBE1"/>
<path d="M6788.95 731.606C6804.86 763.119 6804.86 763.119 6788.95 794.632C6759.44 808.542 6759.44 808.542 6722.34 822.862C6648.3 854.467 6588.33 888.136 6550.35 941.692C6547.44 969.953 6554.04 987.551 6566.26 1015.22C6608.25 1018.69 6650.24 1022.15 6693.51 1025.73C6671.73 1056.71 6647.73 1083.76 6613.98 1109.76C6603.48 1109.76 6592.98 1109.76 6582.16 1109.76C6582.16 1116.69 6582.16 1123.63 6582.16 1130.77C6571.67 1130.77 6561.17 1130.77 6550.35 1130.77C6558.23 1099.57 6558.23 1099.57 6566.26 1067.74C6501.73 1089.63 6466 1106.74 6439.01 1151.78C6435.21 1190.45 6436.24 1228.64 6439.01 1267.32C6392.64 1256.04 6363 1248.65 6327.66 1225.31C6343.41 1220.11 6343.41 1220.11 6359.47 1214.8C6371.63 1191.55 6371.63 1191.55 6381.34 1164.25C6399.73 1121.75 6413.3 1093.44 6470.82 1067.74C6514.56 1059.86 6514.56 1059.86 6550.35 1057.24C6542.62 1053.08 6534.89 1048.92 6526.93 1044.64C6487.74 1014.13 6495.07 985.334 6497.35 946.78C6512.16 873.615 6608.35 829.607 6686.55 782.61C6722.85 764.364 6744.47 756.762 6788.95 752.615C6788.95 745.682 6788.95 738.749 6788.95 731.606Z" fill="#DDC5BD"/>
<path d="M7377.49 384.965C7377.49 388.432 7377.49 391.898 7377.49 395.47C7340.75 398.936 7304 402.403 7266.15 405.974C7250.2 437.569 7245.42 464.149 7241.29 497.23C7239.96 507.67 7238.63 518.11 7237.25 528.866C7235.81 540.829 7235.81 540.829 7234.33 553.034C7220.84 549.594 7207.35 546.155 7193.45 542.612C7135.68 531.402 7089.53 529.904 7029.54 530.712C7011.21 530.902 6992.87 531.091 6973.99 531.287C6960.17 531.53 6946.35 531.774 6932.11 532.025C6962.89 468.234 7023.45 449.276 7107.08 416.478C7129.72 406.729 7129.72 406.729 7152.81 396.783C7227.12 379.118 7299.35 382.486 7377.49 384.965Z" fill="#E9D4D0"/>
<path d="M5532.34 1151.78C5537.58 1158.71 5542.83 1165.64 5548.24 1172.79C5569.24 1169.32 5590.24 1165.85 5611.87 1162.28C5611.87 1169.21 5611.87 1176.15 5611.87 1183.29C5627.62 1186.76 5643.36 1190.22 5659.59 1193.79C5628.09 1204.19 5628.09 1204.19 5595.96 1214.8C5595.96 1224.55 5595.96 1234.3 5595.96 1244.35C5595.96 1266.01 5595.96 1287.68 5595.96 1309.34C5605.92 1327.01 5616.44 1344.56 5627.77 1361.86C5664.52 1361.86 5701.26 1361.86 5739.12 1361.86C5739.12 1372.26 5739.12 1382.66 5739.12 1393.38C5749.62 1396.84 5760.12 1400.31 5770.93 1403.88C5760.44 1407.35 5749.94 1410.81 5739.12 1414.38C5749.81 1435.54 5749.81 1435.54 5770.93 1456.4C5805.48 1465.98 5805.48 1465.98 5844.5 1469.53C5857.5 1471.1 5870.5 1472.67 5883.89 1474.29C5893.86 1475.32 5903.82 1476.35 5914.09 1477.41C5914.09 1487.81 5914.09 1498.21 5914.09 1508.92C5940.34 1512.39 5966.58 1515.86 5993.62 1519.43C5993.62 1522.89 5993.62 1526.36 5993.62 1529.93C5780.94 1539.47 5780.94 1539.47 5720.91 1517.38C5691.16 1494.84 5675.1 1475.51 5676.49 1445.24C5681.41 1438.52 5686.33 1431.81 5691.4 1424.89C5696.98 1415.36 5702.56 1405.82 5708.3 1396C5713.22 1388.2 5718.14 1380.4 5723.21 1372.37C5706.15 1373.45 5689.09 1374.53 5671.52 1375.65C5611.87 1372.37 5611.87 1372.37 5574.09 1348.08C5532.77 1302.95 5530.56 1270 5531.34 1218.09C5531.48 1205.7 5531.63 1193.31 5531.78 1180.54C5531.96 1171.05 5532.15 1161.56 5532.34 1151.78Z" fill="#4A596C"/>
<path d="M6725.32 1466.91C6725.32 1473.84 6725.32 1480.77 6725.32 1487.91C6581.88 1499.94 6440.15 1499.41 6295.85 1498.42C6295.85 1505.35 6295.85 1512.28 6295.85 1519.43C6285.35 1519.43 6274.85 1519.43 6264.03 1519.43C6264.03 1526.36 6264.03 1533.29 6264.03 1540.44C6290.55 1538.16 6290.55 1538.16 6317.59 1535.84C6443.7 1525.34 6566.13 1516.76 6693.51 1519.43C6693.51 1526.36 6693.51 1533.29 6693.51 1540.44C6545.64 1560.85 6402.73 1564.03 6252.1 1562.76C6229.98 1562.65 6207.86 1562.56 6185.74 1562.47C6132.31 1562.22 6078.87 1561.88 6025.44 1561.44C6025.44 1554.51 6025.44 1547.58 6025.44 1540.44C6046.43 1536.97 6067.43 1533.5 6089.06 1529.93C6041.82 1524.73 6041.82 1524.73 5993.62 1519.43C5993.62 1515.96 5993.62 1512.49 5993.62 1508.92C6040.87 1508.92 6088.11 1508.92 6136.78 1508.92C6136.78 1519.32 6136.78 1529.72 6136.78 1540.44C6173.53 1543.9 6210.27 1547.37 6248.13 1550.94C6232.88 1526.46 6232.88 1526.46 6184.5 1508.92C6258.94 1490.56 6331.56 1481.78 6410.18 1476.1C6427.9 1474.76 6427.9 1474.76 6445.99 1473.39C6539.28 1466.77 6631.5 1464.5 6725.32 1466.91Z" fill="#323741"/>
<path d="M7282.05 374.462C7353.7 370.676 7409.92 370.189 7476.91 388.905C7557.41 439.651 7609.11 509.079 7617.33 582.988C7614.02 643.201 7603.45 702.106 7552.46 752.615C7551.87 741.607 7551.27 730.598 7550.66 719.256C7549.62 704.771 7548.56 690.287 7547.49 675.803C7547.13 668.552 7546.77 661.301 7546.4 653.83C7542.89 610.097 7535.41 593.16 7488.84 563.539C7482.35 528.133 7481.85 493.443 7480.95 457.798C7478.3 447.629 7475.66 437.46 7472.93 426.983C7442.89 412.104 7442.89 412.104 7409.3 405.975C7404.05 402.508 7398.81 399.042 7393.4 395.47C7356.36 391.609 7319.24 388.092 7282.05 384.966C7282.05 381.5 7282.05 378.033 7282.05 374.462Z" fill="#566D95"/>
<path d="M7632 1445.9C7642.49 1449.36 7652.99 1452.83 7663.81 1456.4C7653.31 1463.33 7642.81 1470.27 7632 1477.41C7660.17 1475.91 7660.17 1475.91 7688.91 1474.37C7713.68 1473.19 7738.45 1472.02 7763.22 1470.85C7775.59 1470.17 7787.95 1469.49 7800.69 1468.79C7913.93 1463.68 7913.93 1463.68 7966.03 1487.91C7945.36 1487.48 7924.7 1487.05 7903.4 1486.6C7852.24 1486.55 7807.7 1489.25 7758.25 1497.76C7649.69 1515.81 7536.58 1516 7425.21 1519.43C7425.21 1526.36 7425.21 1533.29 7425.21 1540.44C7271.13 1551.41 7118.64 1552.03 6963.92 1550.94C6963.92 1544.01 6963.92 1537.07 6963.92 1529.93C7011.16 1519.53 7058.41 1509.13 7107.08 1498.42C7101.83 1508.82 7096.58 1519.22 7091.17 1529.93C7180.41 1529.93 7269.65 1529.93 7361.58 1529.93C7361.58 1523 7361.58 1516.07 7361.58 1508.92C7425.08 1488.64 7481.74 1484.47 7551.1 1482.05C7591.34 1476.42 7605.99 1466.41 7632 1445.9Z" fill="#3C4968"/>
<path d="M6343.57 668.581C6348.82 668.581 6354.06 668.581 6359.47 668.581C6359.47 699.779 6359.47 730.976 6359.47 763.119C6317.48 773.519 6275.49 783.918 6232.22 794.632C6242.72 798.099 6253.22 801.565 6264.03 805.137C6264.03 812.069 6264.03 819.002 6264.03 826.145C6306.03 822.679 6348.02 819.212 6391.29 815.641C6391.29 822.574 6391.29 829.506 6391.29 836.649C6381.32 838.559 6371.36 840.468 6361.09 842.435C6348.09 845.075 6335.09 847.716 6321.7 850.436C6302.32 854.275 6302.32 854.275 6282.55 858.191C6242.85 867.255 6242.85 867.255 6216.31 899.675C6195.32 899.675 6174.32 899.675 6152.69 899.675C6143.53 796.882 6143.53 796.882 6200.41 752.615C6248.23 731.221 6267.07 731.607 6327.66 731.607C6332.91 710.808 6338.16 690.01 6343.57 668.581Z" fill="#F0E5DB"/>
<path d="M7138.89 521.521C7149.39 528.454 7159.89 535.387 7170.71 542.53C7133.96 545.996 7097.22 549.463 7059.36 553.034C7054.11 563.433 7048.86 573.833 7043.45 584.547C7025.25 586.822 7025.25 586.822 7006.67 589.143C6962.62 594.665 6962.62 594.665 6916.2 605.556C6916.2 615.955 6916.2 626.354 6916.2 637.068C6947.7 633.602 6979.19 630.135 7011.64 626.564C7011.64 633.497 7011.64 640.43 7011.64 647.573C7022.14 647.573 7032.64 647.573 7043.45 647.573C7038.2 657.972 7032.95 668.371 7027.55 679.085C7015.08 680.169 7002.61 681.252 6989.77 682.368C6942.76 687.236 6942.76 687.236 6916.2 721.102C6900.45 721.102 6884.71 721.102 6868.48 721.102C6859.89 651.625 6868.61 609.698 6932.11 553.034C6998.2 515.452 7055.36 517 7138.89 521.521Z" fill="#7F9FBB"/>
<path d="M6963.92 668.581C7021.22 670.626 7039.71 676.408 7079.24 704.689C7107.08 731.607 7107.08 731.607 7122.99 752.615C7138.74 756.082 7154.48 759.548 7170.71 763.119C7194.22 794.177 7187.57 823.438 7186.61 857.658C7181.36 850.725 7176.12 843.792 7170.71 836.649C7160.21 836.649 7149.71 836.649 7138.89 836.649C7138.89 829.717 7138.89 822.784 7138.89 815.641C7128.4 815.641 7117.9 815.641 7107.08 815.641C7106.1 809.141 7105.11 802.642 7104.1 795.945C7094.19 771.291 7094.19 771.291 7055.38 761.806C7040.95 758.773 7026.51 755.74 7011.64 752.615C6985.13 745.612 6958.62 738.61 6932.11 731.607C6946.03 680.398 6946.03 680.398 6963.92 668.581Z" fill="#E5E9EA"/>
<path d="M5977.72 1057.24C5982.97 1067.64 5988.22 1078.04 5993.62 1088.75C6046.12 1095.68 6098.61 1102.62 6152.69 1109.76C6152.69 1116.69 6152.69 1123.63 6152.69 1130.77C6163.19 1130.77 6173.69 1130.77 6184.5 1130.77C6188.44 1140.73 6192.38 1150.7 6196.43 1160.97C6211.32 1194.71 6211.32 1194.71 6250.12 1208.24C6259.96 1210.4 6269.8 1212.57 6279.94 1214.8C6264.19 1218.27 6248.45 1221.74 6232.22 1225.31C6242.72 1239.17 6253.22 1253.04 6264.03 1267.32C6224.3 1251.59 6186.73 1235.65 6152.69 1214.8C6145.73 1185.26 6145.73 1185.26 6152.69 1162.28C6054.6 1135.74 5986.69 1127.48 5882.28 1141.27C5901.87 1102.47 5933.31 1085.06 5977.72 1057.24Z" fill="#FAEADC"/>
<path d="M6884.39 784.128C6873.89 801.46 6863.39 818.792 6852.58 836.649C6842.08 836.649 6831.58 836.649 6820.76 836.649C6820.76 829.716 6820.76 822.783 6820.76 815.641C6728.94 828.951 6666.29 859.219 6613.98 910.179C6600.98 941.984 6597.28 971.85 6598.07 1004.72C6619.07 1004.72 6640.06 1004.72 6661.7 1004.72C6661.7 1011.65 6661.7 1018.58 6661.7 1025.73C6615.97 1027.7 6615.97 1027.7 6566.26 1025.73C6534.44 994.213 6534.44 994.213 6533.45 960.731C6569.98 874.165 6671.52 828.334 6783.67 783.43C6825.62 772.34 6842.89 773.606 6884.39 784.128Z" fill="#8192A8"/>
<path d="M6884.39 542.53C6889.64 549.463 6894.89 556.395 6900.29 563.538C6910.79 567.005 6921.29 570.471 6932.11 574.043C6924.56 580.759 6917.02 587.475 6909.24 594.395C6876.91 636.247 6872.92 674.725 6868.48 721.102C6884.23 721.102 6899.98 721.102 6916.2 721.102C6921.45 714.17 6926.7 707.237 6932.11 700.094C6932.11 710.493 6932.11 720.892 6932.11 731.607C6958.35 735.073 6984.6 738.539 7011.64 742.111C7011.64 745.577 7011.64 749.044 7011.64 752.615C6969.65 752.615 6927.65 752.615 6884.39 752.615C6884.39 759.548 6884.39 766.481 6884.39 773.624C6852.89 777.09 6821.4 780.556 6788.95 784.128C6794.2 766.796 6799.45 749.464 6804.86 731.607C6815.35 731.607 6825.85 731.607 6836.67 731.607C6834.97 724.877 6833.27 718.147 6831.51 711.214C6818.11 647.36 6821.04 609.669 6868.48 553.034C6873.73 549.568 6878.98 546.101 6884.39 542.53Z" fill="#DACDCA"/>
<path d="M6788.95 731.606C6804.86 763.119 6804.86 763.119 6788.95 794.632C6759.44 808.542 6759.44 808.542 6722.34 822.862C6624.2 864.659 6557.86 913.228 6528.48 988.961C6525.2 1001.09 6521.92 1013.23 6518.54 1025.73C6513.29 1025.73 6508.04 1025.73 6502.63 1025.73C6497.3 976.265 6493.34 934.35 6524.5 888.514C6696.77 761.21 6696.77 761.21 6788.95 752.615C6788.95 745.682 6788.95 738.749 6788.95 731.606Z" fill="#EDD5C8"/>
<path d="M6613.98 426.983C6624.48 430.449 6634.97 433.916 6645.79 437.487C6638.57 445.07 6631.36 452.653 6623.92 460.465C6597.4 489.101 6597.4 489.101 6581.17 518.239C6566.26 542.53 6566.26 542.53 6534.45 563.538C6492.57 572.533 6450.21 578.132 6407.19 584.547C6443.92 509.578 6515.32 466.376 6613.98 426.983Z" fill="#E3E0D9"/>
<path d="M6104.97 1141.27C6099.72 1162.07 6094.47 1182.87 6089.06 1204.3C6078.56 1204.3 6068.07 1204.3 6057.25 1204.3C6046.75 1218.16 6036.25 1232.03 6025.44 1246.32C5983.44 1235.92 5941.45 1225.52 5898.18 1214.8C5908.68 1194 5919.18 1173.21 5930 1151.78C5989.4 1142.55 6044.01 1140.34 6104.97 1141.27Z" fill="#758497"/>
<path d="M6725.32 1466.91C6725.32 1473.84 6725.32 1480.77 6725.32 1487.91C6581.88 1499.94 6440.15 1499.41 6295.85 1498.42C6295.85 1505.35 6295.85 1512.28 6295.85 1519.43C6285.35 1519.43 6274.85 1519.43 6264.03 1519.43C6264.03 1526.36 6264.03 1533.29 6264.03 1540.44C6337.52 1540.44 6411.01 1540.44 6486.73 1540.44C6486.73 1543.9 6486.73 1547.37 6486.73 1550.94C6407.99 1550.94 6329.25 1550.94 6248.13 1550.94C6242.88 1544.01 6237.63 1537.07 6232.22 1529.93C6216.47 1523 6200.73 1516.07 6184.5 1508.92C6258.94 1490.56 6331.56 1481.78 6410.18 1476.1C6427.9 1474.76 6427.9 1474.76 6445.99 1473.39C6539.28 1466.77 6631.5 1464.5 6725.32 1466.91Z" fill="#434B56"/>
<path d="M5532.33 1151.78C5537.58 1158.71 5542.83 1165.64 5548.24 1172.79C5569.24 1169.32 5590.23 1165.85 5611.87 1162.28C5611.87 1169.21 5611.87 1176.15 5611.87 1183.29C5627.61 1186.76 5643.36 1190.22 5659.59 1193.79C5628.09 1204.19 5628.09 1204.19 5595.96 1214.8C5595.96 1224.55 5595.96 1234.3 5595.96 1244.35C5595.96 1266.01 5595.96 1287.68 5595.96 1309.34C5605.92 1327.01 5616.44 1344.56 5627.77 1361.86C5585.23 1351.56 5567.54 1345.15 5546.25 1318.2C5529.84 1282.99 5529.22 1253.55 5530.35 1216.77C5530.63 1204.57 5530.92 1192.37 5531.22 1179.8C5531.59 1170.55 5531.95 1161.31 5532.33 1151.78Z" fill="#586070"/>
<path d="M5564.15 1109.76C5632.39 1109.76 5700.63 1109.76 5770.93 1109.76C5770.93 1123.63 5770.93 1137.49 5770.93 1151.78C5797.18 1155.24 5823.42 1158.71 5850.47 1162.28C5798.24 1179.52 5748.26 1167.73 5691.4 1162.28C5691.4 1158.82 5691.4 1155.35 5691.4 1151.78C5633.73 1149.66 5598.11 1153.27 5548.24 1172.79C5553.49 1151.99 5558.74 1131.19 5564.15 1109.76Z" fill="#E9B399"/>
<path d="M6136.78 836.649C6142.03 836.649 6147.28 836.649 6152.69 836.649C6158.56 893.534 6158.56 893.534 6128.83 924.622C6120.96 930.255 6113.08 935.888 6104.97 941.692C6125.97 945.158 6146.96 948.624 6168.6 952.196C6156.67 1002.09 6156.67 1002.09 6120.88 1025.73C6063.22 1027.04 6063.22 1027.04 6009.53 1025.73C6030.53 1022.26 6051.52 1018.79 6073.16 1015.22C6071.84 1005.26 6070.53 995.29 6069.18 985.022C6068.51 931.104 6103.8 884.983 6136.78 836.649Z" fill="#B2A196"/>
<path d="M7122.99 447.991C7144.87 461.538 7166.06 475.585 7186.61 490.008C7186.61 496.941 7186.61 503.874 7186.61 511.017C7174.91 511.653 7163.2 512.29 7151.13 512.945C7135.61 513.825 7120.09 514.706 7104.1 515.612C7088.78 516.466 7073.46 517.319 7057.68 518.197C7015.04 521.276 6974 526.007 6932.11 532.025C6947.43 506.737 6957.81 492.651 6992.75 477.534C7030.51 468.273 7067.57 463.432 7107.08 458.495C7112.33 455.029 7117.58 451.563 7122.99 447.991Z" fill="#FCF2ED"/>
<path d="M7472.93 426.982C7494.47 455.436 7489.87 479.602 7488.84 511.017C7463.98 491.978 7463.98 491.978 7441.12 468.999C7446.37 458.6 7451.62 448.201 7457.02 437.487C7436.03 437.487 7415.03 437.487 7393.4 437.487C7393.4 430.554 7393.4 423.621 7393.4 416.478C7367.15 416.478 7340.91 416.478 7313.87 416.478C7292.87 440.743 7271.87 465.008 7250.24 490.008C7244.99 490.008 7239.74 490.008 7234.33 490.008C7228.59 455.864 7229.41 441.819 7261.18 413.852C7346.66 371.13 7391.96 384.451 7472.93 426.982Z" fill="#6392BA"/>
<path d="M7282.05 374.461C7354.64 370.626 7412.56 371.53 7481.88 387.591C7537.26 428.856 7528.07 463.019 7524 516.433C7522.9 525.045 7521.79 533.657 7520.65 542.529C7510.15 542.529 7499.65 542.529 7488.84 542.529C7488.22 530.383 7488.22 530.383 7487.59 517.992C7486.69 507.457 7485.79 496.923 7484.86 486.069C7484.12 475.588 7483.38 465.108 7482.62 454.31C7477.44 425.497 7477.44 425.497 7441.37 413.442C7430.79 410.977 7420.2 408.513 7409.3 405.974C7404.05 402.507 7398.81 399.041 7393.4 395.47C7356.36 391.608 7319.24 388.091 7282.05 384.965C7282.05 381.499 7282.05 378.033 7282.05 374.461Z" fill="#537594"/>
<path d="M6216.31 1214.8C6288.81 1219.41 6336.83 1223.74 6391.29 1256.82C6375.54 1256.82 6359.79 1256.82 6343.57 1256.82C6343.57 1263.75 6343.57 1270.69 6343.57 1277.83C6359.31 1281.3 6375.06 1284.76 6391.29 1288.33C6375.38 1298.84 6375.38 1298.84 6326.67 1299.49C6311.25 1299.28 6295.83 1299.06 6279.94 1298.84C6279.94 1291.9 6279.94 1284.97 6279.94 1277.83C6269.44 1274.36 6258.94 1270.9 6248.13 1267.32C6236.65 1250.06 6225.96 1232.55 6216.31 1214.8Z" fill="#667C9A"/>
<path d="M7293.98 383.652C7309.65 383.842 7325.31 384.031 7341.45 384.227C7359.29 384.592 7359.29 384.592 7377.49 384.965C7377.49 388.432 7377.49 391.898 7377.49 395.47C7340.75 398.936 7304 402.402 7266.14 405.974C7255.65 433.705 7245.15 461.436 7234.33 490.008C7193.66 466.651 7182.77 450.615 7170.71 416.478C7160.21 413.012 7149.71 409.545 7138.89 405.974C7192.17 384.697 7232.26 382.682 7293.98 383.652Z" fill="#B4ACB1"/>
<path d="M7313.86 668.581C7334.86 668.581 7355.86 668.581 7377.49 668.581C7395.39 692.216 7395.39 692.216 7409.3 721.102C7395.39 745.394 7395.39 745.394 7377.49 763.119C7356.49 759.653 7335.5 756.187 7313.86 752.615C7307.81 728.181 7302.53 703.66 7297.96 679.085C7303.21 675.619 7308.46 672.153 7313.86 668.581Z" fill="#627EA9"/>
<path d="M6916.2 700.094C6921.45 710.493 6926.7 720.892 6932.11 731.607C6958.35 735.073 6984.6 738.539 7011.64 742.111C7011.64 745.577 7011.64 749.044 7011.64 752.615C6969.65 752.615 6927.65 752.615 6884.39 752.615C6884.39 759.548 6884.39 766.481 6884.39 773.624C6852.89 777.09 6821.4 780.556 6788.95 784.128C6794.2 766.796 6799.45 749.464 6804.86 731.607C6859.97 726.407 6859.97 726.407 6916.2 721.102C6916.2 714.169 6916.2 707.237 6916.2 700.094Z" fill="#CDC3C4"/>
<path d="M6184.5 1130.77C6188.44 1140.73 6192.38 1150.7 6196.43 1160.97C6211.32 1194.71 6211.32 1194.71 6250.12 1208.24C6259.96 1210.4 6269.8 1212.57 6279.94 1214.8C6264.19 1218.27 6248.45 1221.74 6232.22 1225.31C6242.72 1239.17 6253.22 1253.04 6264.03 1267.32C6224.31 1251.6 6186.69 1235.67 6152.69 1214.8C6148.71 1186.57 6148.71 1186.57 6152.69 1162.28C6136.94 1155.35 6121.19 1148.42 6104.97 1141.27C6136.78 1130.77 6136.78 1130.77 6184.5 1130.77Z" fill="#CBBCB7"/>
<path d="M6995.74 626.563C7000.98 633.496 7006.23 640.429 7011.64 647.572C7022.14 647.572 7032.64 647.572 7043.45 647.572C7038.21 657.971 7032.96 668.37 7027.55 679.085C7015.74 680.385 7003.93 681.685 6991.76 683.024C6951.17 689.115 6920.55 697.332 6884.39 710.598C6893.55 685.538 6903.83 661.576 6916.2 637.068C6942.45 633.601 6968.69 630.135 6995.74 626.563Z" fill="#7196B2"/>
<path d="M7075.27 1498.42C7085.77 1501.88 7096.26 1505.35 7107.08 1508.92C7101.83 1515.86 7096.58 1522.79 7091.17 1529.93C7138.42 1533.4 7185.66 1536.86 7234.33 1540.44C7234.33 1543.9 7234.33 1547.37 7234.33 1550.94C7145.1 1550.94 7055.86 1550.94 6963.92 1550.94C6963.92 1544.01 6963.92 1537.07 6963.92 1529.93C7000.57 1518.73 7037.73 1508.25 7075.27 1498.42Z" fill="#2C3448"/>
<path d="M5930 1151.78C5950.99 1155.24 5971.99 1158.71 5993.62 1162.28C5977.88 1162.28 5962.13 1162.28 5945.9 1162.28C5945.9 1172.68 5945.9 1183.08 5945.9 1193.79C5972.15 1193.79 5998.4 1193.79 6025.44 1193.79C6025.44 1207.66 6025.44 1221.53 6025.44 1235.81C5983.44 1228.88 5941.45 1221.95 5898.18 1214.8C5908.68 1194 5919.18 1173.21 5930 1151.78Z" fill="#9D9699"/>
<path d="M5668.53 1140.62C5686.58 1140.83 5704.62 1141.05 5723.21 1141.27C5723.21 1144.74 5723.21 1148.21 5723.21 1151.78C5770.45 1156.98 5770.45 1156.98 5818.65 1162.28C5818.65 1165.75 5818.65 1169.21 5818.65 1172.79C5716.29 1177.99 5716.29 1177.99 5611.87 1183.29C5606.62 1172.89 5601.37 1162.49 5595.96 1151.78C5611.87 1141.27 5611.87 1141.27 5668.53 1140.62Z" fill="#978B88"/>
<path d="M6932.11 700.094C6974.1 703.56 7016.1 707.027 7059.36 710.598C7054.11 724.464 7048.86 738.329 7043.46 752.615C7006.71 745.682 6969.97 738.749 6932.11 731.607C6932.11 721.207 6932.11 710.808 6932.11 700.094Z" fill="#F6EBDF"/>
<path d="M5707.31 1172.79C5749.3 1172.79 5791.29 1172.79 5834.56 1172.79C5834.56 1190.12 5834.56 1207.45 5834.56 1225.31C5813.56 1225.31 5792.57 1225.31 5770.93 1225.31C5770.93 1214.91 5770.93 1204.51 5770.93 1193.79C5749.94 1193.79 5728.94 1193.79 5707.31 1193.79C5707.31 1186.86 5707.31 1179.93 5707.31 1172.79Z" fill="#6A788A"/>
<path d="M6009.53 1120.26C6009.53 1130.66 6009.53 1141.06 6009.53 1151.78C5983.28 1155.24 5957.04 1158.71 5930 1162.28C5924.75 1172.68 5919.5 1183.08 5914.09 1193.79C5893.09 1186.86 5872.1 1179.93 5850.46 1172.79C5867.37 1152.43 5867.37 1152.43 5898.18 1130.77C5956.84 1122.89 5956.84 1122.89 6009.53 1120.26Z" fill="#E1BFAA"/>
<path d="M5611.87 1361.86C5653.86 1361.86 5695.85 1361.86 5739.12 1361.86C5739.12 1372.26 5739.12 1382.66 5739.12 1393.38C5749.62 1396.84 5760.12 1400.31 5770.93 1403.88C5763.39 1408 5755.84 1412.11 5748.07 1416.35C5717.62 1439.68 5713.47 1457.81 5707.31 1487.91C5696.81 1480.98 5686.31 1474.05 5675.49 1466.91C5682.45 1433.58 5703.7 1403.28 5723.21 1372.37C5686.47 1372.37 5649.72 1372.37 5611.87 1372.37C5611.87 1368.9 5611.87 1365.43 5611.87 1361.86Z" fill="#48525E"/>
<path d="M6089.06 1109.76C6127.83 1120.26 6127.83 1120.26 6152.69 1130.77C6136.78 1141.27 6136.78 1141.27 6081.11 1142.59C6025.44 1141.27 6025.44 1141.27 6009.53 1130.77C5983.03 1130.34 5956.5 1130.32 5930 1130.77C5988.87 1104.85 6019.43 1106.53 6089.06 1109.76Z" fill="#F4D1C1"/>
<path d="M6598.07 1036.23C6624.32 1039.7 6650.56 1043.16 6677.6 1046.73C6657.34 1068.15 6636.08 1089.16 6613.98 1109.76C6603.48 1109.76 6592.98 1109.76 6582.16 1109.76C6587.41 1085.5 6592.66 1061.23 6598.07 1036.23Z" fill="#E5D8CE"/>
<path d="M6073.16 941.692C6078.41 948.625 6083.66 955.558 6089.06 962.7C6104.81 962.7 6120.56 962.7 6136.78 962.7C6131.53 983.499 6126.28 1004.3 6120.88 1025.73C6084.13 1025.73 6047.39 1025.73 6009.53 1025.73C6030.53 1022.26 6051.52 1018.79 6073.16 1015.22C6073.16 990.957 6073.16 966.692 6073.16 941.692Z" fill="#CDB1A6"/>
<path d="M7122.99 763.119C7138.73 763.119 7154.48 763.119 7170.71 763.119C7194.22 794.177 7187.57 823.438 7186.61 857.658C7181.36 850.725 7176.11 843.792 7170.71 836.649C7160.21 836.649 7149.71 836.649 7138.89 836.649C7138.89 829.716 7138.89 822.783 7138.89 815.64C7128.39 812.174 7117.9 808.708 7107.08 805.136C7112.33 791.271 7117.58 777.405 7122.99 763.119Z" fill="#8BAFCC"/>
<path d="M6884.39 784.127C6873.89 801.46 6863.39 818.792 6852.57 836.649C6842.08 836.649 6831.58 836.649 6820.76 836.649C6820.76 829.716 6820.76 822.783 6820.76 815.64C6799.77 815.64 6778.77 815.64 6757.14 815.64C6757.14 808.707 6757.14 801.775 6757.14 794.632C6805.93 775.069 6830.27 771.363 6884.39 784.127Z" fill="#7292B7"/>
<path d="M6343.57 668.581C6348.82 668.581 6354.07 668.581 6359.47 668.581C6359.47 699.779 6359.47 730.976 6359.47 763.119C6322.69 770.341 6322.69 770.341 6279.94 773.624C6251.11 758.524 6251.11 758.524 6232.22 742.111C6263.72 738.645 6295.21 735.178 6327.66 731.607C6332.91 710.808 6338.16 690.01 6343.57 668.581Z" fill="#B9AEA8"/>
<path d="M5961.81 1025.73C5998.56 1025.73 6035.3 1025.73 6073.16 1025.73C6073.16 1029.19 6073.16 1032.66 6073.16 1036.23C6041.66 1036.23 6010.17 1036.23 5977.72 1036.23C5972.47 1053.56 5967.22 1070.89 5961.81 1088.75C5946.06 1088.75 5930.32 1088.75 5914.09 1088.75C5903.59 1081.82 5893.09 1074.89 5882.28 1067.74C5892.78 1060.81 5903.27 1053.88 5914.09 1046.73C5929.84 1046.73 5945.59 1046.73 5961.81 1046.73C5961.81 1039.8 5961.81 1032.87 5961.81 1025.73Z" fill="#E7D2BD"/>
<path d="M7361.58 1508.92C7393.08 1508.92 7424.57 1508.92 7457.02 1508.92C7441.28 1514.12 7441.28 1514.12 7425.21 1519.43C7425.21 1526.36 7425.21 1533.29 7425.21 1540.44C7346.47 1540.44 7267.74 1540.44 7186.61 1540.44C7186.61 1536.97 7186.61 1533.5 7186.61 1529.93C7244.35 1529.93 7302.09 1529.93 7361.58 1529.93C7361.58 1523 7361.58 1516.07 7361.58 1508.92Z" fill="#3F475A"/>
<path d="M6757.14 490.009C6767.64 490.009 6778.13 490.009 6788.95 490.009C6788.95 500.408 6788.95 510.807 6788.95 521.522C6799.45 524.988 6809.95 528.454 6820.76 532.026C6763.1 563.539 6763.1 563.539 6709.42 563.539C6739.24 501.826 6739.24 501.826 6757.14 490.009Z" fill="#EDE6DD"/>
<path d="M7088.19 434.204C7099.67 435.287 7111.16 436.371 7122.99 437.487C7117.74 447.886 7112.49 458.285 7107.08 468.999C7074.21 476.673 7074.21 476.673 7034.51 481.473C7021.36 483.139 7008.22 484.804 6994.68 486.52C6979.45 488.247 6979.45 488.247 6963.92 490.008C7032.44 438.295 7032.44 438.295 7088.19 434.204Z" fill="#E4DFD9"/>
<path d="M7138.89 405.974C7165.39 405.525 7191.92 405.547 7218.43 405.974C7234.33 416.478 7234.33 416.478 7235.33 453.9C7235 465.815 7234.67 477.731 7234.33 490.008C7193.66 466.651 7182.77 450.615 7170.71 416.478C7160.21 413.012 7149.71 409.545 7138.89 405.974Z" fill="#C1BDBE"/>
<path d="M7282.05 374.461C7383.88 369.082 7440.8 373.212 7520.65 416.478C7504.9 421.678 7504.9 421.678 7488.84 426.983C7416.37 410.643 7416.37 410.643 7393.4 395.47C7356.36 391.608 7319.24 388.091 7282.05 384.966C7282.05 381.499 7282.05 378.033 7282.05 374.461Z" fill="#525A67"/>
<path d="M7552.46 689.589C7529.91 726.82 7509.9 735.158 7457.02 752.615C7436.85 773.976 7436.85 773.976 7425.21 794.632C7431.33 747.461 7470.62 689.589 7552.46 689.589Z" fill="#597BA7"/>
<path d="M7170.71 1151.78C7212.7 1151.78 7254.69 1151.78 7297.96 1151.78C7287.46 1165.64 7276.96 1179.51 7266.15 1193.79C7245.15 1193.79 7224.15 1193.79 7202.52 1193.79C7202.52 1183.4 7202.52 1173 7202.52 1162.28C7192.02 1158.82 7181.52 1155.35 7170.71 1151.78Z" fill="#6384A9"/>
<path d="M5643.68 1130.77C5685.67 1130.77 5727.67 1130.77 5770.93 1130.77C5770.93 1137.7 5770.93 1144.63 5770.93 1151.78C5797.18 1155.24 5823.42 1158.71 5850.46 1162.28C5799.01 1179.27 5745.59 1170.84 5691.4 1162.28C5659.59 1145.87 5659.59 1145.87 5643.68 1130.77Z" fill="#C3A89B"/>
<path d="M6375.38 605.555C6407.19 626.564 6407.19 626.564 6410.3 646.998C6409.26 668.198 6408.23 689.398 6407.19 710.598C6396.69 710.598 6386.2 710.598 6375.38 710.598C6357.48 641.007 6357.48 641.007 6375.38 605.555Z" fill="#E6DFD5"/>
<path d="M5532.33 1151.78C5537.58 1158.71 5542.83 1165.64 5548.24 1172.79C5569.24 1169.32 5590.23 1165.85 5611.87 1162.28C5611.87 1169.21 5611.87 1176.15 5611.87 1183.29C5627.61 1186.76 5643.36 1190.22 5659.59 1193.79C5633.34 1200.73 5607.09 1207.66 5580.05 1214.8C5580.05 1207.87 5580.05 1200.94 5580.05 1193.79C5564.31 1193.79 5548.56 1193.79 5532.33 1193.79C5532.33 1179.93 5532.33 1166.06 5532.33 1151.78Z" fill="#656E71"/>
<path d="M6184.5 1130.77C6195 1130.77 6205.5 1130.77 6216.31 1130.77C6216.31 1137.7 6216.31 1144.63 6216.31 1151.78C6226.81 1151.78 6237.31 1151.78 6248.13 1151.78C6248.13 1169.11 6248.13 1186.44 6248.13 1204.3C6232.38 1200.83 6216.63 1197.37 6200.41 1193.79C6195.16 1173 6189.91 1152.2 6184.5 1130.77Z" fill="#F7DBC9"/>
<path d="M6200.41 752.615C6226.65 756.081 6252.9 759.548 6279.94 763.119C6204.38 805.136 6204.38 805.136 6168.6 805.136C6179.09 787.804 6189.59 770.472 6200.41 752.615Z" fill="#E0DCD7"/>
<path d="M7297.96 395.47C7308.46 398.937 7318.95 402.403 7329.77 405.974C7316.92 420.008 7303.98 434.007 7291 447.992C7283.8 455.791 7276.6 463.59 7269.19 471.626C7262.94 477.692 7256.68 483.759 7250.24 490.009C7244.99 490.009 7239.74 490.009 7234.33 490.009C7230.36 466.374 7230.36 466.374 7234.33 437.487C7266.15 413.196 7266.15 413.196 7297.96 395.47Z" fill="#6B99C5"/>
<path d="M6216.31 1214.8C6253.06 1218.27 6289.8 1221.74 6327.66 1225.31C6317.16 1239.17 6306.66 1253.04 6295.85 1267.32C6280.1 1267.32 6264.35 1267.32 6248.13 1267.32C6237.63 1249.99 6227.13 1232.66 6216.31 1214.8Z" fill="#737F98"/>
<path d="M6963.92 668.581C6990.17 672.047 7016.41 675.514 7043.46 679.085C7043.46 689.485 7043.46 699.884 7043.46 710.598C7006.71 707.132 6969.97 703.665 6932.11 700.094C6942.61 689.695 6953.11 679.295 6963.92 668.581Z" fill="#D7CBC6"/>
<path d="M6041.34 1151.78C6078.09 1151.78 6114.83 1151.78 6152.69 1151.78C6152.69 1165.64 6152.69 1179.51 6152.69 1193.79C6131.69 1193.79 6110.7 1193.79 6089.06 1193.79C6089.06 1186.86 6089.06 1179.93 6089.06 1172.79C6073.32 1165.85 6057.57 1158.92 6041.34 1151.78Z" fill="#687D93"/>
<path d="M6741.23 983.709C6772.73 983.709 6804.22 983.709 6836.67 983.709C6812.7 1015.36 6772.54 1021.64 6725.32 1036.23C6730.57 1018.9 6735.82 1001.57 6741.23 983.709Z" fill="#6889AD"/>
<path d="M6566.26 920.684C6576.76 920.684 6587.26 920.684 6598.07 920.684C6598.07 948.415 6598.07 976.146 6598.07 1004.72C6587.57 1004.72 6577.07 1004.72 6566.26 1004.72C6550.65 972.652 6550.65 952.749 6566.26 920.684Z" fill="#688DAE"/>
<path d="M6884.39 511.017C6975.85 520.208 6975.85 520.208 7011.64 532.026C6936.09 563.538 6936.09 563.538 6900.3 563.538C6895.05 546.206 6889.8 528.874 6884.39 511.017Z" fill="#EEDED6"/>
</g>
<defs>
<clipPath id="clip0_18_908">
<rect width="7437" height="5288" fill="white"/>
</clipPath>
</defs>
</svg>
