<svg width="7437" height="5288" viewBox="0 0 7437 5288" fill="none" xmlns="http://www.w3.org/2000/svg">
<g clip-path="url(#clip0_18_908)">
<path d="M7520.72 -175.148C7596.68 -132.39 7645.39 -73.9024 7653.07 -11.6305C7649.13 51.7045 7619.25 114.164 7591.93 175.163C7610.79 177.351 7629.65 179.539 7649.09 181.793C7689.4 187.895 7709.61 191.721 7741.85 207.763C7762.41 235.803 7759.79 259.92 7756.84 290.092C7781.58 290.092 7806.32 290.092 7831.8 290.092C7834.28 284.439 7836.75 278.787 7839.3 272.963C7861.79 254.729 7861.79 254.729 7916.14 244.231C7974.74 241.446 8003.91 251.487 8049.19 272.963C8088.94 295.855 8100.66 302.729 8107.29 335.952C8104.5 348.26 8104.5 348.26 8101.66 360.817C8115.13 381.171 8115.13 381.171 8131.65 396.179C8092.28 435.729 8068.41 450.908 7996.72 466.905C7983.42 484.949 7983.42 484.949 7981.73 502.267C7998.12 501.72 8014.5 501.173 8031.39 500.61C8086.67 502.267 8086.67 502.267 8115.72 513.871C8131.65 528.789 8131.65 528.789 8131.65 555.311C8140.62 556.223 8149.58 557.135 8158.82 558.074C8199.14 565.546 8213.51 569.576 8236.59 590.674C8247.49 654.929 8222.53 695.941 8161.63 749.806C8131.47 752.536 8131.47 752.536 8094.58 751.774C8081.08 751.609 8067.58 751.444 8053.67 751.273C8039.52 750.971 8025.36 750.669 8010.77 750.358C7917.54 748.542 7834.87 749.638 7744.23 763.177C7691.08 770.255 7637.79 771.572 7583.5 773.012C7572.66 773.354 7561.83 773.696 7550.67 774.048C7524.45 774.868 7498.22 775.607 7471.99 776.328C7471.99 782.163 7471.99 787.997 7471.99 794.009C7326.77 803.249 7183.04 803.767 7037.22 802.85C7037.22 797.015 7037.22 791.18 7037.22 785.168C7071.85 776.416 7106.48 767.664 7142.16 758.646C7119.9 754.27 7119.9 754.27 7097.18 749.806C7097.18 741.053 7097.18 732.301 7097.18 723.284C7022.97 723.284 6948.76 723.284 6872.3 723.284C6872.3 729.119 6872.3 734.953 6872.3 740.965C6715.65 757.361 6566.11 760.684 6407.54 758.646C6407.54 764.481 6407.54 770.316 6407.54 776.328C6397.65 776.328 6387.75 776.328 6377.56 776.328C6377.56 782.163 6377.56 787.997 6377.56 794.009C6402.54 792.094 6402.54 792.094 6428.04 790.141C6546.89 781.303 6662.29 774.08 6782.35 776.328C6782.35 782.163 6782.35 787.997 6782.35 794.009C6642.97 811.194 6508.28 813.864 6366.31 812.795C6345.46 812.706 6324.61 812.626 6303.77 812.554C6253.4 812.347 6203.04 812.058 6152.67 811.69C6152.67 805.855 6152.67 800.021 6152.67 794.009C6182.36 789.633 6182.36 789.633 6212.64 785.168C6203.5 785.446 6194.35 785.724 6184.93 786.01C6143.26 787.117 6101.6 787.804 6059.91 788.484C6038.33 789.15 6038.33 789.15 6016.31 789.83C5911.82 791.11 5911.82 791.11 5870.91 773.766C5842.81 754.576 5822.44 739.945 5823.78 713.891C5828.42 708.238 5833.06 702.586 5837.84 696.762C5843.09 688.739 5848.35 680.716 5853.76 672.45C5858.4 665.886 5863.04 659.322 5867.82 652.558C5851.74 653.47 5835.66 654.382 5819.09 655.321C5762.87 652.558 5762.87 652.559 5727.27 632.114C5674.26 580.423 5675.91 525.684 5687.91 466.905C5723.26 414.307 5773.83 375.387 5852.83 343.135C5864.89 334.93 5876.95 326.725 5889.37 318.271C5927.79 298.932 5927.79 298.932 5972.77 297.827C6017.74 307.773 6017.74 307.773 6054.29 330.427C6090.82 355.435 6090.82 355.435 6149.86 354.739C6165.63 353.827 6181.4 352.915 6197.65 351.976C6196.41 343.589 6195.18 335.201 6193.9 326.559C6193.9 280.78 6225.94 242.692 6257.62 201.685C6262.64 194.836 6267.67 187.987 6272.84 180.93C6309.07 134.225 6309.07 134.225 6345.7 120.185C6377.56 113.278 6377.56 113.278 6437.53 113.278C6439.73 106.646 6441.93 100.013 6444.2 93.1797C6480.32 -4.01592 6537.36 -71.6358 6675.18 -130.945C6760.63 -163.196 6831.03 -168.222 6932.27 -160.782C6983.64 -140.587 6994.27 -124.375 7007.23 -90.0568C7023.52 -96.2962 7023.52 -96.2962 7040.14 -102.662C7345.88 -218.766 7345.88 -218.766 7520.72 -175.148Z" fill="#5C7799"/>
<path d="M7427.01 -178.464C7427.01 -175.546 7427.01 -172.629 7427.01 -169.623C7392.38 -166.706 7357.75 -163.788 7322.07 -160.782C7307.04 -134.192 7302.53 -111.821 7298.64 -83.9792C7296.76 -70.7995 7296.76 -70.7995 7294.84 -57.3536C7293.93 -50.6413 7293.02 -43.9289 7292.08 -37.0132C7279.72 -39.9306 7267.35 -42.848 7254.6 -45.8538C7183.82 -57.7788 7121.05 -60.4226 7048.46 -49.7216C6983.24 -18.1317 6960.08 20.751 6951.01 68.5222C6949.52 80.4843 6948.18 92.4553 6947.26 104.437C6962.1 104.437 6976.95 104.437 6992.24 104.437C6995.64 98.7849 6999.04 93.1323 7002.55 87.3086C7022.22 69.0747 7022.22 69.0747 7061.58 62.4442C7073.33 61.7149 7085.08 60.9855 7097.18 60.234C7170.27 111.068 7170.27 111.068 7187.14 130.959C7209.4 135.335 7209.4 135.335 7232.12 139.8C7254.28 165.939 7248.01 190.566 7247.11 219.366C7242.16 213.531 7237.21 207.696 7232.12 201.685C7222.22 201.685 7212.33 201.685 7202.13 201.685C7202.13 195.85 7202.13 190.015 7202.13 184.003C7192.24 184.003 7182.34 184.003 7172.15 184.003C7164.72 166.499 7164.72 166.499 7157.15 148.641C7092.84 142.806 7028.52 136.971 6962.25 130.959C6962.25 136.794 6962.25 142.629 6962.25 148.641C6952.65 150.578 6943.04 152.515 6933.15 154.511C6809 181.35 6707.49 217.765 6647.42 290.091C6649.42 323.511 6649.42 323.511 6662.41 351.976C6701.99 354.893 6741.57 357.811 6782.35 360.816C6761.82 386.893 6739.2 409.658 6707.39 431.542C6697.49 431.542 6687.6 431.542 6677.4 431.542C6677.4 437.376 6677.4 443.211 6677.4 449.223C6667.51 449.223 6657.61 449.223 6647.42 449.223C6652.36 431.718 6657.31 414.214 6662.41 396.179C6601.59 414.596 6567.92 429 6542.47 466.904C6538.89 499.449 6539.86 531.591 6542.47 564.151C6506.08 555.738 6470.93 547.57 6436.59 536.524C6403.74 526.363 6403.74 526.363 6347.57 528.789C6357.47 540.459 6367.36 552.128 6377.56 564.151C6340.1 550.911 6304.69 537.492 6272.61 519.948C6266.05 495.084 6266.05 495.084 6272.61 475.745C6167.25 466.559 6167.25 466.559 6062.72 475.745C6057.77 484.497 6052.82 493.249 6047.73 502.267C6029.17 498.164 6029.17 498.164 6010.25 493.979C5951.91 483.536 5898.38 479.438 5837.84 475.745C5837.84 472.827 5837.84 469.91 5837.84 466.904C5783.48 465.124 5749.91 468.162 5702.91 484.586C5711.63 430.575 5743.99 395.4 5814.41 360.264C5827.09 354.611 5839.77 348.959 5852.83 343.135C5864.89 334.93 5876.95 326.725 5889.37 318.271C5927.79 298.932 5927.79 298.932 5972.77 297.827C6017.74 307.772 6017.74 307.772 6054.29 330.427C6090.82 355.435 6090.82 355.435 6149.86 354.738C6165.63 353.827 6181.4 352.915 6197.65 351.976C6196.41 343.588 6195.18 335.201 6193.9 326.559C6193.9 280.779 6225.94 242.691 6257.62 201.685C6262.64 194.835 6267.67 187.986 6272.85 180.93C6309.07 134.224 6309.07 134.224 6345.7 120.185C6377.56 113.278 6377.56 113.278 6437.53 113.278C6439.73 106.645 6441.93 100.013 6444.2 93.1793C6480.32 -4.01628 6537.37 -71.6362 6675.18 -130.945C6760.63 -163.196 6831.03 -168.222 6932.27 -160.782C6983.64 -140.587 6994.27 -124.376 7007.23 -90.0571C7023.52 -96.2965 7023.52 -96.2965 7040.14 -102.662C7083.94 -119.292 7128.01 -135.631 7172.15 -151.942C7186.99 -157.594 7201.83 -163.247 7217.12 -169.07C7286.23 -183.503 7354.46 -180.519 7427.01 -178.464Z" fill="#FCF7ED"/>
<path d="M7427.01 -178.464C7427.01 -175.546 7427.01 -172.629 7427.01 -169.623C7392.38 -166.706 7357.75 -163.788 7322.07 -160.782C7307.04 -134.192 7302.53 -111.821 7298.64 -83.9792C7297.39 -75.1927 7296.13 -66.4063 7294.84 -57.3536C7293.47 -47.2851 7293.47 -47.2851 7292.08 -37.0132C7279.71 -39.9306 7267.35 -42.848 7254.6 -45.8538C7183.82 -57.7788 7121.05 -60.4226 7048.46 -49.7216C6983.24 -18.1317 6960.08 20.751 6951.01 68.5222C6949.52 80.4843 6948.18 92.4553 6947.26 104.437C6962.1 104.437 6976.95 104.437 6992.24 104.437C6995.64 98.7849 6999.04 93.1323 7002.55 87.3086C7022.22 69.0747 7022.22 69.0747 7061.58 62.4442C7073.33 61.7149 7085.08 60.9855 7097.18 60.234C7170.27 111.068 7170.27 111.068 7187.14 130.959C7201.98 133.877 7216.82 136.794 7232.11 139.8C7254.28 165.939 7248.01 190.566 7247.11 219.366C7242.16 213.531 7237.21 207.696 7232.11 201.685C7222.22 201.685 7212.32 201.685 7202.13 201.685C7202.13 195.85 7202.13 190.015 7202.13 184.003C7192.23 184.003 7182.34 184.003 7172.15 184.003C7164.72 166.499 7164.72 166.499 7157.15 148.641C7092.84 142.806 7028.52 136.971 6962.25 130.959C6962.25 136.794 6962.25 142.629 6962.25 148.641C6952.65 150.578 6943.04 152.515 6933.15 154.511C6809 181.35 6707.49 217.765 6647.42 290.091C6649.42 323.511 6649.42 323.511 6662.41 351.976C6701.99 354.893 6741.57 357.811 6782.35 360.816C6761.82 386.893 6739.19 409.658 6707.39 431.542C6697.49 431.542 6687.6 431.542 6677.4 431.542C6677.4 437.376 6677.4 443.211 6677.4 449.223C6667.51 449.223 6657.61 449.223 6647.42 449.223C6652.36 431.718 6657.31 414.214 6662.41 396.179C6601.59 414.596 6567.91 429 6542.47 466.904C6538.89 499.449 6539.86 531.591 6542.47 564.151C6498.77 554.657 6470.84 548.432 6437.52 528.789C6452.37 524.413 6452.37 524.413 6467.51 519.948C6478.97 500.374 6478.97 500.374 6488.12 477.403C6505.45 441.636 6518.24 417.805 6572.46 396.179C6613.68 389.549 6613.68 389.549 6647.42 387.338C6640.13 383.84 6632.84 380.341 6625.34 376.736C6588.4 351.056 6595.31 326.822 6597.46 294.373C6611.42 232.796 6702.08 195.757 6775.79 156.204C6810 140.848 6830.38 134.45 6872.3 130.959C6872.3 125.124 6872.3 119.29 6872.3 113.278C6887.14 113.278 6901.98 113.278 6917.28 113.278C6915.5 108.024 6913.72 102.771 6911.89 97.3579C6894.8 32.574 6917.67 -13.0212 6962.25 -72.3758C6932.57 -69.4584 6902.88 -66.541 6872.3 -63.5351C6868.55 -83.9792 6868.55 -83.9792 6872.3 -107.738C6902.28 -123.762 6902.28 -123.762 6932.27 -134.26C6915.99 -145.865 6915.99 -145.865 6876.46 -143.964C6859.93 -143.862 6843.41 -143.759 6826.39 -143.654C6809.82 -143.574 6793.26 -143.494 6776.2 -143.412C6763.38 -143.309 6750.57 -143.207 6737.37 -143.101C6776.11 -165.945 6794.1 -163.672 6847.94 -164.098C6925.98 -163.254 6925.98 -163.254 6971.62 -145.311C6991.43 -126.2 6999.08 -111.639 7007.23 -90.0571C7018.09 -94.2167 7028.95 -98.3763 7040.14 -102.662C7083.93 -119.292 7128.01 -135.631 7172.15 -151.942C7186.99 -157.594 7201.83 -163.247 7217.12 -169.07C7286.23 -183.503 7354.45 -180.519 7427.01 -178.464Z" fill="#CABAB7"/>
<path d="M6452.52 60.2344C6457.47 60.2344 6462.41 60.2344 6467.51 60.2344C6467.51 86.4911 6467.51 112.748 6467.51 139.8C6427.93 148.553 6388.35 157.305 6347.57 166.322C6357.47 169.24 6367.36 172.157 6377.56 175.163C6377.56 180.998 6377.56 186.833 6377.56 192.844C6417.14 189.927 6456.72 187.009 6497.49 184.004C6497.49 189.838 6497.49 195.673 6497.49 201.685C6483.41 204.095 6483.41 204.095 6469.03 206.554C6456.78 208.776 6444.53 210.999 6431.9 213.288C6413.64 216.519 6413.64 216.519 6395.01 219.815C6357.59 227.444 6357.59 227.444 6332.58 254.729C6302.72 260.838 6272.74 266.744 6242.63 272.41C6237.68 278.245 6232.73 284.08 6227.63 290.091C6247.42 293.009 6267.21 295.926 6287.6 298.932C6284.79 319.376 6284.79 319.376 6272.61 343.135C6218.48 369.585 6176.72 372.497 6107.7 369.657C6112.64 384.244 6117.59 398.832 6122.69 413.861C6172.16 419.695 6221.64 425.53 6272.61 431.542C6272.61 437.377 6272.61 443.212 6272.61 449.223C6282.51 449.223 6292.4 449.223 6302.6 449.223C6306.31 457.611 6310.02 465.998 6313.84 474.64C6327.87 503.036 6327.87 503.036 6364.44 514.423C6373.71 516.247 6382.99 518.07 6392.55 519.949C6377.71 522.866 6362.86 525.783 6347.57 528.789C6357.47 540.459 6367.36 552.129 6377.56 564.152C6340.1 550.911 6304.69 537.492 6272.61 519.949C6266.05 495.084 6266.05 495.084 6272.61 475.745C6167.25 466.559 6167.25 466.559 6062.72 475.745C6057.77 484.498 6052.82 493.25 6047.73 502.267C6035.36 499.532 6022.99 496.797 6010.25 493.979C5951.91 483.536 5898.38 479.439 5837.84 475.745C5837.84 472.828 5837.84 469.91 5837.84 466.905C5783.48 465.124 5749.91 468.162 5702.91 484.586C5711.63 430.575 5743.99 395.401 5814.41 360.264C5827.09 354.612 5839.77 348.959 5852.83 343.135C5864.89 334.93 5876.95 326.725 5889.37 318.271C5927.79 298.932 5927.79 298.932 5972.77 297.827C6017.74 307.773 6017.74 307.773 6054.29 330.427C6090.82 355.435 6090.82 355.435 6149.86 354.739C6165.63 353.827 6181.4 352.915 6197.65 351.976C6196.41 343.588 6195.18 335.201 6193.9 326.559C6193.9 280.779 6225.94 242.692 6257.62 201.685C6262.64 194.836 6267.67 187.987 6272.85 180.93C6309.07 134.225 6309.07 134.225 6345.7 120.185C6377.56 113.278 6377.56 113.278 6437.53 113.278C6442.47 95.7738 6447.42 78.2693 6452.52 60.2344Z" fill="#E9C5AD"/>
<path d="M6017.74 307.772C6060.85 328.769 6060.85 328.769 6092.7 351.976C6092.7 360.728 6092.7 369.48 6092.7 378.498C6083.43 380.503 6074.15 382.509 6064.59 384.576C6023.6 396.932 6023.6 396.932 6002.75 440.382C5913.7 440.382 5824.64 440.382 5732.89 440.382C5750.37 399.159 5771.64 389.638 5822.84 360.816C5836.47 351.337 5849.91 341.759 5863.14 332.084C5915.47 295.384 5940.36 295.246 6017.74 307.772Z" fill="#F0EBE1"/>
<path d="M6872.3 113.278C6887.29 139.8 6887.29 139.8 6872.3 166.322C6844.48 178.029 6844.48 178.029 6809.52 190.082C6739.74 216.681 6683.21 245.018 6647.42 290.091C6644.67 313.877 6650.89 328.688 6662.41 351.976C6701.99 354.893 6741.57 357.811 6782.35 360.817C6761.82 386.893 6739.19 409.659 6707.39 431.542C6697.49 431.542 6687.6 431.542 6677.4 431.542C6677.4 437.377 6677.4 443.212 6677.4 449.223C6667.51 449.223 6657.61 449.223 6647.42 449.223C6654.84 422.967 6654.84 422.967 6662.41 396.179C6601.59 414.596 6567.91 429.001 6542.47 466.905C6538.89 499.449 6539.86 531.591 6542.47 564.152C6498.77 554.657 6470.84 548.432 6437.52 528.789C6452.37 524.413 6452.37 524.413 6467.51 519.949C6478.97 500.375 6478.97 500.375 6488.12 477.403C6505.45 441.636 6518.24 417.805 6572.46 396.179C6613.68 389.549 6613.68 389.549 6647.42 387.339C6640.13 383.84 6632.84 380.341 6625.34 376.737C6588.4 351.056 6595.31 326.822 6597.46 294.374C6611.42 232.797 6702.08 195.758 6775.79 156.204C6810 140.848 6830.38 134.45 6872.3 130.96C6872.3 125.125 6872.3 119.29 6872.3 113.278Z" fill="#DDC5BD"/>
<path d="M5687.91 466.905C5692.86 472.74 5697.81 478.574 5702.91 484.586C5722.7 481.669 5742.49 478.751 5762.88 475.745C5762.88 481.58 5762.88 487.415 5762.88 493.427C5777.72 496.344 5792.56 499.262 5807.85 502.267C5778.17 511.02 5778.17 511.02 5747.88 519.949C5747.88 528.154 5747.88 536.359 5747.88 544.813C5747.88 563.047 5747.88 581.281 5747.88 599.515C5757.27 614.388 5767.19 629.152 5777.87 643.718C5812.5 643.718 5847.13 643.718 5882.81 643.718C5882.81 652.47 5882.81 661.222 5882.81 670.24C5892.71 673.157 5902.6 676.075 5912.8 679.081C5902.9 681.998 5893.01 684.915 5882.81 687.921C5892.89 705.726 5892.89 705.726 5912.8 723.284C5945.36 731.343 5945.36 731.343 5982.14 734.335C5994.39 735.657 6006.64 736.979 6019.27 738.341C6028.66 739.207 6038.05 740.073 6047.73 740.965C6047.73 749.717 6047.73 758.47 6047.73 767.487C6072.46 770.405 6097.2 773.322 6122.69 776.328C6122.69 779.245 6122.69 782.163 6122.69 785.168C5922.23 793.197 5922.23 793.197 5865.65 774.601C5837.61 755.631 5822.47 739.366 5823.78 713.891C5828.42 708.238 5833.06 702.586 5837.84 696.762C5843.09 688.739 5848.35 680.716 5853.77 672.45C5858.4 665.886 5863.04 659.322 5867.82 652.559C5851.74 653.47 5835.66 654.382 5819.1 655.321C5762.88 652.559 5762.88 652.559 5727.27 632.115C5688.32 594.133 5686.24 566.4 5686.98 522.711C5687.11 512.284 5687.25 501.856 5687.39 491.113C5687.56 483.124 5687.73 475.136 5687.91 466.905Z" fill="#4A596C"/>
<path d="M6812.33 732.124C6812.33 737.959 6812.33 743.794 6812.33 749.806C6677.13 759.93 6543.55 759.484 6407.54 758.646C6407.54 764.481 6407.54 770.316 6407.54 776.328C6397.65 776.328 6387.75 776.328 6377.56 776.328C6377.56 782.162 6377.56 787.997 6377.56 794.009C6402.54 792.094 6402.54 792.094 6428.04 790.141C6546.89 781.303 6662.29 774.08 6782.35 776.328C6782.35 782.162 6782.35 787.997 6782.35 794.009C6642.97 811.194 6508.28 813.864 6366.31 812.795C6345.46 812.706 6324.61 812.626 6303.77 812.554C6253.4 812.347 6203.04 812.058 6152.67 811.69C6152.67 805.855 6152.67 800.02 6152.67 794.009C6172.46 791.091 6192.25 788.174 6212.64 785.168C6168.11 780.792 6168.11 780.792 6122.69 776.328C6122.69 773.41 6122.69 770.493 6122.69 767.487C6167.21 767.487 6211.74 767.487 6257.62 767.487C6257.62 776.239 6257.62 784.991 6257.62 794.009C6292.25 796.926 6326.88 799.844 6362.56 802.85C6348.19 782.244 6348.19 782.244 6302.59 767.487C6372.76 752.029 6441.2 744.644 6515.3 739.86C6532.01 738.734 6532.01 738.734 6549.06 737.585C6636.98 732.008 6723.9 730.097 6812.33 732.124Z" fill="#323741"/>
<path d="M7337.06 -187.304C7404.59 -190.49 7457.58 -190.9 7520.72 -175.148C7596.59 -132.439 7645.32 -74.0065 7653.07 -11.8031C7649.94 38.8742 7639.99 88.4498 7591.93 130.96C7591.37 121.695 7590.81 112.43 7590.23 102.884C7589.25 90.693 7588.25 78.5025 7587.24 66.3124C7586.91 60.2097 7586.57 54.1071 7586.22 47.8195C7582.9 11.0123 7575.85 -3.24173 7531.96 -28.1721C7525.84 -57.9706 7525.37 -87.1664 7524.52 -117.166C7522.03 -125.724 7519.54 -134.283 7516.97 -143.101C7488.65 -155.623 7488.65 -155.623 7457 -160.782C7452.05 -163.699 7447.1 -166.617 7442.01 -169.623C7407.1 -172.873 7372.11 -175.832 7337.06 -178.463C7337.06 -181.381 7337.06 -184.298 7337.06 -187.304Z" fill="#566D95"/>
<path d="M7666.89 714.443C7676.78 717.361 7686.68 720.278 7696.87 723.284C7686.98 729.119 7677.08 734.954 7666.89 740.965C7693.44 739.7 7693.44 739.7 7720.53 738.41C7743.88 737.415 7767.23 736.425 7790.58 735.44C7802.23 734.87 7813.88 734.3 7825.89 733.713C7932.62 729.41 7932.62 729.41 7981.73 749.806C7962.25 749.441 7942.77 749.077 7922.69 748.701C7874.47 748.657 7832.49 750.932 7785.89 758.094C7683.56 773.287 7576.96 773.442 7471.99 776.328C7471.99 782.163 7471.99 787.998 7471.99 794.009C7326.77 803.249 7183.04 803.767 7037.22 802.85C7037.22 797.015 7037.22 791.18 7037.22 785.169C7081.74 776.416 7126.27 767.664 7172.15 758.647C7167.2 767.399 7162.25 776.151 7157.15 785.169C7241.26 785.169 7325.37 785.169 7412.02 785.169C7412.02 779.334 7412.02 773.499 7412.02 767.487C7471.86 750.413 7525.27 746.907 7590.64 744.868C7628.57 740.134 7642.37 731.708 7666.89 714.443Z" fill="#3C4968"/>
<path d="M6452.52 60.2344C6457.46 60.2344 6462.41 60.2344 6467.51 60.2344C6467.51 86.4911 6467.51 112.748 6467.51 139.8C6427.93 148.553 6388.35 157.305 6347.57 166.322C6357.47 169.24 6367.36 172.157 6377.56 175.163C6377.56 180.998 6377.56 186.833 6377.56 192.844C6417.14 189.927 6456.71 187.009 6497.49 184.004C6497.49 189.838 6497.49 195.673 6497.49 201.685C6488.1 203.292 6478.71 204.899 6469.03 206.554C6456.78 208.776 6444.53 210.999 6431.9 213.288C6413.64 216.519 6413.64 216.519 6395.01 219.815C6357.59 227.444 6357.59 227.444 6332.58 254.729C6312.79 254.729 6293 254.729 6272.61 254.729C6263.98 168.215 6263.98 168.215 6317.59 130.96C6362.66 112.954 6380.42 113.278 6437.52 113.278C6442.47 95.7738 6447.42 78.2693 6452.52 60.2344Z" fill="#F0E5DB"/>
<path d="M7202.13 -63.5346C7212.02 -57.6998 7221.92 -51.865 7232.11 -45.8533C7197.48 -42.9359 7162.85 -40.0185 7127.17 -37.0126C7122.22 -28.2604 7117.27 -19.5081 7112.18 -10.4907C7095.01 -8.57612 7095.01 -8.57612 7077.51 -6.62289C7035.99 -1.97483 7035.99 -1.97482 6992.24 7.19065C6992.24 15.9429 6992.24 24.6951 6992.24 33.7126C7021.92 30.7952 7051.61 27.8778 7082.19 24.872C7082.19 30.7068 7082.19 36.5416 7082.19 42.5533C7092.09 42.5533 7101.98 42.5533 7112.18 42.5533C7107.23 51.3055 7102.28 60.0578 7097.18 69.0753C7085.43 69.9869 7073.68 70.8986 7061.58 71.838C7017.27 75.9352 7017.27 75.9352 6992.24 104.438C6977.4 104.438 6962.55 104.438 6947.26 104.438C6939.17 45.9637 6947.38 10.6774 7007.23 -37.0126C7069.52 -68.6427 7123.4 -67.3402 7202.13 -63.5346Z" fill="#7F9FBB"/>
<path d="M7037.22 60.2344C7091.22 61.9557 7108.65 66.8221 7145.91 90.6241C7172.15 113.278 7172.15 113.278 7187.14 130.96C7201.98 133.877 7216.82 136.794 7232.12 139.8C7254.28 165.939 7248.01 190.566 7247.11 219.366C7242.16 213.531 7237.21 207.697 7232.12 201.685C7222.22 201.685 7212.33 201.685 7202.13 201.685C7202.13 195.85 7202.13 190.015 7202.13 184.004C7192.24 184.004 7182.34 184.004 7172.15 184.004C7171.22 178.533 7170.29 173.063 7169.34 167.427C7159.99 146.678 7159.99 146.678 7123.42 138.695C7109.82 136.142 7096.21 133.59 7082.19 130.96C7057.21 125.066 7032.22 119.172 7007.23 113.278C7020.35 70.1801 7020.35 70.1801 7037.22 60.2344Z" fill="#E5E9EA"/>
<path d="M6107.7 387.338C6112.64 396.091 6117.59 404.843 6122.69 413.86C6172.16 419.695 6221.64 425.53 6272.61 431.542C6272.61 437.377 6272.61 443.211 6272.61 449.223C6282.51 449.223 6292.4 449.223 6302.6 449.223C6306.31 457.611 6310.02 465.998 6313.84 474.64C6327.87 503.035 6327.87 503.035 6364.44 514.423C6373.71 516.246 6382.99 518.07 6392.55 519.948C6377.71 522.866 6362.86 525.783 6347.57 528.789C6357.47 540.459 6367.36 552.128 6377.56 564.152C6340.1 550.911 6304.69 537.492 6272.61 519.948C6266.05 495.084 6266.05 495.084 6272.61 475.745C6180.16 453.409 6116.15 446.457 6017.74 458.064C6036.2 425.405 6065.84 410.756 6107.7 387.338Z" fill="#FAEADC"/>
<path d="M6962.25 157.482C6952.36 172.069 6942.46 186.656 6932.27 201.685C6922.37 201.685 6912.48 201.685 6902.28 201.685C6902.28 195.85 6902.28 190.015 6902.28 184.004C6815.74 195.206 6756.69 220.68 6707.39 263.569C6695.14 290.338 6691.65 315.474 6692.39 343.135C6712.18 343.135 6731.97 343.135 6752.36 343.135C6752.36 348.97 6752.36 354.805 6752.36 360.817C6709.26 362.474 6709.26 362.474 6662.41 360.817C6632.42 334.295 6632.42 334.295 6631.49 306.115C6665.92 233.259 6761.62 194.687 6867.32 156.895C6906.86 147.561 6923.14 148.626 6962.25 157.482Z" fill="#8192A8"/>
<path d="M6962.25 -45.8535C6967.2 -40.0187 6972.15 -34.1838 6977.25 -28.1722C6987.14 -25.2548 6997.04 -22.3374 7007.23 -19.3315C7000.12 -13.679 6993.01 -8.02655 6985.68 -2.20277C6955.2 33.0212 6951.44 65.4056 6947.26 104.438C6962.1 104.438 6976.95 104.438 6992.24 104.438C6997.19 98.6028 7002.13 92.768 7007.23 86.7563C7007.23 95.5086 7007.23 104.261 7007.23 113.278C7031.97 116.196 7056.7 119.113 7082.19 122.119C7082.19 125.036 7082.19 127.954 7082.19 130.96C7042.61 130.96 7003.03 130.96 6962.25 130.96C6962.25 136.794 6962.25 142.629 6962.25 148.641C6932.57 151.558 6902.88 154.476 6872.3 157.482C6877.25 142.895 6882.19 128.307 6887.29 113.278C6897.19 113.278 6907.08 113.278 6917.28 113.278C6915.67 107.614 6914.07 101.951 6912.42 96.115C6899.78 42.3741 6902.55 10.6524 6947.26 -37.0129C6952.21 -39.9303 6957.16 -42.8477 6962.25 -45.8535Z" fill="#DACDCA"/>
<path d="M6872.3 113.278C6887.29 139.8 6887.29 139.8 6872.3 166.322C6844.48 178.029 6844.48 178.029 6809.52 190.082C6717.02 225.259 6654.49 266.135 6626.8 329.874C6623.71 340.085 6620.62 350.296 6617.43 360.817C6612.48 360.817 6607.54 360.817 6602.44 360.817C6597.42 319.189 6593.68 283.912 6623.05 245.336C6785.42 138.194 6785.42 138.194 6872.3 130.96C6872.3 125.125 6872.3 119.29 6872.3 113.278Z" fill="#EDD5C8"/>
<path d="M6227.63 458.064C6222.69 475.568 6217.74 493.073 6212.64 511.108C6202.75 511.108 6192.85 511.108 6182.66 511.108C6172.76 522.777 6162.87 534.447 6152.67 546.47C6113.09 537.718 6073.51 528.966 6032.73 519.948C6042.63 502.444 6052.52 484.939 6062.72 466.904C6118.71 459.136 6170.18 457.276 6227.63 458.064Z" fill="#758497"/>
<path d="M6812.33 732.124C6812.33 737.959 6812.33 743.794 6812.33 749.806C6677.13 759.93 6543.55 759.484 6407.54 758.646C6407.54 764.481 6407.54 770.316 6407.54 776.328C6397.65 776.328 6387.75 776.328 6377.56 776.328C6377.56 782.162 6377.56 787.997 6377.56 794.009C6446.82 794.009 6516.08 794.009 6587.45 794.009C6587.45 796.926 6587.45 799.844 6587.45 802.85C6513.24 802.85 6439.02 802.85 6362.56 802.85C6357.62 797.015 6352.67 791.18 6347.57 785.168C6332.73 779.333 6317.89 773.499 6302.59 767.487C6372.76 752.029 6441.2 744.644 6515.3 739.86C6532.01 738.734 6532.01 738.734 6549.06 737.585C6636.98 732.008 6723.91 730.097 6812.33 732.124Z" fill="#434B56"/>
<path d="M5687.91 466.905C5692.86 472.74 5697.81 478.574 5702.91 484.586C5722.7 481.669 5742.48 478.751 5762.87 475.745C5762.87 481.58 5762.87 487.415 5762.87 493.427C5777.72 496.344 5792.56 499.262 5807.85 502.267C5778.17 511.02 5778.17 511.02 5747.88 519.949C5747.88 528.154 5747.88 536.359 5747.88 544.813C5747.88 563.047 5747.88 581.281 5747.88 599.515C5757.27 614.388 5767.18 629.152 5777.87 643.718C5737.76 635.047 5721.1 629.654 5701.03 606.974C5685.57 577.335 5684.98 552.561 5686.04 521.606C5686.31 511.338 5686.58 501.07 5686.86 490.491C5687.21 482.708 5687.55 474.924 5687.91 466.905Z" fill="#586070"/>
<path d="M5717.9 431.542C5782.21 431.542 5846.53 431.542 5912.8 431.542C5912.8 443.212 5912.8 454.881 5912.8 466.905C5937.53 469.822 5962.27 472.739 5987.76 475.745C5938.54 490.257 5891.43 480.333 5837.84 475.745C5837.84 472.828 5837.84 469.91 5837.84 466.905C5783.48 465.124 5749.91 468.162 5702.91 484.586C5707.85 467.081 5712.8 449.577 5717.9 431.542Z" fill="#E9B399"/>
<path d="M6257.62 201.685C6262.57 201.685 6267.51 201.685 6272.61 201.685C6278.15 249.56 6278.15 249.56 6250.12 275.725C6242.7 280.466 6235.28 285.207 6227.63 290.091C6247.42 293.009 6267.21 295.926 6287.6 298.932C6276.36 340.925 6276.36 340.925 6242.63 360.816C6188.28 361.921 6188.28 361.921 6137.68 360.816C6157.47 357.899 6177.26 354.982 6197.65 351.976C6196.41 343.588 6195.18 335.201 6193.9 326.559C6193.27 281.18 6226.53 242.364 6257.62 201.685Z" fill="#B2A196"/>
<path d="M6332.58 519.949C6400.9 523.823 6446.17 527.467 6497.49 555.311C6482.65 555.311 6467.81 555.311 6452.52 555.311C6452.52 561.146 6452.52 566.981 6452.52 572.993C6467.36 575.91 6482.2 578.828 6497.49 581.833C6482.5 590.674 6482.5 590.674 6436.59 591.227C6422.06 591.044 6407.52 590.862 6392.55 590.674C6392.55 584.839 6392.55 579.004 6392.55 572.993C6382.65 570.075 6372.76 567.158 6362.56 564.152C6351.75 549.621 6341.67 534.885 6332.58 519.949Z" fill="#667C9A"/>
<path d="M7367.04 60.2344C7386.83 60.2344 7406.62 60.2344 7427.01 60.2344C7443.88 80.1259 7443.88 80.1259 7457 104.438C7443.88 124.882 7443.88 124.882 7427.01 139.8C7407.22 136.883 7387.43 133.965 7367.04 130.96C7361.34 110.396 7356.36 89.7573 7352.05 69.075C7357 66.1576 7361.95 63.2402 7367.04 60.2344Z" fill="#627EA9"/>
<path d="M6992.24 86.7563C6997.19 95.5086 7002.13 104.261 7007.23 113.278C7031.97 116.196 7056.7 119.113 7082.19 122.119C7082.19 125.036 7082.19 127.954 7082.19 130.96C7042.61 130.96 7003.03 130.96 6962.25 130.96C6962.25 136.794 6962.25 142.629 6962.25 148.641C6932.57 151.558 6902.88 154.476 6872.3 157.482C6877.25 142.895 6882.19 128.307 6887.29 113.278C6939.24 108.902 6939.24 108.902 6992.24 104.438C6992.24 98.6028 6992.24 92.768 6992.24 86.7563Z" fill="#CDC3C4"/>
<path d="M6302.6 449.223C6306.31 457.611 6310.02 465.998 6313.84 474.64C6327.87 503.036 6327.87 503.036 6364.44 514.423C6373.71 516.246 6382.99 518.07 6392.55 519.948C6377.71 522.866 6362.86 525.783 6347.57 528.789C6357.47 540.459 6367.36 552.128 6377.56 564.152C6340.11 550.914 6304.66 537.509 6272.61 519.948C6268.86 496.189 6268.86 496.189 6272.61 475.745C6257.77 469.91 6242.93 464.075 6227.63 458.064C6257.62 449.223 6257.62 449.223 6302.6 449.223Z" fill="#CBBCB7"/>
<path d="M7067.2 24.8716C7072.15 30.7064 7077.1 36.5413 7082.19 42.5529C7092.09 42.5529 7101.98 42.5529 7112.18 42.5529C7107.23 51.3052 7102.28 60.0574 7097.18 69.0749C7086.05 70.1689 7074.92 71.2629 7063.45 72.3901C7025.2 77.5165 6996.34 84.4319 6962.25 95.5969C6970.89 74.5062 6980.58 54.339 6992.24 33.7122C7016.98 30.7948 7041.71 27.8774 7067.2 24.8716Z" fill="#7196B2"/>
<path d="M7142.16 758.646C7152.06 761.564 7161.95 764.481 7172.15 767.487C7167.2 773.322 7162.25 779.157 7157.15 785.168C7201.68 788.086 7246.21 791.003 7292.08 794.009C7292.08 796.927 7292.08 799.844 7292.08 802.85C7207.98 802.85 7123.87 802.85 7037.22 802.85C7037.22 797.015 7037.22 791.18 7037.22 785.168C7071.75 775.74 7106.78 766.919 7142.16 758.646Z" fill="#2C3448"/>
<path d="M6062.72 466.905C6082.51 469.822 6102.3 472.74 6122.69 475.745C6107.85 475.745 6093 475.745 6077.71 475.745C6077.71 484.498 6077.71 493.25 6077.71 502.267C6102.45 502.267 6127.19 502.267 6152.67 502.267C6152.67 513.937 6152.67 525.607 6152.67 537.63C6113.09 531.795 6073.51 525.96 6032.73 519.949C6042.63 502.444 6052.52 484.94 6062.72 466.905Z" fill="#9D9699"/>
<path d="M5816.28 457.511C5833.29 457.694 5850.3 457.876 5867.82 458.064C5867.82 460.981 5867.82 463.899 5867.82 466.904C5912.35 471.281 5912.35 471.281 5957.77 475.745C5957.77 478.663 5957.77 481.58 5957.77 484.586C5861.3 488.962 5861.3 488.962 5762.87 493.426C5757.93 484.674 5752.98 475.922 5747.88 466.904C5762.87 458.064 5762.87 458.064 5816.28 457.511Z" fill="#978B88"/>
<path d="M7007.23 86.7563C7046.81 89.6738 7086.39 92.5912 7127.17 95.597C7122.22 107.267 7117.27 118.936 7112.18 130.96C7077.55 125.125 7042.91 119.29 7007.23 113.278C7007.23 104.526 7007.23 95.7738 7007.23 86.7563Z" fill="#F6EBDF"/>
<path d="M5852.83 484.586C5892.41 484.586 5931.99 484.586 5972.77 484.586C5972.77 499.173 5972.77 513.76 5972.77 528.789C5952.98 528.789 5933.19 528.789 5912.8 528.789C5912.8 520.037 5912.8 511.285 5912.8 502.267C5893.01 502.267 5873.22 502.267 5852.83 502.267C5852.83 496.432 5852.83 490.598 5852.83 484.586Z" fill="#6A788A"/>
<path d="M6137.68 440.383C6137.68 449.135 6137.68 457.887 6137.68 466.905C6112.94 469.822 6088.21 472.74 6062.72 475.745C6057.77 484.498 6052.82 493.25 6047.73 502.267C6027.94 496.433 6008.15 490.598 5987.76 484.586C6003.69 467.457 6003.69 467.457 6032.73 449.223C6088.02 442.593 6088.02 442.593 6137.68 440.383Z" fill="#E1BFAA"/>
<path d="M5762.87 643.718C5802.45 643.718 5842.03 643.718 5882.81 643.718C5882.81 652.47 5882.81 661.222 5882.81 670.24C5892.71 673.157 5902.6 676.075 5912.8 679.08C5905.68 682.545 5898.57 686.009 5891.24 689.579C5862.55 709.21 5858.63 724.466 5852.83 749.806C5842.93 743.971 5833.04 738.136 5822.84 732.124C5829.4 704.075 5849.43 678.579 5867.82 652.558C5833.19 652.558 5798.56 652.558 5762.87 652.558C5762.87 649.641 5762.87 646.724 5762.87 643.718Z" fill="#48525E"/>
<path d="M6212.64 431.542C6249.18 440.383 6249.18 440.383 6272.61 449.223C6257.62 458.064 6257.62 458.064 6205.15 459.169C6152.67 458.064 6152.67 458.064 6137.68 449.223C6112.7 448.864 6087.7 448.846 6062.72 449.223C6118.21 427.409 6147.01 428.826 6212.64 431.542Z" fill="#F4D1C1"/>
<path d="M6692.39 369.657C6717.13 372.575 6741.87 375.492 6767.35 378.498C6748.25 396.518 6728.22 414.201 6707.39 431.542C6697.49 431.542 6687.6 431.542 6677.4 431.542C6682.35 411.12 6687.3 390.698 6692.39 369.657Z" fill="#E5D8CE"/>
<path d="M6197.65 290.091C6202.6 295.926 6207.54 301.761 6212.64 307.773C6227.48 307.773 6242.33 307.773 6257.62 307.773C6252.67 325.277 6247.72 342.782 6242.63 360.817C6207.99 360.817 6173.36 360.817 6137.68 360.817C6157.47 357.899 6177.26 354.982 6197.65 351.976C6197.65 331.554 6197.65 311.132 6197.65 290.091Z" fill="#CDB1A6"/>
<path d="M7187.14 139.8C7201.98 139.8 7216.82 139.8 7232.11 139.8C7254.28 165.939 7248.01 190.566 7247.11 219.366C7242.16 213.531 7237.21 207.697 7232.11 201.685C7222.22 201.685 7212.32 201.685 7202.13 201.685C7202.13 195.85 7202.13 190.015 7202.13 184.004C7192.23 181.086 7182.34 178.169 7172.14 175.163C7177.09 163.493 7182.04 151.824 7187.14 139.8Z" fill="#8BAFCC"/>
<path d="M6962.25 157.481C6952.36 172.068 6942.46 186.656 6932.27 201.685C6922.37 201.685 6912.48 201.685 6902.28 201.685C6902.28 195.85 6902.28 190.015 6902.28 184.003C6882.49 184.003 6862.7 184.003 6842.31 184.003C6842.31 178.169 6842.31 172.334 6842.31 166.322C6888.3 149.857 6911.24 146.738 6962.25 157.481Z" fill="#7292B7"/>
<path d="M6452.52 60.2344C6457.47 60.2344 6462.41 60.2344 6467.51 60.2344C6467.51 86.4911 6467.51 112.748 6467.51 139.8C6432.84 145.878 6432.84 145.878 6392.55 148.641C6365.38 135.933 6365.38 135.933 6347.57 122.119C6377.26 119.202 6406.94 116.284 6437.53 113.278C6442.47 95.7738 6447.42 78.2693 6452.52 60.2344Z" fill="#B9AEA8"/>
<path d="M6092.7 360.817C6127.34 360.817 6161.97 360.817 6197.65 360.817C6197.65 363.734 6197.65 366.652 6197.65 369.658C6167.96 369.658 6138.28 369.658 6107.7 369.658C6102.75 384.245 6097.8 398.832 6092.7 413.861C6077.86 413.861 6063.02 413.861 6047.73 413.861C6037.83 408.026 6027.94 402.191 6017.74 396.18C6027.64 390.345 6037.53 384.51 6047.73 378.498C6062.57 378.498 6077.41 378.498 6092.7 378.498C6092.7 372.663 6092.7 366.829 6092.7 360.817Z" fill="#E7D2BD"/>
<path d="M7412.02 767.487C7441.71 767.487 7471.39 767.487 7501.97 767.487C7487.13 771.863 7487.13 771.863 7471.99 776.328C7471.99 782.163 7471.99 787.998 7471.99 794.009C7397.78 794.009 7323.57 794.009 7247.11 794.009C7247.11 791.092 7247.11 788.174 7247.11 785.169C7301.53 785.169 7355.95 785.169 7412.02 785.169C7412.02 779.334 7412.02 773.499 7412.02 767.487Z" fill="#3F475A"/>
<path d="M7232.11 466.905C7271.69 466.905 7311.27 466.905 7352.05 466.905C7342.16 478.574 7332.26 490.244 7322.07 502.267C7302.28 502.267 7282.49 502.267 7262.1 502.267C7262.1 493.515 7262.1 484.763 7262.1 475.745C7252.2 472.828 7242.31 469.911 7232.11 466.905Z" fill="#6384A9"/>
<path d="M5792.86 449.223C5832.44 449.223 5872.02 449.223 5912.8 449.223C5912.8 455.058 5912.8 460.893 5912.8 466.904C5937.53 469.822 5962.27 472.739 5987.76 475.745C5939.26 490.044 5888.91 482.952 5837.83 475.745C5807.85 461.932 5807.85 461.932 5792.86 449.223Z" fill="#C3A89B"/>
<path d="M6482.5 7.19043C6512.49 24.8717 6512.49 24.8717 6515.41 42.0696C6514.44 59.9121 6513.46 77.7545 6512.49 95.597C6502.59 95.597 6492.7 95.597 6482.5 95.597C6465.63 37.0277 6465.63 37.0277 6482.5 7.19043Z" fill="#E6DFD5"/>
<path d="M5687.91 466.905C5692.86 472.74 5697.81 478.574 5702.9 484.586C5722.69 481.669 5742.48 478.751 5762.87 475.745C5762.87 481.58 5762.87 487.415 5762.87 493.427C5777.72 496.344 5792.56 499.262 5807.85 502.267C5783.11 508.102 5758.38 513.937 5732.89 519.949C5732.89 514.114 5732.89 508.279 5732.89 502.267C5718.05 502.267 5703.2 502.267 5687.91 502.267C5687.91 490.598 5687.91 478.928 5687.91 466.905Z" fill="#656E71"/>
<path d="M6302.59 449.223C6312.49 449.223 6322.38 449.223 6332.58 449.223C6332.58 455.058 6332.58 460.893 6332.58 466.904C6342.47 466.904 6352.37 466.904 6362.56 466.904C6362.56 481.492 6362.56 496.079 6362.56 511.108C6347.72 508.19 6332.88 505.273 6317.59 502.267C6312.64 484.763 6307.69 467.258 6302.59 449.223Z" fill="#F7DBC9"/>
<path d="M6317.59 130.959C6342.32 133.877 6367.06 136.794 6392.55 139.8C6321.34 175.163 6321.34 175.163 6287.6 175.163C6297.5 160.576 6307.39 145.989 6317.59 130.959Z" fill="#E0DCD7"/>
<path d="M6332.58 519.949C6367.21 522.866 6401.84 525.784 6437.53 528.789C6427.63 540.459 6417.74 552.129 6407.54 564.152C6392.7 564.152 6377.86 564.152 6362.56 564.152C6352.67 549.565 6342.77 534.978 6332.58 519.949Z" fill="#737F98"/>
<path d="M7037.22 60.2344C7061.95 63.1518 7086.69 66.0692 7112.18 69.075C7112.18 77.8273 7112.18 86.5795 7112.18 95.597C7077.55 92.6796 7042.91 89.7622 7007.23 86.7564C7017.13 78.0041 7027.02 69.2518 7037.22 60.2344Z" fill="#D7CBC6"/>
<path d="M6167.67 466.905C6202.3 466.905 6236.93 466.905 6272.61 466.905C6272.61 478.574 6272.61 490.244 6272.61 502.267C6252.82 502.267 6233.03 502.267 6212.64 502.267C6212.64 496.433 6212.64 490.598 6212.64 484.586C6197.8 478.751 6182.96 472.916 6167.67 466.905Z" fill="#687D93"/>
<path d="M6827.32 325.454C6857.01 325.454 6886.69 325.454 6917.28 325.454C6894.69 352.093 6856.83 357.374 6812.33 369.657C6817.28 355.07 6822.23 340.483 6827.32 325.454Z" fill="#6889AD"/>
<path d="M6662.41 272.41C6672.3 272.41 6682.2 272.41 6692.39 272.41C6692.39 295.749 6692.39 319.089 6692.39 343.135C6682.5 343.135 6672.6 343.135 6662.41 343.135C6647.7 316.148 6647.7 299.397 6662.41 272.41Z" fill="#688DAE"/>
</g>
<defs>
<clipPath id="clip0_18_908">
<rect width="7437" height="5288" fill="white"/>
</clipPath>
</defs>
</svg>
