<svg width="7437" height="5288" viewBox="0 0 7437 5288" fill="none" xmlns="http://www.w3.org/2000/svg">
<g clip-path="url(#clip0_18_908)">
<path d="M296.182 3725.45C301.715 3729.49 307.247 3733.53 312.946 3737.69C340.747 3756.78 368.951 3765.34 401.45 3775.83C413.14 3779.64 424.83 3783.45 436.874 3787.37C456.574 3793.64 476.286 3799.87 496.013 3806.06C502.293 3800.14 508.573 3794.23 515.044 3788.14C543.56 3784.86 572.032 3786.94 600.686 3788.14C607.469 3788.1 614.252 3788.05 621.241 3788C649.762 3789.04 671.317 3792.85 693.575 3810.08C741.13 3860.04 755.545 3902.13 754.721 3969.51C754.629 3986.2 754.629 3986.2 754.535 4003.23C752.937 4029.96 752.937 4029.96 743.421 4038.92C739.923 4059.77 736.737 4080.67 733.906 4101.61C741.167 4101.24 748.429 4100.87 755.911 4100.49C781.484 4101.61 781.484 4101.61 810.031 4119.52C810.031 4131.35 810.031 4143.17 810.031 4155.35C838.293 4159.78 838.293 4159.78 867.126 4164.31C873.406 4152.48 879.687 4140.66 886.157 4128.48C876.737 4122.57 867.316 4116.66 857.61 4110.57C851.494 4074.39 856.23 4059.05 876.047 4027.16C895.673 4003.09 895.673 4003.09 905.189 3994.14C919.025 3994.41 919.025 3994.41 933.141 3994.7C963.333 3997.28 963.333 3997.28 981.314 3976.22C1002.13 3979.02 1002.13 3979.02 1028.89 3985.18C1101.7 3996.04 1101.7 3996.04 1168.66 3972.87C1239.41 3938.79 1301.65 3928.33 1380.97 3931.44C1390.4 3953.61 1390.4 3953.61 1400.01 3976.22C1409.43 3971.79 1409.43 3971.79 1419.04 3967.27C1485.53 3960.09 1485.53 3960.09 1523.71 3988.54C1551.75 4026.43 1549.6 4066.3 1542.74 4110.57C1536.15 4132.08 1528.63 4152.52 1519.51 4173.19C1510.98 4202.04 1520.91 4221.26 1533.82 4247.71C1544.86 4277.5 1544.05 4303.15 1542.74 4334.47C1549.02 4337.43 1555.3 4340.39 1561.77 4343.43C1558.05 4363.76 1553.33 4377.77 1540.96 4394.93C1516.22 4410.98 1495.89 4407.96 1466.62 4406.12C1466.62 4412.04 1466.62 4417.95 1466.62 4424.04C1472.36 4425.12 1478.1 4426.21 1484.01 4427.33C1491.62 4428.83 1499.22 4430.33 1507.06 4431.87C1514.57 4433.33 1522.07 4434.78 1529.81 4436.28C1551.96 4441.87 1570.25 4449.55 1590.32 4459.86C1590.91 4451.73 1591.5 4443.61 1592.1 4435.23C1599.84 4406.12 1599.84 4406.12 1618.87 4385.97C1656.46 4365.33 1690.21 4357.88 1733.06 4352.39C1741.09 4351.21 1749.13 4350.03 1757.4 4348.82C1795.19 4345.68 1818.28 4344.92 1848.69 4367.78C1892.98 4414.83 1905.59 4441.22 1904.34 4504.64C1918.47 4500.21 1918.47 4500.21 1932.89 4495.69C1939.86 4477.64 1939.86 4477.64 1942.4 4459.86C1976.13 4457.59 1995.9 4458.12 2026.32 4472.87C2057.89 4487.33 2081.55 4491.83 2116.29 4495.23C2127.27 4496.36 2138.24 4497.48 2149.56 4498.64C2160.88 4499.7 2172.2 4500.76 2183.86 4501.84C2201.18 4503.58 2201.18 4503.58 2218.84 4505.36C2247.22 4508.2 2275.6 4510.94 2304 4513.6C2304 4519.51 2304 4525.42 2304 4531.51C2109.31 4531.51 1914.62 4531.51 1714.03 4531.51C1714.03 4540.38 1714.03 4549.24 1714.03 4558.38C1722.71 4558.88 1722.71 4558.88 1731.57 4559.39C1812.67 4565.12 1891.32 4579.25 1970.95 4594.21C1970.95 4597.16 1970.95 4600.12 1970.95 4603.16C1928.83 4608.84 1887.55 4612.76 1845.02 4614.01C1836.42 4614.26 1827.82 4614.52 1818.96 4614.78C1801.19 4615.25 1783.42 4615.64 1765.66 4615.97C1757.11 4616.24 1748.56 4616.52 1739.75 4616.81C1728.22 4617.07 1728.22 4617.07 1716.45 4617.34C1690.35 4621.88 1677.79 4632.95 1656.93 4647.94C1621.25 4649.62 1621.25 4649.62 1590.32 4647.94C1590.32 4656.81 1590.32 4665.68 1590.32 4674.81C1596.01 4677.4 1601.7 4679.98 1607.57 4682.65C1628.38 4692.72 1628.38 4692.72 1656.93 4710.64C1656.93 4716.55 1656.93 4722.46 1656.93 4728.55C1562.73 4728.55 1468.52 4728.55 1371.46 4728.55C1371.46 4734.46 1371.46 4740.37 1371.46 4746.46C1324.36 4746.46 1277.25 4746.46 1228.72 4746.46C1231.86 4734.64 1235 4722.82 1238.24 4710.64C1118.26 4706.08 1012.39 4716.96 895.678 4742.52C799.596 4762.41 698.47 4756.33 600.686 4755.42C600.686 4746.55 600.686 4737.68 600.686 4728.55C610.106 4725.59 619.527 4722.64 629.233 4719.59C591.55 4716.64 553.868 4713.68 515.044 4710.64C511.904 4719.5 508.764 4728.37 505.528 4737.51C461.894 4740.11 418.258 4742.65 374.617 4745.16C359.835 4746.01 345.053 4746.88 330.273 4747.76C236.261 4753.37 143.016 4756.7 48.7736 4755.42C48.7736 4749.51 48.7736 4743.6 48.7736 4737.51C43.0697 4737.71 37.3659 4737.92 31.4892 4738.13C-165.166 4741.82 -359.405 4709.96 -552.766 4680.2C-609.079 4671.77 -665.521 4664.27 -722 4656.9C-722 4650.99 -722 4645.08 -722 4638.99C-590.978 4619.22 -464.556 4608.22 -331.855 4612.12C-331.181 4605.16 -330.506 4598.19 -329.811 4591.02C-322.34 4567.34 -322.34 4567.34 -303.271 4555.13C-213.747 4523.87 -162.016 4523.58 -74.0387 4559.5C-68.0527 4562.09 -62.0668 4564.67 -55.8994 4567.34C-58.9537 4562.5 -62.008 4557.66 -65.1549 4552.68C-84.0271 4511.82 -81.1062 4467.57 -74.9308 4424.04C-61.9177 4398.84 -47.2029 4382.76 -27.3522 4361.34C-22.6419 4348.04 -22.6419 4348.04 -17.8365 4334.47C-24.7056 4333.74 -31.5748 4333 -38.6521 4332.24C-84.1265 4320.82 -110.94 4296.7 -134.999 4259.47C-160.659 4206.71 -159.52 4149.22 -151.057 4092.66C-138.325 4064.84 -126.652 4051.77 -103.478 4029.96C-97.1976 4029.96 -90.9172 4029.96 -84.4465 4029.96C-82.2877 4022.2 -80.1288 4014.45 -77.9045 4006.45C-63.574 3971.77 -43.1075 3950.91 -17.8365 3922.49C-13.9112 3912.51 -9.98601 3902.54 -5.94183 3892.26C13.1475 3846.16 54.8342 3816.58 96.3522 3788.14C125.494 3777.51 125.494 3777.51 153.447 3770.23C166.09 3762.62 178.569 3754.76 190.915 3746.72C227.181 3724.66 252.465 3719.12 296.182 3725.45Z" fill="#9EB0CD"/>
<path d="M296.183 3725.45C304.481 3731.51 304.481 3731.51 312.947 3737.69C340.748 3756.78 368.952 3765.34 401.45 3775.83C413.14 3779.64 424.83 3783.45 436.874 3787.37C456.574 3793.64 476.286 3799.87 496.013 3806.06C502.293 3800.14 508.574 3794.23 515.044 3788.14C543.56 3784.86 572.032 3786.94 600.686 3788.14C607.469 3788.1 614.252 3788.05 621.241 3788C649.762 3789.04 671.317 3792.85 693.576 3810.08C741.13 3860.04 755.545 3902.13 754.722 3969.51C754.66 3980.64 754.599 3991.77 754.536 4003.23C752.937 4029.96 752.937 4029.96 743.422 4038.92C739.924 4059.77 736.738 4080.67 733.906 4101.61C741.168 4101.24 748.429 4100.87 755.911 4100.49C781.484 4101.61 781.484 4101.61 810.032 4119.52C810.032 4131.35 810.032 4143.17 810.032 4155.35C828.873 4158.31 847.714 4161.26 867.126 4164.31C873.406 4152.48 879.687 4140.66 886.157 4128.48C872.027 4119.61 872.027 4119.61 857.61 4110.57C851.495 4074.39 856.23 4059.05 876.047 4027.16C895.673 4003.09 895.673 4003.09 905.189 3994.14C919.025 3994.41 919.025 3994.41 933.141 3994.7C963.333 3997.28 963.333 3997.28 981.315 3976.22C1002.13 3979.02 1002.13 3979.02 1028.89 3985.18C1101.61 3996.13 1101.61 3996.13 1168.06 3972.31C1212.33 3951.14 1254.33 3932.91 1304.85 3940.4C1338.54 3964.34 1349.81 3977.42 1355.92 4016.42C1357.05 4056.16 1354.68 4084.61 1333.4 4119.52C1320.84 4119.52 1308.27 4119.52 1295.33 4119.52C1295.33 4125.44 1295.33 4131.35 1295.33 4137.44C1285.53 4137.94 1285.53 4137.94 1275.52 4138.45C1266.95 4139.04 1258.37 4139.63 1249.54 4140.24C1236.79 4141.02 1236.79 4141.02 1223.78 4141.81C1196.85 4147.04 1187.95 4152.78 1171.63 4173.26C1164.76 4196.6 1164.76 4196.6 1162.11 4218.04C1168.39 4218.04 1174.67 4218.04 1181.14 4218.04C1174.86 4241.69 1168.58 4265.33 1162.11 4289.69C1133.85 4285.26 1133.85 4285.26 1105.02 4280.74C1105.02 4274.83 1105.02 4268.91 1105.02 4262.82C1098.74 4262.82 1092.46 4262.82 1085.99 4262.82C1085.99 4256.91 1085.99 4251 1085.99 4244.91C1070.29 4241.96 1054.59 4239 1038.41 4235.96C1014.74 4265.37 1009.56 4277.26 1012.84 4314.88C1014.99 4324.3 1017.15 4333.72 1019.38 4343.43C1028.01 4344.17 1036.65 4344.91 1045.55 4345.67C1080.29 4353.22 1092.02 4362.94 1114.53 4388.21C1111.39 4397.08 1108.25 4405.95 1105.02 4415.08C1086.38 4414.06 1067.74 4412.92 1049.11 4411.72C1038.74 4411.1 1028.36 4410.48 1017.67 4409.83C990.83 4406.12 990.83 4406.12 971.799 4388.21C969.23 4364.13 970.968 4340.82 971.799 4316.56C966.304 4315.27 960.808 4313.98 955.146 4312.64C935.322 4307.98 915.498 4303.31 895.673 4298.65C895.673 4292.74 895.673 4286.83 895.673 4280.74C842.856 4287.4 842.856 4287.4 791 4298.65C791 4304.56 791 4310.47 791 4316.56C781.911 4316.58 772.821 4316.61 763.457 4316.63C684.617 4318.85 601.789 4322.31 543.591 4379.26C534.332 4405.77 528.889 4432.29 524.56 4459.86C512.061 4459.45 499.561 4459.03 486.683 4458.6C470.167 4458.27 453.651 4457.94 437.134 4457.62C428.91 4457.32 420.685 4457.02 412.211 4456.71C370.727 4456.11 349.82 4456.17 314.136 4477.91C308.211 4483.78 302.287 4489.64 296.183 4495.69C289.51 4491.62 282.837 4487.56 275.962 4483.37C248.32 4468.67 221.827 4459.53 191.51 4450.91C191.51 4444.99 191.51 4439.08 191.51 4432.99C197.79 4432.99 204.07 4432.99 210.541 4432.99C210.541 4427.08 210.541 4421.17 210.541 4415.08C204.261 4415.08 197.98 4415.08 191.51 4415.08C191.51 4406.21 191.51 4397.35 191.51 4388.21C182.089 4391.17 172.669 4394.12 162.962 4397.17C114.808 4401.7 88.5516 4401.72 48.7738 4374.78C39.3532 4367.39 29.9327 4360 20.2266 4352.39C39.2581 4334.47 39.2581 4334.47 61.9323 4332.73C70.5433 4332.93 79.1542 4333.14 88.0262 4333.35C96.6862 4333.52 105.346 4333.68 114.269 4333.84C120.917 4334.05 127.565 4334.26 134.415 4334.47C134.415 4328.56 134.415 4322.65 134.415 4316.56C93.5929 4316.56 52.7704 4316.56 10.7109 4316.56C7.57072 4304.74 4.43053 4292.92 1.19519 4280.74C10.6158 4280.74 20.0363 4280.74 29.7424 4280.74C26.6022 4274.83 23.462 4268.91 20.2266 4262.82C13.9463 4262.82 7.66588 4262.82 1.19519 4262.82C1.19519 4256.91 1.19519 4251 1.19519 4244.91C-6.71662 4245.33 -14.6284 4245.74 -22.78 4246.17C-33.1205 4246.49 -43.4611 4246.82 -54.115 4247.15C-64.3819 4247.57 -74.6488 4247.98 -85.2269 4248.41C-112.993 4244.91 -112.993 4244.91 -130.687 4231.02C-145.673 4200.74 -145.669 4175.79 -145.704 4142.47C-145.888 4130.85 -146.072 4119.22 -146.261 4107.24C-140.925 4070.5 -131.547 4055.5 -103.478 4029.96C-97.1974 4029.96 -90.917 4029.96 -84.4463 4029.96C-82.2874 4022.2 -80.1286 4014.45 -77.9043 4006.45C-63.5737 3971.77 -43.1073 3950.91 -17.8363 3922.49C-13.911 3912.51 -9.98579 3902.54 -5.94161 3892.26C13.1477 3846.16 54.8344 3816.58 96.3524 3788.14C125.494 3777.51 125.494 3777.51 153.447 3770.23C166.09 3762.62 178.569 3754.76 190.915 3746.72C227.181 3724.66 252.465 3719.12 296.183 3725.45Z" fill="#FBFBFA"/>
<path d="M532.96 3786.08C555.558 3786.49 578.107 3787.19 600.686 3788.14C607.469 3788.1 614.252 3788.05 621.241 3788C649.762 3789.04 671.317 3792.85 693.575 3810.08C741.13 3860.04 755.545 3902.13 754.721 3969.51C754.66 3980.64 754.599 3991.77 754.536 4003.23C752.937 4029.96 752.937 4029.96 743.422 4038.92C739.923 4059.77 736.738 4080.67 733.906 4101.61C741.167 4101.24 748.429 4100.87 755.911 4100.49C781.484 4101.61 781.484 4101.61 810.032 4119.52C810.032 4131.35 810.032 4143.17 810.032 4155.35C838.293 4159.78 838.293 4159.78 867.126 4164.31C873.406 4152.48 879.687 4140.66 886.157 4128.48C876.737 4122.57 867.316 4116.66 857.61 4110.57C851.494 4074.39 856.23 4059.05 876.047 4027.16C895.673 4003.09 895.673 4003.09 905.189 3994.14C919.025 3994.41 919.025 3994.41 933.141 3994.7C963.333 3997.28 963.333 3997.28 981.315 3976.22C1002.13 3979.02 1002.13 3979.02 1028.89 3985.18C1101.61 3996.13 1101.61 3996.13 1168.06 3972.31C1212.33 3951.14 1254.33 3932.91 1304.85 3940.4C1338.54 3964.34 1349.81 3977.42 1355.92 4016.42C1357.05 4056.16 1354.68 4084.61 1333.4 4119.52C1320.84 4119.52 1308.27 4119.52 1295.33 4119.52C1295.33 4125.44 1295.33 4131.35 1295.33 4137.44C1285.53 4137.94 1285.53 4137.94 1275.52 4138.45C1266.95 4139.04 1258.37 4139.63 1249.54 4140.24C1241.04 4140.76 1232.54 4141.28 1223.78 4141.81C1196.85 4147.04 1187.95 4152.78 1171.63 4173.26C1164.76 4196.6 1164.76 4196.6 1162.11 4218.04C1168.39 4218.04 1174.67 4218.04 1181.14 4218.04C1174.86 4241.69 1168.58 4265.33 1162.11 4289.69C1143.27 4286.74 1124.43 4283.78 1105.02 4280.74C1105.02 4274.83 1105.02 4268.91 1105.02 4262.82C1098.74 4262.82 1092.46 4262.82 1085.99 4262.82C1085.99 4256.91 1085.99 4251 1085.99 4244.91C1070.29 4241.96 1054.59 4239 1038.41 4235.96C1014.74 4265.37 1009.56 4277.26 1012.84 4314.88C1014.99 4324.3 1017.15 4333.72 1019.38 4343.43C1028.01 4344.17 1036.65 4344.91 1045.55 4345.67C1080.29 4353.22 1092.02 4362.94 1114.53 4388.21C1109.82 4401.51 1109.82 4401.51 1105.02 4415.08C1086.38 4414.06 1067.74 4412.92 1049.11 4411.72C1038.74 4411.1 1028.36 4410.48 1017.67 4409.83C990.83 4406.12 990.83 4406.12 971.799 4388.21C969.23 4364.13 970.967 4340.82 971.799 4316.56C966.304 4315.27 960.808 4313.98 955.146 4312.64C925.41 4305.65 925.41 4305.65 895.673 4298.65C895.673 4292.74 895.673 4286.83 895.673 4280.74C842.856 4287.4 842.856 4287.4 791 4298.65C791 4304.56 791 4310.47 791 4316.56C784.72 4316.56 778.439 4316.56 771.969 4316.56C771.969 4310.65 771.969 4304.74 771.969 4298.65C765.688 4298.65 759.408 4298.65 752.937 4298.65C752.937 4292.74 752.937 4286.83 752.937 4280.74C762.162 4280.92 771.386 4281.11 780.89 4281.3C808.839 4283.93 808.839 4283.93 819.547 4271.78C845.207 4271.13 870.617 4270.95 896.268 4271.22C907.096 4271.28 907.096 4271.28 918.143 4271.34C936.029 4271.45 953.914 4271.61 971.799 4271.78C963.022 4269.65 963.022 4269.65 954.068 4267.48C946.377 4265.39 938.686 4263.3 930.762 4261.15C919.336 4258.18 919.336 4258.18 907.679 4255.16C886.157 4244.91 886.157 4244.91 874.114 4221.79C868.668 4214.64 863.222 4207.49 857.61 4200.13C828.768 4195.97 805.994 4194.66 777.321 4195.65C770.053 4195.63 762.786 4195.61 755.298 4195.58C712.879 4195.65 712.879 4195.65 676.626 4214.02C646.553 4234.73 614.555 4227.52 579.275 4224.2C572.185 4223.65 565.095 4223.1 557.791 4222.54C540.358 4221.17 522.941 4219.63 505.528 4218.04C502.388 4209.18 499.248 4200.31 496.013 4191.17C486.634 4205.32 477.331 4219.51 468.06 4233.72C462.872 4241.61 457.683 4249.51 452.337 4257.65C438.207 4279.46 438.207 4279.46 434.086 4300.75C432.541 4305.97 430.995 4311.19 429.403 4316.56C410.452 4325.67 391.417 4334.62 372.308 4343.43C369.364 4349.71 366.42 4355.99 363.387 4362.46C360.051 4368 356.714 4373.55 353.277 4379.26C318.782 4385.97 318.782 4385.97 286.667 4388.21C293.938 4378.1 301.289 4368.03 308.672 4357.98C312.757 4352.37 316.841 4346.76 321.05 4340.98C334.245 4325.52 334.245 4325.52 362.793 4307.61C369.404 4283.62 369.404 4283.62 372.308 4256.11C378.687 4213.78 386.77 4182.74 410.371 4146.39C416.652 4146.39 422.932 4146.39 429.403 4146.39C429.403 4134.57 429.403 4122.75 429.403 4110.57C416.842 4107.61 404.281 4104.66 391.34 4101.61C382.17 4068.05 383.829 4045.63 391.34 4012.05C388.2 4003.18 385.059 3994.32 381.824 3985.18C381.824 3976.31 381.824 3967.45 381.824 3958.31C375.544 3958.31 369.263 3958.31 362.793 3958.31C362.793 3946.49 362.793 3934.67 362.793 3922.49C356.512 3919.53 350.232 3916.58 343.761 3913.53C350.041 3904.66 356.322 3895.8 362.793 3886.66C362.596 3879.27 362.4 3871.88 362.198 3864.27C362.793 3841.88 362.793 3841.88 373.795 3827.36C397.483 3810.69 414.957 3811.11 444.271 3809.97C483.744 3808.35 499.361 3789.95 532.96 3786.08Z" fill="#A8C3E6"/>
<path d="M957.525 4608.2C981.315 4621.07 981.315 4621.07 1000.94 4644.03C1043.58 4677.32 1089.21 4673.92 1143.08 4674.81C1143.08 4683.68 1143.08 4692.55 1143.08 4701.68C1187.04 4698.73 1231.01 4695.77 1276.3 4692.72C1270.02 4695.68 1263.74 4698.64 1257.27 4701.68C1257.27 4707.59 1257.27 4713.5 1257.27 4719.59C1280.43 4730.49 1299.31 4731.41 1325.07 4733.59C1333.73 4734.34 1342.39 4735.09 1351.31 4735.86C1361.29 4736.68 1361.29 4736.68 1371.46 4737.51C1371.46 4740.46 1371.46 4743.42 1371.46 4746.46C1324.36 4746.46 1277.25 4746.46 1228.72 4746.46C1231.86 4734.64 1235 4722.82 1238.24 4710.64C1118.26 4706.08 1012.39 4716.96 895.678 4742.52C799.596 4762.41 698.47 4756.33 600.686 4755.42C600.686 4746.55 600.686 4737.69 600.686 4728.55C610.106 4725.59 619.527 4722.64 629.233 4719.59C591.551 4716.64 553.868 4713.68 515.044 4710.64C511.904 4719.5 508.764 4728.37 505.529 4737.51C461.895 4740.11 418.258 4742.66 374.618 4745.16C359.835 4746.01 345.053 4746.88 330.273 4747.77C236.261 4753.37 143.016 4756.7 48.7737 4755.42C48.7737 4749.51 48.7737 4743.6 48.7737 4737.51C43.0699 4737.71 37.366 4737.92 31.4893 4738.14C-165.166 4741.82 -359.405 4709.96 -552.766 4680.2C-609.079 4671.78 -665.521 4664.28 -722 4656.9C-722 4650.99 -722 4645.08 -722 4638.99C-688.707 4634.43 -655.398 4629.98 -622.085 4625.55C-608.064 4623.63 -608.064 4623.63 -593.761 4621.67C-540.745 4614.68 -490.055 4610.68 -436.528 4612.12C-436.528 4618.03 -436.528 4623.94 -436.528 4630.03C-427.353 4629.82 -418.178 4629.62 -408.724 4629.4C-390.693 4629.16 -390.693 4629.16 -372.297 4628.91C-360.374 4628.7 -348.451 4628.5 -336.167 4628.28C-304.32 4629.98 -292.423 4634.66 -265.245 4647.94C-236.553 4650.44 -236.553 4650.44 -206.367 4649.62C-196.222 4649.57 -186.078 4649.51 -175.626 4649.45C-151.72 4650.54 -151.72 4650.54 -141.541 4638.99C-123.863 4639.79 -106.214 4641.19 -88.6095 4642.91C-78.9805 4643.82 -69.3514 4644.73 -59.4305 4645.67C-51.9848 4646.42 -44.5391 4647.17 -36.8678 4647.94C-36.8678 4653.85 -36.8678 4659.77 -36.8678 4665.86C7.09486 4665.86 51.0575 4665.86 96.3524 4665.86C99.4926 4659.95 102.633 4654.03 105.868 4647.94C115.289 4652.38 115.289 4652.38 124.9 4656.9C196.388 4667.06 251.254 4672.16 315.214 4638.99C363.549 4620.05 405.393 4618.89 456.76 4619.96C467.947 4620.08 467.947 4620.08 479.36 4620.2C497.6 4620.41 515.838 4620.73 534.076 4621.07C543.496 4638.81 543.496 4638.81 553.107 4656.9C565.668 4656.9 578.229 4656.9 591.17 4656.9C594.31 4648.03 597.45 4639.17 600.686 4630.03C643.968 4617.69 673.274 4622.91 714.874 4638.99C728.033 4651.86 728.033 4651.86 739.853 4666.42C759.67 4694.47 759.67 4694.47 789.216 4700.56C796.085 4700.93 802.954 4701.3 810.032 4701.68C813.172 4692.81 816.312 4683.95 819.547 4674.81C852.519 4670.38 852.519 4670.38 886.158 4665.86C886.158 4651.08 886.158 4636.3 886.158 4621.07C913.005 4608.08 927.593 4601.86 957.525 4608.2Z" fill="#5974A0"/>
<path d="M1304.85 3940.4C1336.02 3964.64 1349.92 3978.68 1356.03 4016.39C1356.97 4056.13 1354.69 4084.6 1333.4 4119.52C1320.84 4119.52 1308.27 4119.52 1295.33 4119.52C1295.33 4125.44 1295.33 4131.35 1295.33 4137.44C1288.8 4137.77 1282.26 4138.11 1275.52 4138.45C1266.95 4139.04 1258.37 4139.63 1249.54 4140.24C1241.04 4140.76 1232.54 4141.28 1223.78 4141.81C1196.85 4147.04 1187.95 4152.79 1171.63 4173.26C1164.76 4196.6 1164.76 4196.6 1162.11 4218.04C1168.39 4218.04 1174.67 4218.04 1181.14 4218.04C1174.86 4241.69 1168.58 4265.33 1162.11 4289.69C1134.05 4270.83 1109.93 4250.34 1085.99 4227C1092.27 4224.04 1098.55 4221.09 1105.02 4218.04C1105.02 4212.13 1105.02 4206.22 1105.02 4200.13C1096.19 4200.69 1087.36 4201.24 1078.26 4201.81C1047.92 4200.13 1047.92 4200.13 1031.27 4187.26C1027.35 4182.64 1023.42 4178.02 1019.38 4173.26C993.667 4161.16 970.675 4161.27 942.062 4159.27C926.422 4158.14 926.422 4158.14 910.467 4156.99C898.434 4156.18 898.434 4156.18 886.157 4155.35C886.157 4146.48 886.157 4137.62 886.157 4128.48C876.737 4122.57 867.316 4116.66 857.61 4110.57C851.494 4074.39 856.23 4059.05 876.047 4027.16C895.673 4003.09 895.673 4003.09 905.189 3994.14C919.025 3994.41 919.025 3994.41 933.141 3994.7C963.333 3997.28 963.333 3997.28 981.314 3976.23C1002.13 3979.02 1002.13 3979.02 1028.89 3985.18C1086.54 3993.6 1119.6 3998.03 1171.63 3972.31C1216.92 3950.04 1252.76 3933.54 1304.85 3940.4Z" fill="#F9F8F8"/>
<path d="M-151.056 4092.66C-147.916 4092.66 -144.776 4092.66 -141.54 4092.66C-141.074 4100.64 -140.608 4108.63 -140.128 4116.87C-139.416 4127.35 -138.705 4137.83 -137.972 4148.63C-137.31 4159.02 -136.647 4169.41 -135.965 4180.12C-133.437 4211.35 -133.437 4211.35 -112.993 4244.91C-75.3109 4244.91 -37.6287 4244.91 1.19548 4244.91C1.19548 4250.82 1.19548 4256.73 1.19548 4262.82C10.616 4259.87 20.0366 4256.91 29.7426 4253.87C29.7426 4262.73 29.7426 4271.6 29.7426 4280.74C20.3221 4280.74 10.9015 4280.74 1.19548 4280.74C4.33567 4292.56 7.47586 4304.38 10.7112 4316.56C19.3222 4315.44 19.3222 4315.44 28.1071 4314.29C35.7123 4313.38 43.3174 4312.46 51.153 4311.52C58.66 4310.59 66.1671 4309.65 73.9016 4308.69C96.4034 4307.6 113.016 4310.32 134.416 4316.56C134.416 4322.47 134.416 4328.38 134.416 4334.47C87.3128 4338.91 87.3128 4338.91 39.2584 4343.43C39.2584 4349.34 39.2584 4355.25 39.2584 4361.34C83.2831 4398.49 136.147 4390.68 191.51 4388.21C191.51 4397.08 191.51 4405.94 191.51 4415.08C197.79 4415.08 204.071 4415.08 210.541 4415.08C210.541 4420.99 210.541 4426.9 210.541 4432.99C204.261 4432.99 197.981 4432.99 191.51 4432.99C191.51 4438.9 191.51 4444.81 191.51 4450.91C203.286 4453.49 215.061 4456.08 227.194 4458.74C255.498 4465.35 280.328 4472.8 305.699 4486.73C310.728 4480.88 315.757 4475.02 320.939 4468.99C350.514 4445.55 366.273 4446.89 404.424 4448.11C414.9 4448.33 425.375 4448.54 436.168 4448.77C466.151 4450.82 495.021 4454.7 524.56 4459.86C523.922 4454.77 523.285 4449.68 522.627 4444.43C522.09 4419.2 523.886 4402.79 534.076 4379.26C568.891 4351.98 606.034 4331.97 648.265 4316.56C662.396 4320.99 662.396 4320.99 676.812 4325.52C668.035 4329.9 668.035 4329.9 659.081 4334.37C651.39 4338.28 643.699 4342.2 635.775 4346.23C628.158 4350.07 620.54 4353.92 612.692 4357.88C592.155 4369.73 577.185 4379.13 562.623 4397.17C563.225 4415 563.874 4432.89 566.266 4450.59C562.623 4468.82 562.623 4468.82 543.109 4488.86C508.017 4508.59 486.016 4508.31 445.461 4506.88C433.526 4506.56 421.59 4506.24 409.294 4505.9C400.229 4505.49 391.164 4505.07 381.824 4504.64C378.684 4498.73 375.544 4492.82 372.309 4486.73C367.145 4489.42 361.98 4492.11 356.66 4494.88C349.852 4498.29 343.044 4501.69 336.03 4505.2C329.296 4508.63 322.562 4512.06 315.623 4515.59C296.183 4522.55 296.183 4522.55 267.636 4513.6C267.636 4507.69 267.636 4501.78 267.636 4495.69C255.075 4495.69 242.514 4495.69 229.573 4495.69C229.573 4489.78 229.573 4483.86 229.573 4477.77C213.872 4477.77 198.171 4477.77 181.994 4477.77C181.994 4471.86 181.994 4465.95 181.994 4459.86C163.153 4465.77 144.312 4471.68 124.9 4477.77C124.9 4471.86 124.9 4465.95 124.9 4459.86C118.62 4459.86 112.339 4459.86 105.868 4459.86C99.5881 4445.08 93.3077 4430.31 86.837 4415.08C75.6337 4424.26 75.6337 4424.26 71.1509 4442.09C58.2898 4459.86 58.2898 4459.86 29.3709 4465.32C18.1104 4465.73 6.8499 4466.15 -4.75185 4466.58C-21.7162 4467.34 -21.7162 4467.34 -39.0233 4468.12C-47.7324 4468.35 -56.4416 4468.58 -65.4146 4468.82C-58.8955 4442.52 -49.6816 4421.29 -36.8674 4397.17C-33.4263 4385.29 -30.2323 4373.35 -27.3517 4361.34C-24.2115 4352.48 -21.0713 4343.61 -17.836 4334.47C-24.7051 4333.73 -31.5743 4333 -38.6516 4332.23C-84.126 4320.82 -110.94 4296.7 -134.998 4259.47C-161.296 4207.18 -154.086 4149.05 -151.056 4092.66Z" fill="#CECED8"/>
<path d="M-436.528 4612.12C-436.528 4618.03 -436.528 4623.94 -436.528 4630.03C-427.353 4629.82 -418.178 4629.62 -408.725 4629.4C-390.693 4629.16 -390.693 4629.16 -372.297 4628.91C-360.374 4628.7 -348.451 4628.5 -336.167 4628.28C-304.32 4629.98 -292.423 4634.66 -265.245 4647.94C-236.553 4650.44 -236.553 4650.44 -206.367 4649.62C-196.223 4649.57 -186.078 4649.51 -175.627 4649.45C-151.72 4650.54 -151.72 4650.54 -141.541 4638.99C-123.863 4639.79 -106.214 4641.19 -88.6097 4642.91C-78.9806 4643.82 -69.3515 4644.73 -59.4307 4645.67C-51.985 4646.42 -44.5393 4647.17 -36.868 4647.94C-36.868 4653.85 -36.868 4659.77 -36.868 4665.86C7.09464 4665.86 51.0573 4665.86 96.3521 4665.86C99.4923 4659.94 102.632 4654.03 105.868 4647.94C115.288 4652.38 115.288 4652.38 124.899 4656.9C145.278 4658.97 165.71 4660.59 186.157 4661.94C197.135 4662.69 208.114 4663.44 219.425 4664.21C238.641 4665.29 257.9 4665.86 277.151 4665.86C246.2 4699.36 221.315 4700.92 174.857 4704.2C154.54 4705.23 134.219 4706.17 113.897 4707.1C77.0608 4708.61 77.0608 4708.61 41.0071 4715.19C-60.4746 4736.69 -180.941 4716.64 -283.682 4707.84C-290.856 4707.24 -298.029 4706.65 -305.42 4706.03C-635.366 4678.63 -635.366 4678.63 -722 4656.9C-722 4650.99 -722 4645.08 -722 4638.99C-688.707 4634.43 -655.398 4629.98 -622.085 4625.55C-608.064 4623.63 -608.064 4623.63 -593.761 4621.67C-540.746 4614.68 -490.055 4610.68 -436.528 4612.12Z" fill="#859AC1"/>
<path d="M1866.28 4397.17C1904.17 4432.84 1904.17 4432.84 1904.93 4474.42C1904.74 4484.39 1904.54 4494.37 1904.34 4504.64C1913.76 4501.69 1923.18 4498.73 1932.89 4495.69C1939.86 4477.64 1939.86 4477.64 1942.4 4459.86C1976.13 4457.6 1995.9 4458.12 2026.32 4472.87C2057.89 4487.33 2081.55 4491.83 2116.29 4495.23C2127.27 4496.36 2138.24 4497.48 2149.56 4498.64C2160.88 4499.7 2172.2 4500.76 2183.86 4501.85C2201.18 4503.59 2201.18 4503.59 2218.84 4505.36C2247.22 4508.2 2275.6 4510.94 2304 4513.6C2304 4519.51 2304 4525.42 2304 4531.51C2109.31 4531.51 1914.62 4531.51 1714.03 4531.51C1714.03 4540.38 1714.03 4549.25 1714.03 4558.38C1719.81 4558.72 1725.6 4559.05 1731.57 4559.4C1812.67 4565.12 1891.32 4579.25 1970.95 4594.21C1970.95 4597.16 1970.95 4600.12 1970.95 4603.16C1928.83 4608.84 1887.55 4612.76 1845.01 4614.01C1832.12 4614.39 1832.12 4614.39 1818.96 4614.78C1801.19 4615.25 1783.42 4615.64 1765.66 4615.97C1752.83 4616.38 1752.83 4616.38 1739.75 4616.81C1732.06 4616.98 1724.37 4617.16 1716.45 4617.34C1690.35 4621.88 1677.79 4632.95 1656.93 4647.94C1621.25 4649.62 1621.25 4649.62 1590.32 4647.94C1590.32 4656.81 1590.32 4665.68 1590.32 4674.81C1598.86 4678.69 1598.86 4678.69 1607.57 4682.65C1628.38 4692.72 1628.38 4692.72 1656.93 4710.64C1656.93 4716.55 1656.93 4722.46 1656.93 4728.55C1618.87 4728.55 1618.87 4728.55 1602.81 4715.12C1598.69 4710.68 1594.57 4706.25 1590.32 4701.68C1587.18 4701.68 1584.04 4701.68 1580.8 4701.68C1580.8 4675.08 1580.8 4648.48 1580.8 4621.07C1587.09 4621.07 1593.37 4621.07 1599.84 4621.07C1599.84 4615.16 1599.84 4609.25 1599.84 4603.16C1537.45 4594.77 1475.21 4591.43 1412.31 4588.64C1380.97 4585.25 1380.97 4585.25 1352.43 4567.34C1367.88 4565.59 1383.35 4563.93 1398.82 4562.3C1407.43 4561.36 1416.04 4560.43 1424.91 4559.47C1447.58 4558.38 1447.58 4558.38 1466.62 4567.34C1469.76 4561.43 1472.9 4555.52 1476.13 4549.43C1476.13 4555.34 1476.13 4561.25 1476.13 4567.34C1481.98 4567.23 1487.83 4567.13 1493.86 4567.02C1501.55 4566.94 1509.24 4566.86 1517.17 4566.78C1528.59 4566.62 1528.59 4566.62 1540.25 4566.46C1561.77 4567.34 1561.77 4567.34 1590.32 4576.29C1596.6 4570.38 1602.88 4564.47 1609.35 4558.38C1629.94 4556.63 1629.94 4556.63 1653.36 4557.26C1665.03 4557.5 1665.03 4557.5 1676.93 4557.75C1685.87 4558.06 1685.87 4558.06 1694.99 4558.38C1694.99 4543.6 1694.99 4528.83 1694.99 4513.6C1719.58 4513.36 1744.16 4513.18 1768.74 4513.04C1775.68 4512.97 1782.63 4512.89 1789.78 4512.81C1823.33 4512.67 1853.05 4514.02 1885.31 4522.56C1885.31 4507.78 1885.31 4493 1885.31 4477.78C1879.03 4477.78 1872.75 4477.78 1866.28 4477.78C1866.28 4451.18 1866.28 4424.58 1866.28 4397.17Z" fill="#637595"/>
<path d="M876.642 4137.44C879.782 4143.35 882.922 4149.26 886.157 4155.35C893.848 4155.04 901.539 4154.73 909.463 4154.41C919.632 4154.16 929.801 4153.92 940.278 4153.67C950.324 4153.36 960.37 4153.05 970.721 4152.73C1003.98 4155.67 1021.56 4163.21 1047.92 4182.22C1047.92 4188.13 1047.92 4194.04 1047.92 4200.13C1066.77 4200.13 1085.61 4200.13 1105.02 4200.13C1101.88 4209 1098.74 4217.86 1095.5 4227C1099.82 4231.06 1104.14 4235.13 1108.59 4239.31C1120.09 4250.14 1131.58 4260.96 1143.08 4271.78C1130.52 4274.74 1117.96 4277.69 1105.02 4280.74C1105.02 4274.83 1105.02 4268.92 1105.02 4262.82C1098.74 4262.82 1092.46 4262.82 1085.99 4262.82C1085.99 4256.91 1085.99 4251 1085.99 4244.91C1062.44 4240.48 1062.44 4240.48 1038.41 4235.96C1014.74 4265.37 1009.56 4277.26 1012.84 4314.88C1014.99 4324.3 1017.15 4333.72 1019.38 4343.43C1032.33 4344.54 1032.33 4344.54 1045.55 4345.67C1080.29 4353.22 1092.02 4362.95 1114.53 4388.21C1109.82 4401.51 1109.82 4401.51 1105.02 4415.08C1086.38 4414.06 1067.74 4412.92 1049.11 4411.72C1038.74 4411.1 1028.36 4410.48 1017.67 4409.83C990.83 4406.12 990.83 4406.12 971.799 4388.21C969.23 4364.13 970.967 4340.82 971.799 4316.56C966.303 4315.27 960.808 4313.98 955.146 4312.64C935.322 4307.98 915.497 4303.31 895.673 4298.65C895.673 4292.74 895.673 4286.83 895.673 4280.74C842.856 4287.4 842.856 4287.4 791 4298.65C791 4304.56 791 4310.47 791 4316.56C784.72 4316.56 778.439 4316.56 771.969 4316.56C771.969 4310.65 771.969 4304.74 771.969 4298.65C765.688 4298.65 759.408 4298.65 752.937 4298.65C752.937 4292.74 752.937 4286.83 752.937 4280.74C766.774 4281.01 766.774 4281.01 780.89 4281.3C808.839 4283.93 808.839 4283.93 819.547 4271.78C845.207 4271.13 870.617 4270.95 896.268 4271.22C907.096 4271.28 907.096 4271.28 918.143 4271.34C936.028 4271.45 953.914 4271.61 971.799 4271.78C965.948 4270.36 960.097 4268.94 954.068 4267.48C902.641 4253.51 884.019 4245.11 857.61 4200.13C828.152 4192.14 828.152 4192.14 800.516 4191.17C800.516 4188.22 800.516 4185.26 800.516 4182.22C825.637 4176.31 850.759 4170.4 876.642 4164.31C876.642 4155.44 876.642 4146.57 876.642 4137.44Z" fill="#B4CEED"/>
<path d="M959.309 4607.08C991.026 4627.25 992.932 4649.51 1000.35 4683.77C990.925 4686.72 981.505 4689.68 971.799 4692.72C971.799 4698.63 971.799 4704.55 971.799 4710.64C955.018 4712.3 955.018 4712.3 937.899 4713.99C911.885 4716.57 890.145 4721.26 865.044 4728.83C823.413 4738.87 786.686 4739.52 744.016 4738.62C736.601 4738.54 729.186 4738.46 721.546 4738.38C703.461 4738.17 685.378 4737.85 667.295 4737.51C664.155 4728.64 661.015 4719.77 657.78 4710.64C610.677 4707.68 563.574 4704.73 515.044 4701.68C508.764 4683.95 502.483 4666.21 496.012 4647.94C502.293 4639.08 508.573 4630.21 515.044 4621.07C527.605 4626.99 540.165 4632.9 553.107 4638.99C553.107 4644.9 553.107 4650.81 553.107 4656.9C565.668 4656.9 578.228 4656.9 591.17 4656.9C594.31 4648.03 597.45 4639.17 600.685 4630.03C643.968 4617.69 673.273 4622.9 714.874 4638.99C728.033 4651.86 728.033 4651.86 739.853 4666.41C759.669 4694.47 759.669 4694.47 789.216 4700.56C796.085 4700.93 802.954 4701.3 810.031 4701.68C813.171 4692.81 816.312 4683.95 819.547 4674.81C852.519 4670.38 852.519 4670.38 886.157 4665.86C886.157 4651.08 886.157 4636.3 886.157 4621.07C913.415 4607.88 928.685 4602.39 959.309 4607.08Z" fill="#657DAE"/>
<path d="M312.575 3741.47C319.726 3745.05 326.877 3748.63 334.245 3752.32C363.108 3762.01 392.047 3771.4 421.132 3780.48C466.435 3795.16 466.435 3795.16 476.981 3815.01C471.02 3815.45 465.058 3815.89 458.916 3816.34C451.139 3817.01 443.362 3817.68 435.35 3818.37C427.622 3818.99 419.894 3819.62 411.932 3820.26C389.405 3822.44 389.405 3822.44 372.308 3841.88C372.308 3850.75 372.308 3859.61 372.308 3868.75C372.308 3877.62 372.308 3886.48 372.308 3895.62C366.028 3901.53 359.748 3907.44 353.277 3913.53C356.326 3936.84 356.326 3936.84 362.793 3958.31C369.073 3958.31 375.353 3958.31 381.824 3958.31C397.33 3995.23 403.355 4018.38 391.34 4056.83C388.2 4056.83 385.059 4056.83 381.824 4056.83C377.408 4043.81 377.408 4043.81 372.903 4030.52C365.693 4004.52 365.693 4004.52 353.277 3994.14C346.996 4005.96 340.716 4017.78 334.245 4029.96C321.685 4029.96 309.124 4029.96 296.182 4029.96C293.042 4012.23 289.902 3994.5 286.667 3976.22C302.368 3979.18 318.069 3982.14 334.245 3985.18C331.89 3972.16 331.89 3972.16 329.488 3958.87C322.193 3910.71 317.777 3861.51 334.245 3815.01C305.984 3815.01 277.722 3815.01 248.604 3815.01C251.744 3803.19 254.884 3791.37 258.12 3779.19C254.979 3770.32 251.839 3761.45 248.604 3752.32C291.216 3732.27 291.216 3732.27 312.575 3741.47Z" fill="#DFDEE7"/>
<path d="M776.726 4187.26C784.074 4187.08 791.421 4186.9 798.992 4186.71C852.599 4186.76 852.599 4186.76 876.939 4208.21C886.157 4227 886.157 4227 886.157 4244.91C893.026 4244.36 899.896 4243.8 906.973 4243.23C938.907 4245.24 955.521 4254.44 981.314 4271.78C981.314 4274.74 981.314 4277.69 981.314 4280.74C970.078 4280.63 958.842 4280.53 947.266 4280.42C932.447 4280.34 917.628 4280.26 902.81 4280.18C895.413 4280.1 888.016 4280.03 880.396 4279.95C873.22 4279.92 866.044 4279.89 858.651 4279.86C852.073 4279.82 845.495 4279.77 838.718 4279.72C819.235 4280.12 819.235 4280.12 799.856 4285.83C781.484 4289.69 781.484 4289.69 752.937 4280.74C749.797 4286.65 746.657 4292.56 743.421 4298.65C743.421 4292.74 743.421 4286.83 743.421 4280.74C724.58 4283.69 705.739 4286.65 686.327 4289.69C691.142 4270.27 695.841 4253.87 705.358 4235.96C692.798 4230.04 680.237 4224.13 667.296 4218.04C698.519 4183.58 731.306 4186.86 776.726 4187.26Z" fill="#F6F3F2"/>
<path d="M981.314 4638.99C987.926 4643.29 994.537 4647.6 1001.35 4652.04C1032.35 4667.59 1054.09 4670.21 1088.96 4672.01C1104.21 4672.9 1104.21 4672.9 1119.78 4673.8C1127.47 4674.13 1135.16 4674.47 1143.08 4674.81C1143.08 4683.68 1143.08 4692.54 1143.08 4701.68C1187.04 4698.72 1231.01 4695.77 1276.3 4692.72C1270.02 4695.68 1263.74 4698.63 1257.27 4701.68C1257.27 4707.59 1257.27 4713.5 1257.27 4719.59C1280.43 4730.49 1299.31 4731.41 1325.07 4733.59C1333.73 4734.34 1342.39 4735.09 1351.31 4735.86C1361.28 4736.67 1361.28 4736.67 1371.46 4737.5C1371.46 4740.46 1371.46 4743.42 1371.46 4746.46C1324.36 4746.46 1277.25 4746.46 1228.72 4746.46C1231.86 4734.64 1235 4722.82 1238.24 4710.64C1118.26 4706.08 1012.39 4716.96 895.677 4742.52C799.596 4762.41 698.469 4756.33 600.685 4755.42C600.685 4746.55 600.685 4737.68 600.685 4728.55C610.106 4725.59 619.526 4722.64 629.232 4719.59C591.55 4716.64 553.868 4713.68 515.044 4710.64C511.904 4716.55 508.763 4722.46 505.528 4728.55C505.528 4719.68 505.528 4710.82 505.528 4701.68C555.771 4701.68 606.014 4701.68 657.78 4701.68C660.92 4713.5 664.06 4725.32 667.295 4737.5C692.876 4736.48 718.444 4735.34 744.016 4734.15C754.752 4733.73 754.752 4733.73 765.705 4733.31C811.686 4731.06 851.353 4723.19 895.673 4710.64C921.514 4708.68 945.798 4709.78 971.799 4710.64C971.799 4704.73 971.799 4698.81 971.799 4692.72C978.079 4689.77 984.359 4686.81 990.83 4683.77C986.12 4661.6 986.12 4661.6 981.314 4638.99Z" fill="#4F668F"/>
<path d="M143.931 4612.12C150.211 4609.16 156.492 4606.21 162.962 4603.16C167.673 4620.9 167.673 4620.9 172.478 4638.99C165.02 4640.09 157.562 4641.2 149.878 4642.35C123.562 4646.07 123.562 4646.07 105.868 4665.86C60.1594 4680.2 9.14177 4680.29 -36.8678 4665.86C-36.8678 4659.94 -36.8678 4654.03 -36.8678 4647.94C-54.1143 4647.7 -71.3619 4647.53 -88.6096 4647.38C-103.016 4647.23 -103.016 4647.23 -117.714 4647.07C-140.972 4645.38 -140.972 4645.38 -151.056 4656.9C-169.87 4657.79 -188.719 4658.06 -207.556 4658.02C-222.993 4658.05 -222.993 4658.05 -238.742 4658.09C-265.245 4656.9 -265.245 4656.9 -284.277 4647.94C-284.277 4633.17 -284.277 4618.39 -284.277 4603.16C-263.858 4602.92 -243.439 4602.75 -223.019 4602.6C-211.648 4602.5 -200.277 4602.39 -188.562 4602.29C-160.572 4603.16 -160.572 4603.16 -151.056 4612.12C-136.188 4612.3 -121.312 4612.04 -106.452 4611.56C-66.7251 4611.08 -35.8657 4615.34 1.19506 4630.03C-5.08532 4635.94 -11.3657 4641.85 -17.8364 4647.94C4.14493 4647.94 26.1262 4647.94 48.7737 4647.94C51.3251 4640.74 53.8765 4633.53 56.5052 4626.11C60.2342 4618.54 63.9631 4610.96 67.8051 4603.16C102.717 4592.21 111.14 4599.46 143.931 4612.12Z" fill="#99ABC8"/>
<path d="M1304.85 3940.4C1323.69 3940.4 1342.53 3940.4 1361.94 3940.4C1391.2 3992.4 1414.39 4042.06 1400.01 4101.61C1369.13 4136.12 1322.81 4154.56 1276.3 4164.31C1252.56 4163.88 1233.02 4160.38 1209.69 4155.35C1209.45 4164.09 1209.2 4172.83 1208.95 4181.83C1208.41 4193.23 1207.87 4204.62 1207.31 4216.36C1206.87 4227.69 1206.43 4239.02 1205.97 4250.69C1200.18 4280.74 1200.18 4280.74 1181.89 4298.2C1162.11 4307.61 1162.11 4307.61 1143.08 4307.61C1153.99 4276.82 1167.42 4247.81 1181.14 4218.04C1174.86 4218.04 1168.58 4218.04 1162.11 4218.04C1165.09 4187.82 1165.09 4187.82 1171.63 4155.35C1203.16 4135.56 1212.97 4135.42 1249.54 4136.32C1258.11 4136.48 1266.69 4136.64 1275.52 4136.81C1282.06 4137.02 1288.6 4137.22 1295.33 4137.44C1295.33 4131.53 1295.33 4125.62 1295.33 4119.53C1307.89 4119.53 1320.45 4119.53 1333.4 4119.53C1345.93 4078.08 1348.74 4036.9 1342.91 3994.14C1325.47 3971.7 1325.47 3971.7 1304.85 3958.31C1304.85 3952.4 1304.85 3946.49 1304.85 3940.4Z" fill="#BDC6CF"/>
<path d="M1495.16 4191.17C1535.72 4238.02 1545.26 4274.03 1542.74 4334.47C1549.02 4337.43 1555.3 4340.39 1561.77 4343.43C1558.05 4363.76 1553.33 4377.77 1540.96 4394.93C1516.22 4410.98 1495.89 4407.96 1466.62 4406.12C1466.62 4412.04 1466.62 4417.95 1466.62 4424.04C1472.58 4425.12 1478.54 4426.21 1484.68 4427.33C1492.46 4428.83 1500.23 4430.33 1508.25 4431.87C1515.98 4433.33 1523.7 4434.78 1531.67 4436.28C1552.26 4441.95 1552.26 4441.95 1571.29 4459.86C1543.03 4459.86 1514.77 4459.86 1485.65 4459.86C1485.65 4453.95 1485.65 4448.04 1485.65 4441.95C1478.19 4441.21 1470.73 4440.47 1463.05 4439.71C1438.07 4432.99 1438.07 4432.99 1425.58 4414.52C1422.34 4405.93 1422.34 4405.93 1419.04 4397.17C1426.5 4393.66 1433.95 4390.15 1441.64 4386.53C1471.33 4367.24 1477.87 4358.46 1485.65 4325.52C1484.29 4301.05 1480.5 4278.12 1476.13 4253.87C1466.71 4250.91 1457.29 4247.96 1447.58 4244.91C1453.87 4244.91 1460.15 4244.91 1466.62 4244.91C1469.56 4239.37 1472.5 4233.83 1475.54 4228.12C1482.08 4215.8 1488.62 4203.49 1495.16 4191.17Z" fill="#8297B1"/>
<path d="M515.044 3788.14C662.085 3785.26 662.085 3785.26 705.359 3820.05C714.779 3830.86 714.779 3830.86 724.39 3841.88C721.25 3847.79 718.11 3853.7 714.874 3859.79C705.454 3856.84 696.033 3853.88 686.327 3850.84C683.187 3868.57 680.047 3886.3 676.811 3904.57C670.531 3904.57 664.251 3904.57 657.78 3904.57C654.64 3916.4 651.5 3928.22 648.264 3940.4C645.124 3934.49 641.984 3928.58 638.749 3922.49C630.113 3924.52 621.478 3926.55 612.58 3928.64C581.654 3931.44 581.654 3931.44 559.054 3919.69C543.591 3904.57 543.591 3904.57 543.591 3886.66C567.143 3895.53 567.143 3895.53 591.17 3904.57C594.31 3883.89 597.45 3863.2 600.686 3841.88C595.387 3839.66 590.088 3837.45 584.628 3835.16C558.819 3822.03 537.541 3805.79 515.044 3788.14Z" fill="#A0BEE3"/>
<path d="M1866.28 4397.17C1904.17 4432.84 1904.17 4432.84 1904.93 4474.42C1904.74 4484.39 1904.54 4494.37 1904.34 4504.64C1913.76 4501.69 1923.18 4498.73 1932.89 4495.69C1939.86 4477.64 1939.86 4477.64 1942.4 4459.86C1975.02 4457.67 1994.84 4457.46 2023.88 4472.46C2066.98 4491.27 2108.51 4496.09 2155.32 4501.85C2164.14 4503.01 2172.96 4504.17 2182.04 4505.36C2203.65 4508.19 2225.27 4510.94 2246.91 4513.6C2246.91 4516.56 2246.91 4519.51 2246.91 4522.56C2127.58 4522.56 2008.25 4522.56 1885.31 4522.56C1885.31 4507.78 1885.31 4493 1885.31 4477.78C1879.03 4477.78 1872.75 4477.78 1866.28 4477.78C1866.28 4451.18 1866.28 4424.58 1866.28 4397.17Z" fill="#748AA8"/>
<path d="M905.189 4173.26C926.599 4174.38 926.599 4174.38 952.767 4182.22C981.284 4212.69 990.414 4229.88 993.209 4270.66C992.424 4279.9 991.639 4289.13 990.83 4298.65C981.41 4295.69 971.989 4292.74 962.283 4289.69C962.283 4298.56 962.283 4307.43 962.283 4316.56C940.302 4310.65 918.32 4304.74 895.673 4298.65C895.673 4292.74 895.673 4286.83 895.673 4280.74C842.856 4287.4 842.856 4287.4 791 4298.65C791 4304.56 791 4310.47 791 4316.56C784.72 4316.56 778.439 4316.56 771.969 4316.56C771.969 4310.65 771.969 4304.74 771.969 4298.65C765.688 4298.65 759.408 4298.65 752.937 4298.65C752.937 4292.74 752.937 4286.83 752.937 4280.74C762.161 4280.92 771.386 4281.11 780.89 4281.3C808.839 4283.93 808.839 4283.93 819.547 4271.78C845.207 4271.13 870.617 4270.95 896.268 4271.22C907.096 4271.28 907.096 4271.28 918.143 4271.34C936.028 4271.45 953.914 4271.61 971.799 4271.78C965.948 4270.36 960.097 4268.94 954.068 4267.48C890.74 4250.27 890.74 4250.27 866.531 4221.96C857.61 4200.13 857.61 4200.13 857.61 4182.22C885.872 4186.65 885.872 4186.65 914.704 4191.18C911.564 4188.22 908.424 4185.26 905.189 4182.22C905.189 4179.26 905.189 4176.31 905.189 4173.26Z" fill="#B1C3E4"/>
<path d="M1771.12 4361.34C1777.4 4384.99 1783.68 4408.63 1790.15 4432.99C1727.35 4435.95 1664.54 4438.9 1599.84 4441.95C1609.35 4397.17 1609.35 4397.17 1625.41 4381.49C1671.4 4358.09 1719.93 4360.38 1771.12 4361.34Z" fill="#DBDADB"/>
<path d="M400.855 4101.61C419.697 4101.61 438.538 4101.61 457.95 4101.61C449.958 4136.45 434.709 4166.2 418.363 4198.17C408.125 4220.09 408.125 4220.09 410.371 4253.87C400.951 4253.87 391.53 4253.87 381.824 4253.87C381.824 4262.74 381.824 4271.6 381.824 4280.74C397.525 4283.69 413.226 4286.65 429.403 4289.69C429.403 4298.56 429.403 4307.43 429.403 4316.56C420.375 4320.26 411.347 4323.95 402.045 4327.76C371.387 4340.23 371.387 4340.23 363.387 4362.46C360.051 4368 356.714 4373.55 353.277 4379.26C318.782 4385.97 318.782 4385.97 286.667 4388.21C293.938 4378.1 301.289 4368.03 308.672 4357.98C312.757 4352.37 316.841 4346.76 321.05 4340.98C334.245 4325.52 334.245 4325.52 362.793 4307.61C369.404 4283.62 369.404 4283.62 372.308 4256.11C378.687 4213.78 386.77 4182.74 410.371 4146.39C416.652 4146.39 422.932 4146.39 429.403 4146.39C429.403 4134.57 429.403 4122.75 429.403 4110.57C419.982 4107.61 410.561 4104.66 400.855 4101.61Z" fill="#C5D0E4"/>
<path d="M313.467 3741.75C323.752 3746.98 323.752 3746.98 334.245 3752.32C361.526 3761.62 388.953 3770.42 416.43 3779.19C438.918 3788.14 438.918 3788.14 448.434 3806.06C420.172 3806.06 391.911 3806.06 362.793 3806.06C362.793 3811.97 362.793 3817.88 362.793 3823.97C325.11 3821.01 287.428 3818.06 248.604 3815.01C251.744 3803.19 254.884 3791.37 258.12 3779.19C254.979 3770.32 251.839 3761.45 248.604 3752.32C291.183 3732.28 291.183 3732.28 313.467 3741.75Z" fill="#F2F1F4"/>
<path d="M962.283 4289.69C990.83 4298.65 990.83 4298.65 1003.32 4321.04C1011.27 4332.12 1011.27 4332.12 1019.38 4343.43C1038.33 4346.85 1057.37 4349.82 1076.47 4352.39C1099.07 4370.86 1099.07 4370.86 1114.53 4388.21C1111.39 4397.08 1108.25 4405.95 1105.02 4415.08C1086.38 4414.06 1067.74 4412.92 1049.11 4411.72C1038.74 4411.1 1028.36 4410.48 1017.67 4409.83C990.83 4406.12 990.83 4406.12 971.799 4388.21C967.859 4364.91 967.859 4364.91 965.852 4337.83C965.14 4328.85 964.429 4319.87 963.696 4310.61C963.23 4303.71 962.764 4296.81 962.283 4289.69Z" fill="#C5CAD9"/>
<path d="M1599.84 4603.16C1697.18 4603.16 1794.53 4603.16 1894.82 4603.16C1894.82 4606.12 1894.82 4609.07 1894.82 4612.12C1888.97 4612.25 1883.12 4612.38 1877.08 4612.51C1850.48 4613.18 1823.89 4614.05 1797.29 4614.92C1788.08 4615.12 1778.86 4615.32 1769.37 4615.53C1756.03 4616 1756.03 4616 1742.42 4616.49C1734.25 4616.73 1726.08 4616.96 1717.66 4617.2C1690.74 4621.8 1678.34 4632.43 1656.93 4647.94C1621.25 4649.62 1621.25 4649.62 1590.32 4647.94C1590.32 4656.81 1590.32 4665.68 1590.32 4674.81C1598.86 4678.69 1598.86 4678.69 1607.57 4682.65C1628.38 4692.72 1628.38 4692.72 1656.93 4710.64C1656.93 4716.55 1656.93 4722.46 1656.93 4728.55C1618.87 4728.55 1618.87 4728.55 1602.81 4715.11C1598.69 4710.68 1594.57 4706.25 1590.32 4701.68C1587.18 4701.68 1584.04 4701.68 1580.81 4701.68C1580.81 4675.08 1580.81 4648.48 1580.81 4621.07C1587.09 4621.07 1593.37 4621.07 1599.84 4621.07C1599.84 4615.16 1599.84 4609.25 1599.84 4603.16Z" fill="#4E5E7C"/>
<path d="M676.811 4325.52C670.96 4328.44 665.109 4331.36 659.08 4334.37C651.389 4338.28 643.698 4342.2 635.774 4346.23C628.157 4350.07 620.54 4353.92 612.691 4357.88C592.154 4369.73 577.184 4379.13 562.622 4397.17C563.224 4415 563.873 4432.89 566.265 4450.59C562.622 4468.82 562.622 4468.82 543.108 4488.86C508.016 4508.59 486.015 4508.31 445.46 4506.88C433.525 4506.56 421.59 4506.24 409.293 4505.9C400.228 4505.49 391.163 4505.07 381.823 4504.64C381.823 4495.78 381.823 4486.91 381.823 4477.77C425.786 4477.77 469.749 4477.77 515.044 4477.77C515.829 4462.81 516.614 4447.85 517.423 4432.43C524.04 4396.24 529.812 4382.71 559.76 4358.44C639.494 4313.81 639.494 4313.81 676.811 4325.52Z" fill="#BCD0ED"/>
<path d="M1495.16 4191.17C1522.83 4223.13 1543.81 4251.75 1541.55 4294.17C1531.32 4321.69 1515.58 4339.65 1495.16 4361.34C1488.88 4358.39 1482.6 4355.43 1476.13 4352.39C1479.27 4343.52 1482.41 4334.65 1485.65 4325.52C1484.77 4307.01 1484.77 4307.01 1481.48 4288.01C1479.72 4276.75 1477.95 4265.48 1476.13 4253.87C1466.71 4250.91 1457.29 4247.96 1447.58 4244.91C1453.87 4244.91 1460.15 4244.91 1466.62 4244.91C1469.56 4239.37 1472.5 4233.83 1475.54 4228.12C1482.08 4215.8 1488.62 4203.49 1495.16 4191.17Z" fill="#88A1BC"/>
<path d="M743.421 3904.58C746.561 3904.58 749.702 3904.58 752.937 3904.58C753.193 3925.29 753.378 3946 753.532 3966.71C753.642 3978.24 753.753 3989.78 753.866 4001.66C752.937 4029.96 752.937 4029.96 743.421 4038.92C739.923 4059.77 736.737 4080.67 733.906 4101.61C749.606 4101.61 765.307 4101.61 781.484 4101.61C781.484 4104.57 781.484 4107.52 781.484 4110.57C749.976 4120.68 718.778 4130.39 686.327 4137.44C692.299 4111.21 701.421 4089.42 714.874 4065.79C708.594 4065.79 702.313 4065.79 695.843 4065.79C694.653 4035.56 694.653 4035.56 695.843 4003.09C702.123 3997.18 708.403 3991.27 714.874 3985.18C724.295 3985.18 733.715 3985.18 743.421 3985.18C743.421 3958.58 743.421 3931.98 743.421 3904.58Z" fill="#87A6D2"/>
<path d="M1466.62 4549.42C1469.76 4555.34 1472.9 4561.25 1476.13 4567.34C1481.98 4567.23 1487.83 4567.13 1493.86 4567.02C1501.55 4566.94 1509.24 4566.86 1517.17 4566.78C1528.59 4566.62 1528.59 4566.62 1540.25 4566.46C1561.77 4567.34 1561.77 4567.34 1590.32 4576.29C1596.6 4570.38 1602.88 4564.47 1609.35 4558.38C1632.03 4556.63 1632.03 4556.63 1658.12 4557.26C1666.78 4557.42 1675.44 4557.58 1684.36 4557.75C1691.01 4557.96 1697.66 4558.17 1704.51 4558.38C1704.51 4564.29 1704.51 4570.2 1704.51 4576.29C1665.68 4593.82 1635.74 4595.99 1592.92 4594.63C1580.75 4594.24 1568.59 4593.86 1556.05 4593.47C1549.77 4593.22 1543.48 4592.97 1537.01 4592.71C1517.76 4591.97 1498.51 4591.41 1479.25 4590.88C1384.65 4587.55 1384.65 4587.55 1352.43 4567.34C1367.88 4565.59 1383.35 4563.93 1398.82 4562.3C1407.43 4561.36 1416.04 4560.43 1424.91 4559.47C1447.58 4558.38 1447.58 4558.38 1466.62 4567.34C1466.62 4561.43 1466.62 4555.52 1466.62 4549.42Z" fill="#7D90AF"/>
<path d="M1733.06 4352.39C1819.52 4346.8 1819.52 4346.8 1852.6 4368.06C1865.68 4387.34 1872.37 4401.51 1875.79 4424.04C1869.71 4426.62 1863.62 4429.21 1857.36 4431.87C1836.28 4440.41 1836.28 4440.41 1828.21 4459.86C1821.93 4459.86 1815.65 4459.86 1809.18 4459.86C1802.77 4448.52 1796.44 4437.12 1790.15 4425.72C1784.85 4416.21 1784.85 4416.21 1779.45 4406.51C1771.12 4388.21 1771.12 4388.21 1771.12 4361.34C1758.56 4358.39 1746 4355.43 1733.06 4352.39Z" fill="#9D9EAA"/>
<path d="M1295.33 4119.52C1304.75 4122.48 1314.17 4125.44 1323.88 4128.48C1317.6 4128.48 1311.32 4128.48 1304.85 4128.48C1304.85 4134.39 1304.85 4140.3 1304.85 4146.39C1273.45 4149.35 1242.05 4152.3 1209.69 4155.35C1209.45 4164.09 1209.2 4172.83 1208.95 4181.83C1208.41 4193.23 1207.87 4204.62 1207.31 4216.36C1206.87 4227.69 1206.43 4239.02 1205.97 4250.68C1200.18 4280.74 1200.18 4280.74 1181.89 4298.19C1162.11 4307.61 1162.11 4307.61 1143.08 4307.61C1153.99 4276.82 1167.42 4247.81 1181.14 4218.04C1174.86 4218.04 1168.58 4218.04 1162.11 4218.04C1165.09 4187.82 1165.09 4187.82 1171.63 4155.35C1203.16 4135.56 1212.97 4135.42 1249.54 4136.32C1258.11 4136.48 1266.69 4136.64 1275.52 4136.81C1282.06 4137.01 1288.6 4137.22 1295.33 4137.44C1295.33 4131.53 1295.33 4125.61 1295.33 4119.52Z" fill="#D6D8E5"/>
<path d="M1304.85 3958.31C1328.64 3970.63 1328.64 3970.63 1352.43 3994.14C1360.71 4039.71 1358.1 4079.19 1333.4 4119.52C1320.84 4119.52 1308.27 4119.52 1295.33 4119.52C1295.33 4125.44 1295.33 4131.35 1295.33 4137.44C1263.93 4137.44 1232.53 4137.44 1200.18 4137.44C1200.18 4131.53 1200.18 4125.62 1200.18 4119.52C1215.23 4113.71 1230.3 4107.93 1245.38 4102.17C1253.77 4098.95 1262.16 4095.73 1270.8 4092.41C1295.33 4083.7 1295.33 4083.7 1333.4 4074.74C1333.4 4048.14 1333.4 4021.54 1333.4 3994.14C1327.12 3994.14 1320.84 3994.14 1314.36 3994.14C1311.22 3982.32 1308.08 3970.49 1304.85 3958.31Z" fill="#EEEFE9"/>
<path d="M505.528 4701.68C555.771 4701.68 606.014 4701.68 657.78 4701.68C660.92 4713.5 664.06 4725.33 667.295 4737.51C736.38 4737.51 805.464 4737.51 876.641 4737.51C876.641 4740.46 876.641 4743.42 876.641 4746.46C784.668 4757.14 693.161 4756.28 600.685 4755.42C600.685 4746.55 600.685 4737.68 600.685 4728.55C610.106 4725.59 619.526 4722.64 629.232 4719.59C591.55 4716.64 553.868 4713.68 515.044 4710.64C511.904 4716.55 508.763 4722.46 505.528 4728.55C505.528 4719.68 505.528 4710.82 505.528 4701.68Z" fill="#3B4E78"/>
<path d="M191.509 4388.21C191.509 4397.08 191.509 4405.95 191.509 4415.08C197.79 4415.08 204.07 4415.08 210.541 4415.08C210.541 4420.99 210.541 4426.9 210.541 4432.99C204.261 4432.99 197.98 4432.99 191.509 4432.99C191.509 4438.91 191.509 4444.82 191.509 4450.91C210.714 4454.99 229.919 4459.07 249.124 4463.15C267.635 4468.82 267.635 4468.82 286.667 4486.73C252.125 4483.78 217.583 4480.82 181.994 4477.78C181.994 4471.86 181.994 4465.95 181.994 4459.86C160.012 4456.91 138.031 4453.95 115.384 4450.91C124.804 4439.08 134.225 4427.26 143.931 4415.08C131.37 4409.17 118.809 4403.26 105.868 4397.17C134.972 4392.3 161.894 4388.21 191.509 4388.21Z" fill="#D8D6DB"/>
<path d="M-27.3524 4361.34C0.830815 4366.83 14.3321 4372.57 39.2577 4388.21C41.0419 4416.2 41.0419 4416.2 39.2577 4441.95C-12.5554 4455.25 -12.5554 4455.25 -65.4153 4468.82C-57.8961 4440.51 -50.2916 4422.44 -36.8681 4397.17C-33.3678 4385.31 -30.0926 4373.38 -27.3524 4361.34Z" fill="#E3E2E6"/>
<path d="M115.384 4585.25C96.3524 4603.16 96.3524 4603.16 67.8053 4612.12C65.6464 4618.03 63.4875 4623.94 61.2632 4630.03C48.7738 4647.94 48.7738 4647.94 30.6716 4652.28C11.3985 4654.45 -7.98203 4655.72 -27.352 4656.9C-27.352 4648.03 -27.352 4639.17 -27.352 4630.03C-36.7726 4624.12 -46.1931 4618.21 -55.8992 4612.12C-36.9145 4606.02 -17.8706 4600.08 1.19518 4594.21C12.3821 4590.7 23.569 4587.19 35.095 4583.57C67.15 4576.44 84.3232 4576.39 115.384 4585.25Z" fill="#B5BDD0"/>
<path d="M-103.478 4244.91C-68.9358 4244.91 -34.3937 4244.91 1.19506 4244.91C1.19506 4250.82 1.19506 4256.73 1.19506 4262.82C10.6156 4259.87 20.0362 4256.91 29.7422 4253.87C29.7422 4262.73 29.7422 4271.6 29.7422 4280.74C20.3217 4280.74 10.9011 4280.74 1.19506 4280.74C4.33525 4292.56 7.47544 4304.38 10.7108 4316.56C16.4514 4315.81 22.1921 4315.06 28.1067 4314.29C35.7119 4313.37 43.317 4312.46 51.1526 4311.52C58.6596 4310.59 66.1666 4309.65 73.9011 4308.69C96.403 4307.6 113.015 4310.32 134.415 4316.56C134.415 4322.47 134.415 4328.38 134.415 4334.47C25.7752 4338.11 25.7753 4338.11 -17.8364 4316.56C-20.7803 4309.17 -23.7242 4301.78 -26.7574 4294.17C-30.0938 4286.78 -33.4303 4279.39 -36.8678 4271.78C-70.5073 4259.42 -70.5073 4259.42 -103.478 4253.87C-103.478 4250.91 -103.478 4247.96 -103.478 4244.91Z" fill="#E3E1E0"/>
<path d="M505.528 3797.1C547.268 3801.59 572.051 3812.62 600.685 3841.88C603.659 3875.47 603.659 3875.47 600.685 3904.57C567.98 3904.57 564.71 3901.64 542.402 3881.06C515.478 3854.72 507.406 3834.23 505.528 3797.1Z" fill="#F0EDF1"/>
<path d="M391.34 4101.61C403.9 4104.57 416.461 4107.52 429.402 4110.57C429.402 4122.39 429.402 4134.21 429.402 4146.39C423.122 4146.39 416.842 4146.39 410.371 4146.39C392.056 4194.21 378.028 4239.09 372.308 4289.69C362.887 4283.78 353.467 4277.87 343.761 4271.78C340.973 4252.4 340.973 4252.4 341.977 4230.36C342.234 4223.04 342.492 4215.72 342.757 4208.18C343.088 4202.57 343.42 4196.96 343.761 4191.17C350.041 4191.17 356.322 4191.17 362.792 4191.17C363.97 4186 365.147 4180.83 366.361 4175.5C372.369 4155.14 381.334 4138.36 391.34 4119.52C391.34 4113.61 391.34 4107.7 391.34 4101.61Z" fill="#E6EAF1"/>
<path d="M1752.09 4567.34C1803.07 4565.82 1849.09 4571.23 1898.99 4580.77C1905.95 4582.05 1912.91 4583.33 1920.08 4584.65C1937.05 4587.78 1954 4590.99 1970.95 4594.2C1970.95 4597.16 1970.95 4600.12 1970.95 4603.16C1889.3 4603.16 1807.66 4603.16 1723.54 4603.16C1723.54 4597.25 1723.54 4591.34 1723.54 4585.25C1732.96 4585.25 1742.38 4585.25 1752.09 4585.25C1752.09 4579.34 1752.09 4573.43 1752.09 4567.34Z" fill="#6A7FA1"/>
<path d="M1146.72 4431C1155.34 4434.43 1163.95 4437.86 1172.82 4441.39C1181.48 4444.8 1190.14 4448.2 1199.06 4451.71C1205.71 4454.4 1212.36 4457.09 1219.21 4459.86C1219.21 4468.73 1219.21 4477.6 1219.21 4486.73C1206.65 4483.78 1194.09 4480.82 1181.14 4477.78C1181.14 4471.86 1181.14 4465.95 1181.14 4459.86C1152.88 4455.43 1152.88 4455.43 1124.05 4450.91C1124.05 4459.77 1124.05 4468.64 1124.05 4477.78C1108.58 4476.75 1093.12 4475.61 1077.66 4474.42C1069.05 4473.79 1060.44 4473.17 1051.57 4472.53C1028.89 4468.82 1028.89 4468.82 1009.86 4450.91C1024.74 4436.91 1041.04 4439.21 1061.6 4437.47C1144.86 4430.43 1144.86 4430.43 1146.72 4431Z" fill="#AFBCD2"/>
<path d="M39.2579 4388.21C77.6056 4393.17 115.576 4398.56 153.447 4406.13C144.026 4417.95 134.605 4429.77 124.899 4441.95C134.32 4455.25 134.32 4455.25 143.931 4468.82C134.51 4473.25 134.51 4473.25 124.899 4477.78C124.899 4471.86 124.899 4465.95 124.899 4459.86C118.619 4459.86 112.339 4459.86 105.868 4459.86C99.5876 4445.09 93.3072 4430.31 86.8365 4415.08C73.3086 4426.87 73.3086 4426.87 58.2893 4459.86C26.8874 4459.86 -4.51445 4459.86 -36.8679 4459.86C-6.15196 4440.59 3.89752 4440.15 39.2579 4441.95C39.2579 4424.22 39.2579 4406.48 39.2579 4388.21Z" fill="#B5C8E6"/>
<path d="M971.799 4155.35C1003.91 4160.25 1020.16 4164.8 1047.92 4182.22C1047.92 4188.13 1047.92 4194.04 1047.92 4200.13C1066.77 4200.13 1085.61 4200.13 1105.02 4200.13C1101.88 4209 1098.74 4217.86 1095.5 4227C1099.82 4231.06 1104.14 4235.13 1108.59 4239.31C1120.09 4250.14 1131.58 4260.96 1143.08 4271.78C1130.52 4274.74 1117.96 4277.69 1105.02 4280.74C1105.02 4274.83 1105.02 4268.91 1105.02 4262.82C1098.74 4262.82 1092.46 4262.82 1085.99 4262.82C1085.99 4256.91 1085.99 4251 1085.99 4244.91C1073.43 4244.91 1060.87 4244.91 1047.92 4244.91C1047.92 4233.09 1047.92 4221.27 1047.92 4209.09C1041.64 4209.09 1035.36 4209.09 1028.89 4209.09C1028.89 4203.18 1028.89 4197.26 1028.89 4191.17C1022.61 4191.17 1016.33 4191.17 1009.86 4191.17C1009.86 4185.26 1009.86 4179.35 1009.86 4173.26C997.301 4173.26 984.74 4173.26 971.799 4173.26C971.799 4167.35 971.799 4161.44 971.799 4155.35Z" fill="#D4D2DC"/>
<path d="M1371.46 3994.14C1377.74 3994.14 1384.02 3994.14 1390.49 3994.14C1403.33 4030.4 1406.48 4063.73 1400.01 4101.61C1371.98 4131.76 1346.76 4141.89 1304.85 4146.39C1304.85 4128.48 1304.85 4128.48 1316.74 4113.93C1333.4 4101.61 1333.4 4101.61 1371.46 4101.61C1371.46 4066.15 1371.46 4030.68 1371.46 3994.14ZM1266.79 4146.39C1279.35 4149.35 1291.91 4152.3 1304.85 4155.35C1295.43 4158.31 1286.01 4161.26 1276.3 4164.31C1273.16 4158.4 1270.02 4152.48 1266.79 4146.39Z" fill="#B8C7DB"/>
<path d="M515.044 3788.14C569.76 3787.02 569.76 3787.02 591.17 3797.1C591.17 3803.01 591.17 3808.92 591.17 3815.01C603.731 3815.01 616.291 3815.01 629.233 3815.01C629.233 3844.57 629.233 3874.12 629.233 3904.57C619.812 3904.57 610.392 3904.57 600.686 3904.57C591.796 3877.61 590.747 3869.95 600.686 3841.88C595.387 3839.66 590.088 3837.45 584.628 3835.16C558.819 3822.03 537.541 3805.79 515.044 3788.14Z" fill="#CDC8D0"/>
<path d="M800.516 4119.52C803.656 4131.35 806.796 4143.17 810.031 4155.35C838.293 4159.78 838.293 4159.78 867.126 4164.31C870.266 4158.39 873.406 4152.48 876.641 4146.39C876.641 4152.3 876.641 4158.22 876.641 4164.31C882.922 4167.26 889.202 4170.22 895.673 4173.26C829.293 4189.35 773.089 4192.26 705.358 4182.22C766.021 4144.15 766.021 4144.15 800.516 4137.44C800.516 4131.53 800.516 4125.61 800.516 4119.52Z" fill="#A8B9D9"/>
<path d="M841.552 4257.23C850.415 4257.73 859.277 4258.24 868.408 4258.77C890.192 4260.03 911.964 4261.38 933.736 4262.82C933.736 4265.78 933.736 4268.74 933.736 4271.78C922.034 4272.59 922.034 4272.59 910.095 4273.42C894.713 4274.55 894.713 4274.55 879.02 4275.7C863.785 4276.79 863.785 4276.79 848.243 4277.9C820.588 4279.91 820.588 4279.91 798.583 4286.09C781.484 4289.69 781.484 4289.69 752.937 4280.74C749.797 4286.65 746.656 4292.56 743.421 4298.65C743.421 4292.74 743.421 4286.83 743.421 4280.74C727.72 4283.69 712.019 4286.65 695.843 4289.69C695.843 4283.78 695.843 4277.87 695.843 4271.78C743.245 4247.17 789.498 4253.76 841.552 4257.23Z" fill="#E1E1EC"/>
<path d="M258.119 4656.9C264.4 4659.85 270.68 4662.81 277.151 4665.85C256.047 4688.7 241.891 4696.03 210.541 4701.68C184.28 4702.3 158.281 4702.52 132.036 4702.24C124.946 4702.2 117.856 4702.16 110.551 4702.12C93.1303 4702.01 75.7096 4701.85 58.2892 4701.68C58.2892 4695.77 58.2892 4689.86 58.2892 4683.77C66.8622 4683.02 66.8622 4683.02 75.6084 4682.26C101.36 4680.01 127.106 4677.69 152.852 4675.37C161.849 4674.59 170.846 4673.81 180.116 4673.01C192.95 4671.84 192.95 4671.84 206.043 4670.65C213.966 4669.94 221.89 4669.24 230.053 4668.52C248.609 4667.62 248.609 4667.62 258.119 4656.9Z" fill="#738DB8"/>
<path d="M843.783 4270.59C853.841 4270.61 863.899 4270.64 874.263 4270.66C884.223 4270.64 894.183 4270.62 904.445 4270.59C931.188 4271.68 955.302 4275.02 981.314 4280.74C971.894 4285.17 971.894 4285.17 962.283 4289.69C962.283 4298.56 962.283 4307.43 962.283 4316.56C940.302 4310.65 918.32 4304.74 895.673 4298.65C895.673 4292.74 895.673 4286.83 895.673 4280.74C842.856 4287.4 842.856 4287.4 791 4298.65C791 4304.56 791 4310.47 791 4316.56C784.72 4316.56 778.439 4316.56 771.969 4316.56C771.969 4310.65 771.969 4304.74 771.969 4298.65C765.688 4298.65 759.408 4298.65 752.937 4298.65C752.937 4292.74 752.937 4286.83 752.937 4280.74C766.774 4281.01 766.774 4281.01 780.89 4281.3C813.201 4280.68 813.276 4272.09 843.783 4270.59Z" fill="#BECAE3"/>
<path d="M1219.21 4459.86C1225.49 4462.82 1231.77 4465.77 1238.24 4468.82C1242.18 4487.32 1242.18 4487.32 1244.19 4509.68C1244.9 4517.08 1245.61 4524.48 1246.34 4532.11C1246.81 4537.82 1247.27 4543.54 1247.75 4549.42C1254.04 4546.47 1260.32 4543.51 1266.79 4540.47C1300.09 4538.23 1300.09 4538.23 1333.4 4540.47C1342.82 4553.77 1342.82 4553.77 1352.43 4567.34C1333.59 4567.34 1314.75 4567.34 1295.33 4567.34C1295.33 4561.43 1295.33 4555.51 1295.33 4549.42C1288.27 4554.23 1281.2 4559.03 1273.92 4563.98C1247.75 4576.29 1247.75 4576.29 1226.34 4571.25C1206.43 4555.86 1203.53 4546.21 1200.18 4522.56C1209.6 4525.51 1219.02 4528.47 1228.72 4531.51C1225.58 4507.87 1222.44 4484.22 1219.21 4459.86Z" fill="#8F9EBA"/>
<path d="M572.138 3788.14C676.148 3790.03 676.148 3790.03 707.143 3820.05C715.68 3830.86 715.68 3830.86 724.39 3841.88C721.25 3847.79 718.109 3853.7 714.874 3859.79C705.061 3855.73 695.248 3851.67 685.138 3847.48C654.313 3835.01 623.167 3824.56 591.17 3815.01C591.17 3809.1 591.17 3803.19 591.17 3797.1C584.889 3794.14 578.609 3791.19 572.138 3788.14Z" fill="#85A2C1"/>
<path d="M1276.3 4692.72C1266.88 4697.16 1266.88 4697.16 1257.27 4701.68C1257.27 4707.59 1257.27 4713.5 1257.27 4719.59C1280.43 4730.49 1299.31 4731.41 1325.07 4733.59C1333.73 4734.34 1342.39 4735.09 1351.31 4735.86C1357.96 4736.4 1364.61 4736.95 1371.46 4737.51C1371.46 4740.46 1371.46 4743.42 1371.46 4746.46C1324.36 4746.46 1277.25 4746.46 1228.72 4746.46C1231.86 4734.64 1235 4722.82 1238.24 4710.64C1200.56 4710.64 1162.87 4710.64 1124.05 4710.64C1124.05 4707.68 1124.05 4704.73 1124.05 4701.68C1174.95 4696.38 1225 4691.45 1276.3 4692.72Z" fill="#445F8E"/>
<path d="M905.189 4173.26C926.599 4174.38 926.599 4174.38 952.767 4182.22C981.284 4212.69 990.414 4229.88 993.209 4270.66C992.424 4279.9 991.639 4289.13 990.83 4298.65C984.55 4289.78 978.269 4280.92 971.799 4271.78C956.241 4262.37 940.408 4253.33 924.22 4244.91C927.36 4236.05 930.5 4227.18 933.736 4218.04C940.016 4215.09 946.297 4212.13 952.767 4209.09C937.066 4197.27 921.365 4185.44 905.189 4173.26Z" fill="#A1B5D7"/>
<path d="M876.642 4137.44C879.782 4143.35 882.922 4149.26 886.157 4155.35C914.419 4155.35 942.681 4155.35 971.799 4155.35C965.519 4167.17 959.238 4178.99 952.767 4191.17C949.627 4191.17 946.487 4191.17 943.252 4191.17C946.392 4197.09 949.532 4203 952.767 4209.09C941.581 4204.65 941.581 4204.65 930.168 4200.13C886.218 4188.72 845.787 4189.66 800.516 4191.17C800.516 4188.22 800.516 4185.26 800.516 4182.22C825.637 4176.31 850.759 4170.4 876.642 4164.31C876.642 4155.44 876.642 4146.57 876.642 4137.44Z" fill="#C0D7F3"/>
<path d="M886.157 4594.21C895.578 4597.16 904.998 4600.12 914.705 4603.16C902.144 4606.12 889.583 4609.07 876.642 4612.12C876.249 4617.47 875.857 4622.83 875.452 4628.35C862.901 4657.88 839.908 4662.19 810.032 4674.81C803.751 4680.72 797.471 4686.63 791 4692.72C787.86 4680.9 784.72 4669.08 781.484 4656.9C795.352 4648.12 809.232 4639.35 823.116 4630.59C830.843 4625.71 838.571 4620.82 846.533 4615.79C867.126 4603.16 867.126 4603.16 886.157 4594.21Z" fill="#DDDAE2"/>
<path d="M1124.05 4450.91C1152 4454.26 1152 4454.26 1181.14 4459.86C1184.28 4465.77 1187.42 4471.68 1190.66 4477.77C1203.22 4477.77 1215.78 4477.77 1228.72 4477.77C1228.72 4495.51 1228.72 4513.24 1228.72 4531.51C1222.44 4531.51 1216.16 4531.51 1209.69 4531.51C1206.55 4522.64 1203.41 4513.78 1200.18 4504.64C1162.33 4498.07 1162.33 4498.07 1124.05 4495.69C1124.05 4480.91 1124.05 4466.13 1124.05 4450.91Z" fill="#A8B3C9"/>
<path d="M1704.51 4361.34C1726.49 4361.34 1748.47 4361.34 1771.12 4361.34C1777.4 4384.99 1783.68 4408.63 1790.15 4432.99C1761.89 4432.99 1733.63 4432.99 1704.51 4432.99C1704.51 4424.13 1704.51 4415.26 1704.51 4406.12C1720.21 4406.12 1735.91 4406.12 1752.09 4406.12C1752.09 4394.3 1752.09 4382.48 1752.09 4370.3C1736.39 4370.3 1720.69 4370.3 1704.51 4370.3C1704.51 4367.34 1704.51 4364.39 1704.51 4361.34Z" fill="#D2CFD0"/>
<path d="M743.421 3904.58C746.562 3904.58 749.702 3904.58 752.937 3904.58C753.193 3925.29 753.378 3946 753.532 3966.71C753.642 3978.24 753.753 3989.78 753.866 4001.66C752.937 4029.96 752.937 4029.96 743.421 4038.92C739.923 4059.77 736.737 4080.67 733.906 4101.61C749.607 4101.61 765.307 4101.61 781.484 4101.61C781.484 4104.57 781.484 4107.52 781.484 4110.57C759.503 4116.48 737.522 4122.39 714.874 4128.48C716.209 4106.27 717.604 4084.07 719.037 4061.87C719.411 4055.54 719.786 4049.2 720.171 4042.68C723.312 3995.15 723.312 3995.15 733.906 3985.18C736.113 3971.62 737.828 3957.98 739.258 3944.32C740.055 3936.92 740.853 3929.52 741.674 3921.89C742.251 3916.18 742.827 3910.46 743.421 3904.58Z" fill="#7C99B8"/>
<path d="M476.981 3806.06C476.981 3809.01 476.981 3811.97 476.981 3815.01C471.02 3815.45 465.059 3815.89 458.916 3816.34C451.14 3817.01 443.363 3817.68 435.35 3818.37C427.622 3818.99 419.895 3819.62 411.933 3820.26C389.405 3822.44 389.405 3822.44 372.309 3841.88C372.505 3850.75 372.701 3859.61 372.903 3868.75C372.707 3877.62 372.511 3886.48 372.309 3895.62C362.888 3901.53 353.467 3907.44 343.761 3913.53C343.761 3886.93 343.761 3860.33 343.761 3832.92C350.042 3832.92 356.322 3832.92 362.793 3832.92C362.793 3824.06 362.793 3815.19 362.793 3806.06C376.461 3804.3 390.143 3802.64 403.829 3801.02C411.447 3800.08 419.064 3799.15 426.912 3798.18C448.434 3797.1 448.434 3797.1 476.981 3806.06Z" fill="#C3CEDE"/>
<path d="M353.277 4612.12C328.864 4635.1 310.676 4634.87 277.151 4638.99C277.151 4644.9 277.151 4650.81 277.151 4656.9C248.604 4674.81 248.604 4674.81 218.272 4671.45C209.44 4669.61 200.609 4667.76 191.509 4665.86C210.541 4638.99 210.541 4638.99 232.546 4633.95C240.985 4632.66 249.424 4631.36 258.119 4630.03C265.97 4626.89 273.82 4623.75 281.909 4620.51C307.389 4611.52 326.307 4610.67 353.277 4612.12Z" fill="#92A5C8"/>
<path d="M381.823 4477.77C435.207 4477.77 488.59 4477.77 543.591 4477.77C515.044 4504.64 515.044 4504.64 483.114 4507.27C471.081 4506.96 459.047 4506.64 446.649 4506.32C434.542 4506.08 422.436 4505.84 409.962 4505.59C400.676 4505.28 391.391 4504.96 381.823 4504.64C381.823 4495.78 381.823 4486.91 381.823 4477.77Z" fill="#AFC9E5"/>
<path d="M1580.81 4638.99C1605.93 4638.99 1631.05 4638.99 1656.93 4638.99C1656.93 4641.94 1656.93 4644.9 1656.93 4647.94C1634.95 4647.94 1612.97 4647.94 1590.32 4647.94C1590.32 4656.81 1590.32 4665.68 1590.32 4674.81C1596.01 4677.4 1601.7 4679.98 1607.57 4682.65C1628.38 4692.72 1628.38 4692.72 1656.93 4710.64C1656.93 4716.55 1656.93 4722.46 1656.93 4728.55C1618.87 4728.55 1618.87 4728.55 1602.81 4715.11C1598.69 4710.68 1594.57 4706.25 1590.32 4701.68C1587.18 4701.68 1584.04 4701.68 1580.81 4701.68C1580.81 4680.99 1580.81 4660.3 1580.81 4638.99Z" fill="#435476"/>
<path d="M105.868 4513.6C115.289 4516.56 124.709 4519.51 134.415 4522.56C134.415 4540.29 134.415 4558.02 134.415 4576.29C106.154 4576.29 77.8919 4576.29 48.7738 4576.29C51.914 4564.47 55.0542 4552.65 58.2895 4540.47C73.9905 4540.47 89.6914 4540.47 105.868 4540.47C105.868 4531.6 105.868 4522.73 105.868 4513.6Z" fill="#A8B7D7"/>
<path d="M68.9943 4283.54C79.0405 4287.09 79.0405 4287.09 89.2896 4290.71C105.868 4298.65 105.868 4298.65 115.383 4316.56C80.8414 4316.56 46.2993 4316.56 10.7105 4316.56C7.57036 4304.74 4.43017 4292.92 1.19482 4280.74C33.1225 4270.72 38.9808 4272.54 68.9943 4283.54Z" fill="#F5F2F1"/>
<path d="M296.182 3734.41C321.558 3746.35 346.933 3758.29 372.308 3770.23C359.747 3770.23 347.187 3770.23 334.245 3770.23C334.245 3776.14 334.245 3782.05 334.245 3788.14C315.404 3788.14 296.563 3788.14 277.151 3788.14C274.011 3779.28 270.871 3770.41 267.635 3761.27C273.916 3761.27 280.196 3761.27 286.667 3761.27C289.807 3752.41 292.947 3743.54 296.182 3734.41Z" fill="#D4D7DE"/>
<path d="M1333.4 4083.7C1336.54 4089.61 1339.68 4095.52 1342.91 4101.61C1339.77 4107.52 1336.63 4113.43 1333.4 4119.52C1320.84 4119.52 1308.27 4119.52 1295.33 4119.52C1295.33 4125.44 1295.33 4131.35 1295.33 4137.44C1263.93 4137.44 1232.53 4137.44 1200.18 4137.44C1200.18 4131.53 1200.18 4125.61 1200.18 4119.52C1205.81 4119.19 1211.44 4118.85 1217.24 4118.51C1263.04 4114.92 1295.41 4110.22 1333.4 4083.7Z" fill="#E5E8E4"/>
<path d="M153.447 3770.23C159.727 3782.05 166.007 3793.88 172.478 3806.06C141.762 3825.33 131.713 3825.77 96.3523 3823.97C93.2121 3815.1 90.0719 3806.24 86.8365 3797.1C132.036 3770.23 132.036 3770.23 153.447 3770.23Z" fill="#E5E5E5"/>
<path d="M362.793 4316.56C359.652 4337.25 356.512 4357.94 353.277 4379.26C331.295 4382.21 309.314 4385.17 286.667 4388.21C294.149 4377.92 301.695 4367.66 309.267 4357.42C313.462 4351.71 317.657 4345.99 321.979 4340.11C333.819 4326.02 342.526 4316.56 362.793 4316.56Z" fill="#E6E6EC"/>
<path d="M1504.68 3985.18C1523.71 3997.49 1523.71 3997.49 1542.74 4021C1549.68 4066.74 1548.59 4105.93 1523.71 4146.39C1513.31 4107.23 1514.2 4070.17 1514.2 4029.96C1510.07 4004.46 1510.07 4004.46 1504.68 3985.18Z" fill="#687D90"/>
<path d="M840.363 4602.6C848.9 4607.31 848.9 4607.31 857.61 4612.12C830.461 4632.94 804.886 4645.71 771.969 4656.9C768.829 4650.99 765.688 4645.08 762.453 4638.99C768.733 4638.99 775.014 4638.99 781.484 4638.99C782.466 4633.26 783.447 4627.53 784.458 4621.63C786.617 4615.54 788.776 4609.44 791 4603.16C819.547 4594.21 819.547 4594.21 840.363 4602.6Z" fill="#B3B8CD"/>
<path d="M876.642 4612.12C882.922 4615.07 889.202 4618.03 895.673 4621.07C892.533 4635.85 889.393 4650.63 886.157 4665.85C875.363 4668.44 864.569 4671.03 853.447 4673.69C842.26 4677.02 831.073 4680.34 819.547 4683.77C816.407 4689.68 813.267 4695.59 810.032 4701.68C794.331 4701.68 778.63 4701.68 762.453 4701.68C768.733 4698.72 775.014 4695.77 781.484 4692.72C784.625 4686.81 787.765 4680.9 791 4674.81C810.233 4665.17 829.947 4657.09 849.879 4648.82C870.353 4639.54 870.353 4639.54 876.642 4612.12Z" fill="#BEBBCC"/>
<path d="M77.3206 4388.21C102.442 4394.12 127.564 4400.04 153.446 4406.13C144.026 4417.95 134.605 4429.77 124.899 4441.95C134.32 4455.25 134.32 4455.25 143.931 4468.82C134.51 4473.25 134.51 4473.25 124.899 4477.78C124.899 4471.86 124.899 4465.95 124.899 4459.86C118.619 4459.86 112.338 4459.86 105.868 4459.86C77.3206 4408.36 77.3206 4408.36 77.3206 4388.21Z" fill="#BAC4DA"/>
<path d="M686.327 4630.03C676.906 4643.33 676.906 4643.33 667.295 4656.9C648.784 4659.52 648.784 4659.52 628.043 4658.58C615.875 4658.02 603.707 4657.47 591.17 4656.9C594.31 4648.03 597.45 4639.16 600.685 4630.03C629.888 4616.29 654.934 4625.1 686.327 4630.03Z" fill="#788AAF"/>
<path d="M515.044 4621.07C533.481 4628.35 533.481 4628.35 553.107 4638.99C556.247 4647.85 559.387 4656.72 562.623 4665.85C559.482 4671.77 556.342 4677.68 553.107 4683.77C540.546 4683.77 527.985 4683.77 515.044 4683.77C508.764 4671.94 502.483 4660.12 496.012 4647.94C502.293 4639.08 508.573 4630.21 515.044 4621.07Z" fill="#708BBF"/>
<path d="M191.509 4388.21C191.509 4397.08 191.509 4405.95 191.509 4415.08C197.79 4415.08 204.07 4415.08 210.541 4415.08C207.401 4420.99 204.26 4426.9 201.025 4432.99C179.044 4432.99 157.063 4432.99 134.415 4432.99C137.555 4427.08 140.695 4421.17 143.931 4415.08C131.37 4409.17 118.809 4403.26 105.868 4397.17C134.972 4392.3 161.894 4388.21 191.509 4388.21Z" fill="#E6E4E4"/>
<path d="M1733.06 4352.39C1764.46 4352.39 1795.86 4352.39 1828.21 4352.39C1828.21 4358.3 1828.21 4364.21 1828.21 4370.3C1818.79 4370.3 1809.37 4370.3 1799.67 4370.3C1799.67 4388.03 1799.67 4405.77 1799.67 4424.04C1793.39 4421.08 1787.11 4418.13 1780.64 4415.08C1774.69 4387.65 1774.69 4387.65 1771.12 4361.34C1758.56 4358.39 1746 4355.43 1733.06 4352.39Z" fill="#A19EA5"/>
<path d="M400.855 4101.61C419.696 4101.61 438.537 4101.61 457.949 4101.61C451.264 4129.93 443.213 4156.22 429.402 4182.22C409.181 4193.97 409.181 4193.97 391.339 4200.13C397.62 4182.4 403.9 4164.66 410.371 4146.39C416.651 4146.39 422.931 4146.39 429.402 4146.39C429.402 4134.57 429.402 4122.75 429.402 4110.57C419.982 4107.61 410.561 4104.66 400.855 4101.61Z" fill="#D1DAEA"/>
<path d="M1457.1 4415.08C1494.78 4426.9 1532.47 4438.73 1571.29 4450.91C1571.29 4453.86 1571.29 4456.82 1571.29 4459.86C1543.03 4459.86 1514.77 4459.86 1485.65 4459.86C1485.65 4453.95 1485.65 4448.04 1485.65 4441.95C1476.23 4438.99 1466.81 4436.04 1457.1 4432.99C1457.1 4427.08 1457.1 4421.17 1457.1 4415.08Z" fill="#758A9F"/>
<path d="M1477.92 4382.61C1486.75 4384.46 1495.58 4386.31 1504.68 4388.21C1498.79 4392.09 1492.9 4395.97 1486.84 4399.97C1464.53 4415.06 1464.53 4415.06 1447.58 4441.95C1438.16 4427.17 1428.74 4412.39 1419.04 4397.17C1447.58 4379.26 1447.58 4379.26 1477.92 4382.61Z" fill="#90A2BB"/>
<path d="M1352.43 3994.14C1358.71 3994.14 1364.99 3994.14 1371.46 3994.14C1371.46 4029.6 1371.46 4065.07 1371.46 4101.61C1362.04 4101.61 1352.62 4101.61 1342.91 4101.61C1346.05 4066.15 1349.19 4030.68 1352.43 3994.14Z" fill="#D6D1D0"/>
<path d="M1295.33 3931.44C1323.6 3931.44 1351.86 3931.44 1380.97 3931.44C1383.72 3938.65 1386.47 3945.85 1389.3 3953.27C1397.46 3977.41 1397.46 3977.41 1419.04 3985.18C1406.48 3988.14 1393.92 3991.09 1380.97 3994.14C1374.69 3976.4 1368.41 3958.67 1361.94 3940.4C1339.96 3940.4 1317.98 3940.4 1295.33 3940.4C1295.33 3937.44 1295.33 3934.49 1295.33 3931.44Z" fill="#8C9CAD"/>
<path d="M962.283 4289.69C990.831 4298.65 990.831 4298.65 1009.86 4325.52C1009.86 4337.34 1009.86 4349.16 1009.86 4361.34C1000.44 4361.34 991.021 4361.34 981.315 4361.34C969.357 4335.32 962.283 4318.39 962.283 4289.69Z" fill="#DCDEE7"/>
<path d="M1504.68 4235.96C1501.54 4265.51 1498.4 4295.07 1495.16 4325.52C1476.13 4289.69 1476.13 4289.69 1476.13 4253.87C1466.71 4250.91 1457.29 4247.96 1447.58 4244.91C1476.13 4235.96 1476.13 4235.96 1504.68 4235.96Z" fill="#94A8C1"/>
<path d="M524.56 4379.26C527.7 4379.26 530.84 4379.26 534.076 4379.26C535.265 4439.71 535.265 4439.71 524.56 4459.86C505.719 4459.86 486.878 4459.86 467.465 4459.86C476.886 4456.91 486.307 4453.95 496.013 4450.91C496.013 4444.99 496.013 4439.08 496.013 4432.99C502.293 4432.99 508.573 4432.99 515.044 4432.99C514.848 4425.79 514.652 4418.58 514.449 4411.16C515.044 4388.21 515.044 4388.21 524.56 4379.26Z" fill="#EDE9ED"/>
<path d="M743.421 4191.17C740.281 4200.04 737.141 4208.91 733.906 4218.04C709.522 4228.68 709.522 4228.68 686.327 4235.96C680.047 4227.09 673.766 4218.22 667.296 4209.09C698.011 4189.81 708.061 4189.38 743.421 4191.17Z" fill="#EDEBF2"/>
<path d="M952.768 4164.31C981.029 4168.74 981.029 4168.74 1009.86 4173.26C1009.86 4185.09 1009.86 4196.91 1009.86 4209.09C1003.58 4209.09 997.301 4209.09 990.831 4209.09C987.69 4215 984.55 4220.91 981.315 4227C971.894 4206.31 962.474 4185.62 952.768 4164.31Z" fill="#B0D4F6"/>
<path d="M1476.13 3967.27C1485.55 3970.22 1494.97 3973.18 1504.68 3976.22C1511.22 3994.7 1511.22 3994.7 1514.19 4012.05C1481.1 4022.43 1462.25 4018.39 1428.55 4012.05C1444.25 3997.27 1459.96 3982.49 1476.13 3967.27Z" fill="#9CA7BB"/>
<path d="M1419.04 3967.27C1437.88 3967.27 1456.72 3967.27 1476.13 3967.27C1469.85 3979.09 1463.57 3990.91 1457.1 4003.09C1441.4 4003.09 1425.7 4003.09 1409.52 4003.09C1406.38 3997.18 1403.24 3991.27 1400.01 3985.18C1406.29 3985.18 1412.57 3985.18 1419.04 3985.18C1419.04 3979.27 1419.04 3973.36 1419.04 3967.27Z" fill="#CFD1D2"/>
<path d="M543.591 4388.21C546.732 4388.21 549.872 4388.21 553.107 4388.21C556.247 4414.81 559.387 4441.41 562.623 4468.82C546.922 4471.77 531.221 4474.73 515.044 4477.78C524.465 4448.22 533.885 4418.66 543.591 4388.21Z" fill="#C4CCE5"/>
<path d="M1828.21 4361.34C1864.52 4383.39 1864.52 4383.39 1873.41 4407.8C1874.2 4413.16 1874.98 4418.52 1875.79 4424.04C1866.37 4424.04 1856.95 4424.04 1847.25 4424.04C1847.25 4418.13 1847.25 4412.22 1847.25 4406.12C1840.97 4406.12 1834.68 4406.12 1828.21 4406.12C1828.21 4400.21 1828.21 4394.3 1828.21 4388.21C1821.93 4388.21 1815.65 4388.21 1809.18 4388.21C1809.18 4382.3 1809.18 4376.39 1809.18 4370.3C1815.46 4367.34 1821.74 4364.39 1828.21 4361.34Z" fill="#9295B7"/>
<path d="M1019.38 4343.43C1074.09 4351.27 1074.09 4351.27 1095.5 4361.34C1092.36 4367.25 1089.22 4373.17 1085.99 4379.26C1060.87 4379.26 1035.74 4379.26 1009.86 4379.26C1013 4367.43 1016.14 4355.61 1019.38 4343.43Z" fill="#EDEFEE"/>
<path d="M981.315 4638.99C1026.99 4661.03 1026.99 4661.03 1036.62 4685.45C1037.21 4690.8 1037.8 4696.16 1038.41 4701.68C1016.43 4701.68 994.446 4701.68 971.799 4701.68C975.135 4696.32 978.472 4690.97 981.909 4685.45C993.999 4664.89 993.999 4664.89 981.315 4638.99Z" fill="#5774A0"/>
<path d="M429.402 4567.34C432.542 4573.25 435.682 4579.16 438.918 4585.25C451.479 4585.25 464.039 4585.25 476.981 4585.25C476.981 4591.16 476.981 4597.07 476.981 4603.16C445.579 4603.16 414.177 4603.16 381.823 4603.16C393.77 4580.67 405.619 4577.45 429.402 4567.34Z" fill="#A9BAD4"/>
<path d="M-8.32083 4370.3C15.2306 4379.17 15.2306 4379.17 39.2578 4388.21C39.2578 4397.08 39.2578 4405.95 39.2578 4415.08C20.4167 4418.04 1.57553 4420.99 -17.8365 4424.04C-17.8365 4418.13 -17.8365 4412.22 -17.8365 4406.12C-11.5562 4406.12 -5.27579 4406.12 1.1949 4406.12C-1.94529 4394.3 -5.08548 4382.48 -8.32083 4370.3Z" fill="#F0F0ED"/>
<path d="M629.233 4325.52C598.783 4350.08 572.091 4366.99 534.076 4379.26C554.791 4334.26 577.717 4322.9 629.233 4325.52Z" fill="#E7E9F5"/>
<path d="M67.805 4576.29C83.7479 4578.85 99.6242 4581.83 115.384 4585.25C96.3521 4603.16 96.3521 4603.16 67.805 4612.12C64.6648 4618.03 61.5246 4623.94 58.2893 4630.03C52.0089 4630.03 45.7285 4630.03 39.2578 4630.03C57.0998 4586.37 57.0998 4586.37 67.805 4576.29Z" fill="#D2D3E0"/>
<path d="M181.994 4459.86C232.245 4457.13 244.58 4457.02 286.667 4486.73C252.125 4483.77 217.582 4480.82 181.994 4477.77C181.994 4471.86 181.994 4465.95 181.994 4459.86Z" fill="#CED4E2"/>
<path d="M648.264 4173.26C682.806 4176.22 717.348 4179.17 752.937 4182.22C752.937 4185.17 752.937 4188.13 752.937 4191.18C724.676 4197.09 696.414 4203 667.296 4209.09C667.296 4203.18 667.296 4197.27 667.296 4191.18C661.015 4191.18 654.735 4191.18 648.264 4191.18C648.264 4185.26 648.264 4179.35 648.264 4173.26Z" fill="#B6CBE8"/>
<path d="M1200.18 4128.48C1200.18 4134.39 1200.18 4140.3 1200.18 4146.39C1193.41 4152.21 1193.41 4152.21 1186.5 4158.15C1167.69 4177.26 1165.76 4192.63 1162.11 4218.04C1155.83 4215.09 1149.55 4212.13 1143.08 4209.09C1140.7 4188.94 1140.7 4188.94 1143.08 4164.31C1173.94 4128.48 1173.94 4128.48 1200.18 4128.48Z" fill="#F4F0F0"/>
<path d="M248.604 3752.32C261.165 3755.27 273.725 3758.23 286.667 3761.28C286.667 3770.14 286.667 3779.01 286.667 3788.14C289.807 3797.01 292.947 3805.88 296.183 3815.01C280.482 3815.01 264.781 3815.01 248.604 3815.01C251.253 3806.98 251.253 3806.98 253.956 3798.78C260.222 3777.72 260.222 3777.72 248.604 3752.32Z" fill="#E8EAF2"/>
<path d="M134.415 4701.68C120.142 4715.67 120.142 4715.67 96.3523 4728.55C69.9522 4728.26 46.3675 4724.1 20.2266 4719.59C57.3406 4696.31 91.3504 4700.33 134.415 4701.68Z" fill="#6C85B3"/>
<path d="M372.308 3958.31C390.235 3987.56 396.03 4014.57 400.855 4047.87C391.435 4052.31 391.435 4052.31 381.824 4056.83C378.374 4043.79 375.022 4030.72 371.713 4017.65C368.898 4006.74 368.898 4006.74 366.026 3995.61C362.792 3976.22 362.792 3976.22 372.308 3958.31Z" fill="#C9D3E5"/>
<path d="M610.201 4603.16C622.762 4603.16 635.323 4603.16 648.264 4603.16C648.264 4609.07 648.264 4614.98 648.264 4621.07C621.501 4635.07 621.501 4635.07 591.17 4647.94C581.749 4644.99 572.329 4642.03 562.623 4638.99C565.763 4633.07 568.903 4627.16 572.138 4621.07C584.699 4621.07 597.26 4621.07 610.201 4621.07C610.201 4615.16 610.201 4609.25 610.201 4603.16Z" fill="#ACB9D2"/>
<path d="M1866.28 4397.17C1875.7 4401.6 1875.7 4401.6 1885.31 4406.13C1889.25 4424.63 1889.25 4424.63 1891.26 4446.99C1891.97 4454.39 1892.68 4461.79 1893.41 4469.41C1894.11 4477.99 1894.11 4477.99 1894.82 4486.73C1885.4 4483.78 1875.98 4480.82 1866.28 4477.78C1866.28 4451.18 1866.28 4424.58 1866.28 4397.17Z" fill="#8093AE"/>
<path d="M1181.14 4244.91C1187.43 4244.91 1193.71 4244.91 1200.18 4244.91C1198.39 4266.18 1198.39 4266.18 1190.66 4289.69C1166.28 4301.45 1166.28 4301.45 1143.08 4307.6C1146.22 4298.74 1149.36 4289.87 1152.6 4280.74C1158.88 4277.78 1165.16 4274.82 1171.63 4271.78C1174.77 4262.91 1177.91 4254.05 1181.14 4244.91Z" fill="#BECDE4"/>
<path d="M895.673 4209.09C917.654 4209.09 939.635 4209.09 962.283 4209.09C952.767 4227 952.767 4227 924.22 4244.91C903.404 4241.55 903.404 4241.55 886.157 4235.95C889.297 4227.09 892.437 4218.22 895.673 4209.09Z" fill="#B3CBF0"/>
<path d="M1047.92 4674.81C1079.33 4674.81 1110.73 4674.81 1143.08 4674.81C1143.08 4683.68 1143.08 4692.54 1143.08 4701.68C1111.68 4695.77 1080.28 4689.86 1047.92 4683.77C1047.92 4680.81 1047.92 4677.86 1047.92 4674.81Z" fill="#637EAB"/>
<path d="M153.446 4603.16C159.727 4614.98 166.007 4626.81 172.478 4638.99C165.02 4640.09 157.562 4641.2 149.878 4642.34C123.561 4646.07 123.561 4646.07 105.868 4665.85C102.727 4656.99 99.5873 4648.12 96.3519 4638.99C115.193 4633.07 134.034 4627.16 153.446 4621.07C153.446 4615.16 153.446 4609.25 153.446 4603.16Z" fill="#91A4C7"/>
</g>
<defs>
<clipPath id="clip0_18_908">
<rect width="7437" height="5288" fill="white"/>
</clipPath>
</defs>
</svg>
